<svg id="Camada_1" data-name="Camada 1" xmlns="http://www.w3.org/2000/svg" viewBox="0 0 1282 452"><defs><style>.cls-1{fill:#213b44;}.cls-2{fill:#78b5c0;}.cls-3{fill:#3c678f;}</style></defs><title>LogoGRVA_finalgeral_solida</title><path class="cls-1" d="M734.32,363.35q0,27-27.58,27H611.87q-26.8,0-26.8-27V122.15q0-27.2,27.38-27.18h94.29q27.57,0,27.58,27.18v63H689V132.9H630.19V352.41H689V269.74H655.45V232.18h78.87Z"/><path class="cls-1" d="M924.84,390.34H877.79L828,253.13V226.52h44.36V132.9H815.5V390.34H770.38V95H890.13q27.18,0,27.19,27.18V229.54q0,18.69-12.92,24.16-6.95,2.82-29.31,2.83Z"/><path class="cls-1" d="M1102.63,95l-57.85,295.75H999.85L942.19,95h45.32l33.74,202.52q.39,8.67,1.16,25.29-.2-8.68,1.16-25.29L1057.51,95Z"/><path class="cls-1" d="M1281,390.34h-44.74l-9.06-56h-56.5l-9.06,56h-44.55v-.75l58.43-295H1223Zm-60.16-94-22-133.25-22.17,133.25Z"/><polygon class="cls-2" points="225.22 337.68 317.11 390.74 317.11 284.63 225.22 231.58 225.22 337.68"/><polygon class="cls-3" points="317.11 284.63 317.11 390.74 409 337.68 409 231.58 317.11 284.63"/><polygon class="cls-1" points="317.11 284.63 225.22 231.58 317.11 178.53 409 231.58 317.11 284.63"/><path class="cls-3" d="M188.66,358.8h0l32.77-18.93,3.79-2.19V231.58l91.89-53.05V94.59h0L162.36,5.25A34.65,34.65,0,0,0,115,17.93h0a34.65,34.65,0,0,0,12.68,47.33l120.1,69.34-17.32,10L75.73,55.25a34.65,34.65,0,0,0-34.65,60l136.16,78.61a152,152,0,0,0-8.66,15L53,142.14A34.65,34.65,0,0,0,5.65,154.82h0a34.66,34.66,0,0,0,12.68,47.34l134.2,77.47v20L73.19,253.83a34.65,34.65,0,0,0-47.33,12.69h0a34.65,34.65,0,0,0,12.68,47.33l114,65.81Z"/><polygon class="cls-3" points="160.76 384.41 170.59 390.09 170.59 390.09 160.76 384.41"/><path class="cls-2" d="M409,231.58v106.1l72.69,42V54.6c-30.8-17.78-69.3,4.45-69.3,40v55.2c-1.95-1.25-3.92-2.47-5.93-3.64L317.11,94.59v83.94Z"/><path class="cls-1" d="M409,337.68l-91.89,53.05-91.89-53.05-72.69,42,89.34,51.58a150.46,150.46,0,0,0,150.47,0l89.35-51.58Z"/></svg>