<svg id="Camada_1" data-name="Camada 1" xmlns="http://www.w3.org/2000/svg" viewBox="0 0 1282 556"><title>LogoGRVA_secundaria_fundo_claro_desc</title><path d="M610.33,462.62v-5.21l18.8,0v16.46A33.37,33.37,0,0,1,620.2,479a26.53,26.53,0,0,1-9.45,1.74,25.26,25.26,0,0,1-11.87-2.8,18.58,18.58,0,0,1-8.07-8.1,25.42,25.42,0,0,1-2.72-11.83A27.45,27.45,0,0,1,590.8,446a17.94,17.94,0,0,1,7.79-8.33,24.36,24.36,0,0,1,11.71-2.73,23.17,23.17,0,0,1,8.7,1.56,14.49,14.49,0,0,1,6.1,4.34,19.39,19.39,0,0,1,3.36,7.27l-5.3,1.45a16.35,16.35,0,0,0-2.48-5.33,10.24,10.24,0,0,0-4.23-3.1,15.53,15.53,0,0,0-6.12-1.17,18,18,0,0,0-7,1.23,13,13,0,0,0-4.74,3.22,15.65,15.65,0,0,0-2.8,4.39,23.24,23.24,0,0,0-1.69,8.93,21.57,21.57,0,0,0,2.05,9.93,13,13,0,0,0,5.94,5.93,18.42,18.42,0,0,0,8.29,1.93,19.43,19.43,0,0,0,7.44-1.47,18.89,18.89,0,0,0,5.51-3.13v-8.26Z"/><path d="M645.2,480V447.89h4.9v4.86a13.28,13.28,0,0,1,3.47-4.5,6,6,0,0,1,3.5-1.09,10.65,10.65,0,0,1,5.6,1.75L660.79,454a7.81,7.81,0,0,0-4-1.18,5.17,5.17,0,0,0-3.21,1.07,5.85,5.85,0,0,0-2,3,21.07,21.07,0,0,0-.91,6.36V480Z"/><path d="M695.15,480V475.3a11.77,11.77,0,0,1-10.2,5.45,13.07,13.07,0,0,1-5.31-1.09,8.71,8.71,0,0,1-3.67-2.74,10.35,10.35,0,0,1-1.68-4,27.85,27.85,0,0,1-.33-5.08V447.89h5.45V465.7a32.14,32.14,0,0,0,.33,5.76,5.67,5.67,0,0,0,2.18,3.37,6.74,6.74,0,0,0,4.12,1.23,9,9,0,0,0,4.6-1.26,7.06,7.06,0,0,0,3-3.41,17.33,17.33,0,0,0,.89-6.28V447.89H700V480Z"/><path d="M716.73,492.34V447.89h5v4.17a12.22,12.22,0,0,1,4-3.67,10.82,10.82,0,0,1,5.35-1.23,12.72,12.72,0,0,1,7.27,2.11,13,13,0,0,1,4.75,6,21.83,21.83,0,0,1,1.6,8.46,21.54,21.54,0,0,1-1.77,8.89,13.36,13.36,0,0,1-5.14,6,13.17,13.17,0,0,1-7.1,2.11,10.2,10.2,0,0,1-4.89-1.15,11,11,0,0,1-3.55-2.91v15.65Zm4.93-28.21q0,6.21,2.51,9.17a7.72,7.72,0,0,0,6.09,3,7.91,7.91,0,0,0,6.22-3.07q2.58-3.07,2.59-9.52c0-4.09-.85-7.16-2.53-9.2a7.61,7.61,0,0,0-6-3.05,7.85,7.85,0,0,0-6.16,3.25Q721.67,457.94,721.66,464.13Z"/><path d="M757.36,464q0-8.93,5-13.22a14.94,14.94,0,0,1,10.1-3.57,14.38,14.38,0,0,1,10.83,4.34c2.81,2.9,4.22,6.89,4.22,12,0,4.13-.63,7.39-1.87,9.76a13.15,13.15,0,0,1-5.41,5.52,15.8,15.8,0,0,1-7.77,2,14.44,14.44,0,0,1-10.91-4.33Q757.36,472.1,757.36,464Zm5.59,0q0,6.18,2.7,9.25a9,9,0,0,0,13.52,0q2.7-3.09,2.7-9.41c0-4-.91-7-2.71-9a9,9,0,0,0-13.51,0Q763,457.79,763,464Z"/><path d="M848.28,480v-4a10,10,0,0,1-9,4.78,12.59,12.59,0,0,1-7.06-2.12,14,14,0,0,1-5-5.91,20.47,20.47,0,0,1-1.77-8.73,22.91,22.91,0,0,1,1.61-8.74,12.57,12.57,0,0,1,4.81-6,12.78,12.78,0,0,1,7.17-2.09,10.77,10.77,0,0,1,8.87,4.42V435.66h5.41V480Zm-17.22-16q0,6.17,2.6,9.22a7.83,7.83,0,0,0,6.15,3.06,7.71,7.71,0,0,0,6.07-2.92q2.49-2.93,2.49-8.92,0-6.58-2.54-9.68a7.82,7.82,0,0,0-6.26-3.08,7.5,7.5,0,0,0-6.07,3Q831.06,457.6,831.06,464Z"/><path d="M892.08,469.67l5.63.7a13.76,13.76,0,0,1-4.93,7.66,14.87,14.87,0,0,1-9.2,2.72q-7.05,0-11.18-4.34t-4.14-12.19q0-8.1,4.18-12.58a14.14,14.14,0,0,1,10.83-4.48,13.78,13.78,0,0,1,10.54,4.38q4.08,4.4,4.08,12.35c0,.33,0,.81,0,1.46h-24c.2,3.52,1.2,6.23,3,8.11a9,9,0,0,0,6.72,2.81,8.3,8.3,0,0,0,5.11-1.57A10.49,10.49,0,0,0,892.08,469.67Zm-17.88-8.8h17.94a10.93,10.93,0,0,0-2.06-6.09,8.32,8.32,0,0,0-6.74-3.14,8.61,8.61,0,0,0-6.31,2.51A9.89,9.89,0,0,0,874.2,460.87Z"/><path d="M938.92,480V435.66h19.67a26.41,26.41,0,0,1,9,1.19,9.84,9.84,0,0,1,4.92,4.23,12.48,12.48,0,0,1,1.85,6.69,11.16,11.16,0,0,1-3,8q-3.06,3.24-9.45,4.12a14.92,14.92,0,0,1,3.54,2.21,30.12,30.12,0,0,1,4.88,5.9L978,480h-7.39l-5.87-9.23q-2.58-4-4.23-6.11a13.39,13.39,0,0,0-3-3,8.58,8.58,0,0,0-2.68-1.19,17.66,17.66,0,0,0-3.26-.21h-6.81V480Zm5.87-24.78h12.62a19,19,0,0,0,6.29-.83,6.67,6.67,0,0,0,3.45-2.67,7.15,7.15,0,0,0,1.18-4,6.62,6.62,0,0,0-2.28-5.18c-1.53-1.35-3.93-2-7.22-2h-14Z"/><path d="M1013.07,469.67l5.62.7a13.7,13.7,0,0,1-4.92,7.66,14.9,14.9,0,0,1-9.21,2.72q-7,0-11.18-4.34t-4.13-12.19q0-8.1,4.18-12.58a14.11,14.11,0,0,1,10.83-4.48,13.78,13.78,0,0,1,10.54,4.38q4.08,4.4,4.08,12.35c0,.33,0,.81,0,1.46h-24c.2,3.52,1.2,6.23,3,8.11a8.91,8.91,0,0,0,6.71,2.81,8.33,8.33,0,0,0,5.12-1.57A10.56,10.56,0,0,0,1013.07,469.67Zm-17.89-8.8h18a11,11,0,0,0-2.06-6.09,8.32,8.32,0,0,0-6.75-3.14,8.64,8.64,0,0,0-6.31,2.51A9.94,9.94,0,0,0,995.18,460.87Z"/><path d="M1054.69,476.06a20.47,20.47,0,0,1-5.83,3.63,16.77,16.77,0,0,1-6,1.06c-3.52,0-6.24-.86-8.14-2.59a8.57,8.57,0,0,1-2.84-6.61,8.88,8.88,0,0,1,3.89-7.44,13.11,13.11,0,0,1,3.92-1.79,37.33,37.33,0,0,1,4.84-.81,49.5,49.5,0,0,0,9.71-1.89c0-.74,0-1.21,0-1.42,0-2.22-.51-3.77-1.54-4.69q-2.09-1.85-6.2-1.84c-2.57,0-4.45.45-5.68,1.34a8.27,8.27,0,0,0-2.7,4.77l-5.33-.73a13.17,13.17,0,0,1,2.39-5.52,10.42,10.42,0,0,1,4.81-3.23,21.16,21.16,0,0,1,7.3-1.14,19.38,19.38,0,0,1,6.68,1,8.73,8.73,0,0,1,3.78,2.44,8.56,8.56,0,0,1,1.7,3.7,30.91,30.91,0,0,1,.27,5v7.26a77.3,77.3,0,0,0,.35,9.61,11.92,11.92,0,0,0,1.38,3.86h-5.69A11.4,11.4,0,0,1,1054.69,476.06Zm-.46-12.17a39.38,39.38,0,0,1-8.89,2.06,20.21,20.21,0,0,0-4.76,1.09,4.75,4.75,0,0,0-2.14,1.77,4.81,4.81,0,0,0,.89,6.22,7.09,7.09,0,0,0,4.83,1.45,11.26,11.26,0,0,0,5.6-1.38,8.48,8.48,0,0,0,3.6-3.76,13.31,13.31,0,0,0,.87-5.45Z"/><path d="M1076.25,480V435.66h5.44V480Z"/><path d="M1098.35,441.92v-6.26h5.44v6.26Zm0,38.1V447.89h5.44V480Z"/><path d="M1141.11,480v-4a10,10,0,0,1-9,4.78,12.61,12.61,0,0,1-7.06-2.12,14,14,0,0,1-5-5.91,20.32,20.32,0,0,1-1.77-8.73,22.9,22.9,0,0,1,1.6-8.74,12.63,12.63,0,0,1,4.81-6,12.81,12.81,0,0,1,7.17-2.09,10.74,10.74,0,0,1,8.87,4.42V435.66h5.42V480Zm-17.22-16q0,6.17,2.6,9.22a7.83,7.83,0,0,0,6.15,3.06,7.71,7.71,0,0,0,6.07-2.92q2.49-2.93,2.49-8.92,0-6.58-2.54-9.68a7.82,7.82,0,0,0-6.26-3.08,7.52,7.52,0,0,0-6.07,3C1124.71,456.61,1123.89,459.73,1123.89,464Z"/><path d="M1183.88,476.06a20.57,20.57,0,0,1-5.82,3.63,16.77,16.77,0,0,1-6,1.06q-5.29,0-8.14-2.59a8.53,8.53,0,0,1-2.84-6.61,8.88,8.88,0,0,1,3.89-7.44,12.94,12.94,0,0,1,3.91-1.79,37.33,37.33,0,0,1,4.84-.81,49.79,49.79,0,0,0,9.72-1.89c0-.74,0-1.21,0-1.42,0-2.22-.51-3.77-1.54-4.69q-2.1-1.85-6.21-1.84-3.84,0-5.67,1.34a8.22,8.22,0,0,0-2.71,4.77l-5.33-.73a13.3,13.3,0,0,1,2.4-5.52,10.37,10.37,0,0,1,4.81-3.23,21.1,21.1,0,0,1,7.29-1.14,19.48,19.48,0,0,1,6.69,1,8.79,8.79,0,0,1,3.78,2.44,8.55,8.55,0,0,1,1.69,3.7,30.57,30.57,0,0,1,.28,5v7.26a78.12,78.12,0,0,0,.34,9.61,11.92,11.92,0,0,0,1.38,3.86H1185A11.4,11.4,0,0,1,1183.88,476.06Zm-.45-12.17a39.5,39.5,0,0,1-8.9,2.06,20.09,20.09,0,0,0-4.75,1.09,4.78,4.78,0,0,0-2.15,1.77,4.7,4.7,0,0,0-.76,2.59,4.65,4.65,0,0,0,1.66,3.63,7,7,0,0,0,4.82,1.45,11.2,11.2,0,0,0,5.6-1.38,8.48,8.48,0,0,0,3.6-3.76,13.28,13.28,0,0,0,.88-5.45Z"/><path d="M1226.41,480v-4a10,10,0,0,1-9,4.78,12.59,12.59,0,0,1-7.06-2.12,14,14,0,0,1-5-5.91,20.47,20.47,0,0,1-1.77-8.73,22.91,22.91,0,0,1,1.61-8.74,12.57,12.57,0,0,1,4.81-6,12.78,12.78,0,0,1,7.17-2.09,10.77,10.77,0,0,1,8.87,4.42V435.66h5.41V480Zm-17.22-16q0,6.17,2.6,9.22a7.83,7.83,0,0,0,6.15,3.06,7.71,7.71,0,0,0,6.07-2.92q2.49-2.93,2.49-8.92,0-6.58-2.54-9.68a7.82,7.82,0,0,0-6.26-3.08,7.5,7.5,0,0,0-6.07,3Q1209.19,457.6,1209.19,464Z"/><path d="M1270.21,469.67l5.63.7a13.76,13.76,0,0,1-4.93,7.66,14.9,14.9,0,0,1-9.21,2.72q-7,0-11.18-4.34t-4.12-12.19c0-5.4,1.38-9.59,4.17-12.58a14.11,14.11,0,0,1,10.83-4.48,13.78,13.78,0,0,1,10.54,4.38q4.08,4.4,4.08,12.35c0,.33,0,.81,0,1.46h-24c.2,3.52,1.2,6.23,3,8.11a8.91,8.91,0,0,0,6.71,2.81,8.33,8.33,0,0,0,5.12-1.57A10.56,10.56,0,0,0,1270.21,469.67Zm-17.89-8.8h18a10.93,10.93,0,0,0-2.06-6.09,8.32,8.32,0,0,0-6.75-3.14,8.64,8.64,0,0,0-6.31,2.51A10,10,0,0,0,1252.32,460.87Z"/><path d="M602.25,554.39,585.07,510h6.35L603,542.26q1.38,3.87,2.33,7.26,1-3.63,2.39-7.26l12-32.23h6l-17.37,44.36Z"/><path d="M636.75,516.29V510h5.44v6.26Zm0,38.1V522.26h5.44v32.13Z"/><path d="M658.05,554.39V522.26H663v4.87a13.11,13.11,0,0,1,3.46-4.51,6,6,0,0,1,3.5-1.09,10.64,10.64,0,0,1,5.6,1.76l-1.88,5.05a7.75,7.75,0,0,0-4-1.18,5.16,5.16,0,0,0-3.2,1.07,5.87,5.87,0,0,0-2,3,21.11,21.11,0,0,0-.91,6.36v16.82Z"/><path d="M698.26,549.52l.78,4.81a20.22,20.22,0,0,1-4.11.48,9.27,9.27,0,0,1-4.6-.93,5.3,5.3,0,0,1-2.3-2.47q-.66-1.53-.66-6.43V526.49h-4v-4.23h4v-8l5.41-3.26v11.23h5.48v4.23h-5.48v18.8a9.47,9.47,0,0,0,.29,3,2.34,2.34,0,0,0,.94,1.06,3.63,3.63,0,0,0,1.86.39A18,18,0,0,0,698.26,549.52Z"/><path d="M732.27,554.39v-4.72a11.74,11.74,0,0,1-10.2,5.45,13.14,13.14,0,0,1-5.31-1.09,8.64,8.64,0,0,1-3.65-2.74,10.36,10.36,0,0,1-1.69-4,27.85,27.85,0,0,1-.33-5.08V522.26h5.45v17.82a32.09,32.09,0,0,0,.33,5.75,5.64,5.64,0,0,0,2.18,3.37,6.73,6.73,0,0,0,4.11,1.23,9,9,0,0,0,4.61-1.26,7.06,7.06,0,0,0,3-3.41,17.33,17.33,0,0,0,.89-6.28V522.26h5.45v32.13Z"/><path d="M774.27,550.43a20.08,20.08,0,0,1-5.82,3.63,16.77,16.77,0,0,1-6,1.06q-5.3,0-8.14-2.59a8.53,8.53,0,0,1-2.84-6.61,8.94,8.94,0,0,1,3.88-7.44,13.06,13.06,0,0,1,3.93-1.79,38.83,38.83,0,0,1,4.84-.81,50.58,50.58,0,0,0,9.71-1.88c0-.75,0-1.22,0-1.43,0-2.22-.52-3.77-1.55-4.69-1.38-1.22-3.45-1.84-6.2-1.84q-3.84,0-5.67,1.34a8.28,8.28,0,0,0-2.71,4.77l-5.32-.72a13,13,0,0,1,2.39-5.53,10.42,10.42,0,0,1,4.81-3.23,21.1,21.1,0,0,1,7.29-1.14,19.38,19.38,0,0,1,6.68,1,8.77,8.77,0,0,1,3.79,2.44,8.56,8.56,0,0,1,1.7,3.7,31,31,0,0,1,.27,5v7.25a78.12,78.12,0,0,0,.34,9.61,12.4,12.4,0,0,0,1.38,3.86h-5.69A11.62,11.62,0,0,1,774.27,550.43Zm-.45-12.17a39.5,39.5,0,0,1-8.9,2.06,20.61,20.61,0,0,0-4.75,1.09,4.7,4.7,0,0,0-2.14,1.77,4.82,4.82,0,0,0,.88,6.22,7.09,7.09,0,0,0,4.83,1.45,11.2,11.2,0,0,0,5.6-1.38,8.37,8.37,0,0,0,3.6-3.76,13.12,13.12,0,0,0,.88-5.45Z"/><path d="M795.27,554.39V510h5.45v44.36Z"/><path d="M863.62,544l5.63.7a13.76,13.76,0,0,1-4.93,7.66,14.85,14.85,0,0,1-9.2,2.72q-7.05,0-11.18-4.34t-4.13-12.19q0-8.1,4.18-12.58a14.11,14.11,0,0,1,10.83-4.48,13.75,13.75,0,0,1,10.53,4.38q4.1,4.4,4.09,12.35c0,.33,0,.81,0,1.46h-24q.3,5.29,3,8.11a9,9,0,0,0,6.72,2.81,8.33,8.33,0,0,0,5.12-1.57A10.38,10.38,0,0,0,863.62,544Zm-17.88-8.8h18a11,11,0,0,0-2.06-6.09,8.37,8.37,0,0,0-6.75-3.14,8.63,8.63,0,0,0-6.31,2.51A9.91,9.91,0,0,0,845.74,535.24Z"/><path d="M901,554.39,918,510h6.33l18.15,44.36H935.8L930.62,541H912.07l-4.87,13.43Zm12.81-18.21h15l-4.62-12.29q-2.13-5.6-3.15-9.2a58.23,58.23,0,0,1-2.39,8.47Z"/><path d="M975.16,554.39v-4.72A11.74,11.74,0,0,1,965,555.12a13.07,13.07,0,0,1-5.31-1.09,8.71,8.71,0,0,1-3.67-2.74,10.2,10.2,0,0,1-1.68-4,27.85,27.85,0,0,1-.33-5.08V522.26h5.45v17.82a32.09,32.09,0,0,0,.33,5.75,5.64,5.64,0,0,0,2.18,3.37,6.73,6.73,0,0,0,4.11,1.23,8.92,8.92,0,0,0,4.6-1.26,7,7,0,0,0,3-3.41,17.08,17.08,0,0,0,.9-6.28V522.26H980v32.13Z"/><path d="M996.19,554.39V522.26h4.87v4.5a11.63,11.63,0,0,1,4-3.79,11.28,11.28,0,0,1,5.72-1.44,10.59,10.59,0,0,1,5.86,1.48,8,8,0,0,1,3.22,4.15q3.81-5.62,9.93-5.63,4.77,0,7.35,2.64t2.57,8.17v22h-5.42V534.15a15,15,0,0,0-.53-4.71,4.49,4.49,0,0,0-1.92-2.31,6,6,0,0,0-3.27-.88,7.6,7.6,0,0,0-5.62,2.25c-1.5,1.51-2.24,3.91-2.24,7.22v18.67h-5.45V533.51a9.14,9.14,0,0,0-1.34-5.44,5,5,0,0,0-4.35-1.82,8,8,0,0,0-4.26,1.21,6.91,6.91,0,0,0-2.82,3.54,19.78,19.78,0,0,0-.88,6.72v16.67Z"/><path d="M1077.44,544l5.63.7a13.76,13.76,0,0,1-4.93,7.66,14.89,14.89,0,0,1-9.2,2.72q-7.05,0-11.18-4.34t-4.13-12.19q0-8.1,4.17-12.58a14.14,14.14,0,0,1,10.84-4.48,13.75,13.75,0,0,1,10.53,4.38q4.08,4.4,4.08,12.35c0,.33,0,.81,0,1.46h-24q.3,5.29,3,8.11a8.92,8.92,0,0,0,6.72,2.81,8.3,8.3,0,0,0,5.11-1.57A10.39,10.39,0,0,0,1077.44,544Zm-17.88-8.8h17.94a10.93,10.93,0,0,0-2-6.09,8.38,8.38,0,0,0-6.75-3.14,8.66,8.66,0,0,0-6.32,2.51A10,10,0,0,0,1059.56,535.24Z"/><path d="M1097.53,554.39V522.26h4.9v4.57a11.54,11.54,0,0,1,10.23-5.3,13.49,13.49,0,0,1,5.34,1,8.56,8.56,0,0,1,3.65,2.74,10.57,10.57,0,0,1,1.7,4,31.4,31.4,0,0,1,.3,5.29v19.76h-5.45V534.84a14.74,14.74,0,0,0-.63-5,5.31,5.31,0,0,0-2.26-2.64,7.21,7.21,0,0,0-3.8-1,8.81,8.81,0,0,0-6,2.21q-2.52,2.2-2.52,8.38v17.55Z"/><path d="M1151.52,549.52l.79,4.81a20.47,20.47,0,0,1-4.12.48,9.27,9.27,0,0,1-4.6-.93,5.25,5.25,0,0,1-2.3-2.47c-.45-1-.66-3.16-.66-6.43V526.49h-4v-4.23h4v-8L1146,511v11.23h5.48v4.23H1146v18.8a9.47,9.47,0,0,0,.29,3,2.29,2.29,0,0,0,.94,1.06,3.63,3.63,0,0,0,1.86.39A17.82,17.82,0,0,0,1151.52,549.52Z"/><path d="M1185.44,550.43a20.25,20.25,0,0,1-5.83,3.63,16.72,16.72,0,0,1-6,1.06c-3.53,0-6.25-.86-8.14-2.59a8.54,8.54,0,0,1-2.85-6.61,9,9,0,0,1,3.89-7.44,13.11,13.11,0,0,1,3.92-1.79,38.83,38.83,0,0,1,4.84-.81A50.89,50.89,0,0,0,1185,534c0-.75,0-1.22,0-1.43,0-2.22-.52-3.77-1.55-4.69-1.39-1.22-3.46-1.84-6.21-1.84-2.55,0-4.45.45-5.67,1.34a8.28,8.28,0,0,0-2.71,4.77l-5.32-.72a13.16,13.16,0,0,1,2.39-5.53,10.42,10.42,0,0,1,4.81-3.23,21.14,21.14,0,0,1,7.29-1.14,19.4,19.4,0,0,1,6.69,1,8.83,8.83,0,0,1,3.79,2.44,8.55,8.55,0,0,1,1.69,3.7,31,31,0,0,1,.27,5v7.25a77.3,77.3,0,0,0,.35,9.61,12.13,12.13,0,0,0,1.37,3.86h-5.68A11.4,11.4,0,0,1,1185.44,550.43Zm-.45-12.17a39.77,39.77,0,0,1-8.9,2.06,20.61,20.61,0,0,0-4.75,1.09,4.73,4.73,0,0,0-2.15,1.77,4.81,4.81,0,0,0,.89,6.22,7.09,7.09,0,0,0,4.83,1.45,11.17,11.17,0,0,0,5.59-1.38,8.37,8.37,0,0,0,3.6-3.76,13.1,13.1,0,0,0,.89-5.45Z"/><path d="M1227.41,554.39v-4a10,10,0,0,1-9,4.78,12.59,12.59,0,0,1-7.06-2.12,14,14,0,0,1-5-5.91,20.47,20.47,0,0,1-1.77-8.73,22.82,22.82,0,0,1,1.61-8.73,12.55,12.55,0,0,1,4.81-6,12.78,12.78,0,0,1,7.17-2.09,10.77,10.77,0,0,1,8.87,4.42V510h5.41v44.36Zm-17.22-16c0,4.11.87,7.19,2.6,9.22a7.83,7.83,0,0,0,6.15,3.06,7.71,7.71,0,0,0,6.07-2.92q2.49-2.93,2.49-8.91,0-6.6-2.54-9.68a7.8,7.8,0,0,0-6.26-3.09,7.53,7.53,0,0,0-6.07,3Q1210.19,532,1210.19,538.36Z"/><path d="M1269.62,550.43a20.34,20.34,0,0,1-5.82,3.63,16.77,16.77,0,0,1-6,1.06q-5.3,0-8.14-2.59a8.53,8.53,0,0,1-2.84-6.61,8.94,8.94,0,0,1,3.88-7.44,13.11,13.11,0,0,1,3.92-1.79,39.17,39.17,0,0,1,4.84-.81,50.72,50.72,0,0,0,9.72-1.88c0-.75,0-1.22,0-1.43,0-2.22-.52-3.77-1.54-4.69-1.4-1.22-3.47-1.84-6.21-1.84q-3.84,0-5.67,1.34a8.22,8.22,0,0,0-2.71,4.77l-5.33-.72a13,13,0,0,1,2.4-5.53,10.37,10.37,0,0,1,4.81-3.23,21.06,21.06,0,0,1,7.29-1.14,19.48,19.48,0,0,1,6.69,1,8.79,8.79,0,0,1,3.78,2.44,8.55,8.55,0,0,1,1.69,3.7,30.63,30.63,0,0,1,.28,5v7.25a78.12,78.12,0,0,0,.34,9.61,11.92,11.92,0,0,0,1.38,3.86h-5.69A11.4,11.4,0,0,1,1269.62,550.43Zm-.45-12.17a39.5,39.5,0,0,1-8.9,2.06,20.61,20.61,0,0,0-4.75,1.09,4.78,4.78,0,0,0-2.15,1.77,4.81,4.81,0,0,0,.89,6.22,7.09,7.09,0,0,0,4.83,1.45,11.2,11.2,0,0,0,5.6-1.38,8.48,8.48,0,0,0,3.6-3.76,13.28,13.28,0,0,0,.88-5.45Z"/><path d="M734.32,363.64q0,27-27.58,27H611.87q-26.8,0-26.8-27V122.43q0-27.18,27.38-27.18h94.29q27.59,0,27.58,27.18v63H689V133.18H630.19V352.69H689V270H655.45V232.46h78.87Z"/><path d="M924.84,390.62H877.79L828,253.41V226.8h44.35V133.18H815.5V390.62H770.38V95.25H890.13q27.18,0,27.19,27.18V229.82q0,18.69-12.92,24.16-6.95,2.84-29.31,2.83Z"/><path d="M1102.63,95.25,1044.78,391H999.85L942.19,95.25h45.32l33.74,202.52q.39,8.67,1.16,25.29-.2-8.69,1.16-25.29l33.94-202.52Z"/><path d="M1281,390.62h-44.74l-9.06-56.05h-56.5l-9.06,56.05h-44.55v-.75l58.43-295H1223Zm-60.16-94-22-133.25-22.17,133.25Z"/><path d="M401.75,342.15l-77.4,44.69V289.09L409,240.22v89.39l72.7,42V54.89c-30.8-17.79-69.3,4.44-69.3,40v55.2c-1.94-1.25-3.92-2.47-5.93-3.63L335.18,105.3l-10.83-6.25V183l77.41,44.7-84.65,48.87-84.65-48.87L309.87,183V90.69L162.36,5.53a34.65,34.65,0,0,0-34.65,60l120.1,69.34-17.32,10L75.73,55.53a34.65,34.65,0,0,0-34.65,60l136.16,78.61a152,152,0,0,0-8.66,15L53,142.42a34.65,34.65,0,0,0-34.65,60l134.2,77.47v20l-79.34-45.8a34.65,34.65,0,1,0-34.65,60l106.75,61.63,79.93-46.15V240.22l84.65,48.87v97.75l-77.4-44.69-72.7,42,10.82,6.25h0l71.28,41.15a150.46,150.46,0,0,0,150.47,0l82.11-47.4Z"/></svg>