<?xml version="1.0" encoding="UTF-8" standalone="no"?>
<svg
   xmlns:dc="http://purl.org/dc/elements/1.1/"
   xmlns:cc="http://creativecommons.org/ns#"
   xmlns:rdf="http://www.w3.org/1999/02/22-rdf-syntax-ns#"
   xmlns:svg="http://www.w3.org/2000/svg"
   xmlns="http://www.w3.org/2000/svg"
   xmlns:sodipodi="http://sodipodi.sourceforge.net/DTD/sodipodi-0.dtd"
   xmlns:inkscape="http://www.inkscape.org/namespaces/inkscape"
   width="50pt"
   height="50pt"
   viewBox="0 0 50 50"
   version="1.1"
   id="svg43"
   sodipodi:docname="grva-wireframe-color.svg"
   inkscape:version="0.92.3 (2405546, 2018-03-11)">
  <metadata
     id="metadata49">
    <rdf:RDF>
      <cc:Work
         rdf:about="">
        <dc:format>image/svg+xml</dc:format>
        <dc:type
           rdf:resource="http://purl.org/dc/dcmitype/StillImage" />
        <dc:title></dc:title>
      </cc:Work>
    </rdf:RDF>
  </metadata>
  <defs
     id="defs47" />
  <sodipodi:namedview
     pagecolor="#ffffff"
     bordercolor="#666666"
     borderopacity="1"
     objecttolerance="10"
     gridtolerance="10"
     guidetolerance="10"
     inkscape:pageopacity="0"
     inkscape:pageshadow="2"
     inkscape:window-width="1920"
     inkscape:window-height="1016"
     id="namedview45"
     showgrid="false"
     inkscape:zoom="10.012632"
     inkscape:cx="45.73735"
     inkscape:cy="27.290205"
     inkscape:window-x="0"
     inkscape:window-y="27"
     inkscape:window-maximized="1"
     inkscape:current-layer="svg43" />
  <path
     style="fill:#16578a;fill-opacity:1;stroke:none;stroke-width:0.53266048;stroke-miterlimit:4;stroke-dasharray:none"
     d="m 32.395478,37.061004 c -1.956291,-0.524117 -3.594222,-0.990272 -3.639849,-1.035898 -0.142286,-0.142287 1.817862,-7.351549 1.998835,-7.351549 0.0982,0 6.709307,1.77867 7.033169,1.892223 0.229135,0.08034 -0.540555,3.368779 -1.485005,6.344564 l -0.350259,1.103601 z"
     id="path4653"
     inkscape:connector-curvature="0"
     transform="scale(0.75000003)" />
  <path
     style="fill:#16578a;fill-opacity:1;stroke:none;stroke-width:0.26633024;stroke-miterlimit:4;stroke-dasharray:none"
     d="m 29.732568,46.829564 c -1.730315,-0.46386 -3.165036,-0.860491 -3.188271,-0.881402 -0.09077,-0.08169 1.30057,-6.971248 1.43498,-7.105657 0.04986,-0.04986 7.136019,1.831707 7.221935,1.917624 0.06322,0.06322 -2.152644,6.828604 -2.252826,6.878238 -0.03839,0.01902 -1.485504,-0.344943 -3.215818,-0.808803 z"
     id="path4655"
     inkscape:connector-curvature="0"
     transform="scale(0.75000003)" />
  <path
     style="fill:#16578a;fill-opacity:1;stroke:none;stroke-width:0.26633024;stroke-miterlimit:4;stroke-dasharray:none"
     d="m 27.490914,55.184659 c -1.205444,-0.324424 -2.211197,-0.609343 -2.235007,-0.633152 -0.08593,-0.08593 0.658775,-5.643882 0.772967,-5.768869 0.07608,-0.08328 5.696549,1.387713 5.843754,1.529429 0.05641,0.05431 -0.05721,0.470933 -0.290502,1.065195 -0.576129,1.467587 -1.758777,4.263225 -1.833658,4.334549 -0.03621,0.03449 -1.05211,-0.202729 -2.257554,-0.527152 z"
     id="path4657"
     inkscape:connector-curvature="0"
     transform="scale(0.75000003)" />
  <path
     style="fill:#16578a;fill-opacity:1;stroke:none;stroke-width:0.26633024;stroke-miterlimit:4;stroke-dasharray:none"
     d="m 25.787551,61.248821 -0.798991,-0.224793 -0.0274,-1.731234 c -0.01507,-0.952179 0.009,-1.767677 0.05358,-1.812218 0.04454,-0.04454 0.83657,0.120653 1.760065,0.367099 0.923494,0.246446 1.701098,0.448084 1.728009,0.448084 0.06654,0 -1.014915,2.020776 -1.429767,2.671625 -0.183817,0.288386 -0.368479,0.520263 -0.410359,0.515284 -0.04188,-0.005 -0.435692,-0.110211 -0.875137,-0.233847 z"
     id="path4659"
     inkscape:connector-curvature="0"
     transform="scale(0.75000003)" />
  <path
     style="fill:#16578a;fill-opacity:1;stroke:none;stroke-width:0.26633024;stroke-miterlimit:4;stroke-dasharray:none"
     d="m 34.944547,26.886872 c -1.88491,-0.511392 -3.448465,-0.951161 -3.474567,-0.977263 -0.05268,-0.05268 1.233356,-4.097219 1.849176,-5.815594 0.216542,-0.604237 0.430717,-1.091644 0.475944,-1.083128 0.119935,0.02258 6.153869,1.633653 6.287459,1.678761 0.119983,0.04051 0.05148,0.445478 -0.625733,3.698942 -0.647534,3.110893 -0.737308,3.446506 -0.919339,3.436867 -0.09121,-0.0048 -1.708031,-0.427193 -3.59294,-0.938585 z"
     id="path4661"
     inkscape:connector-curvature="0"
     transform="scale(0.75000003)" />
  <path
     style="fill:#16578a;fill-opacity:1;stroke:none;stroke-width:0.26633024;stroke-miterlimit:4;stroke-dasharray:none"
     d="m 37.547738,17.163457 c -1.551766,-0.420626 -2.821412,-0.813578 -2.821436,-0.873228 -5.9e-5,-0.150847 1.49559,-3.830926 1.908458,-4.695802 l 0.338661,-0.709429 2.197224,0.595277 c 1.208474,0.327402 2.215473,0.612459 2.237776,0.633461 0.05286,0.04977 -0.131284,1.620399 -0.464319,3.960357 -0.216202,1.519068 -0.295642,1.870889 -0.420747,1.863386 -0.08482,-0.0051 -1.42385,-0.353396 -2.975617,-0.774022 z"
     id="path4663"
     inkscape:connector-curvature="0"
     transform="scale(0.75000003)" />
  <path
     style="fill:#16578a;fill-opacity:1;stroke:none;stroke-width:0.26633024;stroke-miterlimit:4;stroke-dasharray:none"
     d="M 40.019573,8.8650645 C 39.27801,8.6587062 38.544891,8.4588294 38.390421,8.4208938 l -0.280856,-0.068974 0.470331,-0.8704366 c 0.596979,-1.104822 1.246336,-2.2109234 1.327288,-2.2608717 0.03435,-0.021194 0.44447,0.06254 0.91138,0.1860753 l 0.848927,0.2246097 0.02722,1.8132034 c 0.02525,1.6820428 0.01442,1.8125726 -0.149811,1.8044824 -0.09737,-0.0048 -0.783766,-0.1775597 -1.525329,-0.3839181 z"
     id="path4665"
     inkscape:connector-curvature="0"
     transform="scale(0.75000003)" />
  <path
     style="fill:#16578a;fill-opacity:1;stroke:none;stroke-width:0.37664786;stroke-miterlimit:4;stroke-dasharray:none"
     d="M 33.652834,7.0607013 32.404136,6.6766535 33.370348,5.8926189 c 0.531417,-0.431219 1.33278,-1.0249154 1.780808,-1.3193254 0.779876,-0.5124757 0.838457,-0.528142 1.374419,-0.3675638 l 0.559823,0.167727 -0.809447,1.5457584 c -0.629052,1.2012678 -0.872403,1.5435048 -1.091933,1.5356462 -0.155368,-0.00556 -0.8444,-0.1829337 -1.531184,-0.39416 z"
     id="path4667"
     inkscape:connector-curvature="0"
     transform="scale(0.75000003)" />
  <path
     style="fill:#16578a;fill-opacity:1;stroke:none;stroke-width:0.37664786;stroke-miterlimit:4;stroke-dasharray:none"
     d="m 29.322436,14.862574 c -1.437147,-0.414254 -2.662604,-0.769701 -2.723239,-0.789881 -0.213427,-0.07103 2.849045,-4.3663915 3.495826,-4.9031721 0.17923,-0.1487472 0.542983,-0.086426 2.088045,0.3577435 1.029054,0.2958285 1.8965,0.5570316 1.927658,0.5804516 0.04523,0.03399 -2.079542,5.454226 -2.154645,5.49644 -0.01136,0.0064 -1.196498,-0.327327 -2.633645,-0.741582 z"
     id="path4669"
     inkscape:connector-curvature="0"
     transform="scale(0.75000003)" />
  <path
     style="fill:#16578a;fill-opacity:1;stroke:none;stroke-width:0.37664786;stroke-miterlimit:4;stroke-dasharray:none"
     d="m 25.155769,24.218981 c -2.769484,-0.778083 -3.102155,-0.902907 -3.059612,-1.148023 0.149354,-0.860522 2.804632,-6.459057 3.059612,-6.451056 0.506241,0.01588 5.856625,1.664493 5.804708,1.788599 -0.03455,0.08258 -0.552032,1.627904 -1.149968,3.434048 -0.843602,2.548208 -1.13871,3.280038 -1.317276,3.266667 -0.126566,-0.0095 -1.628424,-0.410083 -3.337464,-0.890235 z"
     id="path4671"
     inkscape:connector-curvature="0"
     transform="scale(0.75000003)" />
  <path
     style="fill:#16578a;fill-opacity:1;stroke:none;stroke-width:0.37664786;stroke-miterlimit:4;stroke-dasharray:none"
     d="m 22.260289,34.420843 c -1.747881,-0.465537 -3.204344,-0.872117 -3.236583,-0.903513 -0.09128,-0.08889 0.937054,-4.225503 1.486771,-5.980741 0.406662,-1.298463 0.536158,-1.564164 0.733418,-1.50484 0.131757,0.03962 1.669642,0.463385 3.417524,0.941688 1.747881,0.478303 3.193822,0.883366 3.213201,0.900139 0.01938,0.01677 -0.36911,1.518878 -0.863308,3.338011 -0.494198,1.819134 -0.94029,3.482303 -0.991316,3.695933 -0.05916,0.247704 -0.181343,0.383226 -0.337257,0.374086 -0.134466,-0.0079 -1.674569,-0.395226 -3.42245,-0.860763 z"
     id="path4673"
     inkscape:connector-curvature="0"
     transform="scale(0.75000003)" />
  <path
     style="fill:#16578a;fill-opacity:1;stroke:none;stroke-width:0.37664786;stroke-miterlimit:4;stroke-dasharray:none"
     d="m 20.521324,44.438565 -2.798287,-0.71572 0.08724,-1.282662 c 0.120374,-1.769914 0.496023,-5.299978 0.611707,-5.748359 l 0.09537,-0.369651 3.248588,0.844084 c 1.786723,0.464245 3.296582,0.888329 3.355242,0.942407 0.05866,0.05408 -0.173276,1.429566 -0.515412,3.056641 -0.342137,1.627074 -0.663139,3.196665 -0.713338,3.487978 -0.06517,0.378188 -0.160127,0.525563 -0.332045,0.515331 -0.132426,-0.0079 -1.500004,-0.336403 -3.039062,-0.730049 z"
     id="path4675"
     inkscape:connector-curvature="0"
     transform="scale(0.75000003)" />
  <path
     style="fill:#16578a;fill-opacity:1;stroke:none;stroke-width:0.37664786;stroke-miterlimit:4;stroke-dasharray:none"
     d="m 20.282888,53.345843 c -0.971045,-0.235211 -1.785133,-0.445097 -1.809083,-0.466413 -0.168129,-0.149637 -0.834622,-6.088562 -0.698556,-6.224629 0.06396,-0.06396 5.297114,1.270538 5.404862,1.378285 0.04715,0.04715 -0.0924,1.363711 -0.310109,2.925699 -0.317671,2.279215 -0.437862,2.837484 -0.608703,2.827347 -0.117081,-0.0069 -1.007366,-0.205078 -1.978411,-0.440289 z"
     id="path4677"
     inkscape:connector-curvature="0"
     transform="scale(0.75000003)" />
  <path
     style="fill:#16578a;fill-opacity:1;stroke:none;stroke-width:0.37664786;stroke-miterlimit:4;stroke-dasharray:none"
     d="m 21.514272,60.194339 c -0.259629,-0.03917 -0.50893,-0.235612 -0.734939,-0.57912 -0.422204,-0.6417 -1.540917,-3.406636 -1.425178,-3.522374 0.04642,-0.04642 0.727236,0.06735 1.512924,0.252828 l 1.428523,0.337229 -0.08727,0.92375 c -0.048,0.508062 -0.08773,1.320996 -0.08828,1.806518 -5.52e-4,0.485523 -0.04867,0.873245 -0.106936,0.861606 -0.05826,-0.01164 -0.282742,-0.04784 -0.498842,-0.08044 z"
     id="path4679"
     inkscape:connector-curvature="0"
     transform="scale(0.75000003)" />
  <path
     style="fill:#16578a;fill-opacity:1;stroke:none;stroke-width:0.37664786;stroke-miterlimit:4;stroke-dasharray:none"
     d="m 16.233524,57.587721 c -0.94507,-1.1908 -1.808316,-2.498133 -1.712689,-2.59376 0.03589,-0.03589 0.42542,0.0071 0.865628,0.09549 0.573342,0.115144 0.801105,0.225323 0.802936,0.388416 0.0014,0.125222 0.217381,0.863269 0.479942,1.640105 0.262562,0.776837 0.457206,1.433796 0.432543,1.45991 -0.02466,0.02611 -0.415425,-0.419458 -0.86836,-0.990161 z"
     id="path4681"
     inkscape:connector-curvature="0"
     transform="scale(0.75000003)" />
  <path
     style="fill:#16578a;fill-opacity:1;stroke:none;stroke-width:0.37664786;stroke-miterlimit:4;stroke-dasharray:none"
     d="m 14.703792,52.102407 c -0.233051,-0.06446 -0.777444,-0.187917 -1.209763,-0.27434 l -0.786034,-0.157133 -0.537137,-1.443148 c -0.652641,-1.753477 -1.519789,-5.097376 -1.338855,-5.162901 0.118698,-0.04299 3.958417,0.7932 4.046416,0.881199 0.0205,0.0205 0.09922,0.956249 0.174914,2.079432 0.0757,1.123184 0.201549,2.484403 0.279667,3.024931 0.07812,0.540529 0.143291,1.030449 0.14483,1.088712 0.0034,0.128639 -0.213315,0.118349 -0.774038,-0.03675 z"
     id="path4683"
     inkscape:connector-curvature="0"
     transform="scale(0.75000003)" />
  <path
     style="fill:#16578a;fill-opacity:1;stroke:none;stroke-width:0.37664786;stroke-miterlimit:4;stroke-dasharray:none"
     d="m 12.496614,42.519118 -2.207178,-0.508324 -0.08702,-0.920987 c -0.110472,-1.169258 -0.09021,-5.212576 0.03088,-6.161313 l 0.09196,-0.720552 2.728662,0.707458 c 2.544229,0.65964 2.723649,0.727437 2.654487,1.003038 -0.157071,0.625905 -0.518021,3.90226 -0.60441,5.486258 -0.05852,1.073014 -0.145244,1.65309 -0.24536,1.641175 -0.08517,-0.01014 -1.148078,-0.247175 -2.362026,-0.526753 z"
     id="path4685"
     inkscape:connector-curvature="0"
     transform="scale(0.75000003)" />
  <path
     style="fill:#16578a;fill-opacity:1;stroke:none;stroke-width:0.37664786;stroke-miterlimit:4;stroke-dasharray:none"
     d="m 13.501551,32.143295 c -1.513909,-0.388694 -2.773722,-0.722869 -2.799585,-0.74261 -0.07347,-0.05608 0.381174,-2.24918 0.773643,-3.731865 0.557777,-2.107192 1.200863,-3.955247 1.374551,-3.950084 0.510601,0.01518 5.379619,1.522075 5.352053,1.65639 -0.01796,0.0875 -0.313885,1.131967 -0.657615,2.321029 -0.34373,1.189062 -0.774706,2.835114 -0.957725,3.657893 l -0.332761,1.495963 z"
     id="path4687"
     inkscape:connector-curvature="0"
     transform="scale(0.75000003)" />
  <path
     style="fill:#16578a;fill-opacity:1;stroke:none;stroke-width:0.37664786;stroke-miterlimit:4;stroke-dasharray:none"
     d="m 16.551446,21.82945 c -1.391982,-0.400635 -2.557367,-0.808267 -2.589743,-0.905849 -0.144631,-0.435912 3.449133,-6.531617 3.850759,-6.531617 0.164532,0 4.326917,1.259235 4.413249,1.335128 0.01982,0.01743 -0.400446,0.947669 -0.933933,2.067205 -0.533487,1.119536 -1.214617,2.655223 -1.513623,3.412638 -0.299005,0.757416 -0.577888,1.371225 -0.619739,1.364021 -0.04185,-0.0072 -1.214988,-0.340891 -2.60697,-0.741526 z"
     id="path4691"
     inkscape:connector-curvature="0"
     transform="scale(0.75000003)" />
  <path
     style="fill:#16578a;fill-opacity:1;stroke:none;stroke-width:0.37664786;stroke-miterlimit:4;stroke-dasharray:none"
     d="m 21.422232,12.539939 c -0.965875,-0.304604 -1.772701,-0.570389 -1.792947,-0.590635 -0.199883,-0.199883 4.683239,-4.7607102 5.097131,-4.7607102 0.134829,0 1.6115,0.4674212 2.435345,0.7708778 0.102748,0.037846 -0.273737,0.6573232 -0.953097,1.5682489 -0.617613,0.8281305 -1.415659,1.9753535 -1.773437,2.5493845 -0.493691,0.792095 -0.72359,1.040434 -0.953682,1.030175 -0.166747,-0.0074 -1.093438,-0.262738 -2.059313,-0.567341 z"
     id="path4693"
     inkscape:connector-curvature="0"
     transform="scale(0.75000003)" />
  <path
     style="fill:#16578a;fill-opacity:1;stroke:none;stroke-width:0.37664786;stroke-miterlimit:4;stroke-dasharray:none"
     d="M 28.686539,5.5317699 C 28.298288,5.4200136 27.93108,5.2812191 27.870522,5.2233376 c -0.06056,-0.057881 0.575034,-0.4249562 1.412429,-0.8157219 1.757988,-0.8203554 2.428544,-1.0927921 2.501403,-1.0162821 0.02845,0.029877 -0.498088,0.5694165 -1.170087,1.198976 L 29.39245,5.7349632 Z"
     id="path4695"
     inkscape:connector-curvature="0"
     transform="scale(0.75000003)" />
  <path
     style="fill:#16578a;fill-opacity:1;stroke:none;stroke-width:0.37664786;stroke-miterlimit:4;stroke-dasharray:none"
     d="m 15.763114,10.708393 c -0.42726,-0.150217 -0.859529,-0.303721 -0.960597,-0.341121 -0.359389,-0.132989 2.847353,-2.7420699 5.087156,-4.1390297 0.843953,-0.5263713 0.988296,-0.5735458 1.308504,-0.4276491 0.357819,0.1630331 0.351075,0.1723516 -1.160457,1.6032896 -0.836203,0.7916168 -1.926508,1.9250709 -2.4229,2.5187869 -0.496393,0.5937153 -0.941308,1.0748393 -0.988701,1.0691633 -0.04739,-0.0057 -0.435745,-0.133224 -0.863005,-0.28344 z"
     id="path4697"
     inkscape:connector-curvature="0"
     transform="scale(0.75000003)" />
  <path
     style="fill:#16578a;fill-opacity:1;stroke:none;stroke-width:0.37664786;stroke-miterlimit:4;stroke-dasharray:none"
     d="M 9.3814912,19.779211 C 8.7070507,19.571639 8.1118193,19.358392 8.0587547,19.305327 7.8114046,19.057977 10.204534,15.331986 12.199348,12.858614 l 0.268413,-0.332804 1.047394,0.372227 c 0.576066,0.204725 1.126005,0.39984 1.222085,0.433589 0.113246,0.03978 -0.121442,0.519279 -0.667239,1.363259 -0.463061,0.716044 -1.323629,2.243784 -1.912374,3.394978 -0.76484,1.495519 -1.138883,2.089322 -1.310163,2.079916 -0.131845,-0.0072 -0.791532,-0.182997 -1.4659728,-0.390568 z"
     id="path4699"
     inkscape:connector-curvature="0"
     transform="scale(0.75000003)" />
  <path
     style="fill:#16578a;fill-opacity:1;stroke:none;stroke-width:0.37664786;stroke-miterlimit:4;stroke-dasharray:none"
     d="M 6.2549527,30.353586 C 5.4145885,30.135266 4.7004882,29.930111 4.6680632,29.897686 4.4657157,29.695339 5.5564582,25.159929 6.297231,23.123453 l 0.4460178,-1.226158 0.6610624,0.201864 c 0.3635843,0.111026 1.0424184,0.306781 1.5085201,0.435013 0.4661017,0.128231 0.9007813,0.280199 0.9659548,0.337706 0.065173,0.05751 -0.1356455,0.890217 -0.4462643,1.850467 -0.5959902,1.842451 -1.2129491,4.259918 -1.3737676,5.382915 -0.052842,0.368998 -0.1365293,0.665137 -0.1859715,0.658088 -0.049442,-0.007 -0.7774657,-0.191442 -1.61783,-0.409762 z"
     id="path4701"
     inkscape:connector-curvature="0"
     transform="scale(0.75000003)" />
  <path
     style="fill:#16578a;fill-opacity:1;stroke:none;stroke-width:0.37664786;stroke-miterlimit:4;stroke-dasharray:none"
     d="M 5.9467296,41.129026 C 5.4029443,41.012996 4.9307714,40.891717 4.8974565,40.859516 4.6955198,40.664336 4.4458668,38.205296 4.369715,35.661351 4.294288,33.141612 4.310787,32.718873 4.4819962,32.784572 c 0.1103859,0.04236 0.8513474,0.222288 1.6465813,0.399843 l 1.4458795,0.322826 -0.107649,0.717795 c -0.059207,0.394787 -0.107649,2.16377 -0.107649,3.931072 0,2.768616 -0.029318,3.211243 -0.2118645,3.198579 -0.1165254,-0.0081 -0.6567796,-0.109631 -1.2005649,-0.225661 z"
     id="path4703"
     inkscape:connector-curvature="0"
     transform="scale(0.75000003)" />
  <path
     style="fill:#16578a;fill-opacity:1;stroke:none;stroke-width:0.37664786;stroke-miterlimit:4;stroke-dasharray:none"
     d="M 8.1937862,50.183502 C 7.2844818,48.557514 5.4681552,44.131387 5.6397817,43.95976 c 0.08575,-0.08575 1.949872,0.33645 2.0633799,0.467329 0.057365,0.06614 0.2467684,0.848073 0.4208971,1.73762 0.1741286,0.889548 0.5340658,2.334807 0.7998603,3.211687 0.2657943,0.876881 0.4832626,1.626824 0.4832626,1.66654 0,0.03972 -0.1557876,0.07221 -0.3461948,0.07221 -0.2797825,0 -0.4461417,-0.178722 -0.8672006,-0.931645 z"
     id="path4705"
     inkscape:connector-curvature="0"
     transform="scale(0.75000003)" />
  <path
     style="fill:#53c136;fill-opacity:1;stroke:none;stroke-width:0.37664786;stroke-miterlimit:4;stroke-dasharray:none"
     d="M 45.812549,10.336822 44.43543,9.9810825 44.436277,9.3263636 c 0.0018,-1.4096547 0.181164,-2.9607829 0.336951,-2.914295 0.0861,0.025694 0.331124,0.084961 0.544489,0.1317051 0.305757,0.066985 0.489003,0.2864097 0.865024,1.0358083 0.39936,0.7959105 1.218791,2.865266 1.218791,3.077881 0,0.08713 -0.04772,0.0775 -1.588983,-0.320641 z"
     id="path4707"
     inkscape:connector-curvature="0"
     transform="scale(0.75000003)" />
  <path
     style="fill:#53c136;fill-opacity:1;stroke:none;stroke-width:0.37664786;stroke-miterlimit:4;stroke-dasharray:none"
     d="m 46.059724,19.358604 -2.542373,-0.658711 0.0071,-0.564972 c 0.007,-0.556766 0.612412,-5.186371 0.688119,-5.262078 0.02141,-0.02141 0.93317,0.168194 2.026131,0.421342 l 1.987202,0.460271 0.235028,1.526223 c 0.307749,1.998457 0.472905,4.765056 0.283488,4.748829 -0.07828,-0.0067 -1.286394,-0.308612 -2.684699,-0.670904 z"
     id="path4709"
     inkscape:connector-curvature="0"
     transform="scale(0.75000003)" />
  <path
     style="fill:#53c136;fill-opacity:1;stroke:none;stroke-width:0.37664786;stroke-miterlimit:4;stroke-dasharray:none"
     d="m 44.788538,29.47824 c -1.786724,-0.470131 -3.273557,-0.877384 -3.304074,-0.905007 -0.03052,-0.02762 0.01535,-0.385425 0.101938,-0.795115 0.08658,-0.40969 0.411976,-1.977521 0.723098,-3.484068 0.311122,-1.506547 0.588719,-2.762219 0.616884,-2.790383 0.02816,-0.02816 1.389755,0.282855 3.025758,0.691153 l 2.974552,0.742361 -0.0636,1.059322 c -0.159346,2.653897 -0.59272,6.363303 -0.741436,6.346226 -0.04649,-0.0053 -1.546392,-0.394358 -3.333115,-0.864489 z"
     id="path4711"
     inkscape:connector-curvature="0"
     transform="scale(0.75000003)" />
  <path
     style="fill:#53c136;fill-opacity:1;stroke:none;stroke-width:0.37664786;stroke-miterlimit:4;stroke-dasharray:none"
     d="m 42.118965,39.73563 c -1.779,-0.49724 -3.259626,-0.929154 -3.290281,-0.959809 -0.03066,-0.03066 0.289294,-1.318754 0.710998,-2.862442 0.421704,-1.543689 0.848476,-3.175073 0.948381,-3.6253 0.0999,-0.450226 0.228862,-0.847775 0.286572,-0.883442 0.05771,-0.03567 1.635515,0.332701 3.506235,0.818594 l 3.401307,0.883442 -0.08951,0.49435 c -0.403109,2.226234 -1.823525,7.067285 -2.068666,7.050413 -0.09377,-0.0065 -1.626034,-0.418566 -3.405033,-0.915806 z"
     id="path4713"
     inkscape:connector-curvature="0"
     transform="scale(0.75000003)" />
  <path
     style="fill:#53c136;fill-opacity:1;stroke:none;stroke-width:0.37664786;stroke-miterlimit:4;stroke-dasharray:none"
     d="m 38.715091,49.292828 c -1.475989,-0.438964 -2.762394,-0.828221 -2.858678,-0.865017 -0.124822,-0.0477 0.145141,-1.032714 0.94068,-3.432251 0.613658,-1.850943 1.14444,-3.394048 1.179514,-3.429123 0.0649,-0.0649 6.254162,1.600285 6.550224,1.762304 0.113396,0.06206 0.03657,0.406594 -0.25598,1.147988 -0.603748,1.530046 -2.622307,5.652879 -2.757439,5.631967 -0.06309,-0.0098 -1.322332,-0.376904 -2.798321,-0.815868 z"
     id="path4715"
     inkscape:connector-curvature="0"
     transform="scale(0.75000003)" />
  <path
     style="fill:#53c136;fill-opacity:1;stroke:none;stroke-width:0.37664786;stroke-miterlimit:4;stroke-dasharray:none"
     d="m 34.431601,57.141789 c -1.695619,-0.519298 -1.875515,-0.605123 -1.813359,-0.865125 0.07943,-0.332274 1.859956,-4.711201 2.033733,-5.001659 0.09375,-0.156703 0.615782,-0.0515 2.760271,0.556267 1.454559,0.412235 2.644653,0.808197 2.644653,0.879914 0,0.307124 -3.472351,5.052867 -3.672316,5.01904 -0.03884,-0.0066 -0.917684,-0.271367 -1.952982,-0.588437 z"
     id="path4717"
     inkscape:connector-curvature="0"
     transform="scale(0.75000003)" />
  <path
     style="fill:#53c136;fill-opacity:1;stroke:none;stroke-width:0.37664786;stroke-miterlimit:4;stroke-dasharray:none"
     d="m 29.922718,62.410181 c -0.174788,-0.07026 -0.317796,-0.148565 -0.317796,-0.17402 0,-0.02546 0.349569,-0.678965 0.776821,-1.452246 0.427251,-0.773281 0.796432,-1.464798 0.820401,-1.536705 0.05037,-0.151107 2.922552,0.618135 2.922552,0.782732 0,0.129241 -2.112342,1.793105 -2.824859,2.225103 -0.52876,0.320587 -0.869892,0.359016 -1.377119,0.155136 z"
     id="path4719"
     inkscape:connector-curvature="0"
     transform="scale(0.75000003)" />
  <path
     style="fill:#53c136;fill-opacity:1;stroke:none;stroke-width:0.37664786;stroke-miterlimit:4;stroke-dasharray:none"
     d="M 40.904357,59.150425 C 40.32173,58.940101 39.734592,58.736599 39.599606,58.6982 c -0.200643,-0.05708 -0.03961,-0.345793 0.882476,-1.582177 0.620348,-0.831799 1.420632,-1.982022 1.77841,-2.556053 0.357777,-0.574031 0.709564,-1.043693 0.781748,-1.043693 0.07218,0 1.015881,0.265091 2.097106,0.58909 l 1.965864,0.589089 -0.721764,0.833143 c -0.782905,0.903719 -2.585934,2.582312 -3.713553,3.457263 l -0.706214,0.547972 z"
     id="path4721"
     inkscape:connector-curvature="0"
     transform="scale(0.75000003)" />
  <path
     style="fill:#53c136;fill-opacity:1;stroke:none;stroke-width:0.37664786;stroke-miterlimit:4;stroke-dasharray:none"
     d="m 46.719804,51.675731 c -1.190628,-0.372016 -2.192101,-0.703715 -2.225495,-0.737109 -0.03339,-0.03339 0.343404,-0.913057 0.837328,-1.954807 0.493925,-1.04175 1.171371,-2.569723 1.505437,-3.395494 l 0.607393,-1.501403 0.931922,0.263899 c 2.945675,0.834148 4.277691,1.235334 4.353605,1.311249 0.193043,0.193043 -2.693613,5.346848 -3.561987,6.359532 l -0.283424,0.330526 z"
     id="path4723"
     inkscape:connector-curvature="0"
     transform="scale(0.75000003)" />
  <path
     style="fill:#53c136;fill-opacity:1;stroke:none;stroke-width:0.37664786;stroke-miterlimit:4;stroke-dasharray:none"
     d="m 50.932605,42.184502 c -1.359463,-0.388294 -2.488294,-0.720604 -2.508514,-0.738465 -0.02022,-0.01786 0.158028,-0.662118 0.396105,-1.431682 0.394849,-1.276313 1.246646,-4.549373 1.47606,-5.671806 0.0516,-0.252472 0.168222,-0.458286 0.259154,-0.457365 0.09093,9.2e-4 1.341178,0.309592 2.778325,0.685937 l 2.612995,0.684263 -0.04306,0.479317 c -0.07441,0.828293 -0.707167,3.371356 -1.322931,5.316887 -0.515035,1.627273 -0.630429,1.869344 -0.884353,1.855186 -0.160616,-0.009 -1.404317,-0.333978 -2.763781,-0.722272 z"
     id="path4725"
     inkscape:connector-curvature="0"
     transform="scale(0.75000003)" />
  <path
     style="fill:#53c136;fill-opacity:1;stroke:none;stroke-width:0.37664786;stroke-miterlimit:4;stroke-dasharray:none"
     d="m 53.640022,31.766745 c -1.424056,-0.376218 -2.617236,-0.712076 -2.651511,-0.746351 -0.03428,-0.03428 0.03341,-0.691172 0.150413,-1.459771 0.117003,-0.768599 0.288401,-2.414402 0.380886,-3.65734 0.09248,-1.242938 0.172985,-2.268717 0.178892,-2.279509 0.0059,-0.01079 1.059468,0.217375 2.341248,0.50704 l 2.330508,0.526663 0.08839,0.97601 c 0.187958,2.075489 0.08655,6.855148 -0.144849,6.827441 -0.04663,-0.0056 -1.24992,-0.317965 -2.673977,-0.694183 z"
     id="path4727"
     inkscape:connector-curvature="0"
     transform="scale(0.75000003)" />
  <path
     style="fill:#53c136;fill-opacity:1;stroke:none;stroke-width:0.37664786;stroke-miterlimit:4;stroke-dasharray:none"
     d="m 55.381758,21.583119 c -0.233051,-0.05755 -1.170551,-0.277945 -2.083333,-0.489779 l -1.659605,-0.385152 -0.0025,-1.216012 c -0.0023,-1.134695 -0.124234,-2.62252 -0.355866,-4.343715 l -0.09778,-0.726574 1.318564,0.27045 c 0.72521,0.148748 1.371617,0.323503 1.436459,0.388345 0.373372,0.373372 2.030668,5.944566 1.911981,6.427346 -0.03094,0.125862 -0.17116,0.148364 -0.467911,0.07509 z"
     id="path4729"
     inkscape:connector-curvature="0"
     transform="scale(0.75000003)" />
  <path
     style="fill:#53c136;fill-opacity:1;stroke:none;stroke-width:0.37664786;stroke-miterlimit:4;stroke-dasharray:none"
     d="M 51.14447,11.550013 50.579498,11.42191 50.05849,9.7674088 C 49.771935,8.8574334 49.558454,8.0919351 49.584088,8.0663016 c 0.06647,-0.066465 2.149535,2.7188314 2.409873,3.2222694 0.248869,0.48126 0.194189,0.498088 -0.849491,0.261442 z"
     id="path4731"
     inkscape:connector-curvature="0"
     transform="scale(0.75000003)" />
  <path
     style="fill:#53c136;fill-opacity:1;stroke:none;stroke-width:0.37664786;stroke-miterlimit:4;stroke-dasharray:none"
     d="m 59.790731,22.517651 c -0.449359,-0.0983 -0.835512,-0.203011 -0.858118,-0.232702 -0.02261,-0.02969 -0.20913,-0.880253 -0.414495,-1.890141 -0.205366,-1.009887 -0.590315,-2.51942 -0.855443,-3.354519 l -0.482051,-1.518362 h 0.314552 c 0.173003,0 0.415811,0.111891 0.539573,0.248646 0.380297,0.420224 2.03354,3.976826 2.559864,5.507004 0.561569,1.632647 0.614872,1.550422 -0.803882,1.240074 z"
     id="path4733"
     inkscape:connector-curvature="0"
     transform="scale(0.75000003)" />
  <path
     style="fill:#53c136;fill-opacity:1;stroke:none;stroke-width:0.37664786;stroke-miterlimit:4;stroke-dasharray:none"
     d="m 60.565082,33.50451 -1.455095,-0.351536 0.113287,-1.011851 c 0.06231,-0.556518 0.108727,-2.334754 0.103155,-3.951634 -0.01001,-2.904961 -0.0067,-2.938937 0.282486,-2.868288 0.160939,0.03932 0.716878,0.148816 1.235419,0.24332 l 0.942803,0.171824 0.148042,0.860305 c 0.454498,2.64119 0.622077,7.301167 0.261551,7.273128 -0.0971,-0.0076 -0.831347,-0.171923 -1.631648,-0.365268 z"
     id="path4735"
     inkscape:connector-curvature="0"
     transform="scale(0.75000003)" />
  <path
     style="fill:#53c136;fill-opacity:1;stroke:none;stroke-width:0.37664786;stroke-miterlimit:4;stroke-dasharray:none"
     d="m 58.34786,44.310565 c -0.776837,-0.231681 -1.46464,-0.47158 -1.528452,-0.533107 -0.06381,-0.06153 0.144129,-0.930422 0.462091,-1.930875 0.317962,-1.000453 0.784475,-2.744277 1.036694,-3.875164 l 0.45858,-2.056158 1.619371,0.405993 c 0.890654,0.223296 1.631114,0.417736 1.645467,0.43209 0.07392,0.07392 -0.555724,3.171762 -0.867743,4.269293 -0.470307,1.654316 -1.212686,3.740239 -1.324967,3.722873 -0.04874,-0.0075 -0.724205,-0.203263 -1.501041,-0.434945 z"
     id="path4737"
     inkscape:connector-curvature="0"
     transform="scale(0.75000003)" />
  <path
     style="fill:#53c136;fill-opacity:1;stroke:none;stroke-width:0.37664786;stroke-miterlimit:4;stroke-dasharray:none"
     d="m 52.910006,53.697654 c -0.582627,-0.198711 -1.076363,-0.37493 -1.097191,-0.391596 -0.02083,-0.01667 0.378194,-0.691228 0.886715,-1.499025 0.508522,-0.807797 1.351834,-2.326773 1.874028,-3.375501 0.522193,-1.048729 0.963104,-1.931035 0.979802,-1.96068 0.0382,-0.06781 2.788199,0.695903 3.018624,0.838314 0.393729,0.243337 -3.930634,6.801587 -4.458007,6.760932 -0.07956,-0.0061 -0.621343,-0.173732 -1.203971,-0.372444 z"
     id="path4739"
     inkscape:connector-curvature="0"
     transform="scale(0.75000003)" />
  <path
     style="fill:#53c136;fill-opacity:1;stroke:none;stroke-width:0.37664786;stroke-miterlimit:4;stroke-dasharray:none"
     d="m 45.447085,60.851938 c -0.312664,-0.125301 -0.233266,-0.227705 1.498838,-1.933138 1.005945,-0.990455 2.109315,-2.138533 2.451933,-2.551284 l 0.622942,-0.750456 1.018804,0.377635 1.018804,0.377635 -0.674058,0.606036 c -0.844328,0.759124 -2.00527,1.693328 -2.923494,2.352521 -0.676745,0.485836 -2.582506,1.680939 -2.650793,1.662313 -0.01805,-0.0049 -0.181392,-0.06849 -0.362976,-0.141262 z"
     id="path4741"
     inkscape:connector-curvature="0"
     transform="scale(0.75000003)" />
  <path
     style="fill:#53c136;fill-opacity:1;stroke:none;stroke-width:0.37664786;stroke-miterlimit:4;stroke-dasharray:none"
     d="m 35.976256,62.138603 c 0.651839,-0.617891 1.285069,-1.126365 1.407177,-1.129944 0.122108,-0.0036 0.524838,0.09668 0.894957,0.222789 l 0.672942,0.229294 -0.400606,0.264946 c -0.473593,0.313216 -3.325315,1.536352 -3.581981,1.536352 -0.09771,0 0.355671,-0.505547 1.007511,-1.123437 z"
     id="path4743"
     inkscape:connector-curvature="0"
     transform="scale(0.75000003)" />
</svg>
