<?xml version="1.0" encoding="UTF-8" standalone="no"?>
<svg
   xmlns:dc="http://purl.org/dc/elements/1.1/"
   xmlns:cc="http://creativecommons.org/ns#"
   xmlns:rdf="http://www.w3.org/1999/02/22-rdf-syntax-ns#"
   xmlns:svg="http://www.w3.org/2000/svg"
   xmlns="http://www.w3.org/2000/svg"
   xmlns:sodipodi="http://sodipodi.sourceforge.net/DTD/sodipodi-0.dtd"
   xmlns:inkscape="http://www.inkscape.org/namespaces/inkscape"
   width="50pt"
   height="50pt"
   viewBox="0 0 50 50"
   version="1.1"
   id="svg31"
   sodipodi:docname="grva-wireframe2.svg"
   inkscape:version="0.92.4 (5da689c313, 2019-01-14)">
  <metadata
     id="metadata37">
    <rdf:RDF>
      <cc:Work
         rdf:about="">
        <dc:format>image/svg+xml</dc:format>
        <dc:type
           rdf:resource="http://purl.org/dc/dcmitype/StillImage" />
        <dc:title></dc:title>
      </cc:Work>
    </rdf:RDF>
  </metadata>
  <defs
     id="defs35" />
  <sodipodi:namedview
     pagecolor="#ffffff"
     bordercolor="#666666"
     borderopacity="1"
     objecttolerance="10"
     gridtolerance="10"
     guidetolerance="10"
     inkscape:pageopacity="0"
     inkscape:pageshadow="2"
     inkscape:window-width="1920"
     inkscape:window-height="1017"
     id="namedview33"
     showgrid="false"
     showguides="true"
     inkscape:guide-bbox="true"
     inkscape:zoom="3.54"
     inkscape:cx="30.165597"
     inkscape:cy="34.574475"
     inkscape:window-x="1912"
     inkscape:window-y="-8"
     inkscape:window-maximized="1"
     inkscape:current-layer="svg31" />
  <path
     inkscape:connector-curvature="0"
     id="path2"
     d="m 37.496731,3.3615654 v 0 m 0,0 v 0 m 0,0 v 0 m 0,0 v 0 m 0,0 v 0 m 0,0 v 0 m 0,0 v 0 m 0,0 v 0 m 0,0 v 0 m 0,0 v 0 m 0,0 v 0 m 0,0 v 0 m 0,0 v 0 m 0,0 v 0 m 0,0 v 0 m 0,0 v 0 m 0,0 v 0 m 0,0 v 0 m 0,0 v 0 m 0,0 v 0 m 0,0 v 0 m 0,0 v 0 m 0,0 v 0 m 0,0 v 0 m 0,0 v 0 m 0,0 v 0 m 0,0 v 0 m 0,0 v 0 m 0,0 v 0 m 0,0 v 0 m 0,0 v 0 m 0,0 v 0 m 0,0 v 0 m 0,0 v 0 m 0,0 v 0 m 0,0 v 0 m 0,0 v 0 m 0,0 v 0 m 0,0 v 0 m 0,0 v 0 m 0,0 v 0 m 0,0 v 0 m 0,0 v 0 m 0,0 v 0 m 0,0 v 0 m 0,0 v 0 m 0,0 v 0 m 0,0 v 0 m 0,0 v 0 m 0,0 v 0 m 0,0 v 0 m 0,0 v 0 m 0,0 v 0 m 0,0 v 0 m 0,0 v 0 m 0,0 v 0 m 0,0 v 0 m 0,0 v 0 m 0,0 v 0 m 0,0 v 0 m 0,0 v 0 m 0,0 v 0 m 0,0 v 0 m 0,0 v 0 m 0,0 v 0 m 0,0 v 0 m 0,0 v 0 m 0,0 v 0 m 0,0 v 0 m 0,0 v 0 m 0,0 v 0 m 0,0 v 0 m 0,0 v 0 m 0,0 v 0 m 0,0 v 0 m 0,0 v 0 m 0,0 v 0 m 0,0 v 0 m 0,0 v 0 m 0,0 v 0 m 0,0 v 0 m 0,0 v 0 m 0,0 v 0 m 0,0 v 0 m 0,0 v 0 m 0,0 v 0 m 0,0 v 0 m 0,0 v 0 m 0,0 v 0 m 0,0 v 0 m 0,0 v 0 m 0,0 v 0 m 0,0 v 0 m 0,0 v 0 m 0,0 v 0 m 0,0 v 0 m 0,0 v 0 m 0,0 v 0 m 0,0 v 0"
     style="fill:#1d5687;fill-opacity:1;stroke:#000000;stroke-width:2;stroke-linecap:butt;stroke-linejoin:miter;stroke-miterlimit:10;stroke-dasharray:none;stroke-opacity:1" />
  <path
     inkscape:connector-curvature="0"
     id="path14"
     d="m 12.496731,46.662836 v 0 m 0,0 v 0 m 0,0 v 0 m 0,0 v 0 m 0,0 v 0 m 0,0 v 0 m 0,0 v 0 m 0,0 v 0 m 0,0 v 0 m 0,0 v 0 m 0,0 v 0 m 0,0 v 0 m 0,0 v 0 m 0,0 v 0 m 0,0 v 0 m 0,0 v 0 m 0,0 v 0 m 0,0 v 0 m 0,0 v 0 m 0,0 v 0 m 0,0 v 0 m 0,0 v 0 m 0,0 v 0 m 0,0 v 0 m 0,0 v 0 m 0,0 v 0 m 0,0 v 0 m 0,0 v 0 m 0,0 v 0 m 0,0 v 0 m 0,0 v 0 m 0,0 v 0 m 0,0 v 0 m 0,0 v 0 m 0,0 v 0 m 0,0 v 0 m 0,0 v 0 m 0,0 v 0 m 0,0 v 0 m 0,0 v 0 m 0,0 v 0 m 0,0 v 0 m 0,0 v 0 m 0,0 v 0 m 0,0 v 0 m 0,0 v 0 m 0,0 v 0 m 0,0 v 0 m 0,0 v 0 m 0,0 v 0 m 0,0 v 0 m 0,0 v 0 m 0,0 v 0 m 0,0 v 0 m 0,0 v 0 m 0,0 v 0 m 0,0 v 0 m 0,0 v 0 m 0,0 v 0 m 0,0 v 0 m 0,0 v 0 m 0,0 v 0 m 0,0 v 0 m 0,0 v 0 m 0,0 v 0 m 0,0 v 0 m 0,0 v 0 m 0,0 v 0 m 0,0 v 0 m 0,0 v 0 m 0,0 v 0 m 0,0 v 0 m 0,0 v 0 m 0,0 v 0 m 0,0 v 0 m 0,0 v 0 m 0,0 v 0 m 0,0 v 0 m 0,0 v 0 m 0,0 v 0 m 0,0 v 0 m 0,0 v 0 m 0,0 v 0 m 0,0 v 0 m 0,0 v 0 m 0,0 v 0 m 0,0 v 0 m 0,0 v 0 m 0,0 v 0 m 0,0 v 0 m 0,0 v 0 m 0,0 v 0 m 0,0 v 0 m 0,0 v 0 m 0,0 v 0 m 0,0 v 0 m 0,0 v 0 m 0,0 v 0 m 0,0 v 0"
     style="fill:#1d5687;fill-opacity:1;stroke:#000000;stroke-width:2;stroke-linecap:butt;stroke-linejoin:miter;stroke-miterlimit:10;stroke-dasharray:none;stroke-opacity:1" />
  <path
     style="fill:#1d5687;fill-opacity:1;stroke-width:0.1997477;stroke-miterlimit:10;stroke-dasharray:none"
     d="m 17.135201,17.81691 c 1.176259,-1.858277 2.640025,-3.803501 4.184834,-5.561299 0.484846,-0.551695 0.892909,-1.006129 0.906805,-1.009852 0.01389,-0.0037 1.610871,0.933673 3.548854,2.08307 l 3.523589,2.08984 -2.353409,4.076225 -2.353409,4.076224 -4.064432,-2.3466 -4.064432,-2.346601 z"
     id="path4563"
     inkscape:connector-curvature="0" />
  <path
     style="fill:#1d5687;fill-opacity:1;stroke-width:0.1997477;stroke-miterlimit:10;stroke-dasharray:none"
     d="M 26.55289,11.386489 C 25.059532,10.498603 23.831937,9.7493643 23.824902,9.7215129 23.806805,9.6498973 24.861999,8.7157093 25.848528,7.9299454 26.834924,7.144288 28.527171,6.0279526 29.460991,5.546889 l 0.66397,-0.3420487 0.558015,0.3772394 c 0.306909,0.2074821 1.151957,0.720151 1.877885,1.1392656 l 1.319868,0.7620267 -1.779003,3.081324 -1.779002,3.081323 -0.527321,-0.322592 C 29.505375,13.146002 28.046245,12.27438 26.552891,11.386488 Z"
     id="path4565"
     inkscape:connector-curvature="0" />
  <path
     style="fill:#1d5687;fill-opacity:1;stroke-width:0.1997477;stroke-miterlimit:10;stroke-dasharray:none"
     d="M 20.575401,7.7576407 C 19.929918,7.3513259 18.926455,6.7149061 18.345485,6.3433704 L 17.289177,5.6678491 17.632413,5.4655634 c 0.664102,-0.3913898 2.603148,-1.3274888 3.355734,-1.6200243 1.068558,-0.4153547 3.292539,-1.0302052 4.291197,-1.18636 0.462909,-0.072383 0.857919,-0.1161183 0.877798,-0.097191 0.01988,0.018925 0.460402,0.3276591 0.978936,0.6860694 0.518534,0.3584099 0.936558,0.6624487 0.928941,0.6756417 -0.0076,0.013193 -0.315184,0.2021187 -0.683482,0.4198352 -1.428483,0.8444391 -2.792288,1.8697814 -4.419674,3.3228215 -0.641389,0.5726751 -1.064087,0.902419 -1.121192,0.8746334 -0.05042,-0.024521 -0.619783,-0.3770403 -1.26527,-0.7833486 z"
     id="path4567"
     inkscape:connector-curvature="0" />
  <path
     style="fill:#1d5687;fill-opacity:1;stroke-width:0.1997477;stroke-miterlimit:10;stroke-dasharray:none"
     d="M 8.9284579,13.77069 C 10.716285,11.15115 12.738305,8.9776091 14.985943,7.2592856 l 0.45521,-0.3480094 0.672701,0.4460354 c 0.369986,0.2453169 1.48461,0.9610897 2.476942,1.5906037 0.992331,0.6295168 1.808304,1.1589517 1.81327,1.1765287 0.005,0.01758 -0.273338,0.349579 -0.618455,0.737781 -0.837318,0.941855 -1.995668,2.39115 -2.80734,3.512468 -0.649236,0.89691 -1.891903,2.742493 -2.170165,3.223082 l -0.140749,0.243088 -3.054712,-1.763638 -3.0547118,-1.763639 z"
     id="path4569"
     inkscape:connector-curvature="0" />
  <path
     style="fill:#1d5687;fill-opacity:1;stroke-width:0.1997477;stroke-miterlimit:10;stroke-dasharray:none"
     d="m 4.5749458,25.541397 c 0.026395,-0.532921 0.3901276,-2.443565 0.6671282,-3.504342 0.4505301,-1.72531 1.1229208,-3.528082 1.9822863,-5.314782 l 0.2848985,-0.592329 3.0547122,1.763638 3.054711,1.763639 -0.140149,0.243434 c -0.277709,0.482384 -1.254471,2.481182 -1.705998,3.491069 -0.595293,1.331431 -1.088268,2.588922 -1.55778,3.973608 C 10.007833,27.975589 9.8242496,28.477576 9.8067928,28.48086 9.7893348,28.48416 8.9527027,28.057275 7.9476119,27.532256 6.9425173,27.007242 5.7697784,26.39935 5.3415216,26.18139 l -0.7786481,-0.396292 0.01207,-0.243704 z"
     id="path4571"
     inkscape:connector-curvature="0" />
  <path
     style="fill:#1d5687;fill-opacity:1;stroke-width:0.1997477;stroke-miterlimit:10;stroke-dasharray:none"
     d="M 5.7415524,36.33399 C 4.912032,34.065166 4.4154852,31.264879 4.3999979,28.768261 l -0.00464,-0.748803 0.9769961,0.503845 c 1.8618686,0.960178 3.8272933,2.009142 3.8398066,2.049339 0.00691,0.02221 -0.1221491,0.693014 -0.2868093,1.490671 -0.3548177,1.718827 -0.5995891,3.70521 -0.6310403,5.121069 -0.012493,0.562396 -0.029825,1.034853 -0.038514,1.049903 -0.00869,0.01505 -0.1407103,-0.0428 -0.2933825,-0.128542 C 7.809727,38.020016 7.321137,37.787421 6.8766234,37.588922 L 6.0684181,37.228011 Z"
     id="path4573"
     inkscape:connector-curvature="0" />
  <path
     style="fill:#1d5687;fill-opacity:1;stroke-width:0.1997477;stroke-miterlimit:10;stroke-dasharray:none"
     d="m 10.372916,38.50428 c -0.05541,-1.791039 0.118872,-3.711161 0.522668,-5.75844 0.190982,-0.968298 0.228879,-1.084311 0.347177,-1.062832 0.07304,0.01326 1.580262,0.837202 3.349392,1.830978 l 3.216599,1.806867 -1.755595,3.04078 -1.755595,3.04078 -0.295579,-0.124737 c -0.162569,-0.06861 -1.040056,-0.541007 -1.949969,-1.049787 l -1.654389,-0.92505 z"
     id="path4575"
     inkscape:connector-curvature="0" />
  <path
     style="fill:#1d5687;fill-opacity:1;stroke-width:0.1997477;stroke-miterlimit:10;stroke-dasharray:none"
     d="m 11.673644,29.467804 c 0.01869,-0.03247 0.220366,-0.61309 0.448177,-1.290275 0.72795,-2.16388 1.689772,-4.425059 2.71004,-6.371117 l 0.583062,-1.112131 4.064432,2.346601 4.064432,2.3466 -2.35952,4.086808 -2.35952,4.086808 -2.157,-1.245173 C 15.4814,31.631074 13.864745,30.723385 13.075209,30.298792 12.225942,29.842078 11.653563,29.502695 11.673661,29.467775 Z"
     id="path4577"
     inkscape:connector-curvature="0" />
  <path
     style="fill:#1d5687;fill-opacity:1;stroke-width:0.1997477;stroke-miterlimit:10;stroke-dasharray:none"
     d="m 23.275182,36.152208 -2.633236,-1.54389 2.3591,-4.086081 2.359099,-4.08608 4.092688,2.362915 4.092687,2.362914 -0.53909,0.834792 c -1.506962,2.333545 -3.783453,5.293278 -5.06757,6.588498 l -0.20451,0.206276 -0.912963,-0.547729 c -0.502131,-0.30125 -2.097924,-1.242474 -3.546201,-2.091619 z"
     id="path4579"
     inkscape:connector-curvature="0" />
  <path
     style="fill:#1d5687;fill-opacity:1;stroke-width:0.1997477;stroke-miterlimit:10;stroke-dasharray:none"
     d="m 28.76834,20.53299 2.35952,-4.086807 1.865088,1.076632 c 1.025798,0.592148 2.640055,1.498515 3.58724,2.014144 l 1.722153,0.937509 -0.07902,0.292433 c -0.483256,1.788406 -1.857043,5.113612 -3.192729,7.727891 L 34.595504,29.346383 30.50216,26.98309 26.40882,24.619799 Z"
     id="path4581"
     inkscape:connector-curvature="0" />
  <path
     style="fill:#1d5687;fill-opacity:1;stroke-width:0.1997477;stroke-miterlimit:10;stroke-dasharray:none"
     d="m 33.923886,11.603323 1.773202,-3.0712758 1.352304,0.7807531 c 0.743767,0.429414 1.622331,0.9132867 1.952365,1.0752747 l 0.600062,0.294521 0.02619,0.694122 c 0.03635,0.963542 -0.03859,2.538021 -0.1757,3.691318 -0.102704,0.863872 -0.509391,3.122767 -0.586153,3.255724 -0.0531,0.09196 -0.840383,-0.321986 -3.798608,-1.997285 l -2.916862,-1.651879 z"
     id="path4583"
     inkscape:connector-curvature="0" />
  <path
     style="fill:#1d5687;fill-opacity:1;stroke-width:0.1997477;stroke-miterlimit:10;stroke-dasharray:none"
     d="m 40.954705,18.542586 c 0.43614,-1.923272 0.777689,-4.771906 0.760336,-6.341462 l -0.0051,-0.457007 0.278896,0.156665 c 0.153391,0.08617 0.650857,0.321387 1.105478,0.522712 l 0.826583,0.366045 0.370545,1.015705 c 0.651158,1.784894 1.092404,3.908392 1.243781,5.985693 0.0706,0.9688 0.08928,2.166702 0.03399,2.179331 -0.0186,0.0042 -0.884684,-0.439837 -1.924647,-0.986852 -1.039963,-0.547015 -2.118015,-1.111029 -2.395671,-1.253365 l -0.504828,-0.258796 z"
     id="path4585"
     inkscape:connector-curvature="0" />
  <path
     style="fill:#1d5687;fill-opacity:1;stroke-width:0.1997477;stroke-miterlimit:10;stroke-dasharray:none"
     d="m 36.456001,30.225931 c 0.0301,-0.08966 0.3005,-0.62488 0.600873,-1.189393 0.993184,-1.866539 2.06995,-4.410313 2.827758,-6.680365 l 0.281379,-0.842886 1.035824,0.541542 c 1.863895,0.974472 4.030014,2.092278 4.137661,2.135204 0.130985,0.05223 0.06225,0.700422 -0.236234,2.227703 -0.468479,2.397124 -1.543923,5.499754 -2.450811,7.070529 l -0.220748,0.382347 -3.015217,-1.740837 -3.015218,-1.740837 z"
     id="path4587"
     inkscape:connector-curvature="0" />
  <path
     style="fill:#1d5687;fill-opacity:1;stroke-width:0.1997477;stroke-miterlimit:10;stroke-dasharray:none"
     d="m 32.753091,41.945435 c -0.466723,-0.303957 -1.378337,-0.886818 -2.025806,-1.295253 l -1.177217,-0.74261 0.826654,-0.9461 c 1.540931,-1.763585 2.997547,-3.707104 4.121647,-5.499391 0.344609,-0.549451 0.677784,-1.057002 0.740392,-1.127892 l 0.113828,-0.128891 3.015217,1.740837 3.015218,1.740836 -0.234728,0.405063 c -0.312564,0.539426 -1.305775,1.884886 -2.003422,2.713899 -1.093021,1.298834 -2.802916,2.945724 -4.022631,3.874408 l -0.539726,0.410976 -0.49042,-0.296619 c -0.269715,-0.163168 -0.872283,-0.545312 -1.33901,-0.849262 z"
     id="path4589"
     inkscape:connector-curvature="0" />
  <path
     style="fill:#1d5687;fill-opacity:1;stroke-width:0.1997477;stroke-miterlimit:10;stroke-dasharray:none"
     d="m 22.609764,46.609608 -0.713979,-0.507032 0.377974,-0.214243 c 1.374567,-0.779129 3.241436,-2.162436 4.769979,-3.534448 l 1.038185,-0.931869 0.566779,0.366608 c 0.311727,0.201635 1.336596,0.853446 2.277483,1.44847 0.940891,0.595021 1.715174,1.097886 1.720634,1.117472 0.01551,0.05564 -1.595545,0.930101 -2.32601,1.262519 -1.720301,0.78287 -3.529962,1.365344 -5.23797,1.685938 -1.280242,0.240302 -1.078662,0.296822 -2.473073,-0.693418 z"
     id="path4591"
     inkscape:connector-curvature="0" />
  <path
     style="fill:#1d5687;fill-opacity:1;stroke-width:0.1997477;stroke-miterlimit:10;stroke-dasharray:none"
     d="m 17.727153,43.477062 c -0.879043,-0.53735 -1.602661,-0.986231 -1.608041,-0.997512 -0.0054,-0.01125 0.781434,-1.390938 1.748476,-3.065904 l 1.758257,-3.045391 3.078908,1.82064 c 3.103113,1.834954 3.490455,2.081588 3.430984,2.184595 -0.07456,0.129141 -1.863766,1.638932 -2.553185,2.154463 -0.928564,0.694356 -2.122978,1.460179 -3.009725,1.929746 l -0.678515,0.3593 -0.284449,-0.181469 c -0.156447,-0.09981 -1.003668,-0.621115 -1.882712,-1.158466 z"
     id="path4593"
     inkscape:connector-curvature="0" />
  <path
     style="fill:#1d5687;fill-opacity:1;stroke-width:0.04993692;stroke-miterlimit:10;stroke-dasharray:none"
     d="M 14.414422,3.6803315 C 14.199497,3.5170188 13.938135,3.3107278 13.833618,3.2219056 L 13.643587,3.0604113 14.512519,2.6452579 c 2.479577,-1.1846783 5.700982,-2.037268 8.535114,-2.25893773 0.842613,-0.0659041 1.149326,-0.0170611 1.043532,0.16617915 -0.01961,0.0339666 0.0039,0.060569 0.05236,0.0591173 0.04841,-0.001452 0.07409,0.0214737 0.05708,0.050947 -0.01702,0.0294732 -0.538932,0.18777529 -1.159811,0.35178348 -2.527486,0.6676451 -4.954265,1.7158065 -7.133005,3.0808487 L 15.45875,4.3765289 15.131968,4.1768975 C 14.952252,4.0670762 14.629339,3.8436457 14.414416,3.6803292 Z"
     id="path4595"
     inkscape:connector-curvature="0" />
  <path
     style="fill:#1d5687;fill-opacity:1;stroke-width:0.04993692;stroke-miterlimit:10;stroke-dasharray:none"
     d="M 4.4489145,11.275093 C 6.0451264,8.9774583 7.6744266,7.2154422 9.6761391,5.6220809 10.485236,4.9780409 11.750767,4.138576 11.837286,4.1885277 c 0.04543,0.026229 0.140115,0.118247 0.210407,0.2044869 0.07029,0.08624 0.444555,0.4030475 0.831694,0.7040183 0.38714,0.3009722 0.707328,0.5596263 0.71153,0.5747887 0.0042,0.015164 -0.255215,0.2412788 -0.576481,0.5024798 C 11.016387,7.798792 9.0234775,9.9909344 7.4118138,12.337024 L 6.7630219,13.281466 5.4397818,12.517493 4.1165417,11.75352 Z"
     id="path4597"
     inkscape:connector-curvature="0" />
  <path
     style="fill:#1d5687;fill-opacity:1;stroke-width:0.04993692;stroke-miterlimit:10;stroke-dasharray:none"
     d="m 0.37203206,23.020831 c 0.24065168,-2.938369 0.99257954,-5.777247 2.25060864,-8.497096 0.1997085,-0.431769 0.3840737,-0.82158 0.4097007,-0.866249 0.035754,-0.06232 0.3539188,0.09622 1.3675756,0.681453 l 1.3209816,0.762669 -0.3574068,0.723455 c -1.2146848,2.458734 -2.1726986,5.361811 -2.6154351,7.925574 -0.099693,0.577296 -0.1859449,1.057741 -0.1916697,1.067657 -0.00573,0.0099 -0.2046767,-0.06683 -0.442116,-0.17055 -0.5165928,-0.225656 -1.54520485,-0.606754 -1.70683462,-0.632371 -0.0845578,-0.0134 -0.0940096,-0.278966 -0.0354043,-0.994542 z"
     id="path4599"
     inkscape:connector-curvature="0" />
  <path
     style="fill:#1d5687;fill-opacity:1;stroke-width:0.04993692;stroke-miterlimit:10;stroke-dasharray:none"
     d="M 2.6432659,35.539244 C 1.4202258,32.928171 0.58279504,29.77403 0.36463929,26.956913 0.29446057,26.050669 0.22330351,26.083811 1.2595807,26.540091 c 0.3792923,0.167005 0.7838888,0.343806 0.8991027,0.392892 0.1996659,0.08506 0.2080298,0.123224 0.178322,0.814718 -0.1000645,2.329889 0.2573904,5.327502 0.9084399,7.618161 0.1667774,0.586791 0.2864095,1.09603 0.265849,1.131642 -0.020561,0.03561 -0.056156,0.02985 -0.079102,-0.01279 -0.022947,-0.04265 -0.057765,-0.04975 -0.077377,-0.01578 -0.110307,0.191058 -0.3069016,-0.0658 -0.7115437,-0.929677 z"
     id="path4601"
     inkscape:connector-curvature="0" />
  <path
     style="fill:#1d5687;fill-opacity:1;stroke-width:0.04993692;stroke-miterlimit:10;stroke-dasharray:none"
     d="m 25.904449,49.544702 c -0.01322,-0.07747 -0.05917,-0.139804 -0.102096,-0.138516 -0.278537,0.0084 0.147959,-0.136093 1.304266,-0.441722 2.183215,-0.577059 4.624893,-1.609484 6.508016,-2.751814 0.441976,-0.268109 0.8461,-0.508136 0.898052,-0.533392 0.07138,-0.0347 0.279521,0.09107 0.851907,0.514773 0.416596,0.308384 0.797149,0.612479 0.845672,0.675772 0.07757,0.101178 0.0019,0.1566 -0.626425,0.458879 -2.597108,1.249413 -5.626293,2.06713 -8.566753,2.312563 -1.00048,0.08351 -1.083119,0.07634 -1.112639,-0.09654 z"
     id="path4603"
     inkscape:connector-curvature="0" />
  <path
     style="fill:#1d5687;fill-opacity:1;stroke-width:0.04993692;stroke-miterlimit:10;stroke-dasharray:none"
     d="M 37.942626,45.625238 C 37.8387,45.517631 37.443868,45.186148 37.065221,44.888612 l -0.688451,-0.540974 0.81592,-0.684729 c 2.034453,-1.707335 4.055865,-3.948413 5.348941,-5.930207 0.733628,-1.124371 0.479429,-1.095836 1.990447,-0.223449 l 1.296164,0.74834 -0.196857,0.340965 c -0.86459,1.497515 -3.134057,4.016718 -4.984581,5.533093 -0.866136,0.709737 -2.393346,1.778724 -2.465496,1.725749 -0.02733,-0.02011 -0.134759,-0.124551 -0.238682,-0.232162 z"
     id="path4605"
     inkscape:connector-curvature="0" />
  <path
     style="fill:#1d5687;fill-opacity:1;stroke-width:0.04993692;stroke-miterlimit:10;stroke-dasharray:none"
     d="m 44.339201,34.781474 c 0.03004,-0.08969 0.219413,-0.488814 0.420843,-0.886929 1.181429,-2.335066 2.221328,-5.654977 2.599941,-8.300398 l 0.0587,-0.410174 0.672469,0.286876 c 0.369858,0.157783 0.867011,0.342998 1.104786,0.411592 0.237774,0.06859 0.44423,0.131594 0.458789,0.14 0.115476,0.06667 -0.211362,2.825749 -0.487101,4.111977 -0.432683,2.018318 -1.390729,4.747994 -2.093859,5.965852 l -0.196856,0.340965 -1.296164,-0.748341 C 44.288618,34.94688 44.28476,34.944047 44.339201,34.781474 Z"
     id="path4607"
     inkscape:connector-curvature="0" />
  <path
     style="fill:#1d5687;fill-opacity:1;stroke-width:0.04993692;stroke-miterlimit:10;stroke-dasharray:none"
     d="m 47.643283,22.547435 c 0.158575,-2.082422 -0.187896,-5.238676 -0.841867,-7.669204 -0.201527,-0.748985 -0.331914,-1.388633 -0.28975,-1.421439 0.05176,-0.04027 0.06124,-0.02908 0.02916,0.03445 -0.03727,0.07386 -0.0067,0.08531 0.142244,0.05327 0.182208,-0.03921 0.202096,-0.01564 0.500709,0.593401 1.062286,2.166599 1.845164,4.6562 2.223561,7.071064 0.161005,1.027502 0.299025,2.593295 0.230218,2.611732 -0.07726,0.02071 -1.422648,-0.536675 -1.760661,-0.729423 -0.250715,-0.142932 -0.262119,-0.169539 -0.233616,-0.543846 z"
     id="path4609"
     inkscape:connector-curvature="0" />
  <path
     style="fill:#1d5687;fill-opacity:1;stroke-width:0.04993692;stroke-miterlimit:10;stroke-dasharray:none"
     d="M 32.020315,3.9882849 C 29.53871,2.4352806 26.690428,0.45902926 26.82748,0.38528862 c 0.0939,-0.050522 1.904299,0.18637224 2.893438,0.37861042 6.027277,1.17139446 11.525688,4.63607086 15.12584,9.53114296 0.306479,0.416715 0.568673,0.791136 0.582653,0.832046 0.04691,0.137271 -2.068589,-0.825838 -4.266313,-1.942299 C 39.392514,8.2853184 33.881239,5.1528629 32.020315,3.9882849 Z"
     id="path4803"
     inkscape:connector-curvature="0" />
  <path
     style="fill:#1d5687;fill-opacity:1;stroke-width:0.04993692;stroke-miterlimit:10;stroke-dasharray:none"
     d="M 11.440519,45.68473 C 8.4932307,43.627401 6.657785,41.848581 4.7852212,39.234754 l -0.3113171,-0.434553 0.659626,0.280696 c 0.9675639,0.411735 1.9823063,0.890914 3.568108,1.684921 1.8713389,0.936974 9.0171609,5.062392 10.7685599,6.216894 1.402828,0.924726 3.127705,2.130274 3.550217,2.48131 l 0.256666,0.213242 -0.895544,-0.09679 c -2.452442,-0.265058 -4.894419,-0.904837 -7.174836,-1.879749 -0.843313,-0.36053 -3.207739,-1.626182 -3.76618,-2.015997 z"
     id="path4805"
     inkscape:connector-curvature="0" />
</svg>
