<?xml version="1.0" encoding="UTF-8"?>
<!DOCTYPE svg PUBLIC "-//W3C//DTD SVG 1.1//EN" "http://www.w3.org/Graphics/SVG/1.1/DTD/svg11.dtd">
<!-- Creator: CorelDRAW 2018 (64 Bit) -->
<svg xmlns="http://www.w3.org/2000/svg" xml:space="preserve" width="127mm" height="123.901mm" version="1.1" style="shape-rendering:geometricPrecision; text-rendering:geometricPrecision; image-rendering:optimizeQuality; fill-rule:evenodd; clip-rule:evenodd"
viewBox="0 0 12699.98 12390.1"
 xmlns:xlink="http://www.w3.org/1999/xlink">
 <defs>
  <style type="text/css">
   <![CDATA[
    .fil0 {fill:#1D5687}
    .fil1 {fill:#339966}
   ]]>
  </style>
 </defs>
 <g id="Camada_x0020_1">
  <metadata id="CorelCorpID_0Corel-Layer"/>
  <g id="_2104604013424">
   <g>
    <path class="fil0" d="M7934.53 10120.5c238.99,-398.98 715.62,-2444.03 619.08,-3075.56 -311.73,-47.76 -786.5,-28.59 -1134.98,-67.04 -364.1,-40.19 -704.77,-159.07 -1002.24,-201.56 -315.16,-45.02 -307.06,254.25 -432.23,757.84l-531.15 1874.64c-139.58,483.57 -237.93,516.78 349.5,616.71 495.11,84.18 1706.03,349.69 2132.02,94.97z"/>
    <path class="fil0" d="M2397.02 8500.48c377.91,261.19 1759.44,1156.77 2215.7,1110.76 118.74,-175.39 890.36,-2875.63 868.77,-3099.78 -397.33,-168.97 -833.83,-339.88 -1211.25,-549.82 -201.06,-111.84 -373.61,-234.85 -546.4,-351.54 -299.15,-202.13 -332.05,-12.61 -446.75,250.53 -201.17,461.41 -953.96,2152.19 -880.07,2639.85z"/>
    <path class="fil0" d="M7093.32 3653.7c-185.04,703.86 -586.23,1708.4 -644.11,2359.16 371.76,119.28 1742.01,376.81 2095.46,215.95 116.2,-91.7 85.56,-57.19 120.58,-219.21 17.21,-79.48 25.66,-232.7 30.61,-324.93 13.15,-241.83 1.52,-464.2 -6.59,-705.11 -9.32,-276.96 23.17,-1184.82 -74.79,-1359.9 -72.97,-35.92 -1356.46,-116.17 -1456.76,-90.79l-64.4 124.83z"/>
    <path class="fil0" d="M5836.93 5590.87c108.7,-574.88 660.33,-1941.08 616.29,-2390.57 -441.75,-60 -1052.21,-550.81 -1216.81,-599.74 -139.57,176.13 -1405.51,1975.46 -1337.61,2205.87 158.63,242.66 1428.17,965.3 1808.15,967.84l129.98 -183.4z"/>
    <path class="fil0" d="M3957.45 11879.09c104.33,-204.71 414.88,-1205.65 400.33,-1452.07 -249.18,-183.24 -1565.15,-638.42 -2174.45,-1168.61l-88.87 201.87c-294.83,1139.86 -195.8,1213 258.92,1576.32 270.76,216.34 1249.51,885.99 1604.07,842.49z"/>
    <path class="fil0" d="M4715.17 12169.32c459.53,200.98 1355.43,239.18 1988.29,213.99 530.32,-21.09 444.37,-108.6 614.3,-502.85 112.37,-260.7 286.48,-590.42 340.43,-831.57l-2548.73 -265.33c-103.14,369.57 -404.95,1166.58 -394.29,1385.76z"/>
    <path class="fil0" d="M8510.01 2792.28c92.96,-171.15 -79.48,-923.5 -125.24,-1184.51 -43.15,-246.21 -192.26,-933.08 -310.01,-1100.95 -73.28,97.76 -418.31,1294.13 -500.44,1519.95 -137.54,377.95 -270,664.44 -46.62,751.38 157.85,61.44 833.04,69.83 982.31,14.13z"/>
    <path class="fil0" d="M5772.15 1999.06c143.62,128.21 753.38,487.58 961.76,467.46 94.48,-140.2 653.7,-1837.35 692.43,-2114.73 -192.29,77.29 -319.56,245.61 -459.96,362.4 -289.73,241.06 -1132.19,974.98 -1194.23,1284.87z"/>
   </g>
   <g>
    <path class="fil1" d="M9388.59 7021.33c-70.14,530.33 -202.88,1090.95 -290.96,1611.88 -67.17,397.07 -349.46,1267.79 -354.34,1537.43 584.5,2.34 2286.86,-532.61 2526.08,-892.19 133.36,-200.38 214.48,-1092.81 238.52,-1428.78 38.83,-542.31 -63.35,-1057.88 -145.34,-1575.23 -276.55,78.59 -656.1,267.03 -961.9,383.41 -361.51,137.65 -692.55,221.18 -1012.06,363.48z"/>
    <path class="fil1" d="M9333.05 3470.49l43.35 2694.16c688.82,-90.03 1319.22,-388.45 1816.57,-759.13 30.02,-444.01 -527.68,-2257.43 -764.39,-2492.33 -179.32,21.24 -377.25,187 -548.03,271.84 -199.39,99.06 -384.93,163.4 -547.5,285.46z"/>
    <path class="fil1" d="M8083.91 12097.4c755.89,-82.4 2691.26,-1155.92 2786.75,-1662.88 -170.83,21.55 -574.45,198.9 -799.33,261.74 -1218.48,340.55 -1519.8,101.18 -1675.77,566.28 -104.51,311.74 -226.55,547 -311.65,834.86z"/>
    <path class="fil1" d="M11782.29 4673.62c8.71,-6.91 21.11,-29.97 24.54,-22.56 34.85,75.25 297.24,-668.43 299.06,-673.85 134.26,-403.14 84.06,-505.09 -90.96,-842.71 -195.13,-376.39 -615.33,-1110.34 -859.7,-1286.76 -377.14,549.14 -55.57,740.16 157.34,1343.9 142.61,404.52 294.95,1150.45 469.72,1481.98z"/>
    <path class="fil1" d="M12256.69 8260.04c247.43,-383.76 375.16,-952.8 423.07,-1473.59 26.19,-284.75 41.56,-1430.21 -49.05,-1748.23l-28.55 -76.28c-3.43,-9.4 -9.5,-25.33 -16.41,-36.82 -149.2,144.27 -257.96,398.19 -408.26,582.16 -223.92,274.09 -197.58,350.53 -98.88,878.98 120.65,646.06 116.65,1204.38 178.08,1873.78z"/>
    <path class="fil1" d="M9226.3 2623.1c328.7,-54.88 693.28,-299.68 810.86,-489.56 -86.04,-404.98 -738.49,-1271.83 -1093.79,-1444.75l282.93 1934.31z"/>
   </g>
   <g>
    <path class="fil0" d="M2912.25 5016.42c-97.98,-207.73 -934.71,-888.4 -1136.44,-1541.93 -286.3,155.12 -1648.44,2180.54 -1392.46,2705.98 244.12,501.15 801.01,1335.98 1227.64,1655.87 95.73,71.77 127.8,183.39 285.36,-269.78 197.17,-566.95 329.72,-989.12 590.4,-1544.16 107.92,-229.84 394.47,-809.74 425.5,-1005.98z"/>
    <path class="fil0" d="M3272.53 4310.04c153.86,-107.68 846.48,-1205.17 1015.59,-1474.03 132.41,-210.5 429.64,-550.82 372.61,-791.07 -1.1,-4.57 -401.25,-831.91 -418.48,-860.68 -203.64,6.44 -741.2,459.17 -913.1,595.02 -270.18,213.51 -512.83,492.47 -779.87,724.86 -297.41,258.91 -316.41,377.06 51.89,972.84 185.88,300.62 465.91,610.2 671.36,833.06z"/>
    <path class="fil0" d="M1247.25 9839.93c84.08,-122.56 227.97,-717.24 247.9,-865.12 48.01,-356.63 -506.49,-662.21 -978.15,-1250.39 -152.91,-190.68 -364.15,-546.93 -505.24,-638.85 -5.05,11.98 -10.07,17.91 -10.79,37.44 -18.27,507.76 222.15,1056.05 443.54,1495.32l802.74 1221.6z"/>
    <path class="fil0" d="M2177.22 2016.68c93.89,-48.95 1238.07,-1091.26 1644.23,-1370.03 289.08,-198.42 391.84,-188.72 393.45,-638.96 -260.65,22.3 -1591.22,606.65 -1839.35,1138.4 -105.77,226.69 -179.26,574.2 -198.33,870.59z"/>
    <path class="fil0" d="M117.81 4637.78l918.77 -1284.96c549.61,-777.45 479.08,-242.84 487.54,-1619.59 -607.09,737.85 -1403.81,1912.91 -1406.31,2904.55z"/>
    <path class="fil0" d="M4892.4 700.5c25.51,294.66 162.02,618.13 388.07,744.2 125.84,-52.4 1317.3,-1317.53 1418.12,-1444.79 -433.54,21.29 -1530.04,454.58 -1806.19,700.59z"/>
   </g>
  </g>
 </g>
</svg>
