<?xml version="1.0" encoding="UTF-8" standalone="no"?>
<svg
   xmlns:dc="http://purl.org/dc/elements/1.1/"
   xmlns:cc="http://creativecommons.org/ns#"
   xmlns:rdf="http://www.w3.org/1999/02/22-rdf-syntax-ns#"
   xmlns:svg="http://www.w3.org/2000/svg"
   xmlns="http://www.w3.org/2000/svg"
   xmlns:sodipodi="http://sodipodi.sourceforge.net/DTD/sodipodi-0.dtd"
   xmlns:inkscape="http://www.inkscape.org/namespaces/inkscape"
   width="50pt"
   height="50pt"
   viewBox="0 0 50 50"
   version="1.1"
   id="svg31"
   sodipodi:docname="grva-wireframe-color2.svg"
   inkscape:version="0.92.3 (2405546, 2018-03-11)">
  <metadata
     id="metadata37">
    <rdf:RDF>
      <cc:Work
         rdf:about="">
        <dc:format>image/svg+xml</dc:format>
        <dc:type
           rdf:resource="http://purl.org/dc/dcmitype/StillImage" />
        <dc:title></dc:title>
      </cc:Work>
    </rdf:RDF>
  </metadata>
  <defs
     id="defs35" />
  <sodipodi:namedview
     pagecolor="#ffffff"
     bordercolor="#666666"
     borderopacity="1"
     objecttolerance="10"
     gridtolerance="10"
     guidetolerance="10"
     inkscape:pageopacity="0"
     inkscape:pageshadow="2"
     inkscape:window-width="1920"
     inkscape:window-height="1052"
     id="namedview33"
     showgrid="false"
     inkscape:zoom="10.012632"
     inkscape:cx="21.939054"
     inkscape:cy="34.777522"
     inkscape:window-x="0"
     inkscape:window-y="0"
     inkscape:window-maximized="1"
     inkscape:current-layer="svg31" />
  <path
     style="fill:#16578a;fill-opacity:1;stroke:none;stroke-width:0.37664786;stroke-linejoin:round;stroke-miterlimit:4;stroke-dasharray:none;stroke-opacity:1"
     d="m 26.506658,30.066587 c -3.107345,-0.842675 -5.787601,-1.567349 -5.956125,-1.610385 l -0.306407,-0.07825 0.356211,-1.165422 c 0.874046,-2.859627 2.653356,-7.24371 3.892903,-9.59181 l 0.571051,-1.081755 0.650562,0.199799 c 0.357809,0.10989 2.71624,0.777052 5.240957,1.482584 2.524718,0.705532 4.598072,1.29309 4.607453,1.305685 0.01441,0.01934 -2.560393,9.678334 -3.065266,11.498889 -0.09156,0.330155 -0.205879,0.594098 -0.254046,0.58654 -0.04817,-0.0076 -2.629949,-0.703201 -5.737293,-1.545876 z"
     id="path4588"
     inkscape:connector-curvature="0"
     transform="scale(0.75000003)" />
  <path
     style="fill:#16578a;fill-opacity:1;stroke:none;stroke-width:0.37664786;stroke-linejoin:round;stroke-miterlimit:4;stroke-dasharray:none;stroke-opacity:1"
     d="m 27.919087,46.327863 c -0.155367,-0.06102 -2.491172,-0.671148 -5.190678,-1.355842 l -4.908192,-1.244898 v -0.96973 c 0,-1.157194 0.348206,-4.623016 0.642953,-6.39955 0.293818,-1.77093 0.931274,-4.911182 1.035759,-5.102388 0.05939,-0.108682 1.98003,0.348956 6.078482,1.448343 3.295412,0.883976 6.00389,1.622847 6.018841,1.641937 0.01495,0.01909 -0.149085,0.670301 -0.364524,1.447137 -0.215439,0.776836 -0.947889,3.493997 -1.627666,6.038135 -0.679777,2.544139 -1.273427,4.621678 -1.319224,4.616753 -0.0458,-0.0049 -0.210384,-0.05888 -0.365751,-0.119897 z"
     id="path4590"
     inkscape:connector-curvature="0"
     transform="scale(0.75000003)" />
  <path
     style="fill:#16578a;fill-opacity:1;stroke:none;stroke-width:0.37664786;stroke-linejoin:round;stroke-miterlimit:4;stroke-dasharray:none;stroke-opacity:1"
     d="M 11.042859,42.195401 C 8.9855095,41.732099 7.2915734,41.341404 7.2785562,41.32719 7.2655391,41.312976 7.1852326,40.729312 7.1000975,40.03016 6.8761375,38.19094 6.9071436,33.685135 7.157686,31.661406 7.3649788,29.98702 7.7008436,28.139175 7.8194446,28.020574 c 0.056042,-0.05604 8.8526004,2.265794 8.9400564,2.359712 0.02323,0.02494 -0.109184,0.712727 -0.29425,1.528405 -0.640226,2.821794 -1.177658,6.569531 -1.412749,9.851695 -0.05147,0.718573 -0.133052,1.299946 -0.181294,1.29194 -0.04824,-0.008 -1.771,-0.393622 -3.828349,-0.856925 z"
     id="path4592"
     inkscape:connector-curvature="0"
     transform="scale(0.75000003)" />
  <path
     style="fill:#16578a;fill-opacity:1;stroke:none;stroke-width:0.37664786;stroke-linejoin:round;stroke-miterlimit:4;stroke-dasharray:none;stroke-opacity:1"
     d="M 14.447908,55.797518 13.123621,55.566883 12.140189,54.083832 C 10.774793,52.024766 9.3564911,49.096359 8.5848983,46.743124 7.857965,44.526095 7.8163068,44.284066 8.1803863,44.392965 c 0.3050469,0.09124 6.5947017,1.498777 6.6973737,1.498777 0.04075,0 0.116031,0.87394 0.167288,1.94209 0.105906,2.207005 0.496555,5.070975 0.928306,6.805712 0.161255,0.647906 0.293191,1.232839 0.293191,1.29985 0,0.155324 -0.203137,0.139477 -1.818637,-0.141876 z"
     id="path4594"
     inkscape:connector-curvature="0"
     transform="scale(0.75000003)" />
  <path
     style="fill:#16578a;fill-opacity:1;stroke:none;stroke-width:0.37664786;stroke-linejoin:round;stroke-miterlimit:4;stroke-dasharray:none;stroke-opacity:1"
     d="M 15.489708,27.111808 C 14.402138,26.81395 12.388922,26.270135 11.015896,25.903331 L 8.5194845,25.236414 9.0153341,23.811875 c 1.0656059,-3.061406 2.7010329,-6.228848 4.5848609,-8.879807 0.535171,-0.753104 1.032614,-1.406099 1.105429,-1.451101 0.07281,-0.045 1.80873,0.442794 3.85759,1.083991 l 3.725201,1.165812 -1.015662,2.121447 c -1.175376,2.455048 -2.494005,5.781903 -3.234122,8.159581 -0.284129,0.912783 -0.528956,1.655547 -0.54406,1.650588 -0.0151,-0.005 -0.917292,-0.252719 -2.004863,-0.550578 z"
     id="path4596"
     inkscape:connector-curvature="0"
     transform="scale(0.75000003)" />
  <path
     style="fill:#16578a;fill-opacity:1;stroke:none;stroke-width:0.37664786;stroke-linejoin:round;stroke-miterlimit:4;stroke-dasharray:none;stroke-opacity:1"
     d="m 23.328691,13.12191 c -0.194209,-0.06623 -1.737006,-0.550104 -3.428437,-1.075284 l -3.075331,-0.954872 0.674201,-0.695864 c 1.082864,-1.117659 3.101048,-2.7551579 4.699624,-3.8131461 1.548558,-1.0248847 4.384035,-2.4989118 4.806971,-2.4989118 0.13497,0 0.856192,0.2309424 1.602716,0.5132053 l 1.357318,0.5132052 -0.88209,0.9362907 c -1.623996,1.7237836 -3.941621,4.7776997 -4.968675,6.5471857 -0.214176,0.368997 -0.39926,0.665886 -0.4113,0.659753 -0.01204,-0.0061 -0.180788,-0.06534 -0.374997,-0.131562 z"
     id="path4598"
     inkscape:connector-curvature="0"
     transform="scale(0.75000003)" />
  <path
     style="fill:#16578a;fill-opacity:1;stroke:none;stroke-width:0.37664786;stroke-linejoin:round;stroke-miterlimit:4;stroke-dasharray:none;stroke-opacity:1"
     d="m 24.952985,58.098809 c -0.07768,-0.03232 -1.31709,-0.336155 -2.754237,-0.675184 -3.03992,-0.717132 -2.749872,-0.459388 -3.383836,-3.006957 -0.501044,-2.013435 -0.829972,-4.185389 -0.94906,-6.266773 l -0.08805,-1.53885 4.788155,1.211544 c 2.633485,0.666349 4.846223,1.264905 4.917195,1.330123 0.125139,0.114994 -2.169379,9.038013 -2.318305,9.015527 -0.03884,-0.0059 -0.134181,-0.03711 -0.211865,-0.06943 z"
     id="path4600"
     inkscape:connector-curvature="0"
     transform="scale(0.75000003)" />
  <path
     style="fill:#16578a;fill-opacity:1;stroke:none;stroke-width:0.37664786;stroke-linejoin:round;stroke-miterlimit:4;stroke-dasharray:none;stroke-opacity:1"
     d="m 35.475584,16.588049 c -0.349576,-0.103384 -2.494703,-0.710372 -4.766949,-1.348863 -2.272246,-0.63849 -4.131356,-1.204933 -4.131356,-1.258761 0,-0.157211 1.613645,-2.477504 2.645368,-3.803829 1.085277,-1.3951712 3.794432,-4.1674942 3.967819,-4.0603351 0.06372,0.039382 1.314444,0.4252243 2.779381,0.8574264 1.464938,0.432202 2.682126,0.8044241 2.704862,0.8271601 0.03408,0.034076 -0.512691,2.1189246 -2.220058,8.4651886 -0.07837,0.291313 -0.187717,0.525234 -0.242986,0.519823 -0.05527,-0.0054 -0.386505,-0.09442 -0.736081,-0.19781 z"
     id="path4602"
     inkscape:connector-curvature="0"
     transform="scale(0.75000003)" />
  <path
     style="fill:#16578a;fill-opacity:1;stroke:none;stroke-width:0.37664786;stroke-linejoin:round;stroke-miterlimit:4;stroke-dasharray:none;stroke-opacity:1"
     d="m 16.989905,59.586514 c -0.340146,-0.307548 -0.530824,-0.558311 -0.423729,-0.55725 0.488886,0.0048 0.858109,0.207095 1.047833,0.573981 0.38599,0.746422 0.214864,0.741835 -0.624104,-0.01673 z"
     id="path4604"
     inkscape:connector-curvature="0"
     transform="scale(0.75000003)" />
  <path
     style="fill:#16578a;fill-opacity:1;stroke:none;stroke-width:0.37664786;stroke-linejoin:round;stroke-miterlimit:4;stroke-dasharray:none;stroke-opacity:1"
     d="m 22.888511,62.455813 c -0.888678,-0.910716 -1.907517,-2.257805 -1.79371,-2.371612 0.06237,-0.06237 3.211214,0.720834 3.314876,0.824496 0.03865,0.03865 -0.07775,0.61782 -0.258662,1.287054 l -0.328927,1.216789 z"
     id="path4606"
     inkscape:connector-curvature="0"
     transform="scale(0.75000003)" />
  <path
     style="fill:#16578a;fill-opacity:1;stroke:none;stroke-width:0.37664786;stroke-linejoin:round;stroke-miterlimit:4;stroke-dasharray:none;stroke-opacity:1"
     d="M 37.763135,4.5769201 C 36.884989,4.323205 36.136967,4.0860816 36.100865,4.0499789 35.980969,3.9300834 38.278442,2.9557421 39.173278,2.7469911 c 0.484313,-0.1129826 0.896445,-0.1895475 0.915848,-0.1701442 0.04918,0.049182 -0.576811,2.3208235 -0.660894,2.3982923 -0.03766,0.034695 -0.78695,-0.1445041 -1.665097,-0.3982191 z"
     id="path4608"
     inkscape:connector-curvature="0"
     transform="scale(0.75000003)" />
  <path
     style="fill:#16578a;fill-opacity:1;stroke:none;stroke-width:0.37664786;stroke-linejoin:round;stroke-miterlimit:4;stroke-dasharray:none;stroke-opacity:1"
     d="M 31.873889,2.7582767 C 31.451,2.5757682 31.452002,2.5750813 32.379809,2.4115399 c 1.247652,-0.2199194 1.260889,-0.2161485 0.664304,0.1892414 -0.593119,0.4030353 -0.599344,0.403873 -1.170224,0.1574954 z"
     id="path4610"
     inkscape:connector-curvature="0"
     transform="scale(0.75000003)" />
  <path
     style="fill:#16578a;fill-opacity:1;stroke:none;stroke-width:0.37664786;stroke-linejoin:round;stroke-miterlimit:4;stroke-dasharray:none;stroke-opacity:1"
     d="M 12.914413,9.7063809 12.175275,9.4150475 13.196898,8.5743566 c 1.536216,-1.2641471 3.754581,-2.6920492 5.791293,-3.7276999 1.002393,-0.5097085 1.847391,-0.9018847 1.877773,-0.8715027 0.03038,0.030382 -0.404134,0.3749365 -0.965592,0.7656765 -1.654067,1.151128 -3.093385,2.3611919 -4.596905,3.8647124 -0.775771,0.7757709 -1.464363,1.4063701 -1.530205,1.4013321 -0.06584,-0.005 -0.452324,-0.1402608 -0.858849,-0.3004941 z"
     id="path4612"
     inkscape:connector-curvature="0"
     transform="scale(0.75000003)" />
  <path
     style="fill:#16578a;fill-opacity:1;stroke:none;stroke-width:0.37664786;stroke-linejoin:round;stroke-miterlimit:4;stroke-dasharray:none;stroke-opacity:1"
     d="M 4.1420983,24.072892 C 3.4941331,23.888676 2.9439481,23.717259 2.9194649,23.691966 2.825174,23.594557 4.0252747,20.606785 4.7533975,19.126205 6.2139722,16.156243 9.6312239,11.437059 10.17589,11.637808 c 0.12599,0.04644 0.581525,0.219529 1.0123,0.38465 l 0.783227,0.30022 -1.277578,1.918713 c -1.8639111,2.799291 -3.1952295,5.458028 -4.320203,8.627752 -0.3986833,1.12333 -0.5902738,1.489798 -0.7898858,1.51087 -0.1449434,0.0153 -0.7936868,-0.122904 -1.4416519,-0.307121 z"
     id="path4614"
     inkscape:connector-curvature="0"
     transform="scale(0.75000003)" />
  <path
     style="fill:#16578a;fill-opacity:1;stroke:none;stroke-width:0.37664786;stroke-linejoin:round;stroke-miterlimit:4;stroke-dasharray:none;stroke-opacity:1"
     d="M 3.015781,40.662435 C 2.602861,40.602308 2.2432937,40.530788 2.2167425,40.503502 2.1901913,40.476215 2.0215474,39.627617 1.8419783,38.61773 1.562034,37.043339 1.5149203,36.298312 1.5114997,33.391742 c -0.00377,-3.204246 0.067023,-4.08903 0.4991228,-6.238051 l 0.1466945,-0.729576 1.2989641,0.348036 c 0.7144302,0.19142 1.369216,0.371196 1.4550797,0.399504 0.1094469,0.03608 0.079232,0.445697 -0.1010732,1.37024 -0.5558713,2.850311 -0.7279321,5.099548 -0.6519233,8.522163 0.039679,1.786723 0.1175606,3.359817 0.17307,3.495763 0.113783,0.278662 -0.029745,0.289856 -1.3156533,0.102614 z"
     id="path4616"
     inkscape:connector-curvature="0"
     transform="scale(0.75000003)" />
  <path
     style="fill:#16578a;fill-opacity:1;stroke:none;stroke-width:0.37664786;stroke-linejoin:round;stroke-miterlimit:4;stroke-dasharray:none;stroke-opacity:1"
     d="M 7.1239476,51.578578 C 6.0830589,50.092833 4.5881311,47.338149 3.8547505,45.554471 3.4566609,44.586265 3.1309513,43.721918 3.1309513,43.6337 c 0,-0.17464 1.1539422,-0.06288 1.5695367,0.152013 0.1376534,0.07118 0.2964312,0.469071 0.4014221,1.005958 0.2549646,1.303801 1.2870943,4.346158 2.0439255,6.024779 0.3631,0.80534 0.6350209,1.489417 0.6042687,1.520169 -0.030752,0.03075 -0.3125228,-0.310366 -0.6261567,-0.758041 z"
     id="path4618"
     inkscape:connector-curvature="0"
     transform="scale(0.75000003)" />
  <path
     style="fill:#53c136;fill-opacity:1;stroke:none;stroke-width:0.37664786;stroke-linejoin:round;stroke-miterlimit:4;stroke-dasharray:none;stroke-opacity:1"
     d="m 43.879539,18.791472 c -4.351398,-1.115974 -4.798082,-1.257531 -4.757763,-1.507758 0.04936,-0.306344 2.297189,-8.7448113 2.33368,-8.7607634 0.01262,-0.00552 1.306761,0.3019271 2.87586,0.683213 l 2.852906,0.6932472 0.215981,0.6585952 c 0.390665,1.191259 0.912785,3.597673 1.123552,5.178369 0.287052,2.152806 0.427998,4.310026 0.280772,4.297305 -0.0675,-0.0058 -2.283745,-0.564826 -4.924988,-1.242208 z"
     id="path4620"
     inkscape:connector-curvature="0"
     transform="scale(0.75000003)" />
  <path
     style="fill:#53c136;fill-opacity:1;stroke:none;stroke-width:0.37664786;stroke-linejoin:round;stroke-miterlimit:4;stroke-dasharray:none;stroke-opacity:1"
     d="m 41.09199,33.97273 c -3.242191,-0.874077 -5.923458,-1.617796 -5.958371,-1.652709 -0.04981,-0.04981 1.310419,-5.254106 3.008349,-11.5101 l 0.156378,-0.576171 3.073082,0.800988 c 1.690195,0.440543 4.081815,1.049212 5.31471,1.352599 l 2.241627,0.551611 -0.09798,1.624702 c -0.109294,1.812241 -0.401303,4.363302 -0.7195,6.285719 -0.305439,1.845345 -0.940904,4.733205 -1.039087,4.722114 -0.04637,-0.0052 -2.737012,-0.724676 -5.979204,-1.598753 z"
     id="path4622"
     inkscape:connector-curvature="0"
     transform="scale(0.75000003)" />
  <path
     style="fill:#53c136;fill-opacity:1;stroke:none;stroke-width:0.37664786;stroke-linejoin:round;stroke-miterlimit:4;stroke-dasharray:none;stroke-opacity:1"
     d="m 40.604852,49.836315 c -0.480456,-0.152265 -2.788914,-0.809908 -5.129905,-1.461425 -2.340992,-0.651518 -4.282722,-1.210951 -4.314956,-1.243185 -0.06453,-0.06452 3.017544,-11.669247 3.16474,-11.916 0.06112,-0.102457 2.055436,0.375375 6.002371,1.438147 3.250962,0.875371 5.945351,1.626095 5.98753,1.668275 0.108441,0.10844 -0.697347,2.614548 -1.616407,5.027242 -0.774819,2.034037 -2.976005,6.786918 -3.136168,6.771727 -0.04601,-0.0044 -0.476749,-0.132514 -0.957205,-0.284781 z"
     id="path4624"
     inkscape:connector-curvature="0"
     transform="scale(0.75000003)" />
  <path
     style="fill:#53c136;fill-opacity:1;stroke:none;stroke-width:0.37664786;stroke-linejoin:round;stroke-miterlimit:4;stroke-dasharray:none;stroke-opacity:1"
     d="m 32.933211,60.380178 c -0.271892,-0.09951 -1.44774,-0.455036 -2.612994,-0.790059 -1.165254,-0.335024 -2.171043,-0.654282 -2.235085,-0.709463 -0.08761,-0.07549 1.877901,-7.874774 2.230783,-8.851906 0.04765,-0.131955 0.216113,-0.127 0.739225,0.02175 0.372629,0.105956 2.552506,0.716939 4.844173,1.357739 2.291667,0.640801 4.187796,1.181805 4.21362,1.202233 0.07763,0.0614 -1.563378,2.440944 -2.661148,3.858802 -0.9966,1.28719 -3.704474,4.121873 -3.918291,4.101785 -0.05826,-0.0055 -0.32839,-0.09137 -0.600283,-0.190877 z"
     id="path4626"
     inkscape:connector-curvature="0"
     transform="scale(0.75000003)" />
  <path
     style="fill:#53c136;fill-opacity:1;stroke:none;stroke-width:0.37664786;stroke-linejoin:round;stroke-miterlimit:4;stroke-dasharray:none;stroke-opacity:1"
     d="m 26.579472,64.002617 c 0.0012,-0.05632 0.144215,-0.617208 0.317797,-1.246418 l 0.315603,-1.144017 1.747584,0.497516 1.747583,0.497516 -0.771885,0.39031 c -1.223012,0.618426 -3.362119,1.25894 -3.356682,1.005093 z"
     id="path4628"
     inkscape:connector-curvature="0"
     transform="scale(0.75000003)" />
  <path
     style="fill:#53c136;fill-opacity:1;stroke:none;stroke-width:0.37664786;stroke-linejoin:round;stroke-miterlimit:4;stroke-dasharray:none;stroke-opacity:1"
     d="m 38.371064,62.183965 c -0.699152,-0.263953 -1.353515,-0.509252 -1.454139,-0.545109 -0.114476,-0.04079 0.295864,-0.599097 1.096313,-1.491635 1.482032,-1.652535 3.093882,-3.77683 4.142694,-5.459754 0.699417,-1.122286 0.755368,-1.175436 1.158635,-1.100619 0.491257,0.09114 6.325518,1.905704 6.417745,1.996036 0.100987,0.09891 -1.101735,1.284332 -2.462943,2.427508 -1.605249,1.348129 -3.834037,2.82267 -5.632562,3.726438 -2.021393,1.015761 -1.829261,0.989455 -3.265743,0.447135 z"
     id="path4630"
     inkscape:connector-curvature="0"
     transform="scale(0.75000003)" />
  <path
     style="fill:#53c136;fill-opacity:1;stroke:none;stroke-width:0.37664786;stroke-linejoin:round;stroke-miterlimit:4;stroke-dasharray:none;stroke-opacity:1"
     d="M 48.75242,52.314417 C 47.23759,51.823422 45.637417,51.319556 45.196481,51.194716 L 44.394779,50.967733 45.31369,49.03002 c 1.169931,-2.467042 2.55788,-5.967447 3.246517,-8.187713 0.357599,-1.152952 0.603841,-1.730226 0.738044,-1.730226 0.11077,0 2.093619,0.508474 4.406333,1.129943 2.312713,0.621469 4.249989,1.129944 4.305057,1.129944 0.313477,0 -0.957227,3.335489 -2.212118,5.806621 -1.444705,2.844912 -3.610585,6.071084 -4.05706,6.043167 -0.128593,-0.008 -1.473212,-0.416343 -2.988043,-0.907339 z"
     id="path4632"
     inkscape:connector-curvature="0"
     transform="scale(0.75000003)" />
  <path
     style="fill:#53c136;fill-opacity:1;stroke:none;stroke-width:0.37664786;stroke-linejoin:round;stroke-miterlimit:4;stroke-dasharray:none;stroke-opacity:1"
     d="m 54.307337,37.512554 c -2.343808,-0.635091 -4.297409,-1.190939 -4.341336,-1.235218 -0.04393,-0.04428 0.107295,-0.93411 0.336051,-1.977401 0.531023,-2.42185 1.090527,-6.310178 1.254513,-8.718368 0.07034,-1.032885 0.151438,-1.896505 0.18023,-1.919156 0.05081,-0.03997 7.236847,1.54329 7.549966,1.663445 0.402871,0.154596 0.623153,5.83571 0.338184,8.721824 -0.20531,2.079339 -0.700773,4.642822 -0.894899,4.630128 -0.08868,-0.0058 -2.078902,-0.530164 -4.422709,-1.165254 z"
     id="path4634"
     inkscape:connector-curvature="0"
     transform="scale(0.75000003)" />
  <path
     style="fill:#53c136;fill-opacity:1;stroke:none;stroke-width:0.37664786;stroke-linejoin:round;stroke-miterlimit:4;stroke-dasharray:none;stroke-opacity:1"
     d="M 56.944511,21.936822 C 56.128833,21.751994 54.631117,21.406767 53.616254,21.169651 L 51.771049,20.738532 51.60408,18.449318 c -0.179219,-2.457183 -0.580252,-5.179223 -1.010457,-6.858555 l -0.266651,-1.040891 0.377978,0.07453 c 0.207888,0.04099 0.909242,0.155392 1.558565,0.254217 l 1.180585,0.179683 0.536993,0.7269 c 1.861787,2.520207 4.053365,7.22773 4.716258,10.130547 0.105563,0.462262 0.189756,0.46125 -1.75284,0.02107 z"
     id="path4636"
     inkscape:connector-curvature="0"
     transform="scale(0.75000003)" />
  <path
     style="fill:#53c136;fill-opacity:1;stroke:none;stroke-width:0.37664786;stroke-linejoin:round;stroke-miterlimit:4;stroke-dasharray:none;stroke-opacity:1"
     d="m 62.972869,39.841342 c -1.336346,-0.361826 -1.384084,-0.388394 -1.309749,-0.72894 0.808151,-3.702374 1.111338,-8.196104 0.785097,-11.636444 -0.08018,-0.845488 -0.119985,-1.563042 -0.08846,-1.594562 0.107997,-0.107998 1.992872,0.251757 2.082988,0.397567 0.315356,0.510257 0.827138,4.901263 0.829011,7.112779 0.0018,2.138764 -0.571569,6.875901 -0.827632,6.837697 -0.0464,-0.0069 -0.708458,-0.181566 -1.471251,-0.388097 z"
     id="path4638"
     inkscape:connector-curvature="0"
     transform="scale(0.75000003)" />
  <path
     style="fill:#53c136;fill-opacity:1;stroke:none;stroke-width:0.37664786;stroke-linejoin:round;stroke-miterlimit:4;stroke-dasharray:none;stroke-opacity:1"
     d="m 55.565455,54.682734 c -0.797365,-0.326691 -0.867084,-0.38738 -0.706214,-0.614755 2.571052,-3.633948 4.465206,-7.25207 5.555935,-10.612678 0.220616,-0.679732 0.467915,-1.235876 0.549553,-1.235876 0.223303,0 2.634894,0.675829 2.721838,0.762773 0.140774,0.140773 -0.865052,2.687691 -1.818298,4.604233 -0.521676,1.048853 -1.383819,2.559166 -1.915872,3.35625 -1.14259,1.711748 -3.109437,4.135621 -3.340073,4.116189 -0.08919,-0.0075 -0.560281,-0.176776 -1.046869,-0.376136 z"
     id="path4640"
     inkscape:connector-curvature="0"
     transform="scale(0.75000003)" />
  <path
     style="fill:#53c136;fill-opacity:1;stroke:none;stroke-width:0.37664786;stroke-linejoin:round;stroke-miterlimit:4;stroke-dasharray:none;stroke-opacity:1"
     d="m 46.068095,62.445068 c 1.555485,-1.058331 3.460422,-2.628525 4.962922,-4.090819 l 1.784247,-1.736501 0.800207,0.299395 c 0.958823,0.358742 0.975742,0.323323 -0.816352,1.708981 -1.568453,1.212737 -3.280879,2.275094 -5.297477,3.286456 -1.570925,0.787849 -2.094947,0.982495 -1.433547,0.532488 z"
     id="path4642"
     inkscape:connector-curvature="0"
     transform="scale(0.75000003)" />
  <path
     style="fill:#53c136;fill-opacity:1;stroke:none;stroke-width:0.37664786;stroke-linejoin:round;stroke-miterlimit:4;stroke-dasharray:none;stroke-opacity:1"
     d="m 62.66485,23.059124 c -0.155368,-0.03286 -0.415066,-0.08764 -0.577107,-0.121733 -0.229068,-0.0482 -0.334688,-0.243395 -0.474698,-0.877269 -0.355562,-1.609763 -1.154797,-4.033971 -1.909877,-5.792965 -0.422828,-0.984998 -0.74257,-1.817114 -0.710538,-1.849147 0.100836,-0.100836 2.027204,2.953634 2.746631,4.355088 0.578585,1.127092 1.843668,4.085028 1.843668,4.310748 0,0.07734 -0.498995,0.0639 -0.918079,-0.02472 z"
     id="path4644"
     inkscape:connector-curvature="0"
     transform="scale(0.75000003)" />
  <path
     style="fill:#53c136;fill-opacity:1;stroke:none;stroke-width:0.37664786;stroke-linejoin:round;stroke-miterlimit:4;stroke-dasharray:none;stroke-opacity:1"
     d="M 43.854306,6.2243755 C 43.063592,6.0181218 42.372746,5.8047085 42.319092,5.7501238 42.215794,5.6450351 42.61282,3.8544349 42.810249,3.5349895 c 0.199692,-0.3231096 1.645312,1.1678932 2.62053,2.7027974 0.303713,0.478017 0.307643,0.4780505 -1.576473,-0.013411 z"
     id="path4646"
     inkscape:connector-curvature="0"
     transform="scale(0.75000003)" />
  <path
     style="fill:#53c136;fill-opacity:1;stroke:none;stroke-width:0.37664786;stroke-linejoin:round;stroke-miterlimit:4;stroke-dasharray:none;stroke-opacity:1"
     d="m 33.665087,64.044639 c 0.477301,-0.324334 0.553861,-0.336462 1.046758,-0.165817 l 0.531792,0.184111 -0.825662,0.165817 c -1.196998,0.240392 -1.329806,0.207915 -0.752888,-0.184111 z"
     id="path4648"
     inkscape:connector-curvature="0"
     transform="scale(0.75000003)" />
  <path
     style="fill:#53c136;fill-opacity:1;stroke:none;stroke-width:0.37664786;stroke-linejoin:round;stroke-miterlimit:4;stroke-dasharray:none;stroke-opacity:1"
     d="m 49.446691,7.5220433 c -0.201136,-0.054006 -0.769013,-1.0094198 -0.662993,-1.1154401 0.02386,-0.023862 0.360273,0.2358024 0.747579,0.5770318 0.685474,0.6039245 0.664182,0.739456 -0.08459,0.5384083 z"
     id="path4650"
     inkscape:connector-curvature="0"
     transform="scale(0.75000003)" />
</svg>
