<?xml version="1.0" encoding="UTF-8"?>
<svg xmlns="http://www.w3.org/2000/svg" xmlns:xlink="http://www.w3.org/1999/xlink" width="50pt" height="50pt" viewBox="0 0 50 50" version="1.1">
<g id="surface1">
<path style="fill:none;stroke-width:0.01;stroke-linecap:butt;stroke-linejoin:miter;stroke:rgb(0%,0%,0%);stroke-opacity:1;stroke-miterlimit:10;" d="M 0.5 0 L 0.5 0 M 0.5 0 L 0.5 0 M 0.5 0 L 0.5 0 M 0.5 0 L 0.5 0 M 0.5 0 L 0.5 0 M 0.5 0 L 0.5 0 M 0.5 0 L 0.5 0 M 0.5 0 L 0.5 0 M 0.5 0 L 0.5 0 M 0.5 0 L 0.5 0 M 0.5 0 L 0.5 0 M 0.5 0 L 0.5 0 M 0.5 0 L 0.5 0 M 0.5 0 L 0.5 0 M 0.5 0 L 0.5 0 M 0.5 0 L 0.5 0 M 0.5 0 L 0.5 0 M 0.5 0 L 0.5 0 M 0.5 0 L 0.5 0 M 0.5 0 L 0.5 0 M 0.5 0 L 0.5 0 M 0.5 0 L 0.5 0 M 0.5 0 L 0.5 0 M 0.5 0 L 0.5 0 M 0.5 0 L 0.5 0 M 0.5 0 L 0.5 0 M 0.5 0 L 0.5 0 M 0.5 0 L 0.5 0 M 0.5 0 L 0.5 0 M 0.5 0 L 0.5 0 M 0.5 0 L 0.5 0 M 0.5 0 L 0.5 0 M 0.5 0 L 0.5 0 M 0.5 0 L 0.5 0 M 0.5 0 L 0.5 0 M 0.5 0 L 0.5 0 M 0.5 0 L 0.5 0 M 0.5 0 L 0.5 0 M 0.5 0 L 0.5 0 M 0.5 0 L 0.5 0 M 0.5 0 L 0.5 0 M 0.5 0 L 0.5 0 M 0.5 0 L 0.5 0 M 0.5 0 L 0.5 0 M 0.5 0 L 0.5 0 M 0.5 0 L 0.5 0 M 0.5 0 L 0.5 0 M 0.5 0 L 0.5 0 M 0.5 0 L 0.5 0 M 0.5 0 L 0.5 0 M 0.5 0 L 0.5 0 M 0.5 0 L 0.5 0 M 0.5 0 L 0.5 0 M 0.5 0 L 0.5 0 M 0.5 0 L 0.5 0 M 0.5 0 L 0.5 0 M 0.5 0 L 0.5 0 M 0.5 0 L 0.5 0 M 0.5 0 L 0.5 0 M 0.5 0 L 0.5 0 M 0.5 0 L 0.5 0 M 0.5 0 L 0.5 0 M 0.5 0 L 0.5 0 M 0.5 0 L 0.5 0 M 0.5 0 L 0.5 0 M 0.5 0 L 0.5 0 M 0.5 0 L 0.5 0 M 0.5 0 L 0.5 0 M 0.5 0 L 0.5 0 M 0.5 0 L 0.5 0 M 0.5 0 L 0.5 0 M 0.5 0 L 0.5 0 M 0.5 0 L 0.5 0 M 0.5 0 L 0.5 0 M 0.5 0 L 0.5 0 M 0.5 0 L 0.5 0 M 0.5 0 L 0.5 0 M 0.5 0 L 0.5 0 M 0.5 0 L 0.5 0 M 0.5 0 L 0.5 0 M 0.5 0 L 0.5 0 M 0.5 0 L 0.5 0 M 0.5 0 L 0.5 0 M 0.5 0 L 0.5 0 M 0.5 0 L 0.5 0 M 0.5 0 L 0.5 0 M 0.5 0 L 0.5 0 M 0.5 0 L 0.5 0 M 0.5 0 L 0.5 0 M 0.5 0 L 0.5 0 M 0.5 0 L 0.5 0 M 0.5 0 L 0.5 0 M 0.5 0 L 0.5 0 M 0.5 0 L 0.5 0 M 0.5 0 L 0.5 0 M 0.5 0 L 0.5 0 M 0.5 0 L 0.5 0 M 0.5 0 L 0.5 0 M 0.5 0 L 0.5 0 " transform="matrix(50,0,0,50,0,0)"/>
<path style="fill:none;stroke-width:0.01;stroke-linecap:butt;stroke-linejoin:miter;stroke:rgb(0%,0%,0%);stroke-opacity:1;stroke-miterlimit:10;" d="M 0.75 0.0669531 L 0.749453 0.0676563 M 0.749453 0.0676563 L 0.748672 0.0683594 M 0.748672 0.0683594 L 0.747656 0.0690625 M 0.747656 0.0690625 L 0.746406 0.0696875 M 0.746406 0.0696875 L 0.744922 0.0703906 M 0.744922 0.0703906 L 0.743203 0.0710156 M 0.743203 0.0710156 L 0.741172 0.0717187 M 0.741172 0.0717187 L 0.738984 0.0723437 M 0.738984 0.0723437 L 0.736563 0.0729687 M 0.736563 0.0729687 L 0.733906 0.0736719 M 0.733906 0.0736719 L 0.730938 0.0742969 M 0.730938 0.0742969 L 0.727891 0.0749219 M 0.727891 0.0749219 L 0.724531 0.0754688 M 0.724531 0.0754688 L 0.721016 0.0760938 M 0.721016 0.0760938 L 0.717266 0.0767188 M 0.717266 0.0767188 L 0.713281 0.0772656 M 0.713281 0.0772656 L 0.709141 0.0778125 M 0.709141 0.0778125 L 0.704766 0.0783594 M 0.704766 0.0783594 L 0.700234 0.0789062 M 0.700234 0.0789062 L 0.695547 0.0794531 M 0.695547 0.0794531 L 0.690625 0.08 M 0.690625 0.08 L 0.685547 0.0804688 M 0.685547 0.0804688 L 0.680312 0.0809375 M 0.680312 0.0809375 L 0.674922 0.0814062 M 0.674922 0.0814062 L 0.669297 0.081875 M 0.669297 0.081875 L 0.663594 0.0823438 M 0.663594 0.0823438 L 0.657734 0.0827344 M 0.657734 0.0827344 L 0.651719 0.083125 M 0.651719 0.083125 L 0.645625 0.0835938 M 0.645625 0.0835938 L 0.639375 0.0839063 M 0.639375 0.0839063 L 0.632969 0.0842969 M 0.632969 0.0842969 L 0.626406 0.0846094 M 0.626406 0.0846094 L 0.619844 0.0849219 M 0.619844 0.0849219 L 0.613047 0.0852344 M 0.613047 0.0852344 L 0.60625 0.0855469 M 0.60625 0.0855469 L 0.599297 0.0858594 M 0.599297 0.0858594 L 0.592344 0.0860937 M 0.592344 0.0860937 L 0.585234 0.0863281 M 0.585234 0.0863281 L 0.578047 0.0865625 M 0.578047 0.0865625 L 0.570859 0.0867187 M 0.570859 0.0867187 L 0.563594 0.086875 M 0.563594 0.086875 L 0.556172 0.0870313 M 0.556172 0.0870313 L 0.548828 0.0871875 M 0.548828 0.0871875 L 0.541406 0.0873437 M 0.541406 0.0873437 L 0.533906 0.0874219 M 0.533906 0.0874219 L 0.526406 0.0875 M 0.526406 0.0875 L 0.518906 0.0875781 M 0.518906 0.0875781 L 0.511328 0.0875781 M 0.511328 0.0875781 L 0.50375 0.0875781 M 0.50375 0.0875781 L 0.49625 0.0875781 M 0.49625 0.0875781 L 0.488672 0.0875781 M 0.488672 0.0875781 L 0.481094 0.0875781 M 0.481094 0.0875781 L 0.473594 0.0875 M 0.473594 0.0875 L 0.466094 0.0874219 M 0.466094 0.0874219 L 0.458594 0.0873437 M 0.458594 0.0873437 L 0.451172 0.0871875 M 0.451172 0.0871875 L 0.443828 0.0870313 M 0.443828 0.0870313 L 0.436406 0.086875 M 0.436406 0.086875 L 0.429141 0.0867187 M 0.429141 0.0867187 L 0.421953 0.0865625 M 0.421953 0.0865625 L 0.414766 0.0863281 M 0.414766 0.0863281 L 0.407656 0.0860937 M 0.407656 0.0860937 L 0.400703 0.0858594 M 0.400703 0.0858594 L 0.39375 0.0855469 M 0.39375 0.0855469 L 0.386953 0.0852344 M 0.386953 0.0852344 L 0.380156 0.0849219 M 0.380156 0.0849219 L 0.373594 0.0846094 M 0.373594 0.0846094 L 0.367031 0.0842969 M 0.367031 0.0842969 L 0.360625 0.0839063 M 0.360625 0.0839063 L 0.354375 0.0835938 M 0.354375 0.0835938 L 0.348281 0.083125 M 0.348281 0.083125 L 0.342266 0.0827344 M 0.342266 0.0827344 L 0.336406 0.0823438 M 0.336406 0.0823438 L 0.330703 0.081875 M 0.330703 0.081875 L 0.325078 0.0814062 M 0.325078 0.0814062 L 0.319688 0.0809375 M 0.319688 0.0809375 L 0.314453 0.0804688 M 0.314453 0.0804688 L 0.309375 0.08 M 0.309375 0.08 L 0.304453 0.0794531 M 0.304453 0.0794531 L 0.299766 0.0789062 M 0.299766 0.0789062 L 0.295234 0.0783594 M 0.295234 0.0783594 L 0.290859 0.0778125 M 0.290859 0.0778125 L 0.286719 0.0772656 M 0.286719 0.0772656 L 0.282734 0.0767188 M 0.282734 0.0767188 L 0.278984 0.0760938 M 0.278984 0.0760938 L 0.275469 0.0754688 M 0.275469 0.0754688 L 0.272109 0.0749219 M 0.272109 0.0749219 L 0.269062 0.0742969 M 0.269062 0.0742969 L 0.266094 0.0736719 M 0.266094 0.0736719 L 0.263437 0.0729687 M 0.263437 0.0729687 L 0.261016 0.0723437 M 0.261016 0.0723437 L 0.258828 0.0717187 M 0.258828 0.0717187 L 0.256797 0.0710156 M 0.256797 0.0710156 L 0.255078 0.0703906 M 0.255078 0.0703906 L 0.253594 0.0696875 M 0.253594 0.0696875 L 0.252344 0.0690625 M 0.252344 0.0690625 L 0.251328 0.0683594 M 0.251328 0.0683594 L 0.250547 0.0676563 M 0.250547 0.0676563 L 0.25 0.0669531 " transform="matrix(50,0,0,50,0,0)"/>
<path style="fill:none;stroke-width:0.01;stroke-linecap:butt;stroke-linejoin:miter;stroke:rgb(0%,0%,0%);stroke-opacity:1;stroke-miterlimit:10;" d="M 0.933047 0.25 L 0.931641 0.250703 M 0.931641 0.250703 L 0.929766 0.251328 M 0.929766 0.251328 L 0.9275 0.252031 M 0.9275 0.252031 L 0.924844 0.252734 M 0.924844 0.252734 L 0.921797 0.253359 M 0.921797 0.253359 L 0.918359 0.254063 M 0.918359 0.254063 L 0.914453 0.254688 M 0.914453 0.254688 L 0.910234 0.255312 M 0.910234 0.255312 L 0.905547 0.255937 M 0.905547 0.255937 L 0.900547 0.256563 M 0.900547 0.256563 L 0.895156 0.257188 M 0.895156 0.257188 L 0.889453 0.257812 M 0.889453 0.257812 L 0.883359 0.258359 M 0.883359 0.258359 L 0.876953 0.258984 M 0.876953 0.258984 L 0.870156 0.259531 M 0.870156 0.259531 L 0.863125 0.260078 M 0.863125 0.260078 L 0.855703 0.260625 M 0.855703 0.260625 L 0.847969 0.261172 M 0.847969 0.261172 L 0.84 0.261719 M 0.84 0.261719 L 0.831641 0.262188 M 0.831641 0.262188 L 0.823047 0.262734 M 0.823047 0.262734 L 0.814219 0.263203 M 0.814219 0.263203 L 0.805078 0.263672 M 0.805078 0.263672 L 0.795703 0.264062 M 0.795703 0.264062 L 0.786094 0.264531 M 0.786094 0.264531 L 0.77625 0.264922 M 0.77625 0.264922 L 0.766172 0.265391 M 0.766172 0.265391 L 0.755859 0.265781 M 0.755859 0.265781 L 0.745313 0.266094 M 0.745313 0.266094 L 0.734609 0.266484 M 0.734609 0.266484 L 0.72375 0.266797 M 0.72375 0.266797 L 0.712656 0.267109 M 0.712656 0.267109 L 0.701406 0.267422 M 0.701406 0.267422 L 0.69 0.267734 M 0.69 0.267734 L 0.678438 0.267969 M 0.678438 0.267969 L 0.666719 0.268281 M 0.666719 0.268281 L 0.654922 0.268516 M 0.654922 0.268516 L 0.642969 0.26875 M 0.642969 0.26875 L 0.630938 0.268906 M 0.630938 0.268906 L 0.61875 0.269062 M 0.61875 0.269062 L 0.606484 0.269297 M 0.606484 0.269297 L 0.594141 0.269375 M 0.594141 0.269375 L 0.581719 0.269531 M 0.581719 0.269531 L 0.569297 0.269609 M 0.569297 0.269609 L 0.556797 0.269766 M 0.556797 0.269766 L 0.544219 0.269844 M 0.544219 0.269844 L 0.531563 0.269844 M 0.531563 0.269844 L 0.518984 0.269922 M 0.518984 0.269922 L 0.506328 0.269922 M 0.506328 0.269922 L 0.493672 0.269922 M 0.493672 0.269922 L 0.481016 0.269922 M 0.481016 0.269922 L 0.468438 0.269844 M 0.468438 0.269844 L 0.455781 0.269844 M 0.455781 0.269844 L 0.443203 0.269766 M 0.443203 0.269766 L 0.430703 0.269609 M 0.430703 0.269609 L 0.418281 0.269531 M 0.418281 0.269531 L 0.405859 0.269375 M 0.405859 0.269375 L 0.393516 0.269297 M 0.393516 0.269297 L 0.38125 0.269062 M 0.38125 0.269062 L 0.369063 0.268906 M 0.369063 0.268906 L 0.357031 0.26875 M 0.357031 0.26875 L 0.345078 0.268516 M 0.345078 0.268516 L 0.333281 0.268281 M 0.333281 0.268281 L 0.321563 0.267969 M 0.321563 0.267969 L 0.31 0.267734 M 0.31 0.267734 L 0.298594 0.267422 M 0.298594 0.267422 L 0.287344 0.267109 M 0.287344 0.267109 L 0.27625 0.266797 M 0.27625 0.266797 L 0.265391 0.266484 M 0.265391 0.266484 L 0.254688 0.266094 M 0.254688 0.266094 L 0.244141 0.265781 M 0.244141 0.265781 L 0.233828 0.265391 M 0.233828 0.265391 L 0.22375 0.264922 M 0.22375 0.264922 L 0.213906 0.264531 M 0.213906 0.264531 L 0.204297 0.264062 M 0.204297 0.264062 L 0.194922 0.263672 M 0.194922 0.263672 L 0.185781 0.263203 M 0.185781 0.263203 L 0.176953 0.262734 M 0.176953 0.262734 L 0.168359 0.262188 M 0.168359 0.262188 L 0.16 0.261719 M 0.16 0.261719 L 0.152031 0.261172 M 0.152031 0.261172 L 0.144297 0.260625 M 0.144297 0.260625 L 0.136875 0.260078 M 0.136875 0.260078 L 0.129844 0.259531 M 0.129844 0.259531 L 0.123047 0.258984 M 0.123047 0.258984 L 0.116641 0.258359 M 0.116641 0.258359 L 0.110547 0.257812 M 0.110547 0.257812 L 0.104844 0.257188 M 0.104844 0.257188 L 0.0994531 0.256563 M 0.0994531 0.256563 L 0.0944531 0.255937 M 0.0944531 0.255937 L 0.0897656 0.255312 M 0.0897656 0.255312 L 0.0855469 0.254688 M 0.0855469 0.254688 L 0.0816406 0.254063 M 0.0816406 0.254063 L 0.0782031 0.253359 M 0.0782031 0.253359 L 0.0751563 0.252734 M 0.0751563 0.252734 L 0.0725 0.252031 M 0.0725 0.252031 L 0.0702344 0.251328 M 0.0702344 0.251328 L 0.0683594 0.250703 M 0.0683594 0.250703 L 0.0669531 0.25 " transform="matrix(50,0,0,50,0,0)"/>
<path style="fill:none;stroke-width:0.01;stroke-linecap:butt;stroke-linejoin:miter;stroke:rgb(0%,0%,0%);stroke-opacity:1;stroke-miterlimit:10;" d="M 1 0.5 L 0.998203 0.5 M 0.998203 0.5 L 0.995859 0.5 M 0.995859 0.5 L 0.993047 0.5 M 0.993047 0.5 L 0.989766 0.5 M 0.989766 0.5 L 0.986016 0.5 M 0.986016 0.5 L 0.981875 0.5 M 0.981875 0.5 L 0.977187 0.5 M 0.977187 0.5 L 0.972109 0.5 M 0.972109 0.5 L 0.966562 0.5 M 0.966562 0.5 L 0.960625 0.5 M 0.960625 0.5 L 0.954297 0.5 M 0.954297 0.5 L 0.947578 0.5 M 0.947578 0.5 L 0.940391 0.5 M 0.940391 0.5 L 0.932891 0.5 M 0.932891 0.5 L 0.924922 0.5 M 0.924922 0.5 L 0.916641 0.5 M 0.916641 0.5 L 0.908047 0.5 M 0.908047 0.5 L 0.899062 0.5 M 0.899062 0.5 L 0.889766 0.5 M 0.889766 0.5 L 0.880078 0.5 M 0.880078 0.5 L 0.870156 0.5 M 0.870156 0.5 L 0.859922 0.5 M 0.859922 0.5 L 0.849375 0.5 M 0.849375 0.5 L 0.838516 0.5 M 0.838516 0.5 L 0.827422 0.5 M 0.827422 0.5 L 0.816016 0.5 M 0.816016 0.5 L 0.804453 0.5 M 0.804453 0.5 L 0.792578 0.5 M 0.792578 0.5 L 0.780469 0.5 M 0.780469 0.5 L 0.768203 0.5 M 0.768203 0.5 L 0.755703 0.5 M 0.755703 0.5 L 0.742969 0.5 M 0.742969 0.5 L 0.730078 0.5 M 0.730078 0.5 L 0.717031 0.5 M 0.717031 0.5 L 0.70375 0.5 M 0.70375 0.5 L 0.690391 0.5 M 0.690391 0.5 L 0.676875 0.5 M 0.676875 0.5 L 0.663203 0.5 M 0.663203 0.5 L 0.649453 0.5 M 0.649453 0.5 L 0.635547 0.5 M 0.635547 0.5 L 0.621563 0.5 M 0.621563 0.5 L 0.607422 0.5 M 0.607422 0.5 L 0.593281 0.5 M 0.593281 0.5 L 0.579063 0.5 M 0.579063 0.5 L 0.564766 0.5 M 0.564766 0.5 L 0.550391 0.5 M 0.550391 0.5 L 0.536016 0.5 M 0.536016 0.5 L 0.521641 0.5 M 0.521641 0.5 L 0.507188 0.5 M 0.507188 0.5 L 0.492812 0.5 M 0.492812 0.5 L 0.478359 0.5 M 0.478359 0.5 L 0.463984 0.5 M 0.463984 0.5 L 0.449609 0.5 M 0.449609 0.5 L 0.435234 0.5 M 0.435234 0.5 L 0.420938 0.5 M 0.420938 0.5 L 0.406719 0.5 M 0.406719 0.5 L 0.392578 0.5 M 0.392578 0.5 L 0.378437 0.5 M 0.378437 0.5 L 0.364453 0.5 M 0.364453 0.5 L 0.350547 0.5 M 0.350547 0.5 L 0.336797 0.5 M 0.336797 0.5 L 0.323125 0.5 M 0.323125 0.5 L 0.309609 0.5 M 0.309609 0.5 L 0.29625 0.5 M 0.29625 0.5 L 0.282969 0.5 M 0.282969 0.5 L 0.269922 0.5 M 0.269922 0.5 L 0.257031 0.5 M 0.257031 0.5 L 0.244297 0.5 M 0.244297 0.5 L 0.231797 0.5 M 0.231797 0.5 L 0.219531 0.5 M 0.219531 0.5 L 0.207422 0.5 M 0.207422 0.5 L 0.195547 0.5 M 0.195547 0.5 L 0.183984 0.5 M 0.183984 0.5 L 0.172578 0.5 M 0.172578 0.5 L 0.161484 0.5 M 0.161484 0.5 L 0.150625 0.5 M 0.150625 0.5 L 0.140078 0.5 M 0.140078 0.5 L 0.129844 0.5 M 0.129844 0.5 L 0.119922 0.5 M 0.119922 0.5 L 0.110234 0.5 M 0.110234 0.5 L 0.100937 0.5 M 0.100937 0.5 L 0.0919531 0.5 M 0.0919531 0.5 L 0.0833594 0.5 M 0.0833594 0.5 L 0.0750781 0.5 M 0.0750781 0.5 L 0.0671094 0.5 M 0.0671094 0.5 L 0.0596094 0.5 M 0.0596094 0.5 L 0.0524219 0.5 M 0.0524219 0.5 L 0.0457031 0.5 M 0.0457031 0.5 L 0.039375 0.5 M 0.039375 0.5 L 0.0334375 0.5 M 0.0334375 0.5 L 0.0278906 0.5 M 0.0278906 0.5 L 0.0228125 0.5 M 0.0228125 0.5 L 0.018125 0.5 M 0.018125 0.5 L 0.0139844 0.5 M 0.0139844 0.5 L 0.0102344 0.5 M 0.0102344 0.5 L 0.00695313 0.5 M 0.00695313 0.5 L 0.00414063 0.5 M 0.00414063 0.5 L 0.00179688 0.5 M 0.00179688 0.5 L 0 0.5 " transform="matrix(50,0,0,50,0,0)"/>
<path style="fill:none;stroke-width:0.01;stroke-linecap:butt;stroke-linejoin:miter;stroke:rgb(0%,0%,0%);stroke-opacity:1;stroke-miterlimit:10;" d="M 0.933047 0.75 L 0.931641 0.749297 M 0.931641 0.749297 L 0.929766 0.748672 M 0.929766 0.748672 L 0.9275 0.747969 M 0.9275 0.747969 L 0.924844 0.747266 M 0.924844 0.747266 L 0.921797 0.746641 M 0.921797 0.746641 L 0.918359 0.745938 M 0.918359 0.745938 L 0.914453 0.745313 M 0.914453 0.745313 L 0.910234 0.744688 M 0.910234 0.744688 L 0.905547 0.744062 M 0.905547 0.744062 L 0.900547 0.743437 M 0.900547 0.743437 L 0.895156 0.742812 M 0.895156 0.742812 L 0.889453 0.742188 M 0.889453 0.742188 L 0.883359 0.741641 M 0.883359 0.741641 L 0.876953 0.741016 M 0.876953 0.741016 L 0.870156 0.740469 M 0.870156 0.740469 L 0.863125 0.739922 M 0.863125 0.739922 L 0.855703 0.739375 M 0.855703 0.739375 L 0.847969 0.738828 M 0.847969 0.738828 L 0.84 0.738281 M 0.84 0.738281 L 0.831641 0.737812 M 0.831641 0.737812 L 0.823047 0.737266 M 0.823047 0.737266 L 0.814219 0.736797 M 0.814219 0.736797 L 0.805078 0.736328 M 0.805078 0.736328 L 0.795703 0.735938 M 0.795703 0.735938 L 0.786094 0.735469 M 0.786094 0.735469 L 0.77625 0.735078 M 0.77625 0.735078 L 0.766172 0.734609 M 0.766172 0.734609 L 0.755859 0.734219 M 0.755859 0.734219 L 0.745313 0.733906 M 0.745313 0.733906 L 0.734609 0.733516 M 0.734609 0.733516 L 0.72375 0.733203 M 0.72375 0.733203 L 0.712656 0.732891 M 0.712656 0.732891 L 0.701406 0.732578 M 0.701406 0.732578 L 0.69 0.732266 M 0.69 0.732266 L 0.678438 0.732031 M 0.678438 0.732031 L 0.666719 0.731719 M 0.666719 0.731719 L 0.654922 0.731484 M 0.654922 0.731484 L 0.642969 0.73125 M 0.642969 0.73125 L 0.630938 0.731094 M 0.630938 0.731094 L 0.61875 0.730938 M 0.61875 0.730938 L 0.606484 0.730703 M 0.606484 0.730703 L 0.594141 0.730625 M 0.594141 0.730625 L 0.581719 0.730469 M 0.581719 0.730469 L 0.569297 0.730391 M 0.569297 0.730391 L 0.556797 0.730234 M 0.556797 0.730234 L 0.544219 0.730156 M 0.544219 0.730156 L 0.531563 0.730156 M 0.531563 0.730156 L 0.518984 0.730078 M 0.518984 0.730078 L 0.506328 0.730078 M 0.506328 0.730078 L 0.493672 0.730078 M 0.493672 0.730078 L 0.481016 0.730078 M 0.481016 0.730078 L 0.468438 0.730156 M 0.468438 0.730156 L 0.455781 0.730156 M 0.455781 0.730156 L 0.443203 0.730234 M 0.443203 0.730234 L 0.430703 0.730391 M 0.430703 0.730391 L 0.418281 0.730469 M 0.418281 0.730469 L 0.405859 0.730625 M 0.405859 0.730625 L 0.393516 0.730703 M 0.393516 0.730703 L 0.38125 0.730938 M 0.38125 0.730938 L 0.369063 0.731094 M 0.369063 0.731094 L 0.357031 0.73125 M 0.357031 0.73125 L 0.345078 0.731484 M 0.345078 0.731484 L 0.333281 0.731719 M 0.333281 0.731719 L 0.321563 0.732031 M 0.321563 0.732031 L 0.31 0.732266 M 0.31 0.732266 L 0.298594 0.732578 M 0.298594 0.732578 L 0.287344 0.732891 M 0.287344 0.732891 L 0.27625 0.733203 M 0.27625 0.733203 L 0.265391 0.733516 M 0.265391 0.733516 L 0.254688 0.733906 M 0.254688 0.733906 L 0.244141 0.734219 M 0.244141 0.734219 L 0.233828 0.734609 M 0.233828 0.734609 L 0.22375 0.735078 M 0.22375 0.735078 L 0.213906 0.735469 M 0.213906 0.735469 L 0.204297 0.735938 M 0.204297 0.735938 L 0.194922 0.736328 M 0.194922 0.736328 L 0.185781 0.736797 M 0.185781 0.736797 L 0.176953 0.737266 M 0.176953 0.737266 L 0.168359 0.737812 M 0.168359 0.737812 L 0.16 0.738281 M 0.16 0.738281 L 0.152031 0.738828 M 0.152031 0.738828 L 0.144297 0.739375 M 0.144297 0.739375 L 0.136875 0.739922 M 0.136875 0.739922 L 0.129844 0.740469 M 0.129844 0.740469 L 0.123047 0.741016 M 0.123047 0.741016 L 0.116641 0.741641 M 0.116641 0.741641 L 0.110547 0.742188 M 0.110547 0.742188 L 0.104844 0.742812 M 0.104844 0.742812 L 0.0994531 0.743437 M 0.0994531 0.743437 L 0.0944531 0.744062 M 0.0944531 0.744062 L 0.0897656 0.744688 M 0.0897656 0.744688 L 0.0855469 0.745313 M 0.0855469 0.745313 L 0.0816406 0.745938 M 0.0816406 0.745938 L 0.0782031 0.746641 M 0.0782031 0.746641 L 0.0751563 0.747266 M 0.0751563 0.747266 L 0.0725 0.747969 M 0.0725 0.747969 L 0.0702344 0.748672 M 0.0702344 0.748672 L 0.0683594 0.749297 M 0.0683594 0.749297 L 0.0669531 0.75 " transform="matrix(50,0,0,50,0,0)"/>
<path style="fill:none;stroke-width:0.01;stroke-linecap:butt;stroke-linejoin:miter;stroke:rgb(0%,0%,0%);stroke-opacity:1;stroke-miterlimit:10;" d="M 0.75 0.933047 L 0.749453 0.932344 M 0.749453 0.932344 L 0.748672 0.931641 M 0.748672 0.931641 L 0.747656 0.930937 M 0.747656 0.930937 L 0.746406 0.930312 M 0.746406 0.930312 L 0.744922 0.929609 M 0.744922 0.929609 L 0.743203 0.928984 M 0.743203 0.928984 L 0.741172 0.928281 M 0.741172 0.928281 L 0.738984 0.927656 M 0.738984 0.927656 L 0.736563 0.927031 M 0.736563 0.927031 L 0.733906 0.926328 M 0.733906 0.926328 L 0.730938 0.925703 M 0.730938 0.925703 L 0.727891 0.925078 M 0.727891 0.925078 L 0.724531 0.924531 M 0.724531 0.924531 L 0.721016 0.923906 M 0.721016 0.923906 L 0.717266 0.923281 M 0.717266 0.923281 L 0.713281 0.922734 M 0.713281 0.922734 L 0.709141 0.922188 M 0.709141 0.922188 L 0.704766 0.921641 M 0.704766 0.921641 L 0.700234 0.921094 M 0.700234 0.921094 L 0.695547 0.920547 M 0.695547 0.920547 L 0.690625 0.92 M 0.690625 0.92 L 0.685547 0.919531 M 0.685547 0.919531 L 0.680312 0.919063 M 0.680312 0.919063 L 0.674922 0.918594 M 0.674922 0.918594 L 0.669297 0.918125 M 0.669297 0.918125 L 0.663594 0.917656 M 0.663594 0.917656 L 0.657734 0.917266 M 0.657734 0.917266 L 0.651719 0.916875 M 0.651719 0.916875 L 0.645625 0.916406 M 0.645625 0.916406 L 0.639375 0.916094 M 0.639375 0.916094 L 0.632969 0.915703 M 0.632969 0.915703 L 0.626406 0.915391 M 0.626406 0.915391 L 0.619844 0.915078 M 0.619844 0.915078 L 0.613047 0.914766 M 0.613047 0.914766 L 0.60625 0.914453 M 0.60625 0.914453 L 0.599297 0.914141 M 0.599297 0.914141 L 0.592344 0.913906 M 0.592344 0.913906 L 0.585234 0.913672 M 0.585234 0.913672 L 0.578047 0.913438 M 0.578047 0.913438 L 0.570859 0.913281 M 0.570859 0.913281 L 0.563594 0.913125 M 0.563594 0.913125 L 0.556172 0.912969 M 0.556172 0.912969 L 0.548828 0.912813 M 0.548828 0.912813 L 0.541406 0.912656 M 0.541406 0.912656 L 0.533906 0.912578 M 0.533906 0.912578 L 0.526406 0.9125 M 0.526406 0.9125 L 0.518906 0.912422 M 0.518906 0.912422 L 0.511328 0.912422 M 0.511328 0.912422 L 0.50375 0.912422 M 0.50375 0.912422 L 0.49625 0.912422 M 0.49625 0.912422 L 0.488672 0.912422 M 0.488672 0.912422 L 0.481094 0.912422 M 0.481094 0.912422 L 0.473594 0.9125 M 0.473594 0.9125 L 0.466094 0.912578 M 0.466094 0.912578 L 0.458594 0.912656 M 0.458594 0.912656 L 0.451172 0.912813 M 0.451172 0.912813 L 0.443828 0.912969 M 0.443828 0.912969 L 0.436406 0.913125 M 0.436406 0.913125 L 0.429141 0.913281 M 0.429141 0.913281 L 0.421953 0.913438 M 0.421953 0.913438 L 0.414766 0.913672 M 0.414766 0.913672 L 0.407656 0.913906 M 0.407656 0.913906 L 0.400703 0.914141 M 0.400703 0.914141 L 0.39375 0.914453 M 0.39375 0.914453 L 0.386953 0.914766 M 0.386953 0.914766 L 0.380156 0.915078 M 0.380156 0.915078 L 0.373594 0.915391 M 0.373594 0.915391 L 0.367031 0.915703 M 0.367031 0.915703 L 0.360625 0.916094 M 0.360625 0.916094 L 0.354375 0.916406 M 0.354375 0.916406 L 0.348281 0.916875 M 0.348281 0.916875 L 0.342266 0.917266 M 0.342266 0.917266 L 0.336406 0.917656 M 0.336406 0.917656 L 0.330703 0.918125 M 0.330703 0.918125 L 0.325078 0.918594 M 0.325078 0.918594 L 0.319688 0.919063 M 0.319688 0.919063 L 0.314453 0.919531 M 0.314453 0.919531 L 0.309375 0.92 M 0.309375 0.92 L 0.304453 0.920547 M 0.304453 0.920547 L 0.299766 0.921094 M 0.299766 0.921094 L 0.295234 0.921641 M 0.295234 0.921641 L 0.290859 0.922188 M 0.290859 0.922188 L 0.286719 0.922734 M 0.286719 0.922734 L 0.282734 0.923281 M 0.282734 0.923281 L 0.278984 0.923906 M 0.278984 0.923906 L 0.275469 0.924531 M 0.275469 0.924531 L 0.272109 0.925078 M 0.272109 0.925078 L 0.269062 0.925703 M 0.269062 0.925703 L 0.266094 0.926328 M 0.266094 0.926328 L 0.263437 0.927031 M 0.263437 0.927031 L 0.261016 0.927656 M 0.261016 0.927656 L 0.258828 0.928281 M 0.258828 0.928281 L 0.256797 0.928984 M 0.256797 0.928984 L 0.255078 0.929609 M 0.255078 0.929609 L 0.253594 0.930312 M 0.253594 0.930312 L 0.252344 0.930937 M 0.252344 0.930937 L 0.251328 0.931641 M 0.251328 0.931641 L 0.250547 0.932344 M 0.250547 0.932344 L 0.25 0.933047 " transform="matrix(50,0,0,50,0,0)"/>
<path style="fill:none;stroke-width:0.01;stroke-linecap:butt;stroke-linejoin:miter;stroke:rgb(0%,0%,0%);stroke-opacity:1;stroke-miterlimit:10;" d="M 0.5 1 L 0.5 1 M 0.5 1 L 0.5 1 M 0.5 1 L 0.5 1 M 0.5 1 L 0.5 1 M 0.5 1 L 0.5 1 M 0.5 1 L 0.5 1 M 0.5 1 L 0.5 1 M 0.5 1 L 0.5 1 M 0.5 1 L 0.5 1 M 0.5 1 L 0.5 1 M 0.5 1 L 0.5 1 M 0.5 1 L 0.5 1 M 0.5 1 L 0.5 1 M 0.5 1 L 0.5 1 M 0.5 1 L 0.5 1 M 0.5 1 L 0.5 1 M 0.5 1 L 0.5 1 M 0.5 1 L 0.5 1 M 0.5 1 L 0.5 1 M 0.5 1 L 0.5 1 M 0.5 1 L 0.5 1 M 0.5 1 L 0.5 1 M 0.5 1 L 0.5 1 M 0.5 1 L 0.5 1 M 0.5 1 L 0.5 1 M 0.5 1 L 0.5 1 M 0.5 1 L 0.5 1 M 0.5 1 L 0.5 1 M 0.5 1 L 0.5 1 M 0.5 1 L 0.5 1 M 0.5 1 L 0.5 1 M 0.5 1 L 0.5 1 M 0.5 1 L 0.5 1 M 0.5 1 L 0.5 1 M 0.5 1 L 0.5 1 M 0.5 1 L 0.5 1 M 0.5 1 L 0.5 1 M 0.5 1 L 0.5 1 M 0.5 1 L 0.5 1 M 0.5 1 L 0.5 1 M 0.5 1 L 0.5 1 M 0.5 1 L 0.5 1 M 0.5 1 L 0.5 1 M 0.5 1 L 0.5 1 M 0.5 1 L 0.5 1 M 0.5 1 L 0.5 1 M 0.5 1 L 0.5 1 M 0.5 1 L 0.5 1 M 0.5 1 L 0.5 1 M 0.5 1 L 0.5 1 M 0.5 1 L 0.5 1 M 0.5 1 L 0.5 1 M 0.5 1 L 0.5 1 M 0.5 1 L 0.5 1 M 0.5 1 L 0.5 1 M 0.5 1 L 0.5 1 M 0.5 1 L 0.5 1 M 0.5 1 L 0.5 1 M 0.5 1 L 0.5 1 M 0.5 1 L 0.5 1 M 0.5 1 L 0.5 1 M 0.5 1 L 0.5 1 M 0.5 1 L 0.5 1 M 0.5 1 L 0.5 1 M 0.5 1 L 0.5 1 M 0.5 1 L 0.5 1 M 0.5 1 L 0.5 1 M 0.5 1 L 0.5 1 M 0.5 1 L 0.5 1 M 0.5 1 L 0.5 1 M 0.5 1 L 0.5 1 M 0.5 1 L 0.5 1 M 0.5 1 L 0.5 1 M 0.5 1 L 0.5 1 M 0.5 1 L 0.5 1 M 0.5 1 L 0.5 1 M 0.5 1 L 0.5 1 M 0.5 1 L 0.5 1 M 0.5 1 L 0.5 1 M 0.5 1 L 0.5 1 M 0.5 1 L 0.5 1 M 0.5 1 L 0.5 1 M 0.5 1 L 0.5 1 M 0.5 1 L 0.5 1 M 0.5 1 L 0.5 1 M 0.5 1 L 0.5 1 M 0.5 1 L 0.5 1 M 0.5 1 L 0.5 1 M 0.5 1 L 0.5 1 M 0.5 1 L 0.5 1 M 0.5 1 L 0.5 1 M 0.5 1 L 0.5 1 M 0.5 1 L 0.5 1 M 0.5 1 L 0.5 1 M 0.5 1 L 0.5 1 M 0.5 1 L 0.5 1 M 0.5 1 L 0.5 1 M 0.5 1 L 0.5 1 M 0.5 1 L 0.5 1 " transform="matrix(50,0,0,50,0,0)"/>
<path style="fill:none;stroke-width:0.01;stroke-linecap:butt;stroke-linejoin:miter;stroke:rgb(0%,0%,0%);stroke-opacity:1;stroke-miterlimit:10;" d="M 0.5 0 L 0.515859 0.000234375 M 0.515859 0.000234375 L 0.531719 0.00101563 M 0.531719 0.00101563 L 0.5475 0.00226562 M 0.5475 0.00226562 L 0.563281 0.00398438 M 0.563281 0.00398438 L 0.578984 0.00625 M 0.578984 0.00625 L 0.594609 0.0090625 M 0.594609 0.0090625 L 0.610156 0.0122656 M 0.610156 0.0122656 L 0.625547 0.0160156 M 0.625547 0.0160156 L 0.640859 0.0202344 M 0.640859 0.0202344 L 0.656016 0.025 M 0.656016 0.025 L 0.671016 0.0301562 M 0.671016 0.0301562 L 0.685859 0.0357813 M 0.685859 0.0357813 L 0.700469 0.0419531 M 0.700469 0.0419531 L 0.714922 0.0485156 M 0.714922 0.0485156 L 0.729141 0.0555469 M 0.729141 0.0555469 L 0.743125 0.0630469 M 0.743125 0.0630469 L 0.756875 0.0710156 M 0.756875 0.0710156 L 0.770313 0.079375 M 0.770313 0.079375 L 0.783516 0.088125 M 0.783516 0.088125 L 0.796484 0.0973438 M 0.796484 0.0973438 L 0.809063 0.106953 M 0.809063 0.106953 L 0.821406 0.116953 M 0.821406 0.116953 L 0.833359 0.127344 M 0.833359 0.127344 L 0.845078 0.138125 M 0.845078 0.138125 L 0.856328 0.149297 M 0.856328 0.149297 L 0.867266 0.160781 M 0.867266 0.160781 L 0.877891 0.172578 M 0.877891 0.172578 L 0.888047 0.184688 M 0.888047 0.184688 L 0.897891 0.197188 M 0.897891 0.197188 L 0.907266 0.21 M 0.907266 0.21 L 0.91625 0.223047 M 0.91625 0.223047 L 0.924844 0.236406 M 0.924844 0.236406 L 0.933047 0.25 M 0.933047 0.25 L 0.940703 0.263828 M 0.940703 0.263828 L 0.947969 0.277969 M 0.947969 0.277969 L 0.954844 0.292266 M 0.954844 0.292266 L 0.961172 0.306797 M 0.961172 0.306797 L 0.967109 0.321563 M 0.967109 0.321563 L 0.9725 0.336484 M 0.9725 0.336484 L 0.977422 0.351562 M 0.977422 0.351562 L 0.981953 0.366797 M 0.981953 0.366797 L 0.985938 0.382109 M 0.985938 0.382109 L 0.989375 0.397578 M 0.989375 0.397578 L 0.992422 0.413203 M 0.992422 0.413203 L 0.994922 0.428828 M 0.994922 0.428828 L 0.996953 0.444609 M 0.996953 0.444609 L 0.998437 0.460391 M 0.998437 0.460391 L 0.999453 0.476172 M 0.999453 0.476172 L 0.999922 0.492031 M 0.999922 0.492031 L 0.999922 0.507969 M 0.999922 0.507969 L 0.999453 0.523828 M 0.999453 0.523828 L 0.998437 0.539609 M 0.998437 0.539609 L 0.996953 0.555391 M 0.996953 0.555391 L 0.994922 0.571172 M 0.994922 0.571172 L 0.992422 0.586797 M 0.992422 0.586797 L 0.989375 0.602422 M 0.989375 0.602422 L 0.985938 0.617891 M 0.985938 0.617891 L 0.981953 0.633203 M 0.981953 0.633203 L 0.977422 0.648438 M 0.977422 0.648438 L 0.9725 0.663516 M 0.9725 0.663516 L 0.967109 0.678438 M 0.967109 0.678438 L 0.961172 0.693203 M 0.961172 0.693203 L 0.954844 0.707734 M 0.954844 0.707734 L 0.947969 0.722031 M 0.947969 0.722031 L 0.940703 0.736172 M 0.940703 0.736172 L 0.933047 0.75 M 0.933047 0.75 L 0.924844 0.763594 M 0.924844 0.763594 L 0.91625 0.776953 M 0.91625 0.776953 L 0.907266 0.79 M 0.907266 0.79 L 0.897891 0.802813 M 0.897891 0.802813 L 0.888047 0.815312 M 0.888047 0.815312 L 0.877891 0.827422 M 0.877891 0.827422 L 0.867266 0.839219 M 0.867266 0.839219 L 0.856328 0.850703 M 0.856328 0.850703 L 0.845078 0.861875 M 0.845078 0.861875 L 0.833359 0.872656 M 0.833359 0.872656 L 0.821406 0.883047 M 0.821406 0.883047 L 0.809063 0.893047 M 0.809063 0.893047 L 0.796484 0.902656 M 0.796484 0.902656 L 0.783516 0.911875 M 0.783516 0.911875 L 0.770313 0.920625 M 0.770313 0.920625 L 0.756875 0.928984 M 0.756875 0.928984 L 0.743125 0.936953 M 0.743125 0.936953 L 0.729141 0.944453 M 0.729141 0.944453 L 0.714922 0.951484 M 0.714922 0.951484 L 0.700469 0.958047 M 0.700469 0.958047 L 0.685859 0.964219 M 0.685859 0.964219 L 0.671016 0.969844 M 0.671016 0.969844 L 0.656016 0.975 M 0.656016 0.975 L 0.640859 0.979766 M 0.640859 0.979766 L 0.625547 0.983984 M 0.625547 0.983984 L 0.610156 0.987734 M 0.610156 0.987734 L 0.594609 0.990938 M 0.594609 0.990938 L 0.578984 0.99375 M 0.578984 0.99375 L 0.563281 0.996016 M 0.563281 0.996016 L 0.5475 0.997734 M 0.5475 0.997734 L 0.531719 0.998984 M 0.531719 0.998984 L 0.515859 0.999766 M 0.515859 0.999766 L 0.5 1 " transform="matrix(50,0,0,50,0,0)"/>
<path style="fill:none;stroke-width:0.01;stroke-linecap:butt;stroke-linejoin:miter;stroke:rgb(0%,0%,0%);stroke-opacity:1;stroke-miterlimit:10;" d="M 0.5 0 L 0.51375 0.00101563 M 0.51375 0.00101563 L 0.527344 0.00257813 M 0.527344 0.00257813 L 0.540937 0.00460937 M 0.540937 0.00460937 L 0.554453 0.00710938 M 0.554453 0.00710938 L 0.567891 0.0101563 M 0.567891 0.0101563 L 0.581172 0.0136719 M 0.581172 0.0136719 L 0.594375 0.0175781 M 0.594375 0.0175781 L 0.607422 0.0220312 M 0.607422 0.0220312 L 0.620313 0.0269531 M 0.620313 0.0269531 L 0.633047 0.0322656 M 0.633047 0.0322656 L 0.645625 0.0380469 M 0.645625 0.0380469 L 0.657969 0.0442969 M 0.657969 0.0442969 L 0.670234 0.0509375 M 0.670234 0.0509375 L 0.682188 0.0580469 M 0.682188 0.0580469 L 0.693984 0.0655469 M 0.693984 0.0655469 L 0.705547 0.0734375 M 0.705547 0.0734375 L 0.716875 0.0817188 M 0.716875 0.0817188 L 0.727969 0.0904688 M 0.727969 0.0904688 L 0.73875 0.0995313 M 0.73875 0.0995313 L 0.749375 0.108984 M 0.749375 0.108984 L 0.759609 0.11875 M 0.759609 0.11875 L 0.769687 0.128906 M 0.769687 0.128906 L 0.779375 0.139375 M 0.779375 0.139375 L 0.788828 0.150234 M 0.788828 0.150234 L 0.797969 0.161328 M 0.797969 0.161328 L 0.806797 0.172734 M 0.806797 0.172734 L 0.815312 0.184453 M 0.815312 0.184453 L 0.823516 0.196484 M 0.823516 0.196484 L 0.831406 0.20875 M 0.831406 0.20875 L 0.838906 0.221328 M 0.838906 0.221328 L 0.846094 0.234141 M 0.846094 0.234141 L 0.852969 0.247109 M 0.852969 0.247109 L 0.859453 0.260391 M 0.859453 0.260391 L 0.865547 0.273828 M 0.865547 0.273828 L 0.871328 0.2875 M 0.871328 0.2875 L 0.876719 0.301328 M 0.876719 0.301328 L 0.881797 0.315312 M 0.881797 0.315312 L 0.886484 0.329531 M 0.886484 0.329531 L 0.890703 0.343828 M 0.890703 0.343828 L 0.894609 0.358281 M 0.894609 0.358281 L 0.898203 0.372891 M 0.898203 0.372891 L 0.901328 0.387578 M 0.901328 0.387578 L 0.904062 0.402344 M 0.904062 0.402344 L 0.906406 0.417266 M 0.906406 0.417266 L 0.908359 0.432188 M 0.908359 0.432188 L 0.91 0.447188 M 0.91 0.447188 L 0.911172 0.462266 M 0.911172 0.462266 L 0.911953 0.477344 M 0.911953 0.477344 L 0.912344 0.492422 M 0.912344 0.492422 L 0.912344 0.507578 M 0.912344 0.507578 L 0.911953 0.522656 M 0.911953 0.522656 L 0.911172 0.537734 M 0.911172 0.537734 L 0.91 0.552813 M 0.91 0.552813 L 0.908359 0.567813 M 0.908359 0.567813 L 0.906406 0.582734 M 0.906406 0.582734 L 0.904062 0.597656 M 0.904062 0.597656 L 0.901328 0.612422 M 0.901328 0.612422 L 0.898203 0.627109 M 0.898203 0.627109 L 0.894609 0.641719 M 0.894609 0.641719 L 0.890703 0.656172 M 0.890703 0.656172 L 0.886484 0.670469 M 0.886484 0.670469 L 0.881797 0.684688 M 0.881797 0.684688 L 0.876719 0.698672 M 0.876719 0.698672 L 0.871328 0.7125 M 0.871328 0.7125 L 0.865547 0.726172 M 0.865547 0.726172 L 0.859453 0.739609 M 0.859453 0.739609 L 0.852969 0.752891 M 0.852969 0.752891 L 0.846094 0.765859 M 0.846094 0.765859 L 0.838906 0.778672 M 0.838906 0.778672 L 0.831406 0.79125 M 0.831406 0.79125 L 0.823516 0.803516 M 0.823516 0.803516 L 0.815312 0.815547 M 0.815312 0.815547 L 0.806797 0.827266 M 0.806797 0.827266 L 0.797969 0.838672 M 0.797969 0.838672 L 0.788828 0.849766 M 0.788828 0.849766 L 0.779375 0.860625 M 0.779375 0.860625 L 0.769687 0.871094 M 0.769687 0.871094 L 0.759609 0.88125 M 0.759609 0.88125 L 0.749375 0.891016 M 0.749375 0.891016 L 0.73875 0.900469 M 0.73875 0.900469 L 0.727969 0.909531 M 0.727969 0.909531 L 0.716875 0.918281 M 0.716875 0.918281 L 0.705547 0.926563 M 0.705547 0.926563 L 0.693984 0.934453 M 0.693984 0.934453 L 0.682188 0.941953 M 0.682188 0.941953 L 0.670234 0.949063 M 0.670234 0.949063 L 0.657969 0.955703 M 0.657969 0.955703 L 0.645625 0.961953 M 0.645625 0.961953 L 0.633047 0.967734 M 0.633047 0.967734 L 0.620313 0.973047 M 0.620313 0.973047 L 0.607422 0.977969 M 0.607422 0.977969 L 0.594375 0.982422 M 0.594375 0.982422 L 0.581172 0.986328 M 0.581172 0.986328 L 0.567891 0.989844 M 0.567891 0.989844 L 0.554453 0.992891 M 0.554453 0.992891 L 0.540937 0.995391 M 0.540937 0.995391 L 0.527344 0.997422 M 0.527344 0.997422 L 0.51375 0.998984 M 0.51375 0.998984 L 0.5 1 " transform="matrix(50,0,0,50,0,0)"/>
<path style="fill:none;stroke-width:0.01;stroke-linecap:butt;stroke-linejoin:miter;stroke:rgb(0%,0%,0%);stroke-opacity:1;stroke-miterlimit:10;" d="M 0.5 0 L 0.507891 0.00164062 M 0.507891 0.00164062 L 0.515781 0.00375 M 0.515781 0.00375 L 0.523594 0.00632813 M 0.523594 0.00632813 L 0.531328 0.009375 M 0.531328 0.009375 L 0.538984 0.0129688 M 0.538984 0.0129688 L 0.546563 0.0169531 M 0.546563 0.0169531 L 0.554063 0.0214063 M 0.554063 0.0214063 L 0.561484 0.0263281 M 0.561484 0.0263281 L 0.56875 0.0317188 M 0.56875 0.0317188 L 0.575937 0.0375 M 0.575937 0.0375 L 0.583047 0.0436719 M 0.583047 0.0436719 L 0.59 0.0503125 M 0.59 0.0503125 L 0.596875 0.0573437 M 0.596875 0.0573437 L 0.603594 0.0647656 M 0.603594 0.0647656 L 0.610156 0.0725781 M 0.610156 0.0725781 L 0.616641 0.0807031 M 0.616641 0.0807031 L 0.622969 0.0892969 M 0.622969 0.0892969 L 0.629141 0.0982031 M 0.629141 0.0982031 L 0.635156 0.107422 M 0.635156 0.107422 L 0.641016 0.117031 M 0.641016 0.117031 L 0.646719 0.126953 M 0.646719 0.126953 L 0.652188 0.137187 M 0.652188 0.137187 L 0.657578 0.147734 M 0.657578 0.147734 L 0.662813 0.158516 M 0.662813 0.158516 L 0.667813 0.169687 M 0.667813 0.169687 L 0.672656 0.181016 M 0.672656 0.181016 L 0.677344 0.192656 M 0.677344 0.192656 L 0.681797 0.204609 M 0.681797 0.204609 L 0.686094 0.216719 M 0.686094 0.216719 L 0.690234 0.229063 M 0.690234 0.229063 L 0.694141 0.241641 M 0.694141 0.241641 L 0.697891 0.254453 M 0.697891 0.254453 L 0.701406 0.267422 M 0.701406 0.267422 L 0.704766 0.280625 M 0.704766 0.280625 L 0.707891 0.293984 M 0.707891 0.293984 L 0.710781 0.307422 M 0.710781 0.307422 L 0.713516 0.321094 M 0.713516 0.321094 L 0.716094 0.334922 M 0.716094 0.334922 L 0.718359 0.348828 M 0.718359 0.348828 L 0.720469 0.362891 M 0.720469 0.362891 L 0.722422 0.377031 M 0.722422 0.377031 L 0.724063 0.39125 M 0.724063 0.39125 L 0.725547 0.405625 M 0.725547 0.405625 L 0.726875 0.42 M 0.726875 0.42 L 0.727891 0.434453 M 0.727891 0.434453 L 0.72875 0.448984 M 0.72875 0.448984 L 0.729375 0.463516 M 0.729375 0.463516 L 0.729844 0.478125 M 0.729844 0.478125 L 0.730078 0.492734 M 0.730078 0.492734 L 0.730078 0.507266 M 0.730078 0.507266 L 0.729844 0.521875 M 0.729844 0.521875 L 0.729375 0.536484 M 0.729375 0.536484 L 0.72875 0.551016 M 0.72875 0.551016 L 0.727891 0.565547 M 0.727891 0.565547 L 0.726875 0.58 M 0.726875 0.58 L 0.725547 0.594375 M 0.725547 0.594375 L 0.724063 0.60875 M 0.724063 0.60875 L 0.722422 0.622969 M 0.722422 0.622969 L 0.720469 0.637109 M 0.720469 0.637109 L 0.718359 0.651172 M 0.718359 0.651172 L 0.716094 0.665078 M 0.716094 0.665078 L 0.713516 0.678906 M 0.713516 0.678906 L 0.710781 0.692578 M 0.710781 0.692578 L 0.707891 0.706016 M 0.707891 0.706016 L 0.704766 0.719375 M 0.704766 0.719375 L 0.701406 0.732578 M 0.701406 0.732578 L 0.697891 0.745547 M 0.697891 0.745547 L 0.694141 0.758359 M 0.694141 0.758359 L 0.690234 0.770938 M 0.690234 0.770938 L 0.686094 0.783281 M 0.686094 0.783281 L 0.681797 0.795391 M 0.681797 0.795391 L 0.677344 0.807344 M 0.677344 0.807344 L 0.672656 0.818984 M 0.672656 0.818984 L 0.667813 0.830313 M 0.667813 0.830313 L 0.662813 0.841484 M 0.662813 0.841484 L 0.657578 0.852266 M 0.657578 0.852266 L 0.652188 0.862812 M 0.652188 0.862812 L 0.646719 0.873047 M 0.646719 0.873047 L 0.641016 0.882969 M 0.641016 0.882969 L 0.635156 0.892578 M 0.635156 0.892578 L 0.629141 0.901797 M 0.629141 0.901797 L 0.622969 0.910703 M 0.622969 0.910703 L 0.616641 0.919297 M 0.616641 0.919297 L 0.610156 0.927422 M 0.610156 0.927422 L 0.603594 0.935234 M 0.603594 0.935234 L 0.596875 0.942656 M 0.596875 0.942656 L 0.59 0.949688 M 0.59 0.949688 L 0.583047 0.956328 M 0.583047 0.956328 L 0.575937 0.9625 M 0.575937 0.9625 L 0.56875 0.968281 M 0.56875 0.968281 L 0.561484 0.973672 M 0.561484 0.973672 L 0.554063 0.978594 M 0.554063 0.978594 L 0.546563 0.983047 M 0.546563 0.983047 L 0.538984 0.987031 M 0.538984 0.987031 L 0.531328 0.990625 M 0.531328 0.990625 L 0.523594 0.993672 M 0.523594 0.993672 L 0.515781 0.99625 M 0.515781 0.99625 L 0.507891 0.998359 M 0.507891 0.998359 L 0.5 1 " transform="matrix(50,0,0,50,0,0)"/>
<path style="fill:none;stroke-width:0.01;stroke-linecap:butt;stroke-linejoin:miter;stroke:rgb(0%,0%,0%);stroke-opacity:1;stroke-miterlimit:10;" d="M 0.5 0 L 0.5 0.00179688 M 0.5 0.00179688 L 0.5 0.00414063 M 0.5 0.00414063 L 0.5 0.00695313 M 0.5 0.00695313 L 0.5 0.0102344 M 0.5 0.0102344 L 0.5 0.0139844 M 0.5 0.0139844 L 0.5 0.018125 M 0.5 0.018125 L 0.5 0.0228125 M 0.5 0.0228125 L 0.5 0.0278906 M 0.5 0.0278906 L 0.5 0.0334375 M 0.5 0.0334375 L 0.5 0.039375 M 0.5 0.039375 L 0.5 0.0457031 M 0.5 0.0457031 L 0.5 0.0524219 M 0.5 0.0524219 L 0.5 0.0596094 M 0.5 0.0596094 L 0.5 0.0671094 M 0.5 0.0671094 L 0.5 0.0750781 M 0.5 0.0750781 L 0.5 0.0833594 M 0.5 0.0833594 L 0.5 0.0919531 M 0.5 0.0919531 L 0.5 0.100937 M 0.5 0.100937 L 0.5 0.110234 M 0.5 0.110234 L 0.5 0.119922 M 0.5 0.119922 L 0.5 0.129844 M 0.5 0.129844 L 0.5 0.140078 M 0.5 0.140078 L 0.5 0.150625 M 0.5 0.150625 L 0.5 0.161484 M 0.5 0.161484 L 0.5 0.172578 M 0.5 0.172578 L 0.5 0.183984 M 0.5 0.183984 L 0.5 0.195547 M 0.5 0.195547 L 0.5 0.207422 M 0.5 0.207422 L 0.5 0.219531 M 0.5 0.219531 L 0.5 0.231797 M 0.5 0.231797 L 0.5 0.244297 M 0.5 0.244297 L 0.5 0.257031 M 0.5 0.257031 L 0.5 0.269922 M 0.5 0.269922 L 0.5 0.282969 M 0.5 0.282969 L 0.5 0.29625 M 0.5 0.29625 L 0.5 0.309609 M 0.5 0.309609 L 0.5 0.323125 M 0.5 0.323125 L 0.5 0.336797 M 0.5 0.336797 L 0.5 0.350547 M 0.5 0.350547 L 0.5 0.364453 M 0.5 0.364453 L 0.5 0.378437 M 0.5 0.378437 L 0.5 0.392578 M 0.5 0.392578 L 0.5 0.406719 M 0.5 0.406719 L 0.5 0.420938 M 0.5 0.420938 L 0.5 0.435234 M 0.5 0.435234 L 0.5 0.449609 M 0.5 0.449609 L 0.5 0.463984 M 0.5 0.463984 L 0.5 0.478359 M 0.5 0.478359 L 0.5 0.492812 M 0.5 0.492812 L 0.5 0.507188 M 0.5 0.507188 L 0.5 0.521641 M 0.5 0.521641 L 0.5 0.536016 M 0.5 0.536016 L 0.5 0.550391 M 0.5 0.550391 L 0.5 0.564766 M 0.5 0.564766 L 0.5 0.579063 M 0.5 0.579063 L 0.5 0.593281 M 0.5 0.593281 L 0.5 0.607422 M 0.5 0.607422 L 0.5 0.621563 M 0.5 0.621563 L 0.5 0.635547 M 0.5 0.635547 L 0.5 0.649453 M 0.5 0.649453 L 0.5 0.663203 M 0.5 0.663203 L 0.5 0.676875 M 0.5 0.676875 L 0.5 0.690391 M 0.5 0.690391 L 0.5 0.70375 M 0.5 0.70375 L 0.5 0.717031 M 0.5 0.717031 L 0.5 0.730078 M 0.5 0.730078 L 0.5 0.742969 M 0.5 0.742969 L 0.5 0.755703 M 0.5 0.755703 L 0.5 0.768203 M 0.5 0.768203 L 0.5 0.780469 M 0.5 0.780469 L 0.5 0.792578 M 0.5 0.792578 L 0.5 0.804453 M 0.5 0.804453 L 0.5 0.816016 M 0.5 0.816016 L 0.5 0.827422 M 0.5 0.827422 L 0.5 0.838516 M 0.5 0.838516 L 0.5 0.849375 M 0.5 0.849375 L 0.5 0.859922 M 0.5 0.859922 L 0.5 0.870156 M 0.5 0.870156 L 0.5 0.880078 M 0.5 0.880078 L 0.5 0.889766 M 0.5 0.889766 L 0.5 0.899062 M 0.5 0.899062 L 0.5 0.908047 M 0.5 0.908047 L 0.5 0.916641 M 0.5 0.916641 L 0.5 0.924922 M 0.5 0.924922 L 0.5 0.932891 M 0.5 0.932891 L 0.5 0.940391 M 0.5 0.940391 L 0.5 0.947578 M 0.5 0.947578 L 0.5 0.954297 M 0.5 0.954297 L 0.5 0.960625 M 0.5 0.960625 L 0.5 0.966562 M 0.5 0.966562 L 0.5 0.972109 M 0.5 0.972109 L 0.5 0.977187 M 0.5 0.977187 L 0.5 0.981875 M 0.5 0.981875 L 0.5 0.986016 M 0.5 0.986016 L 0.5 0.989766 M 0.5 0.989766 L 0.5 0.993047 M 0.5 0.993047 L 0.5 0.995859 M 0.5 0.995859 L 0.5 0.998203 M 0.5 0.998203 L 0.5 1 " transform="matrix(50,0,0,50,0,0)"/>
<path style="fill:none;stroke-width:0.01;stroke-linecap:butt;stroke-linejoin:miter;stroke:rgb(0%,0%,0%);stroke-opacity:1;stroke-miterlimit:10;" d="M 0.5 0 L 0.492109 0.00164062 M 0.492109 0.00164062 L 0.484219 0.00375 M 0.484219 0.00375 L 0.476406 0.00632813 M 0.476406 0.00632813 L 0.468672 0.009375 M 0.468672 0.009375 L 0.461016 0.0129688 M 0.461016 0.0129688 L 0.453437 0.0169531 M 0.453437 0.0169531 L 0.445937 0.0214063 M 0.445937 0.0214063 L 0.438516 0.0263281 M 0.438516 0.0263281 L 0.43125 0.0317188 M 0.43125 0.0317188 L 0.424063 0.0375 M 0.424063 0.0375 L 0.416953 0.0436719 M 0.416953 0.0436719 L 0.41 0.0503125 M 0.41 0.0503125 L 0.403125 0.0573437 M 0.403125 0.0573437 L 0.396406 0.0647656 M 0.396406 0.0647656 L 0.389844 0.0725781 M 0.389844 0.0725781 L 0.383359 0.0807031 M 0.383359 0.0807031 L 0.377031 0.0892969 M 0.377031 0.0892969 L 0.370859 0.0982031 M 0.370859 0.0982031 L 0.364844 0.107422 M 0.364844 0.107422 L 0.358984 0.117031 M 0.358984 0.117031 L 0.353281 0.126953 M 0.353281 0.126953 L 0.347813 0.137187 M 0.347813 0.137187 L 0.342422 0.147734 M 0.342422 0.147734 L 0.337188 0.158516 M 0.337188 0.158516 L 0.332188 0.169687 M 0.332188 0.169687 L 0.327344 0.181016 M 0.327344 0.181016 L 0.322656 0.192656 M 0.322656 0.192656 L 0.318203 0.204609 M 0.318203 0.204609 L 0.313906 0.216719 M 0.313906 0.216719 L 0.309766 0.229063 M 0.309766 0.229063 L 0.305859 0.241641 M 0.305859 0.241641 L 0.302109 0.254453 M 0.302109 0.254453 L 0.298594 0.267422 M 0.298594 0.267422 L 0.295234 0.280625 M 0.295234 0.280625 L 0.292109 0.293984 M 0.292109 0.293984 L 0.289219 0.307422 M 0.289219 0.307422 L 0.286484 0.321094 M 0.286484 0.321094 L 0.283906 0.334922 M 0.283906 0.334922 L 0.281641 0.348828 M 0.281641 0.348828 L 0.279531 0.362891 M 0.279531 0.362891 L 0.277578 0.377031 M 0.277578 0.377031 L 0.275938 0.39125 M 0.275938 0.39125 L 0.274453 0.405625 M 0.274453 0.405625 L 0.273125 0.42 M 0.273125 0.42 L 0.272109 0.434453 M 0.272109 0.434453 L 0.27125 0.448984 M 0.27125 0.448984 L 0.270625 0.463516 M 0.270625 0.463516 L 0.270156 0.478125 M 0.270156 0.478125 L 0.269922 0.492734 M 0.269922 0.492734 L 0.269922 0.507266 M 0.269922 0.507266 L 0.270156 0.521875 M 0.270156 0.521875 L 0.270625 0.536484 M 0.270625 0.536484 L 0.27125 0.551016 M 0.27125 0.551016 L 0.272109 0.565547 M 0.272109 0.565547 L 0.273125 0.58 M 0.273125 0.58 L 0.274453 0.594375 M 0.274453 0.594375 L 0.275938 0.60875 M 0.275938 0.60875 L 0.277578 0.622969 M 0.277578 0.622969 L 0.279531 0.637109 M 0.279531 0.637109 L 0.281641 0.651172 M 0.281641 0.651172 L 0.283906 0.665078 M 0.283906 0.665078 L 0.286484 0.678906 M 0.286484 0.678906 L 0.289219 0.692578 M 0.289219 0.692578 L 0.292109 0.706016 M 0.292109 0.706016 L 0.295234 0.719375 M 0.295234 0.719375 L 0.298594 0.732578 M 0.298594 0.732578 L 0.302109 0.745547 M 0.302109 0.745547 L 0.305859 0.758359 M 0.305859 0.758359 L 0.309766 0.770938 M 0.309766 0.770938 L 0.313906 0.783281 M 0.313906 0.783281 L 0.318203 0.795391 M 0.318203 0.795391 L 0.322656 0.807344 M 0.322656 0.807344 L 0.327344 0.818984 M 0.327344 0.818984 L 0.332188 0.830313 M 0.332188 0.830313 L 0.337188 0.841484 M 0.337188 0.841484 L 0.342422 0.852266 M 0.342422 0.852266 L 0.347813 0.862812 M 0.347813 0.862812 L 0.353281 0.873047 M 0.353281 0.873047 L 0.358984 0.882969 M 0.358984 0.882969 L 0.364844 0.892578 M 0.364844 0.892578 L 0.370859 0.901797 M 0.370859 0.901797 L 0.377031 0.910703 M 0.377031 0.910703 L 0.383359 0.919297 M 0.383359 0.919297 L 0.389844 0.927422 M 0.389844 0.927422 L 0.396406 0.935234 M 0.396406 0.935234 L 0.403125 0.942656 M 0.403125 0.942656 L 0.41 0.949688 M 0.41 0.949688 L 0.416953 0.956328 M 0.416953 0.956328 L 0.424063 0.9625 M 0.424063 0.9625 L 0.43125 0.968281 M 0.43125 0.968281 L 0.438516 0.973672 M 0.438516 0.973672 L 0.445937 0.978594 M 0.445937 0.978594 L 0.453437 0.983047 M 0.453437 0.983047 L 0.461016 0.987031 M 0.461016 0.987031 L 0.468672 0.990625 M 0.468672 0.990625 L 0.476406 0.993672 M 0.476406 0.993672 L 0.484219 0.99625 M 0.484219 0.99625 L 0.492109 0.998359 M 0.492109 0.998359 L 0.5 1 " transform="matrix(50,0,0,50,0,0)"/>
<path style="fill:none;stroke-width:0.01;stroke-linecap:butt;stroke-linejoin:miter;stroke:rgb(0%,0%,0%);stroke-opacity:1;stroke-miterlimit:10;" d="M 0.5 0 L 0.48625 0.00101563 M 0.48625 0.00101563 L 0.472656 0.00257813 M 0.472656 0.00257813 L 0.459062 0.00460937 M 0.459062 0.00460937 L 0.445547 0.00710938 M 0.445547 0.00710938 L 0.432109 0.0101563 M 0.432109 0.0101563 L 0.418828 0.0136719 M 0.418828 0.0136719 L 0.405625 0.0175781 M 0.405625 0.0175781 L 0.392578 0.0220312 M 0.392578 0.0220312 L 0.379688 0.0269531 M 0.379688 0.0269531 L 0.366953 0.0322656 M 0.366953 0.0322656 L 0.354375 0.0380469 M 0.354375 0.0380469 L 0.342031 0.0442969 M 0.342031 0.0442969 L 0.329766 0.0509375 M 0.329766 0.0509375 L 0.317812 0.0580469 M 0.317812 0.0580469 L 0.306016 0.0655469 M 0.306016 0.0655469 L 0.294453 0.0734375 M 0.294453 0.0734375 L 0.283125 0.0817188 M 0.283125 0.0817188 L 0.272031 0.0904688 M 0.272031 0.0904688 L 0.26125 0.0995313 M 0.26125 0.0995313 L 0.250625 0.108984 M 0.250625 0.108984 L 0.240391 0.11875 M 0.240391 0.11875 L 0.230313 0.128906 M 0.230313 0.128906 L 0.220625 0.139375 M 0.220625 0.139375 L 0.211172 0.150234 M 0.211172 0.150234 L 0.202031 0.161328 M 0.202031 0.161328 L 0.193203 0.172734 M 0.193203 0.172734 L 0.184688 0.184453 M 0.184688 0.184453 L 0.176484 0.196484 M 0.176484 0.196484 L 0.168594 0.20875 M 0.168594 0.20875 L 0.161094 0.221328 M 0.161094 0.221328 L 0.153906 0.234141 M 0.153906 0.234141 L 0.147031 0.247109 M 0.147031 0.247109 L 0.140547 0.260391 M 0.140547 0.260391 L 0.134453 0.273828 M 0.134453 0.273828 L 0.128672 0.2875 M 0.128672 0.2875 L 0.123281 0.301328 M 0.123281 0.301328 L 0.118203 0.315312 M 0.118203 0.315312 L 0.113516 0.329531 M 0.113516 0.329531 L 0.109297 0.343828 M 0.109297 0.343828 L 0.105391 0.358281 M 0.105391 0.358281 L 0.101797 0.372891 M 0.101797 0.372891 L 0.0986719 0.387578 M 0.0986719 0.387578 L 0.0959375 0.402344 M 0.0959375 0.402344 L 0.0935938 0.417266 M 0.0935938 0.417266 L 0.0916406 0.432188 M 0.0916406 0.432188 L 0.09 0.447188 M 0.09 0.447188 L 0.0888281 0.462266 M 0.0888281 0.462266 L 0.0880469 0.477344 M 0.0880469 0.477344 L 0.0876563 0.492422 M 0.0876563 0.492422 L 0.0876563 0.507578 M 0.0876563 0.507578 L 0.0880469 0.522656 M 0.0880469 0.522656 L 0.0888281 0.537734 M 0.0888281 0.537734 L 0.09 0.552813 M 0.09 0.552813 L 0.0916406 0.567813 M 0.0916406 0.567813 L 0.0935938 0.582734 M 0.0935938 0.582734 L 0.0959375 0.597656 M 0.0959375 0.597656 L 0.0986719 0.612422 M 0.0986719 0.612422 L 0.101797 0.627109 M 0.101797 0.627109 L 0.105391 0.641719 M 0.105391 0.641719 L 0.109297 0.656172 M 0.109297 0.656172 L 0.113516 0.670469 M 0.113516 0.670469 L 0.118203 0.684688 M 0.118203 0.684688 L 0.123281 0.698672 M 0.123281 0.698672 L 0.128672 0.7125 M 0.128672 0.7125 L 0.134453 0.726172 M 0.134453 0.726172 L 0.140547 0.739609 M 0.140547 0.739609 L 0.147031 0.752891 M 0.147031 0.752891 L 0.153906 0.765859 M 0.153906 0.765859 L 0.161094 0.778672 M 0.161094 0.778672 L 0.168594 0.79125 M 0.168594 0.79125 L 0.176484 0.803516 M 0.176484 0.803516 L 0.184688 0.815547 M 0.184688 0.815547 L 0.193203 0.827266 M 0.193203 0.827266 L 0.202031 0.838672 M 0.202031 0.838672 L 0.211172 0.849766 M 0.211172 0.849766 L 0.220625 0.860625 M 0.220625 0.860625 L 0.230313 0.871094 M 0.230313 0.871094 L 0.240391 0.88125 M 0.240391 0.88125 L 0.250625 0.891016 M 0.250625 0.891016 L 0.26125 0.900469 M 0.26125 0.900469 L 0.272031 0.909531 M 0.272031 0.909531 L 0.283125 0.918281 M 0.283125 0.918281 L 0.294453 0.926563 M 0.294453 0.926563 L 0.306016 0.934453 M 0.306016 0.934453 L 0.317812 0.941953 M 0.317812 0.941953 L 0.329766 0.949063 M 0.329766 0.949063 L 0.342031 0.955703 M 0.342031 0.955703 L 0.354375 0.961953 M 0.354375 0.961953 L 0.366953 0.967734 M 0.366953 0.967734 L 0.379688 0.973047 M 0.379688 0.973047 L 0.392578 0.977969 M 0.392578 0.977969 L 0.405625 0.982422 M 0.405625 0.982422 L 0.418828 0.986328 M 0.418828 0.986328 L 0.432109 0.989844 M 0.432109 0.989844 L 0.445547 0.992891 M 0.445547 0.992891 L 0.459062 0.995391 M 0.459062 0.995391 L 0.472656 0.997422 M 0.472656 0.997422 L 0.48625 0.998984 M 0.48625 0.998984 L 0.5 1 " transform="matrix(50,0,0,50,0,0)"/>
<path style="fill:none;stroke-width:0.01;stroke-linecap:butt;stroke-linejoin:miter;stroke:rgb(0%,0%,0%);stroke-opacity:1;stroke-miterlimit:10;" d="M 0.5 0 L 0.484141 0.000234375 M 0.484141 0.000234375 L 0.468281 0.00101563 M 0.468281 0.00101563 L 0.4525 0.00226562 M 0.4525 0.00226562 L 0.436719 0.00398438 M 0.436719 0.00398438 L 0.421016 0.00625 M 0.421016 0.00625 L 0.405391 0.0090625 M 0.405391 0.0090625 L 0.389844 0.0122656 M 0.389844 0.0122656 L 0.374453 0.0160156 M 0.374453 0.0160156 L 0.359141 0.0202344 M 0.359141 0.0202344 L 0.343984 0.025 M 0.343984 0.025 L 0.328984 0.0301562 M 0.328984 0.0301562 L 0.314141 0.0357813 M 0.314141 0.0357813 L 0.299531 0.0419531 M 0.299531 0.0419531 L 0.285078 0.0485156 M 0.285078 0.0485156 L 0.270859 0.0555469 M 0.270859 0.0555469 L 0.256875 0.0630469 M 0.256875 0.0630469 L 0.243125 0.0710156 M 0.243125 0.0710156 L 0.229688 0.079375 M 0.229688 0.079375 L 0.216484 0.088125 M 0.216484 0.088125 L 0.203516 0.0973438 M 0.203516 0.0973438 L 0.190938 0.106953 M 0.190938 0.106953 L 0.178594 0.116953 M 0.178594 0.116953 L 0.166641 0.127344 M 0.166641 0.127344 L 0.154922 0.138125 M 0.154922 0.138125 L 0.143672 0.149297 M 0.143672 0.149297 L 0.132734 0.160781 M 0.132734 0.160781 L 0.122109 0.172578 M 0.122109 0.172578 L 0.111953 0.184688 M 0.111953 0.184688 L 0.102109 0.197188 M 0.102109 0.197188 L 0.0927344 0.21 M 0.0927344 0.21 L 0.08375 0.223047 M 0.08375 0.223047 L 0.0751563 0.236406 M 0.0751563 0.236406 L 0.0669531 0.25 M 0.0669531 0.25 L 0.0592969 0.263828 M 0.0592969 0.263828 L 0.0520313 0.277969 M 0.0520313 0.277969 L 0.0451563 0.292266 M 0.0451563 0.292266 L 0.0388281 0.306797 M 0.0388281 0.306797 L 0.0328906 0.321563 M 0.0328906 0.321563 L 0.0275 0.336484 M 0.0275 0.336484 L 0.0225781 0.351562 M 0.0225781 0.351562 L 0.0180469 0.366797 M 0.0180469 0.366797 L 0.0140625 0.382109 M 0.0140625 0.382109 L 0.010625 0.397578 M 0.010625 0.397578 L 0.00757812 0.413203 M 0.00757812 0.413203 L 0.00507813 0.428828 M 0.00507813 0.428828 L 0.00304688 0.444609 M 0.00304688 0.444609 L 0.0015625 0.460391 M 0.0015625 0.460391 L 0.000546875 0.476172 M 0.000546875 0.476172 L 0.000078125 0.492031 M 0.000078125 0.492031 L 0.000078125 0.507969 M 0.000078125 0.507969 L 0.000546875 0.523828 M 0.000546875 0.523828 L 0.0015625 0.539609 M 0.0015625 0.539609 L 0.00304688 0.555391 M 0.00304688 0.555391 L 0.00507813 0.571172 M 0.00507813 0.571172 L 0.00757812 0.586797 M 0.00757812 0.586797 L 0.010625 0.602422 M 0.010625 0.602422 L 0.0140625 0.617891 M 0.0140625 0.617891 L 0.0180469 0.633203 M 0.0180469 0.633203 L 0.0225781 0.648438 M 0.0225781 0.648438 L 0.0275 0.663516 M 0.0275 0.663516 L 0.0328906 0.678438 M 0.0328906 0.678438 L 0.0388281 0.693203 M 0.0388281 0.693203 L 0.0451563 0.707734 M 0.0451563 0.707734 L 0.0520313 0.722031 M 0.0520313 0.722031 L 0.0592969 0.736172 M 0.0592969 0.736172 L 0.0669531 0.75 M 0.0669531 0.75 L 0.0751563 0.763594 M 0.0751563 0.763594 L 0.08375 0.776953 M 0.08375 0.776953 L 0.0927344 0.79 M 0.0927344 0.79 L 0.102109 0.802813 M 0.102109 0.802813 L 0.111953 0.815312 M 0.111953 0.815312 L 0.122109 0.827422 M 0.122109 0.827422 L 0.132734 0.839219 M 0.132734 0.839219 L 0.143672 0.850703 M 0.143672 0.850703 L 0.154922 0.861875 M 0.154922 0.861875 L 0.166641 0.872656 M 0.166641 0.872656 L 0.178594 0.883047 M 0.178594 0.883047 L 0.190938 0.893047 M 0.190938 0.893047 L 0.203516 0.902656 M 0.203516 0.902656 L 0.216484 0.911875 M 0.216484 0.911875 L 0.229688 0.920625 M 0.229688 0.920625 L 0.243125 0.928984 M 0.243125 0.928984 L 0.256875 0.936953 M 0.256875 0.936953 L 0.270859 0.944453 M 0.270859 0.944453 L 0.285078 0.951484 M 0.285078 0.951484 L 0.299531 0.958047 M 0.299531 0.958047 L 0.314141 0.964219 M 0.314141 0.964219 L 0.328984 0.969844 M 0.328984 0.969844 L 0.343984 0.975 M 0.343984 0.975 L 0.359141 0.979766 M 0.359141 0.979766 L 0.374453 0.983984 M 0.374453 0.983984 L 0.389844 0.987734 M 0.389844 0.987734 L 0.405391 0.990938 M 0.405391 0.990938 L 0.421016 0.99375 M 0.421016 0.99375 L 0.436719 0.996016 M 0.436719 0.996016 L 0.4525 0.997734 M 0.4525 0.997734 L 0.468281 0.998984 M 0.468281 0.998984 L 0.484141 0.999766 M 0.484141 0.999766 L 0.5 1 " transform="matrix(50,0,0,50,0,0)"/>
</g>
</svg>
