<?xml version="1.0" encoding="UTF-8"?>
<!DOCTYPE svg PUBLIC "-//W3C//DTD SVG 1.1//EN" "http://www.w3.org/Graphics/SVG/1.1/DTD/svg11.dtd">
<!-- Creator: CorelDRAW 2018 (64 Bit) -->
<svg xmlns="http://www.w3.org/2000/svg" xml:space="preserve" width="149.281mm" height="48.2192mm" version="1.1" style="shape-rendering:geometricPrecision; text-rendering:geometricPrecision; image-rendering:optimizeQuality; fill-rule:evenodd; clip-rule:evenodd"
viewBox="0 0 14928.08 4821.92"
 xmlns:xlink="http://www.w3.org/1999/xlink">
 <defs>
  <style type="text/css">
   <![CDATA[
    .str3 {stroke:#1D5687;stroke-width:75;stroke-miterlimit:22.9256}
    .str4 {stroke:#339966;stroke-width:100;stroke-linecap:round;stroke-linejoin:round;stroke-miterlimit:22.9256}
    .str2 {stroke:#1D5687;stroke-width:60;stroke-linecap:round;stroke-linejoin:round;stroke-miterlimit:22.9256}
    .str0 {stroke:#1D5687;stroke-width:50;stroke-linecap:round;stroke-linejoin:round;stroke-miterlimit:22.9256}
    .str1 {stroke:#1D5687;stroke-width:40;stroke-linecap:round;stroke-linejoin:round;stroke-miterlimit:22.9256}
    .fil2 {fill:none}
    .fil0 {fill:#1D5687}
    .fil4 {fill:#1D5687}
    .fil1 {fill:#339966}
    .fil3 {fill:#1D5687;fill-rule:nonzero}
   ]]>
  </style>
 </defs>
 <g id="Camada_x0020_1">
  <metadata id="CorelCorpID_0Corel-Layer"/>
  <g id="_2422582835888">
   <path id="path4563" class="fil0" d="M1489.4 1938.66c64.01,-205.09 152.93,-425.64 254.26,-630.56 31.79,-64.3 58.82,-117.5 60.03,-118.22 1.22,-0.7 175.61,47.37 387.54,106.83l385.31 108.1 -119 444.12 -118.99 444.13 -442.83 -118.65 -442.83 -118.66 36.51 -117.09z" inkscape:connector-curvature="0"/>
   <path id="path4565" class="fil0" d="M2215.44 1093.8c-163.36,-46.05 -298.14,-85.7 -299.49,-88.15 -3.52,-6.31 72.42,-121.12 145.63,-220.2 73.21,-99.08 204.67,-247.2 280.62,-316.2l53.99 -49.07 62.2 21.49c34.22,11.82 126.91,38.84 206.01,60.02l143.8 38.52 -89.97 335.73 -89.96 335.72 -57.9 -17.11c-31.84,-9.38 -191.58,-54.74 -354.93,-100.75z" inkscape:connector-curvature="0"/>
   <path id="path4567" class="fil0" d="M1559.67 902.51c-71.18,-22.04 -181.96,-56.72 -246.18,-77.06l-116.74 -37.07 27.28 -27.75c52.77,-53.73 212.06,-191.07 275.67,-237.7 90.34,-66.2 284.63,-180.44 374.91,-220.43 41.85,-18.52 78.03,-32.66 80.38,-31.37 2.35,1.29 51.72,19.28 109.7,39.98 57.98,20.7 105.12,38.83 104.74,40.28 -0.39,1.45 -24.64,27.04 -53.88,56.89 -113.43,115.8 -216.21,247.03 -333.03,425.28 -46.05,70.25 -77.59,112.07 -83.67,110.89 -5.38,-1.05 -68,-19.91 -139.2,-41.91l0.02 -0.03z" inkscape:connector-curvature="0"/>
   <path id="path4569" class="fil0" d="M612.7 1764.34c102.47,-292.37 238.31,-548.56 406.97,-767.54l34.15 -44.35 74.76 25.09c41.1,13.78 164.37,53.17 273.93,87.45 109.56,34.32 199.92,63.66 200.85,65.18 0.92,1.53 -16.95,39.89 -39.71,85.27 -55.19,110.05 -127.85,276.06 -176.1,402.4 -38.57,101.04 -109.17,306.61 -123.29,358.99l-7.14 26.51 -332.82 -89.19 -332.82 -89.19 21.22 -60.62z" inkscape:connector-curvature="0"/>
   <path id="path4571" class="fil0" d="M499.52 2985.09c-10.98,-50.95 -24.97,-240.42 -25.66,-347.54 -1.13,-174.2 16.74,-361.28 52.67,-551.6l11.9 -63.1 332.82 89.19 332.82 89.19 -7.06 26.51c-14.01,52.55 -55.62,265.84 -72.69,372.55 -22.51,140.69 -37.23,271.8 -46.54,414.34 -4.08,62.78 -8.72,114.79 -10.26,115.55 -1.58,0.74 -91.3,-18.39 -199.42,-42.51 -108.12,-24.12 -234.14,-51.82 -280.07,-61.56l-83.49 -17.71 -5.02 -23.31z" inkscape:connector-curvature="0"/>
   <path id="path4573" class="fil0" d="M882.46 3973.98c-135.62,-193.12 -253.29,-444.8 -317.85,-679.97l-19.36 -70.56 104.93 22.83c199.95,43.52 411.94,92.82 414.13,96.3 1.21,1.91 6,68.49 10.63,147.92 9.97,171.16 37.11,364.77 69.94,499.17 13.04,53.38 23.35,98.4 22.9,100.04 -0.45,1.64 -14.35,-0.48 -30.93,-4.7 -16.61,-4.23 -68.58,-13.84 -115.54,-21.33l-85.38 -13.61 -53.47 -76.09z" inkscape:connector-curvature="0"/>
   <path id="path4575" class="fil0" d="M1374.36 4061.65c-50.5,-167.59 -82.63,-353.17 -96.28,-556.58 -6.45,-96.2 -5.83,-108.09 5.9,-109.06 7.24,-0.59 170.28,39.03 362.33,88.08l349.19 89.16 -88.77 331.31 -88.77 331.3 -31.05 -4.3c-17.08,-2.35 -111.81,-24.76 -210.53,-49.74l-179.48 -45.45 -22.54 -74.72z" inkscape:connector-curvature="0"/>
   <path id="path4577" class="fil0" d="M1268.62 3176.09c0.95,-3.55 5.29,-63.42 9.67,-133.09 13.97,-222.59 47.56,-460.27 94.62,-669.68l26.9 -119.68 442.83 118.66 442.83 118.65 -119.32 445.28 -119.32 445.27 -235 -62.97c-129.24,-34.57 -304.73,-79.34 -389.95,-99.45 -91.68,-21.62 -154.27,-39.17 -153.26,-42.99z" inkscape:connector-curvature="0"/>
   <path id="path4579" class="fil0" d="M2532.32 3513.52l-287.49 -79.12 119.28 -445.2 119.28 -445.21 445.92 119.49 445.92 119.49 -29.77 92.4c-83.19,258.29 -223.16,595.14 -311.58,749.81l-14.07 24.64 -100 -28.59c-54.99,-15.74 -229.37,-64.19 -387.49,-107.71z" inkscape:connector-curvature="0"/>
   <path id="path4581" class="fil0" d="M2655.74 1900.81l119.32 -445.28 203.22 54.43c111.77,29.94 287.01,74.64 389.41,99.34l186.19 44.92 -0.07 29.6c-0.39,180.97 -45.93,529.47 -105.87,809.91l-19.52 91.37 -446.01 -119.49 -445.98 -119.5 119.31 -445.3z" inkscape:connector-curvature="0"/>
   <path id="path4583" class="fil0" d="M2916.45 927.86l89.65 -334.63 147.35 39.47c81.04,21.71 176.17,45.16 211.42,52.08l64.07 12.62 20.01 64.84c27.79,90 60.54,240.47 76.75,352.75 12.16,84.12 30.88,307.53 27,322.01 -2.68,10.01 -87.45,-9.13 -408.94,-92.41l-316.99 -82.11 89.68 -334.62z" inkscape:connector-curvature="0"/>
   <path id="path4585" class="fil1" d="M3755.32 1404.9c-7.47,-192.51 -47.26,-469.93 -88.6,-617.58l-12.03 -42.99 30.28 7.74c16.65,4.25 69.54,13.87 117.53,21.37l87.25 13.63 60.64 86.47c106.56,151.96 201.9,341.17 268.7,533.35 31.16,89.63 63.21,202.19 58.31,204.77 -1.66,0.87 -94.6,-19.14 -206.56,-44.44 -111.97,-25.33 -227.95,-51.28 -257.74,-57.71l-54.18 -11.66 -3.6 -92.95z" inkscape:connector-curvature="0"/>
   <path id="path4587" class="fil1" d="M3626.2 2621.06c0.57,-9.21 12.56,-66.55 26.63,-127.42 46.53,-201.25 83.8,-468.5 97.93,-701.85l5.25 -86.67 111.42 24.9c200.5,44.84 433.17,95.53 444.42,96.88 13.68,1.61 23.59,64.51 34.04,216.17 16.4,238.05 -6.64,557.99 -52.49,729.12l-11.17 41.67 -328.52 -88.02 -328.52 -88.02 1.01 -16.76z" inkscape:connector-curvature="0"/>
   <path id="path4589" class="fil1" d="M3573.11 3820.52c-51.71,-16.87 -152.46,-48.82 -223.91,-70.98l-129.86 -40.32 54.08 -110.18c100.8,-205.38 189.12,-425.59 249.86,-623.13 18.63,-60.55 37.22,-116.88 41.34,-125.15l7.49 -15.05 328.53 88.02 328.52 88.02 -11.91 44.16c-15.86,58.81 -75.54,210.85 -120.43,306.73 -70.3,150.2 -190,348.83 -281.61,467.29l-40.54 52.43 -53.77 -15.58c-29.56,-8.59 -96.09,-29.41 -147.82,-46.28l0.03 0.02z" inkscape:connector-curvature="0"/>
   <path id="path4591" class="fil1" d="M2733.94 4517.08l-80.2 -29.8 30.24 -29.78c109.99,-108.28 251.17,-286 360.71,-454.1l74.39 -114.17 62.73 20.26c34.52,11.13 147.7,46.74 251.51,79.1 103.82,32.35 189.61,60.22 190.61,61.93 2.88,4.85 -127.04,128.1 -187.56,177.95 -142.54,117.37 -298.57,218.09 -451.61,291.52 -114.72,55.05 -94.27,55.28 -250.88,-2.9l0.06 -0.01z" inkscape:connector-curvature="0"/>
   <path id="path4593" class="fil0" d="M2194.02 4344.94c-96.54,-28.49 -176.17,-52.53 -176.96,-53.46 -0.8,-0.94 38.57,-151.01 87.46,-333.51l88.92 -331.8 336.56 93.95c339.19,94.68 381.99,108.15 378.98,119.39 -3.76,14.09 -134.42,201.78 -186.44,267.84 -70.07,89.01 -163.39,191.44 -235.21,258.19l-54.95 51.07 -31.41 -9.93c-17.29,-5.46 -110.42,-33.22 -206.95,-61.71l0 -0.03z" inkscape:connector-curvature="0"/>
   <path id="path4595" class="fil0" d="M875.23 673.55c-24.4,-9.98 -54.28,-22.84 -66.39,-28.57l-22.01 -10.44 71.48 -61.15c204.01,-174.47 486.43,-336.38 748.25,-428.95 14.4,-5.09 123.46,-31.82 115.77,-3.07 -0.86,3.21 -46.11,31.33 -100.56,62.52 -221.6,126.89 -424.11,287.17 -595.17,471.07l-35.2 37.87 -35.89 -10.57c-19.74,-5.83 -55.85,-18.75 -80.28,-28.71z" inkscape:connector-curvature="0"/>
   <path id="path4597" class="fil0" d="M126.93 1642.15c92.51,-257.17 201.71,-464.63 350.31,-665.59 60.06,-81.22 158.25,-192.45 167.68,-189.9 4.95,1.34 16.2,7.61 25.01,13.97 8.82,6.35 52.14,26.79 96.28,45.41 44.15,18.61 80.89,34.92 81.67,36.25 0.78,1.31 -17.97,29.21 -41.69,62 -147.45,203.78 -280.09,461 -372.83,723.14l-37.34 105.52 -144.18 -38.65 -144.17 -38.63 19.26 -53.52z" inkscape:connector-curvature="0"/>
   <path id="path4599" class="fil0" d="M39.21 2853.52c-51.58,-283.35 -52.4,-570.23 -2.46,-858.68 7.94,-45.79 15.48,-87.23 16.75,-92.1 1.79,-6.78 35.84,0.12 146.29,29.72l143.92 38.58 -15.43 77.3c-52.45,262.71 -69.46,560.86 -46.42,813.98 5.19,57.01 9.2,104.5 8.91,105.58 -0.28,1.08 -21,-1.14 -46.04,-4.92 -54.43,-8.24 -161.13,-18.18 -177.03,-16.53 -8.31,0.88 -15.93,-23.94 -28.49,-92.96l0 0.03z" inkscape:connector-curvature="0"/>
   <path id="path4601" class="fil0" d="M570.02 3977.31c-181.4,-215.45 -340.19,-491.89 -431.98,-752.19 -29.55,-83.73 -35.43,-78.83 73.9,-61.97 40.01,6.16 82.65,12.63 94.77,14.34 20.98,2.98 22.75,6.37 37.42,72.36 49.47,222.37 158.99,496.18 278.34,695.86 30.56,51.16 54.73,96.2 53.7,100.06 -2.45,9.14 -23.75,9.57 -27.08,8.6 -13.25,-3.88 -37.97,-28.3 -79.05,-77.09l-0.02 0.03z" inkscape:connector-curvature="0"/>
   <path id="path4603" class="fil1" d="M3119.03 4710.72c-19.88,-43.07 0.72,-28.98 98.76,-85.15 191.42,-109.66 395.72,-268.81 544.52,-424.21 34.92,-36.47 66.99,-69.35 71.24,-73.04 5.87,-5.07 28.68,1.52 93.39,27.04 47.12,18.56 90.71,37.64 96.88,42.38 9.88,7.59 4.14,14.72 -47.51,59.15 -213.47,183.56 -478.62,337.29 -749.89,434.8 -92.28,33.18 -100.27,34.58 -107.43,19.01l0.04 0.02z" inkscape:connector-curvature="0"/>
   <path id="path4605" class="fil1" d="M4155.83 4036.52c-12.53,-7.51 -58.17,-28.82 -101.43,-47.3l-78.64 -33.63 59.66 -85.25c148.8,-212.53 282.88,-475.1 354.79,-694.79 40.79,-124.65 17.53,-115.52 182.18,-71.4l141.23 37.84 -9.94 37.15c-43.72,163.16 -194.16,458.24 -330.45,648.13 -63.8,88.88 -180.86,228.35 -189.02,225.18 -3.07,-1.21 -15.85,-8.34 -28.39,-15.87l0.01 -0.06z" inkscape:connector-curvature="0"/>
   <path id="path4607" class="fil1" d="M4485.22 2851.61c0.57,-9.22 8.35,-51.66 17.3,-94.34 52.44,-250.21 66.61,-589.77 35.46,-848.95l-4.83 -40.18 70.7 10.06c38.89,5.55 90.49,10.44 114.64,10.91 24.17,0.46 45.23,1.18 46.84,1.61 12.57,3.37 51.49,271.99 58.01,400.31 10.21,201.38 -11.17,483.18 -46.75,615.87l-9.94 37.15 -141.23 -37.84c-140.78,-37.73 -141.23,-37.9 -140.2,-54.6z" inkscape:connector-curvature="0"/>
   <path id="path4609" class="fil1" d="M4487.7 1613.68c-37.7,-200.5 -150.19,-489.57 -273.34,-702.37 -37.95,-65.57 -68.58,-122 -65.43,-126.17 2.29,-3.03 49.29,8.26 82.79,46.64 155.03,177.57 291.82,392.7 388.59,611 41.17,92.88 93.78,237.15 87.75,240.63 -6.78,3.9 -147.81,-14.67 -184.57,-24.31 -27.25,-7.15 -29.02,-9.37 -35.79,-45.42z" inkscape:connector-curvature="0"/>
   <path class="fil2 str0" d="M3037.57 81.96l0 0m0 0l0 0m0 0l0 0m0 0l0 0m0 0l0 0m0 0l0 0m0 0l0 0m0 0l0 0m0 0l0 0m0 0l0 0m0 0l0 0m0 0l0 0m0 0l0 0m0 0l0 0m0 0l0 0m0 0l0 0m0 0l0 0m0 0l0 0m0 0l0 0m0 0l0 0m0 0l0 0m0 0l0 0m0 0l0 0m0 0l0 0m0 0l0 0m0 0l0 0m0 0l0 0m0 0l0 0m0 0l0 0m0 0l0 0m0 0l0 0m0 0l0 0m0 0l0 0m0 0l0 0m0 0l0 0m0 0l0 0m0 0l0 0m0 0l0 0m0 0l0 0m0 0l0 0m0 0l0 0m0 0l0 0m0 0l0 0m0 0l0 0m0 0l0 0m0 0l0 0m0 0l0 0m0 0l0 0m0 0l0 0m0 0l0 0m0 0l0 0m0 0l0 0m0 0l0 0m0 0l0 0m0 0l0 0m0 0l0 0m0 0l0 0m0 0l0 0m0 0l0 0m0 0l0 0m0 0l0 0m0 0l0 0m0 0l0 0m0 0l0 0m0 0l0 0m0 0l0 0m0 0l0 0m0 0l0 0m0 0l0 0m0 0l0 0m0 0l0 0m0 0l0 0m0 0l0 0m0 0l0 0m0 0l0 0m0 0l0 0m0 0l0 0m0 0l0 0m0 0l0 0m0 0l0 0m0 0l0 0m0 0l0 0m0 0l0 0m0 0l0 0m0 0l0 0m0 0l0 0m0 0l0 0m0 0l0 0m0 0l0 0m0 0l0 0m0 0l0 0m0 0l0 0m0 0l0 0m0 0l0 0m0 0l0 0m0 0l0 0m0 0l0 0m0 0l0 0m0 0l0 0"/>
   <path class="fil2 str0" d="M3048.42 38.67l0 0m0 0l0 0m0 0l0 0m0 0l0 0m0 0l0 0m0 0l0 0m0 0l0 0m0 0l0 0m0 0l0 0m0 0l0 0m0 0l0 0m0 0l0 0m0 0l0 0m0 0l0 0m0 0l0 0m0 0l0 0m0 0l0 0m0 0l0 0m0 0l0 0m0 0l0 0m0 0l0 0m0 0l0 0m0 0l0 0m0 0l0 0m0 0l0 0m0 0l0 0m0 0l0 0m0 0l0 0m0 0l0 0m0 0l0 0m0 0l0 0m0 0l0 0m0 0l0 0m0 0l0 0m0 0l0 0m0 0l0 0m0 0l0 0m0 0l0 0m0 0l0 0m0 0l0 0m0 0l0 0m0 0l0 0m0 0l0 0m0 0l0 0m0 0l0 0m0 0l0 0m0 0l0 0m0 0l0 0m0 0l0 0m0 0l0 0m0 0l0 0m0 0l0 0m0 0l0 0m0 0l0 0m0 0l0 0m0 0l0 0m0 0l0 0m0 0l0 0m0 0l0 0m0 0l0 0m0 0l0 0m0 0l0 0m0 0l0 0m0 0l0 0m0 0l0 0m0 0l0 0m0 0l0 0m0 0l0 0m0 0l0 0m0 0l0 0m0 0l0 0m0 0l0 0m0 0l0 0m0 0l0 0m0 0l0 0m0 0l0 0m0 0l0 0m0 0l0 0m0 0l0 0m0 0l0 0m0 0l0 0m0 0l0 0m0 0l0 0m0 0l0 0m0 0l0 0m0 0l0 0m0 0l0 0m0 0l0 0m0 0l0 0m0 0l0 0m0 0l0 0m0 0l0 0m0 0l0 0m0 0l0 0m0 0l0 0m0 0l0 0m0 0l0 0m0 0l0 0m0 0l0 0"/>
   <path class="fil2 str1" d="M1789.48 4739.94l0 0m0 0l0 0m0 0l0 0m0 0l0 0m0 0l0 0m0 0l0 0m0 0l0 0m0 0l0 0m0 0l0 0m0 0l0 0m0 0l0 0m0 0l0 0m0 0l0 0m0 0l0 0m0 0l0 0m0 0l0 0m0 0l0 0m0 0l0 0m0 0l0 0m0 0l0 0m0 0l0 0m0 0l0 0m0 0l0 0m0 0l0 0m0 0l0 0m0 0l0 0m0 0l0 0m0 0l0 0m0 0l0 0m0 0l0 0m0 0l0 0m0 0l0 0m0 0l0 0m0 0l0 0m0 0l0 0m0 0l0 0m0 0l0 0m0 0l0 0m0 0l0 0m0 0l0 0m0 0l0 0m0 0l0 0m0 0l0 0m0 0l0 0m0 0l0 0m0 0l0 0m0 0l0 0m0 0l0 0m0 0l0 0m0 0l0 0m0 0l0 0m0 0l0 0m0 0l0 0m0 0l0 0m0 0l0 0m0 0l0 0m0 0l0 0m0 0l0 0m0 0l0 0m0 0l0 0m0 0l0 0m0 0l0 0m0 0l0 0m0 0l0 0m0 0l0 0m0 0l0 0m0 0l0 0m0 0l0 0m0 0l0 0m0 0l0 0m0 0l0 0m0 0l0 0m0 0l0 0m0 0l0 0m0 0l0 0m0 0l0 0m0 0l0 0m0 0l0 0m0 0l0 0m0 0l0 0m0 0l0 0m0 0l0 0m0 0l0 0m0 0l0 0m0 0l0 0m0 0l0 0m0 0l0 0m0 0l0 0m0 0l0 0m0 0l0 0m0 0l0 0m0 0l0 0m0 0l0 0m0 0l0 0m0 0l0 0m0 0l0 0m0 0l0 0m0 0l0 0m0 0l0 0"/>
   <path class="fil2 str2" d="M3037.57 81.96l73.44 20.87m0 0l72.8 23.41m0 0l71.82 25.46m0 0l71.27 27.65m0 0l70.2 30.12m0 0l69.16 32.55m0 0l68.31 34.27m0 0l66.91 36.6m0 0l65.95 38.73m0 0l64.57 41.04m0 0l63.31 42.68m0 0l62.02 44.65m0 0l60.28 46.92m0 0l59.03 48.52m0 0l57.36 50.41m0 0l55.7 52.31"/>
   <path class="fil2 str2" d="M3037.57 81.96l-74.05 -18.65m0 0l-74.74 -16.13m0 0l-74.93 -13.86m0 0l-75.55 -11.68m0 0l-75.86 -9.02m0 0l-76.17 -6.39m0 0l-76.28 -4.48m0 0l-76.26 -1.75m0 0l-76.47 0.56m0 0l-76.44 3.25m0 0l-76.17 5.31m0 0l-76.03 7.66m0 0l-75.67 10.5m0 0l-75.38 12.5m0 0l-74.88 14.97m0 0l-74.39 17.46"/>
   <path class="fil2 str2" d="M1789.48 4739.94l74.04 18.65m0 0l74.75 16.13m0 0l74.93 13.86m0 0l75.54 11.68m0 0l75.86 9.03m0 0l76.17 6.39m0 0l76.29 4.47m0 0l76.25 1.76m0 0l76.48 -0.56m0 0l76.43 -3.26m0 0l76.17 -5.31m0 0l76.03 -7.66m0 0l75.67 -10.5m0 0l75.38 -12.49m0 0l74.89 -14.98m0 0l74.39 -17.45"/>
   <path class="fil2 str2" d="M1789.48 4739.94l-73.45 -20.87m0 0l-72.8 -23.4m0 0l-71.82 -25.46m0 0l-71.26 -27.66m0 0l-70.21 -30.12m0 0l-69.16 -32.54m0 0l-68.31 -34.27m0 0l-66.91 -36.61m0 0l-65.95 -38.72m0 0l-64.57 -41.04m0 0l-63.31 -42.68m0 0l-62.02 -44.65m0 0l-60.27 -46.93m0 0l-59.04 -48.51m0 0l-57.36 -50.41m0 0l-55.7 -52.32"/>
   <path class="fil2 str1" d="M1777.23 4782.86l0 0m0 0l0 0m0 0l0 0m0 0l0 0m0 0l0 0m0 0l0 0m0 0l0 0m0 0l0 0m0 0l0 0m0 0l0 0m0 0l0 0m0 0l0 0m0 0l0 0m0 0l0 0m0 0l0 0m0 0l0 0m0 0l0 0m0 0l0 0m0 0l0 0m0 0l0 0m0 0l0 0m0 0l0 0m0 0l0 0m0 0l0 0m0 0l0 0m0 0l0 0m0 0l0 0m0 0l0 0m0 0l0 0m0 0l0 0m0 0l0 0m0 0l0 0m0 0l0 0m0 0l0 0m0 0l0 0m0 0l0 0m0 0l0 0m0 0l0 0m0 0l0 0m0 0l0 0m0 0l0 0m0 0l0 0m0 0l0 0m0 0l0 0m0 0l0 0m0 0l0 0m0 0l0 0m0 0l0 0m0 0l0 0m0 0l0 0m0 0l0 0m0 0l0 0m0 0l0 0m0 0l0 0m0 0l0 0m0 0l0 0m0 0l0 0m0 0l0 0m0 0l0 0m0 0l0 0m0 0l0 0m0 0l0 0m0 0l0 0m0 0l0 0m0 0l0 0m0 0l0 0m0 0l0 0m0 0l0 0m0 0l0 0m0 0l0 0m0 0l0 0m0 0l0 0m0 0l0 0m0 0l0 0m0 0l0 0m0 0l0 0m0 0l0 0m0 0l0 0m0 0l0 0m0 0l0 0m0 0l0 0m0 0l0 0m0 0l0 0m0 0l0 0m0 0l0 0m0 0l0 0m0 0l0 0m0 0l0 0m0 0l0 0m0 0l0 0m0 0l0 0m0 0l0 0m0 0l0 0m0 0l0 0m0 0l0 0m0 0l0 0m0 0l0 0m0 0l0 0m0 0l0 0"/>
   <path class="fil3 str3" d="M6782.07 2581.03c-134.62,0 -259.05,-25.24 -373.3,-75.72 -114.25,-50.48 -213.44,-119.56 -297.58,-207.24 -84.13,-87.68 -149.67,-191.74 -196.61,-312.19 -46.94,-120.45 -70.41,-250.64 -70.41,-390.57 0,-141.7 23.47,-271.01 70.41,-387.91 46.94,-116.91 112.48,-216.54 196.61,-298.91 84.14,-82.36 183.33,-146.13 297.58,-191.3 114.25,-45.16 238.68,-67.75 373.3,-67.75l1046.82 0 0 337.43 -1046.82 0c-86.8,0 -166.95,15.5 -240.45,46.5 -73.51,31 -136.84,73.95 -189.98,128.86 -53.13,54.91 -94.76,120.45 -124.87,196.61 -30.11,76.17 -45.17,160.3 -45.17,252.41 0,90.34 15.06,174.47 45.17,252.41 30.11,77.94 71.74,144.8 124.87,200.6 53.14,55.79 116.47,99.63 189.98,131.52 73.5,31.88 153.65,47.82 240.45,47.82l826.29 0 0 -502.16 -871.46 0 0 -284.29 1211.55 0 0 1123.88 -1166.38 0zm3270.66 0l-488.87 -536.7 -722.69 0 0 -297.58 805.05 0c122.22,0 214.33,-33.21 276.32,-99.63 62,-66.42 93,-162.52 93,-288.28 0,-125.76 -32.33,-219.19 -96.98,-280.3 -64.65,-61.11 -155.43,-91.67 -272.34,-91.67l-1052.14 0 0 1594.16 -334.77 0 0 -1931.59 1386.91 0c109.82,0 208.13,16.39 294.92,49.16 86.8,32.76 160.3,79.7 220.53,140.81 60.22,61.11 106.28,135.06 138.16,221.86 31.88,86.79 47.82,184.21 47.82,292.26 0,161.19 -34.98,296.25 -104.95,405.18 -69.96,108.93 -167.82,187.31 -293.59,235.14l581.87 587.18 -478.25 0zm297.58 -1931.59l411.82 0 876.79 1487.88 874.13 -1487.88 387.91 0 -1113.25 1849.23c-19.49,33.65 -42.51,60.22 -69.08,79.7 -26.57,19.49 -57.57,29.23 -93,29.23 -37.19,0 -69.08,-9.74 -95.65,-29.23 -26.57,-19.48 -49.59,-46.05 -69.08,-79.7l-1110.59 -1849.23zm4171.37 1931.59l-289.61 -486.22 -913.97 0 159.41 -273.66 592.49 0 -430.42 -722.69 -876.78 1482.57 -385.25 0 1110.58 -1849.22c19.49,-33.66 42.51,-60.23 69.08,-79.71 26.57,-19.49 58.46,-29.23 95.65,-29.23 37.2,0 68.64,9.74 94.32,29.23 25.69,19.48 48.27,46.05 67.76,79.71l1113.25 1849.22 -406.51 0z"/>
   <line class="fil2 str4" x1="5827.97" y1="2951.97" x2="14911.01" y2= "2951.97" />
   <path class="fil4" d="M11776.28 3832.74c0,79.76 24.93,164.3 67.98,224.02 39.84,55.24 102.74,102.85 174.47,120.71 108.81,27.11 282.02,31.02 389.62,-4.66 44.88,-14.88 81.36,-39.23 111.44,-69.48 16.68,-16.78 27.45,-27.51 42.69,-46.18 12.65,-15.5 24.43,-38.92 33.8,-58.25 15.97,-32.95 33.8,-99.63 33.8,-147.11l0 -555.45 -276.14 0 0 555.45c0,183.24 -301.52,194.12 -301.52,-9.53l0 -545.92 -276.14 0 0 536.4z"/>
   <path class="fil4" d="M14074.39 3842.26c0,77.91 28,162 70.24,218.59 41.68,55.85 104.2,99.7 174.78,117.23 104.29,25.91 286.04,30.5 389.35,-6.15 43.67,-15.48 81.87,-41.16 112.31,-71.78 67.19,-67.58 107.12,-153.26 107.12,-257.89l0 -545.92 -276.14 0 0 545.92c0,47.45 -15.94,84.37 -40.37,108.81 -41.3,41.3 -114.4,48.65 -171.18,29.75 -20.28,-6.75 -34.58,-14.96 -48.02,-28.17 -24.75,-24.33 -41.96,-59.32 -41.96,-107.21l0 -549.1 -276.13 0 0 545.92z"/>
   <polygon class="fil4" points="13030.07,4181.88 13306.21,4181.88 13306.21,3820.04 13652.17,3820.04 13652.17,3642.31 13306.21,3642.31 13306.21,3489.95 13709.31,3489.95 13709.31,3296.34 13030.07,3296.34 "/>
   <path class="fil4" d="M10646.26 3889.87c0,8.02 39.59,47.61 47.61,47.61l203.14 0c14.49,0 19.91,-8.56 27.8,-16.63 38.26,-39.12 26.16,-22.63 26.16,-116.68 0,-54.66 -2.82,-190.56 -0.25,-238.28 0.93,-17.24 8.13,-18.89 18.49,-29.12 71.69,-70.84 23.54,-49.99 235.68,-49.99 -10.13,-15.13 -121.75,-120.16 -143.63,-142.04 -8.61,-8.61 -39.38,-45.22 -49.99,-45.22l-365.01 0 0 590.35z"/>
   <path class="fil4" d="M10382.82 3569.3l0 361.83c0,9.71 23.89,28.65 30.94,35.71 11.89,11.89 21.45,21.45 33.33,33.33l166.64 166.63c41.76,41.77 14.4,30.95 143.63,30.95 10.76,0 135.34,-130.59 145.21,-140.45l107.91 -107.91c22.34,-22.21 20.06,-11.69 19.85,-53.16 -0.51,-96.28 -0.24,-192.78 -0.24,-289.06 0,-18.77 -1.36,-15.83 8.71,-26.22 23.32,-24.08 31.32,-14.82 93.08,-14.82 48.67,0 97.34,0 146,0 -2.67,-10.05 -32.86,-41.26 -41.25,-41.26l-193.62 0c-9.85,0 -37.42,32.21 -45.45,40.24 -14.3,14.29 -8.5,38.56 -8.5,77.2l0.09 257.18c-1.86,17.58 -68.81,76.56 -81.83,89.57 -8.09,8.1 -34.92,40.47 -45.23,40.47l-212.65 0c-8.32,0 -88.33,-82 -93.08,-87.84 -9.57,-11.75 -5.32,-68.32 -5.32,-86.73l0 -457.05c-6.71,4.49 -168.22,160.79 -168.22,171.39z"/>
   <path class="fil4" d="M10817.66 4197.75c60.31,0 120.78,-0.41 181.08,0.16 28.45,0.27 20.77,-0.46 56.17,-35.87l182.51 -182.51c8.44,-8.43 43.64,-37.89 43.64,-48.4l0 -330.09 -199.96 0c-16.81,0 -12.87,20.98 -12.72,38.06l0.02 269.82c0.14,44.84 6.19,30.31 -35.7,72.2 -17.04,17.03 -205.8,202.83 -215.04,216.63z"/>
  </g>
 </g>
</svg>
