<?xml version="1.0" encoding="UTF-8"?>
<!DOCTYPE svg PUBLIC "-//W3C//DTD SVG 1.1//EN" "http://www.w3.org/Graphics/SVG/1.1/DTD/svg11.dtd">
<!-- Creator: CorelDRAW 2018 (64 Bit) -->
<svg xmlns="http://www.w3.org/2000/svg" xml:space="preserve" width="149.281mm" height="48.2192mm" version="1.1" style="shape-rendering:geometricPrecision; text-rendering:geometricPrecision; image-rendering:optimizeQuality; fill-rule:evenodd; clip-rule:evenodd"
viewBox="0 0 14928.08 4821.92"
 xmlns:xlink="http://www.w3.org/1999/xlink">
 <defs>
  <style type="text/css">
   <![CDATA[
    .str1 {stroke:#1D5687;stroke-width:60;stroke-miterlimit:22.9256}
    .str3 {stroke:#1D5687;stroke-width:60;stroke-linecap:round;stroke-linejoin:round;stroke-miterlimit:22.9256}
    .str2 {stroke:#1D5687;stroke-width:50;stroke-linecap:round;stroke-linejoin:round;stroke-miterlimit:22.9256}
    .str0 {stroke:#1D5687;stroke-width:40;stroke-linecap:round;stroke-linejoin:round;stroke-miterlimit:22.9256}
    .fil4 {fill:none}
    .fil2 {fill:#1D5687}
    .fil3 {fill:#339966}
    .fil1 {fill:#1D5687;fill-rule:nonzero}
    .fil0 {fill:#1D5687;fill-rule:nonzero}
   ]]>
  </style>
 </defs>
 <g id="Camada_x0020_1">
  <metadata id="CorelCorpID_0Corel-Layer"/>
  <g id="_2422568998992">
   <path class="fil0 str0" d="M6317.39 3006.74l-36.33 34.37c-26.22,-25.67 -54.94,-45.14 -86.16,-58.41 -31.21,-13.27 -61.67,-19.91 -91.37,-19.91 -36.87,0 -72.01,9.03 -105.29,27.09 -33.4,18.05 -59.29,42.53 -77.56,73.53 -18.38,30.89 -27.52,63.53 -27.52,98.01 0,35.24 9.46,68.74 28.39,100.62 18.93,31.76 45.14,56.67 78.54,74.83 33.5,18.17 70.05,27.31 109.86,27.31 48.3,0 89.2,-13.6 122.59,-40.69 33.4,-27.08 53.19,-62.32 59.39,-105.51l-149.46 0 0 -45.69 202.33 0c-0.44,72.34 -21.97,129.88 -64.61,172.42 -42.75,42.53 -99.75,63.85 -171.33,63.85 -86.8,0 -155.55,-29.48 -206.24,-88.55 -38.94,-45.46 -58.41,-98 -58.41,-157.72 0,-44.27 11.2,-85.61 33.5,-123.9 22.41,-38.18 53.09,-68.09 92.03,-89.63 39.05,-21.54 83.1,-32.31 132.27,-32.31 39.81,0 77.34,7.18 112.47,21.43 35.14,14.36 69.51,37.2 102.91,68.86zm260.07 -78.54l93.55 0c52.1,0 87.46,2.18 105.95,6.42 27.95,6.31 50.58,19.9 67.98,40.9 17.52,20.88 26.22,46.66 26.22,77.23 0,25.45 -5.98,47.86 -18.06,67.11 -11.96,19.37 -29.15,33.94 -51.56,43.84 -22.3,9.9 -53.19,14.9 -92.57,15.12l168.72 217.99 -57.55 0 -168.71 -217.99 -26.98 0 0 217.99 -46.99 0 0 -468.61zm46.99 45.69l0 159.25 80.93 0.65c31.44,0 54.61,-2.94 69.62,-8.92 15.01,-5.98 26.76,-15.45 35.24,-28.5 8.38,-13.05 12.62,-27.63 12.62,-43.84 0,-15.66 -4.24,-30.02 -12.83,-42.86 -8.49,-12.83 -19.69,-21.97 -33.62,-27.52 -13.81,-5.54 -36.87,-8.26 -69.07,-8.26l-82.89 0zm489.81 -45.69l46.99 0 0 283.04c0,33.5 0.65,54.49 1.96,62.76 2.28,18.49 7.72,33.94 16.21,46.34 8.48,12.4 21.53,22.84 39.16,31.22 17.62,8.37 35.35,12.62 53.3,12.62 15.44,0 30.35,-3.27 44.6,-9.9 14.14,-6.53 26.1,-15.67 35.67,-27.41 9.58,-11.64 16.54,-25.78 21,-42.32 3.15,-11.96 4.78,-36.33 4.78,-73.31l0 -283.04 47 0 0 282.82c0,41.88 -4.14,75.71 -12.3,101.49 -8.15,25.78 -24.58,48.29 -49.05,67.33 -24.59,19.15 -54.28,28.72 -89.2,28.72 -37.86,0 -70.27,-9.03 -97.25,-27.09 -27.08,-18.05 -45.14,-41.88 -54.28,-71.68 -5.76,-18.28 -8.59,-51.13 -8.59,-98.77l0 -282.82zm566.71 0l93.44 0c53.52,0 89.74,2.28 108.45,6.96 26.76,6.64 48.62,20.13 65.59,40.68 17.08,20.45 25.57,46.23 25.57,77.24 0,31.21 -8.27,56.89 -24.91,77.23 -16.54,20.23 -39.38,33.83 -68.42,40.9 -21.32,5.11 -61.03,7.61 -119.22,7.61l-33.51 0 0 217.99 -46.99 0 0 -468.61zm46.99 45.69l0 159.25 79.41 0.97c32.09,0 55.58,-2.93 70.49,-8.81 14.9,-5.87 26.65,-15.23 35.13,-28.28 8.49,-13.05 12.73,-27.74 12.73,-43.84 0,-15.66 -4.24,-30.13 -12.73,-43.18 -8.48,-13.05 -19.8,-22.3 -33.72,-27.85 -13.92,-5.54 -36.66,-8.26 -68.42,-8.26l-82.89 0zm704 -57.44c70.92,0 130.31,23.72 178.07,71.03 47.75,47.32 71.68,105.63 71.68,174.81 0,68.64 -23.82,126.83 -71.47,174.58 -47.75,47.76 -105.84,71.69 -174.47,71.69 -69.4,0 -128.03,-23.82 -175.79,-71.36 -47.75,-47.54 -71.68,-105.08 -71.68,-172.63 0,-45.03 10.88,-86.69 32.63,-125.2 21.76,-38.4 51.45,-68.53 89.09,-90.28 37.53,-21.76 78.21,-32.64 121.94,-32.64zm2.07 45.69c-34.6,0 -67.45,9.03 -98.56,27.08 -31,18.06 -55.25,42.32 -72.77,72.88 -17.4,30.68 -26.1,64.73 -26.1,102.36 0,55.59 19.25,102.58 57.86,140.87 38.62,38.4 85.18,57.54 139.57,57.54 36.44,0 70.05,-8.81 100.94,-26.43 31,-17.62 55.15,-41.77 72.45,-72.34 17.29,-30.56 25.99,-64.5 25.99,-101.92 0,-37.2 -8.7,-70.81 -25.99,-100.84 -17.3,-30.02 -41.77,-54.06 -73.21,-72.12 -31.44,-18.05 -64.83,-27.08 -100.18,-27.08zm663.74 434.67l0 -468.61 97.25 0c70.05,0 120.96,5.66 152.61,16.86 45.47,15.99 81.04,43.51 106.61,82.89 25.57,39.27 38.4,86.04 38.4,140.43 0,46.99 -10.12,88.22 -30.46,123.9 -20.24,35.67 -46.67,62.11 -78.98,79.08 -32.41,16.97 -77.88,25.45 -136.3,25.45l-149.13 0zm45.03 -44.38l54.07 0c64.61,0 109.32,-4.03 134.34,-12.08 35.13,-11.53 62.87,-32.08 82.99,-61.89 20.13,-29.91 30.14,-66.35 30.14,-109.43 0,-45.14 -10.88,-83.87 -32.75,-115.85 -21.75,-32.08 -52.21,-54.06 -91.15,-65.91 -29.26,-8.92 -77.45,-13.38 -144.57,-13.38l-33.07 0 0 378.54zm582.61 -424.23l268.25 0 0 45.69 -221.25 0 0 146.84 219.29 0 0 45.69 -219.29 0 0 184.7 219.29 0 0 45.69 -266.29 0 0 -468.61zm673.86 0l93.55 0c52.1,0 87.46,2.18 105.95,6.42 27.95,6.31 50.58,19.9 67.98,40.9 17.52,20.88 26.22,46.66 26.22,77.23 0,25.45 -5.98,47.86 -18.06,67.11 -11.96,19.37 -29.15,33.94 -51.56,43.84 -22.3,9.9 -53.19,14.9 -92.57,15.12l168.72 217.99 -57.55 0 -168.71 -217.99 -26.98 0 0 217.99 -46.99 0 0 -468.61zm46.99 45.69l0 159.25 80.93 0.65c31.44,0 54.61,-2.94 69.62,-8.92 15.01,-5.98 26.76,-15.45 35.24,-28.5 8.38,-13.05 12.62,-27.63 12.62,-43.84 0,-15.66 -4.24,-30.02 -12.83,-42.86 -8.49,-12.83 -19.69,-21.97 -33.62,-27.52 -13.81,-5.54 -36.87,-8.26 -69.07,-8.26l-82.89 0zm488.5 -45.69l268.25 0 0 45.69 -221.25 0 0 146.84 219.29 0 0 45.69 -219.29 0 0 184.7 219.29 0 0 45.69 -266.29 0 0 -468.61zm682.45 0l218.64 468.61 -50.36 0 -73.21 -154.03 -203.08 0 -72.77 154.03 -52.22 0 221.26 -468.61 11.74 0zm-5.87 98.33l-80.6 170.57 160.88 0 -80.28 -170.57zm438.03 -98.33l46.99 0 0 422.92 180.79 0 0 45.69 -227.78 0 0 -468.61zm436.18 0l47 0 0 468.61 -47 0 0 -468.61zm295.32 468.61l0 -468.61 97.25 0c70.05,0 120.96,5.66 152.61,16.86 45.47,15.99 81.04,43.51 106.6,82.89 25.57,39.27 38.4,86.04 38.4,140.43 0,46.99 -10.12,88.22 -30.46,123.9 -20.23,35.67 -46.66,62.11 -78.97,79.08 -32.41,16.97 -77.88,25.45 -136.3,25.45l-149.13 0zm45.03 -44.38l54.07 0c64.61,0 109.32,-4.03 134.34,-12.08 35.13,-11.53 62.87,-32.08 82.99,-61.89 20.13,-29.91 30.13,-66.35 30.13,-109.43 0,-45.14 -10.87,-83.87 -32.74,-115.85 -21.75,-32.08 -52.21,-54.06 -91.15,-65.91 -29.26,-8.92 -77.45,-13.38 -144.57,-13.38l-33.07 0 0 378.54zm773.83 -424.23l218.64 468.61 -50.36 0 -73.21 -154.03 -203.08 0 -72.77 154.03 -52.22 0 221.26 -468.61 11.74 0zm-5.87 98.33l-80.6 170.57 160.88 0 -80.28 -170.57zm438.03 370.28l0 -468.61 97.25 0c70.05,0 120.96,5.66 152.61,16.86 45.47,15.99 81.04,43.51 106.6,82.89 25.57,39.27 38.4,86.04 38.4,140.43 0,46.99 -10.12,88.22 -30.46,123.9 -20.23,35.67 -46.66,62.11 -78.97,79.08 -32.41,16.97 -77.88,25.45 -136.3,25.45l-149.13 0zm45.03 -44.38l54.07 0c64.61,0 109.32,-4.03 134.34,-12.08 35.13,-11.53 62.87,-32.08 82.99,-61.89 20.13,-29.91 30.13,-66.35 30.13,-109.43 0,-45.14 -10.87,-83.87 -32.74,-115.85 -21.75,-32.08 -52.21,-54.06 -91.15,-65.91 -29.26,-8.92 -77.45,-13.38 -144.57,-13.38l-33.07 0 0 378.54zm582.6 -424.23l268.25 0 0 45.69 -221.25 0 0 146.84 219.29 0 0 45.69 -219.29 0 0 184.7 219.29 0 0 45.69 -266.29 0 0 -468.61z"/>
   <path class="fil1 str1" d="M6782.06 2530.99c-134.62,0 -259.05,-25.24 -373.3,-75.72 -114.25,-50.48 -213.44,-119.56 -297.58,-207.24 -84.13,-87.68 -149.67,-191.74 -196.61,-312.19 -46.94,-120.45 -70.41,-250.64 -70.41,-390.57 0,-141.7 23.47,-271.01 70.41,-387.91 46.94,-116.91 112.48,-216.54 196.61,-298.91 84.14,-82.36 183.33,-146.13 297.58,-191.3 114.25,-45.16 238.68,-67.75 373.3,-67.75l1046.82 0 0 337.43 -1046.82 0c-86.8,0 -166.95,15.5 -240.45,46.5 -73.51,31 -136.84,73.95 -189.98,128.86 -53.13,54.91 -94.76,120.45 -124.87,196.61 -30.11,76.17 -45.17,160.3 -45.17,252.41 0,90.34 15.06,174.47 45.17,252.41 30.11,77.94 71.74,144.8 124.87,200.6 53.14,55.79 116.47,99.63 189.98,131.52 73.5,31.88 153.65,47.82 240.45,47.82l826.29 0 0 -502.16 -871.46 0 0 -284.29 1211.55 0 0 1123.88 -1166.38 0zm3270.66 0l-488.87 -536.7 -722.69 0 0 -297.58 805.05 0c122.22,0 214.33,-33.21 276.32,-99.63 62,-66.42 93,-162.52 93,-288.28 0,-125.76 -32.33,-219.19 -96.98,-280.3 -64.65,-61.11 -155.43,-91.67 -272.34,-91.67l-1052.14 0 0 1594.16 -334.77 0 0 -1931.59 1386.91 0c109.82,0 208.13,16.39 294.92,49.16 86.8,32.76 160.3,79.7 220.53,140.81 60.22,61.11 106.28,135.06 138.16,221.86 31.88,86.79 47.82,184.21 47.82,292.26 0,161.19 -34.98,296.25 -104.95,405.18 -69.96,108.93 -167.82,187.31 -293.59,235.14l581.87 587.18 -478.25 0zm297.58 -1931.59l411.82 0 876.79 1487.88 874.13 -1487.88 387.91 0 -1113.25 1849.23c-19.49,33.65 -42.51,60.22 -69.08,79.7 -26.57,19.49 -57.57,29.23 -93,29.23 -37.19,0 -69.08,-9.74 -95.65,-29.23 -26.57,-19.48 -49.59,-46.05 -69.08,-79.7l-1110.59 -1849.23zm4171.37 1931.59l-289.61 -486.22 -913.97 0 159.41 -273.66 592.49 0 -430.42 -722.69 -876.78 1482.57 -385.25 0 1110.58 -1849.22c19.49,-33.66 42.51,-60.23 69.08,-79.71 26.57,-19.49 58.46,-29.23 95.65,-29.23 37.2,0 68.64,9.74 94.32,29.23 25.69,19.48 48.27,46.05 67.76,79.71l1113.25 1849.22 -406.51 0z"/>
   <path class="fil0 str0" d="M5844.79 3767.45l51.01 0 155.55 362.77 158.17 -362.77 51.01 0 -204.28 468.61 -10.44 0 -201.02 -468.61zm602.24 0l47 0 0 468.61 -47 0 0 -468.61zm271.89 0l93.55 0c52.1,0 87.46,2.18 105.95,6.42 27.95,6.31 50.58,19.9 67.98,40.9 17.52,20.88 26.22,46.66 26.22,77.23 0,25.45 -5.98,47.86 -18.06,67.11 -11.96,19.37 -29.15,33.94 -51.56,43.84 -22.3,9.9 -53.19,14.9 -92.57,15.12l168.72 217.99 -57.55 0 -168.71 -217.99 -26.98 0 0 217.99 -46.99 0 0 -468.61zm46.99 45.69l0 159.25 80.93 0.65c31.44,0 54.61,-2.94 69.62,-8.92 15.01,-5.98 26.76,-15.45 35.24,-28.5 8.38,-13.05 12.62,-27.63 12.62,-43.84 0,-15.66 -4.24,-30.02 -12.83,-42.86 -8.49,-12.83 -19.69,-21.97 -33.62,-27.52 -13.81,-5.54 -36.87,-8.26 -69.07,-8.26l-82.89 0zm415.47 0l0 -45.69 256.5 0 0 45.69 -104.43 0 0 422.92 -47.64 0 0 -422.92 -104.43 0zm441.47 -45.69l46.99 0 0 283.04c0,33.5 0.65,54.49 1.96,62.76 2.28,18.49 7.72,33.94 16.21,46.34 8.48,12.4 21.53,22.84 39.16,31.22 17.62,8.37 35.35,12.62 53.3,12.62 15.44,0 30.35,-3.27 44.6,-9.9 14.14,-6.53 26.1,-15.67 35.67,-27.41 9.58,-11.64 16.54,-25.78 21,-42.32 3.15,-11.96 4.78,-36.33 4.78,-73.31l0 -283.04 47 0 0 282.82c0,41.88 -4.14,75.71 -12.3,101.49 -8.15,25.78 -24.58,48.29 -49.05,67.33 -24.59,19.15 -54.28,28.72 -89.2,28.72 -37.86,0 -70.27,-9.03 -97.25,-27.09 -27.08,-18.05 -45.14,-41.88 -54.28,-71.68 -5.76,-18.28 -8.59,-51.13 -8.59,-98.77l0 -282.82zm732.55 0l218.64 468.61 -50.36 0 -73.21 -154.03 -203.08 0 -72.77 154.03 -52.22 0 221.26 -468.61 11.74 0zm-5.87 98.33l-80.6 170.57 160.88 0 -80.28 -170.57zm411.99 -98.33l46.99 0 0 422.92 180.79 0 0 45.69 -227.78 0 0 -468.61zm598 0l268.25 0 0 45.69 -221.25 0 0 146.84 219.29 0 0 45.69 -219.29 0 0 184.7 219.29 0 0 45.69 -266.29 0 0 -468.61zm837.1 0l218.64 468.61 -50.36 0 -73.21 -154.03 -203.08 0 -72.77 154.03 -52.22 0 221.26 -468.61 11.74 0zm-5.87 98.33l-80.6 170.57 160.88 0 -80.28 -170.57zm413.95 -98.33l46.99 0 0 283.04c0,33.5 0.65,54.49 1.96,62.76 2.28,18.49 7.72,33.94 16.21,46.34 8.48,12.4 21.53,22.84 39.16,31.22 17.62,8.37 35.35,12.62 53.3,12.62 15.44,0 30.35,-3.27 44.6,-9.9 14.14,-6.53 26.1,-15.67 35.67,-27.41 9.58,-11.64 16.54,-25.78 21,-42.32 3.15,-11.96 4.78,-36.33 4.78,-73.31l0 -283.04 47 0 0 282.82c0,41.88 -4.14,75.71 -12.3,101.49 -8.15,25.78 -24.58,48.29 -49.05,67.33 -24.59,19.15 -54.28,28.72 -89.2,28.72 -37.86,0 -70.27,-9.03 -97.25,-27.09 -27.08,-18.05 -45.14,-41.88 -54.28,-71.68 -5.76,-18.28 -8.59,-51.13 -8.59,-98.77l0 -282.82zm520.44 468.61l64.94 -468.61 9.68 0 190.69 384.42 189.48 -384.42 7.07 0 67.45 468.61 -45.36 0 -47 -335.47 -165.99 335.47 -12.29 0 -167.62 -338.08 -44.93 338.08 -46.12 0zm735.92 -468.61l268.25 0 0 45.69 -221.25 0 0 146.84 219.29 0 0 45.69 -219.29 0 0 184.7 219.29 0 0 45.69 -266.29 0 0 -468.61zm465.18 468.61l0 -468.61 10.12 0 311.65 358.42 0 -358.42 46.99 0 0 468.61 -10.66 0 -309.8 -355.26 0 355.26 -48.3 0zm551.01 -422.92l0 -45.69 256.5 0 0 45.69 -104.43 0 0 422.92 -47.64 0 0 -422.92 -104.43 0zm631.39 -45.69l218.64 468.61 -50.36 0 -73.21 -154.03 -203.08 0 -72.77 154.03 -52.22 0 221.26 -468.61 11.74 0zm-5.87 98.33l-80.6 170.57 160.88 0 -80.28 -170.57zm411.99 370.28l0 -468.61 97.25 0c70.05,0 120.96,5.66 152.61,16.86 45.47,15.99 81.04,43.51 106.6,82.89 25.57,39.27 38.4,86.04 38.4,140.43 0,46.99 -10.12,88.22 -30.46,123.9 -20.23,35.67 -46.66,62.11 -78.97,79.08 -32.41,16.97 -77.88,25.45 -136.3,25.45l-149.13 0zm45.03 -44.38l54.07 0c64.61,0 109.32,-4.03 134.34,-12.08 35.13,-11.53 62.87,-32.08 82.99,-61.89 20.13,-29.91 30.13,-66.35 30.13,-109.43 0,-45.14 -10.87,-83.87 -32.74,-115.85 -21.75,-32.08 -52.21,-54.06 -91.15,-65.91 -29.26,-8.92 -77.45,-13.38 -144.57,-13.38l-33.07 0 0 378.54zm747.79 -424.23l218.64 468.61 -50.36 0 -73.21 -154.03 -203.08 0 -72.77 154.03 -52.22 0 221.26 -468.61 11.74 0zm-5.87 98.33l-80.6 170.57 160.88 0 -80.28 -170.57z"/>
   <path id="path4563" class="fil2" d="M1489.39 1938.67c64.01,-205.1 152.93,-425.65 254.26,-630.56 31.79,-64.31 58.82,-117.51 60.03,-118.23 1.22,-0.7 175.61,47.37 387.54,106.83l385.31 108.1 -119 444.13 -118.99 444.12 -442.83 -118.65 -442.83 -118.66 36.51 -117.08z" inkscape:connector-curvature="0"/>
   <path id="path4565" class="fil2" d="M2215.43 1093.8c-163.36,-46.05 -298.14,-85.7 -299.49,-88.15 -3.52,-6.31 72.42,-121.12 145.63,-220.2 73.21,-99.08 204.67,-247.2 280.62,-316.2l53.99 -49.07 62.2 21.49c34.22,11.82 126.91,38.84 206.01,60.02l143.8 38.53 -89.97 335.72 -89.96 335.72 -57.9 -17.11c-31.84,-9.38 -191.58,-54.74 -354.93,-100.75z" inkscape:connector-curvature="0"/>
   <path id="path4567" class="fil2" d="M1559.66 902.51c-71.18,-22.04 -181.96,-56.72 -246.18,-77.06l-116.74 -37.06 27.28 -27.75c52.77,-53.73 212.06,-191.08 275.67,-237.71 90.34,-66.2 284.63,-180.44 374.91,-220.43 41.85,-18.52 78.03,-32.66 80.38,-31.37 2.35,1.29 51.72,19.28 109.7,39.98 57.98,20.7 105.12,38.83 104.74,40.28 -0.39,1.45 -24.64,27.04 -53.88,56.9 -113.43,115.79 -216.21,247.02 -333.03,425.27 -46.05,70.25 -77.59,112.07 -83.67,110.89 -5.38,-1.05 -68,-19.91 -139.2,-41.91l0.02 -0.03z" inkscape:connector-curvature="0"/>
   <path id="path4569" class="fil2" d="M612.69 1764.34c102.47,-292.37 238.31,-548.56 406.97,-767.54l34.15 -44.35 74.76 25.09c41.1,13.78 164.37,53.17 273.93,87.45 109.56,34.32 199.92,63.66 200.85,65.19 0.92,1.52 -16.95,39.88 -39.71,85.26 -55.19,110.05 -127.85,276.07 -176.1,402.4 -38.57,101.04 -109.17,306.62 -123.29,358.99l-7.14 26.51 -332.82 -89.19 -332.82 -89.19 21.22 -60.62z" inkscape:connector-curvature="0"/>
   <path id="path4571" class="fil2" d="M499.51 2985.09c-10.98,-50.95 -24.97,-240.42 -25.66,-347.54 -1.13,-174.19 16.74,-361.28 52.67,-551.6l11.9 -63.1 332.82 89.19 332.82 89.19 -7.06 26.51c-14.01,52.55 -55.62,265.84 -72.69,372.55 -22.51,140.69 -37.23,271.8 -46.54,414.34 -4.08,62.78 -8.72,114.8 -10.26,115.55 -1.58,0.74 -91.31,-18.39 -199.42,-42.51 -108.12,-24.12 -234.14,-51.82 -280.07,-61.56l-83.49 -17.7 -5.02 -23.32z" inkscape:connector-curvature="0"/>
   <path id="path4573" class="fil2" d="M882.45 3973.98c-135.62,-193.12 -253.29,-444.8 -317.85,-679.97l-19.36 -70.55 104.93 22.82c199.95,43.52 411.94,92.82 414.13,96.3 1.21,1.92 6,68.49 10.63,147.92 9.97,171.17 37.11,364.77 69.93,499.17 13.05,53.38 23.36,98.4 22.91,100.04 -0.45,1.64 -14.35,-0.48 -30.93,-4.69 -16.61,-4.24 -68.58,-13.85 -115.54,-21.34l-85.38 -13.61 -53.47 -76.09z" inkscape:connector-curvature="0"/>
   <path id="path4575" class="fil2" d="M1374.35 4061.65c-50.5,-167.59 -82.63,-353.17 -96.28,-556.58 -6.45,-96.2 -5.83,-108.09 5.9,-109.06 7.24,-0.59 170.28,39.03 362.33,88.08l349.19 89.16 -88.77 331.31 -88.77 331.3 -31.05 -4.29c-17.08,-2.36 -111.81,-24.77 -210.53,-49.75l-179.48 -45.45 -22.54 -74.72z" inkscape:connector-curvature="0"/>
   <path id="path4577" class="fil2" d="M1268.61 3176.09c0.95,-3.55 5.29,-63.42 9.67,-133.08 13.97,-222.6 47.56,-460.28 94.62,-669.69l26.9 -119.67 442.83 118.65 442.83 118.66 -119.32 445.27 -119.32 445.27 -235 -62.97c-129.24,-34.57 -304.73,-79.34 -389.95,-99.45 -91.68,-21.62 -154.27,-39.16 -153.26,-42.99z" inkscape:connector-curvature="0"/>
   <path id="path4579" class="fil2" d="M2532.31 3513.52l-287.49 -79.12 119.28 -445.2 119.28 -445.21 445.92 119.49 445.92 119.49 -29.77 92.41c-83.19,258.28 -223.16,595.13 -311.58,749.81l-14.07 24.63 -100 -28.59c-54.99,-15.74 -229.37,-64.19 -387.49,-107.71z" inkscape:connector-curvature="0"/>
   <path id="path4581" class="fil2" d="M2655.73 1900.81l119.32 -445.28 203.22 54.43c111.77,29.94 287.01,74.64 389.41,99.34l186.19 44.92 -0.07 29.6c-0.39,180.97 -45.93,529.47 -105.87,809.91l-19.52 91.37 -446.01 -119.49 -445.98 -119.5 119.31 -445.3z" inkscape:connector-curvature="0"/>
   <path id="path4583" class="fil2" d="M2916.44 927.86l89.65 -334.63 147.35 39.47c81.04,21.71 176.17,45.16 211.42,52.08l64.07 12.62 20.01 64.85c27.79,89.99 60.54,240.47 76.75,352.74 12.16,84.12 30.88,307.53 27,322.02 -2.68,10 -87.45,-9.14 -408.94,-92.42l-316.99 -82.11 89.68 -334.62z" inkscape:connector-curvature="0"/>
   <path id="path4585" class="fil3" d="M3755.31 1404.9c-7.47,-192.51 -47.26,-469.93 -88.6,-617.58l-12.03 -42.99 30.28 7.74c16.65,4.25 69.54,13.87 117.53,21.37l87.25 13.63 60.64 86.47c106.56,151.97 201.9,341.17 268.7,533.35 31.16,89.63 63.21,202.2 58.31,204.77 -1.66,0.87 -94.6,-19.14 -206.56,-44.44 -111.97,-25.33 -227.95,-51.28 -257.74,-57.71l-54.18 -11.66 -3.6 -92.95z" inkscape:connector-curvature="0"/>
   <path id="path4587" class="fil3" d="M3626.19 2621.06c0.57,-9.21 12.56,-66.54 26.63,-127.42 46.53,-201.25 83.8,-468.5 97.93,-701.85l5.25 -86.66 111.42 24.89c200.5,44.84 433.17,95.53 444.42,96.88 13.68,1.61 23.59,64.51 34.04,216.17 16.4,238.05 -6.64,557.99 -52.49,729.13l-11.17 41.66 -328.52 -88.02 -328.52 -88.02 1.01 -16.76z" inkscape:connector-curvature="0"/>
   <path id="path4589" class="fil3" d="M3573.1 3820.52c-51.71,-16.87 -152.46,-48.82 -223.91,-70.98l-129.86 -40.32 54.08 -110.18c100.8,-205.38 189.12,-425.59 249.86,-623.13 18.63,-60.55 37.22,-116.87 41.34,-125.14l7.49 -15.06 328.53 88.02 328.52 88.03 -11.91 44.15c-15.86,58.81 -75.54,210.85 -120.43,306.74 -70.3,150.19 -190,348.82 -281.61,467.28l-40.54 52.43 -53.77 -15.58c-29.56,-8.59 -96.09,-29.41 -147.82,-46.28l0.03 0.02z" inkscape:connector-curvature="0"/>
   <path id="path4591" class="fil3" d="M2733.93 4517.08l-80.2 -29.8 30.24 -29.77c109.99,-108.28 251.17,-286.01 360.71,-454.11l74.39 -114.17 62.73 20.26c34.52,11.13 147.7,46.74 251.51,79.1 103.82,32.36 189.61,60.23 190.61,61.93 2.88,4.85 -127.04,128.1 -187.56,177.95 -142.54,117.37 -298.57,218.09 -451.61,291.52 -114.71,55.05 -94.27,55.28 -250.88,-2.9l0.06 -0.01z" inkscape:connector-curvature="0"/>
   <path id="path4593" class="fil2" d="M2194.01 4344.94c-96.54,-28.48 -176.17,-52.53 -176.96,-53.46 -0.8,-0.94 38.57,-151.01 87.46,-333.51l88.92 -331.8 336.56 93.95c339.19,94.68 381.99,108.15 378.98,119.4 -3.76,14.08 -134.42,201.77 -186.44,267.83 -70.07,89.01 -163.39,191.45 -235.21,258.19l-54.95 51.07 -31.41 -9.93c-17.29,-5.46 -110.42,-33.22 -206.95,-61.71l0 -0.03z" inkscape:connector-curvature="0"/>
   <path id="path4595" class="fil2" d="M875.22 673.55c-24.4,-9.98 -54.28,-22.84 -66.39,-28.57l-22.01 -10.44 71.48 -61.15c204.01,-174.47 486.43,-336.38 748.25,-428.95 14.4,-5.09 123.46,-31.82 115.77,-3.07 -0.86,3.21 -46.11,31.33 -100.56,62.52 -221.6,126.89 -424.11,287.17 -595.17,471.07l-35.2 37.87 -35.89 -10.57c-19.74,-5.83 -55.85,-18.75 -80.28,-28.71z" inkscape:connector-curvature="0"/>
   <path id="path4597" class="fil2" d="M126.92 1642.15c92.51,-257.17 201.71,-464.63 350.31,-665.59 60.06,-81.22 158.25,-192.45 167.68,-189.9 4.95,1.34 16.2,7.61 25.01,13.97 8.82,6.35 52.14,26.79 96.28,45.41 44.15,18.61 80.89,34.92 81.67,36.25 0.78,1.31 -17.97,29.22 -41.69,62 -147.45,203.78 -280.09,461.01 -372.83,723.14l-37.34 105.52 -144.18 -38.65 -144.17 -38.63 19.26 -53.52z" inkscape:connector-curvature="0"/>
   <path id="path4599" class="fil2" d="M39.2 2853.52c-51.58,-283.35 -52.4,-570.23 -2.46,-858.68 7.94,-45.79 15.48,-87.22 16.75,-92.1 1.79,-6.78 35.84,0.12 146.28,29.72l143.93 38.58 -15.44 77.3c-52.44,262.72 -69.45,560.86 -46.41,813.98 5.19,57.01 9.2,104.5 8.91,105.58 -0.28,1.08 -21,-1.14 -46.04,-4.92 -54.43,-8.24 -161.13,-18.18 -177.03,-16.53 -8.31,0.88 -15.93,-23.93 -28.49,-92.96l0 0.03z" inkscape:connector-curvature="0"/>
   <path id="path4601" class="fil2" d="M570.01 3977.31c-181.4,-215.45 -340.19,-491.89 -431.98,-752.19 -29.55,-83.73 -35.43,-78.83 73.9,-61.97 40.01,6.16 82.65,12.63 94.77,14.34 20.98,2.98 22.75,6.37 37.42,72.36 49.47,222.37 158.99,496.18 278.34,695.86 30.56,51.16 54.73,96.2 53.7,100.06 -2.45,9.14 -23.75,9.57 -27.08,8.6 -13.25,-3.87 -37.97,-28.3 -79.05,-77.09l-0.02 0.03z" inkscape:connector-curvature="0"/>
   <path id="path4603" class="fil3" d="M3119.02 4710.72c-19.88,-43.07 0.72,-28.98 98.76,-85.15 191.42,-109.66 395.72,-268.81 544.52,-424.21 34.92,-36.47 66.99,-69.35 71.24,-73.04 5.87,-5.07 28.68,1.52 93.39,27.04 47.12,18.56 90.71,37.64 96.88,42.38 9.88,7.59 4.14,14.72 -47.51,59.15 -213.47,183.56 -478.62,337.29 -749.89,434.8 -92.28,33.18 -100.27,34.58 -107.43,19.01l0.04 0.02z" inkscape:connector-curvature="0"/>
   <path id="path4605" class="fil3" d="M4155.82 4036.52c-12.53,-7.51 -58.17,-28.82 -101.43,-47.3l-78.64 -33.63 59.66 -85.25c148.8,-212.53 282.88,-475.1 354.79,-694.79 40.79,-124.65 17.53,-115.52 182.18,-71.4l141.23 37.84 -9.94 37.15c-43.72,163.16 -194.16,458.24 -330.45,648.14 -63.8,88.87 -180.86,228.35 -189.02,225.17 -3.07,-1.21 -15.85,-8.34 -28.39,-15.87l0.01 -0.06z" inkscape:connector-curvature="0"/>
   <path id="path4607" class="fil3" d="M4485.21 2851.61c0.57,-9.21 8.35,-51.66 17.3,-94.34 52.44,-250.21 66.61,-589.77 35.46,-848.95l-4.83 -40.18 70.7 10.07c38.89,5.54 90.49,10.44 114.64,10.9 24.17,0.46 45.24,1.18 46.84,1.61 12.57,3.37 51.49,271.99 58.01,400.31 10.21,201.38 -11.17,483.18 -46.75,615.87l-9.94 37.15 -141.23 -37.84c-140.78,-37.73 -141.23,-37.9 -140.2,-54.6z" inkscape:connector-curvature="0"/>
   <path id="path4609" class="fil3" d="M4487.69 1613.68c-37.7,-200.49 -150.18,-489.57 -273.34,-702.36 -37.95,-65.58 -68.58,-122.01 -65.43,-126.18 2.29,-3.02 49.29,8.26 82.79,46.64 155.03,177.57 291.82,392.7 388.59,611 41.17,92.88 93.78,237.15 87.75,240.63 -6.78,3.91 -147.81,-14.67 -184.57,-24.31 -27.25,-7.15 -29.02,-9.37 -35.79,-45.42z" inkscape:connector-curvature="0"/>
   <path class="fil4 str2" d="M3037.56 81.96l0 0m0 0l0 0m0 0l0 0m0 0l0 0m0 0l0 0m0 0l0 0m0 0l0 0m0 0l0 0m0 0l0 0m0 0l0 0m0 0l0 0m0 0l0 0m0 0l0 0m0 0l0 0m0 0l0 0m0 0l0 0m0 0l0 0m0 0l0 0m0 0l0 0m0 0l0 0m0 0l0 0m0 0l0 0m0 0l0 0m0 0l0 0m0 0l0 0m0 0l0 0m0 0l0 0m0 0l0 0m0 0l0 0m0 0l0 0m0 0l0 0m0 0l0 0m0 0l0 0m0 0l0 0m0 0l0 0m0 0l0 0m0 0l0 0m0 0l0 0m0 0l0 0m0 0l0 0m0 0l0 0m0 0l0 0m0 0l0 0m0 0l0 0m0 0l0 0m0 0l0 0m0 0l0 0m0 0l0 0m0 0l0 0m0 0l0 0m0 0l0 0m0 0l0 0m0 0l0 0m0 0l0 0m0 0l0 0m0 0l0 0m0 0l0 0m0 0l0 0m0 0l0 0m0 0l0 0m0 0l0 0m0 0l0 0m0 0l0 0m0 0l0 0m0 0l0 0m0 0l0 0m0 0l0 0m0 0l0 0m0 0l0 0m0 0l0 0m0 0l0 0m0 0l0 0m0 0l0 0m0 0l0 0m0 0l0 0m0 0l0 0m0 0l0 0m0 0l0 0m0 0l0 0m0 0l0 0m0 0l0 0m0 0l0 0m0 0l0 0m0 0l0 0m0 0l0 0m0 0l0 0m0 0l0 0m0 0l0 0m0 0l0 0m0 0l0 0m0 0l0 0m0 0l0 0m0 0l0 0m0 0l0 0m0 0l0 0m0 0l0 0m0 0l0 0m0 0l0 0m0 0l0 0"/>
   <path class="fil4 str2" d="M3048.41 38.67l0 0m0 0l0 0m0 0l0 0m0 0l0 0m0 0l0 0m0 0l0 0m0 0l0 0m0 0l0 0m0 0l0 0m0 0l0 0m0 0l0 0m0 0l0 0m0 0l0 0m0 0l0 0m0 0l0 0m0 0l0 0m0 0l0 0m0 0l0 0m0 0l0 0m0 0l0 0m0 0l0 0m0 0l0 0m0 0l0 0m0 0l0 0m0 0l0 0m0 0l0 0m0 0l0 0m0 0l0 0m0 0l0 0m0 0l0 0m0 0l0 0m0 0l0 0m0 0l0 0m0 0l0 0m0 0l0 0m0 0l0 0m0 0l0 0m0 0l0 0m0 0l0 0m0 0l0 0m0 0l0 0m0 0l0 0m0 0l0 0m0 0l0 0m0 0l0 0m0 0l0 0m0 0l0 0m0 0l0 0m0 0l0 0m0 0l0 0m0 0l0 0m0 0l0 0m0 0l0 0m0 0l0 0m0 0l0 0m0 0l0 0m0 0l0 0m0 0l0 0m0 0l0 0m0 0l0 0m0 0l0 0m0 0l0 0m0 0l0 0m0 0l0 0m0 0l0 0m0 0l0 0m0 0l0 0m0 0l0 0m0 0l0 0m0 0l0 0m0 0l0 0m0 0l0 0m0 0l0 0m0 0l0 0m0 0l0 0m0 0l0 0m0 0l0 0m0 0l0 0m0 0l0 0m0 0l0 0m0 0l0 0m0 0l0 0m0 0l0 0m0 0l0 0m0 0l0 0m0 0l0 0m0 0l0 0m0 0l0 0m0 0l0 0m0 0l0 0m0 0l0 0m0 0l0 0m0 0l0 0m0 0l0 0m0 0l0 0m0 0l0 0m0 0l0 0m0 0l0 0m0 0l0 0"/>
   <path class="fil4 str0" d="M1789.47 4739.94l0 0m0 0l0 0m0 0l0 0m0 0l0 0m0 0l0 0m0 0l0 0m0 0l0 0m0 0l0 0m0 0l0 0m0 0l0 0m0 0l0 0m0 0l0 0m0 0l0 0m0 0l0 0m0 0l0 0m0 0l0 0m0 0l0 0m0 0l0 0m0 0l0 0m0 0l0 0m0 0l0 0m0 0l0 0m0 0l0 0m0 0l0 0m0 0l0 0m0 0l0 0m0 0l0 0m0 0l0 0m0 0l0 0m0 0l0 0m0 0l0 0m0 0l0 0m0 0l0 0m0 0l0 0m0 0l0 0m0 0l0 0m0 0l0 0m0 0l0 0m0 0l0 0m0 0l0 0m0 0l0 0m0 0l0 0m0 0l0 0m0 0l0 0m0 0l0 0m0 0l0 0m0 0l0 0m0 0l0 0m0 0l0 0m0 0l0 0m0 0l0 0m0 0l0 0m0 0l0 0m0 0l0 0m0 0l0 0m0 0l0 0m0 0l0 0m0 0l0 0m0 0l0 0m0 0l0 0m0 0l0 0m0 0l0 0m0 0l0 0m0 0l0 0m0 0l0 0m0 0l0 0m0 0l0 0m0 0l0 0m0 0l0 0m0 0l0 0m0 0l0 0m0 0l0 0m0 0l0 0m0 0l0 0m0 0l0 0m0 0l0 0m0 0l0 0m0 0l0 0m0 0l0 0m0 0l0 0m0 0l0 0m0 0l0 0m0 0l0 0m0 0l0 0m0 0l0 0m0 0l0 0m0 0l0 0m0 0l0 0m0 0l0 0m0 0l0 0m0 0l0 0m0 0l0 0m0 0l0 0m0 0l0 0m0 0l0 0m0 0l0 0m0 0l0 0m0 0l0 0m0 0l0 0"/>
   <path class="fil4 str3" d="M3037.56 81.96l73.44 20.87m0 0l72.8 23.41m0 0l71.82 25.46m0 0l71.27 27.66m0 0l70.2 30.11m0 0l69.16 32.55m0 0l68.31 34.27m0 0l66.91 36.61m0 0l65.95 38.72m0 0l64.57 41.04m0 0l63.31 42.68m0 0l62.02 44.65m0 0l60.28 46.92m0 0l59.03 48.52m0 0l57.36 50.41m0 0l55.7 52.31"/>
   <path class="fil4 str3" d="M3037.56 81.96l-74.05 -18.65m0 0l-74.74 -16.13m0 0l-74.93 -13.86m0 0l-75.55 -11.68m0 0l-75.86 -9.02m0 0l-76.17 -6.39m0 0l-76.28 -4.48m0 0l-76.26 -1.75m0 0l-76.47 0.56m0 0l-76.44 3.26m0 0l-76.17 5.3m0 0l-76.03 7.66m0 0l-75.67 10.5m0 0l-75.38 12.5m0 0l-74.88 14.97m0 0l-74.39 17.46"/>
   <path class="fil4 str3" d="M1789.47 4739.94l74.04 18.66m0 0l74.75 16.12m0 0l74.93 13.87m0 0l75.54 11.67m0 0l75.86 9.03m0 0l76.17 6.39m0 0l76.29 4.48m0 0l76.25 1.75m0 0l76.48 -0.56m0 0l76.43 -3.26m0 0l76.17 -5.31m0 0l76.03 -7.66m0 0l75.67 -10.49m0 0l75.38 -12.5m0 0l74.89 -14.98m0 0l74.39 -17.45"/>
   <path class="fil4 str3" d="M1789.47 4739.94l-73.45 -20.86m0 0l-72.8 -23.41m0 0l-71.82 -25.46m0 0l-71.26 -27.66m0 0l-70.21 -30.11m0 0l-69.16 -32.55m0 0l-68.31 -34.27m0 0l-66.91 -36.61m0 0l-65.95 -38.72m0 0l-64.57 -41.04m0 0l-63.31 -42.68m0 0l-62.02 -44.65m0 0l-60.27 -46.93m0 0l-59.04 -48.51m0 0l-57.36 -50.41m0 0l-55.7 -52.31"/>
   <path class="fil4 str0" d="M1777.22 4782.86l0 0m0 0l0 0m0 0l0 0m0 0l0 0m0 0l0 0m0 0l0 0m0 0l0 0m0 0l0 0m0 0l0 0m0 0l0 0m0 0l0 0m0 0l0 0m0 0l0 0m0 0l0 0m0 0l0 0m0 0l0 0m0 0l0 0m0 0l0 0m0 0l0 0m0 0l0 0m0 0l0 0m0 0l0 0m0 0l0 0m0 0l0 0m0 0l0 0m0 0l0 0m0 0l0 0m0 0l0 0m0 0l0 0m0 0l0 0m0 0l0 0m0 0l0 0m0 0l0 0m0 0l0 0m0 0l0 0m0 0l0 0m0 0l0 0m0 0l0 0m0 0l0 0m0 0l0 0m0 0l0 0m0 0l0 0m0 0l0 0m0 0l0 0m0 0l0 0m0 0l0 0m0 0l0 0m0 0l0 0m0 0l0 0m0 0l0 0m0 0l0 0m0 0l0 0m0 0l0 0m0 0l0 0m0 0l0 0m0 0l0 0m0 0l0 0m0 0l0 0m0 0l0 0m0 0l0 0m0 0l0 0m0 0l0 0m0 0l0 0m0 0l0 0m0 0l0 0m0 0l0 0m0 0l0 0m0 0l0 0m0 0l0 0m0 0l0 0m0 0l0 0m0 0l0 0m0 0l0 0m0 0l0 0m0 0l0 0m0 0l0 0m0 0l0 0m0 0l0 0m0 0l0 0m0 0l0 0m0 0l0 0m0 0l0 0m0 0l0 0m0 0l0 0m0 0l0 0m0 0l0 0m0 0l0 0m0 0l0 0m0 0l0 0m0 0l0 0m0 0l0 0m0 0l0 0m0 0l0 0m0 0l0 0m0 0l0 0m0 0l0 0m0 0l0 0m0 0l0 0m0 0l0 0"/>
  </g>
 </g>
</svg>
