<?xml version="1.0" encoding="UTF-8"?>
<!DOCTYPE svg PUBLIC "-//W3C//DTD SVG 1.1//EN" "http://www.w3.org/Graphics/SVG/1.1/DTD/svg11.dtd">
<!-- Creator: CorelDRAW 2018 (64 Bit) -->
<svg xmlns="http://www.w3.org/2000/svg" xml:space="preserve" width="90.8404mm" height="99.5932mm" version="1.1" style="shape-rendering:geometricPrecision; text-rendering:geometricPrecision; image-rendering:optimizeQuality; fill-rule:evenodd; clip-rule:evenodd"
viewBox="0 0 9084.04 9959.32"
 xmlns:xlink="http://www.w3.org/1999/xlink">
 <defs>
  <style type="text/css">
   <![CDATA[
    .str1 {stroke:#1D5687;stroke-width:60;stroke-miterlimit:22.9256}
    .str3 {stroke:#1D5687;stroke-width:60;stroke-linecap:round;stroke-linejoin:round;stroke-miterlimit:22.9256}
    .str2 {stroke:#1D5687;stroke-width:50;stroke-linecap:round;stroke-linejoin:round;stroke-miterlimit:22.9256}
    .str0 {stroke:#1D5687;stroke-width:40;stroke-linecap:round;stroke-linejoin:round;stroke-miterlimit:22.9256}
    .fil4 {fill:none}
    .fil2 {fill:#1D5687}
    .fil3 {fill:#339966}
    .fil1 {fill:#1D5687;fill-rule:nonzero}
    .fil0 {fill:#1D5687;fill-rule:nonzero}
   ]]>
  </style>
 </defs>
 <g id="Camada_x0020_1">
  <metadata id="CorelCorpID_0Corel-Layer"/>
  <g id="_2422470421824">
   <path class="fil0 str0" d="M473.37 8722.68l-36.34 34.37c-26.21,-25.67 -54.93,-45.14 -86.15,-58.41 -31.22,-13.27 -61.68,-19.91 -91.37,-19.91 -36.88,0 -72.01,9.03 -105.3,27.09 -33.4,18.06 -59.28,42.53 -77.56,73.53 -18.38,30.9 -27.52,63.53 -27.52,98.01 0,35.25 9.46,68.75 28.39,100.62 18.93,31.77 45.14,56.68 78.54,74.84 33.5,18.17 70.05,27.31 109.86,27.31 48.3,0 89.2,-13.6 122.6,-40.69 33.39,-27.08 53.19,-62.33 59.39,-105.51l-149.46 0 0 -45.69 202.33 0c-0.44,72.34 -21.98,129.88 -64.62,172.42 -42.75,42.53 -99.75,63.85 -171.32,63.85 -86.81,0 -155.56,-29.48 -206.25,-88.55 -38.94,-45.47 -58.41,-98.01 -58.41,-157.73 0,-44.27 11.2,-85.6 33.5,-123.89 22.41,-38.19 53.09,-68.1 92.03,-89.64 39.05,-21.54 83.11,-32.31 132.27,-32.31 39.82,0 77.35,7.18 112.48,21.43 35.14,14.36 69.51,37.21 102.91,68.86zm260.07 -78.54l93.55 0c52.11,0 87.46,2.18 105.95,6.42 27.96,6.31 50.58,19.91 67.99,40.9 17.51,20.89 26.21,46.67 26.21,77.23 0,25.46 -5.98,47.87 -18.05,67.12 -11.97,19.36 -29.16,33.94 -51.56,43.84 -22.3,9.9 -53.2,14.9 -92.57,15.12l168.71 217.99 -57.54 0 -168.72 -217.99 -26.97 0 0 217.99 -47 0 0 -468.62zm47 45.69l0 159.25 80.93 0.65c31.43,0 54.6,-2.93 69.61,-8.92 15.02,-5.98 26.76,-15.44 35.25,-28.5 8.37,-13.05 12.62,-27.63 12.62,-43.83 0,-15.67 -4.25,-30.03 -12.84,-42.86 -8.48,-12.84 -19.69,-21.98 -33.61,-27.52 -13.82,-5.55 -36.88,-8.27 -69.08,-8.27l-82.88 0zm489.81 -45.69l46.99 0 0 283.04c0,33.51 0.66,54.5 1.96,62.77 2.28,18.49 7.72,33.94 16.21,46.34 8.48,12.4 21.54,22.84 39.16,31.22 17.62,8.37 35.35,12.62 53.3,12.62 15.45,0 30.35,-3.27 44.6,-9.9 14.14,-6.53 26.11,-15.67 35.68,-27.41 9.57,-11.64 16.53,-25.78 20.99,-42.32 3.16,-11.96 4.79,-36.33 4.79,-73.32l0 -283.04 46.99 0 0 282.83c0,41.88 -4.13,75.71 -12.29,101.49 -8.16,25.78 -24.58,48.29 -49.06,67.33 -24.58,19.15 -54.28,28.72 -89.2,28.72 -37.85,0 -70.27,-9.03 -97.25,-27.09 -27.08,-18.05 -45.14,-41.88 -54.28,-71.68 -5.76,-18.28 -8.59,-51.13 -8.59,-98.77l0 -282.83zm566.72 0l93.44 0c53.52,0 89.75,2.29 108.45,6.96 26.76,6.64 48.63,20.13 65.6,40.69 17.08,20.45 25.56,46.23 25.56,77.23 0,31.22 -8.27,56.89 -24.91,77.23 -16.53,20.24 -39.38,33.83 -68.42,40.9 -21.32,5.12 -61.03,7.62 -119.22,7.62l-33.51 0 0 217.99 -46.99 0 0 -468.62zm46.99 45.69l0 159.25 79.41 0.98c32.09,0 55.59,-2.94 70.49,-8.81 14.9,-5.87 26.65,-15.23 35.14,-28.28 8.48,-13.06 12.72,-27.74 12.72,-43.84 0,-15.66 -4.24,-30.13 -12.72,-43.19 -8.49,-13.05 -19.8,-22.3 -33.72,-27.84 -13.93,-5.55 -36.66,-8.27 -68.43,-8.27l-82.89 0zm704 -57.44c70.93,0 130.32,23.72 178.07,71.04 47.76,47.32 71.69,105.62 71.69,174.8 0,68.64 -23.82,126.84 -71.47,174.59 -47.75,47.76 -105.84,71.69 -174.48,71.69 -69.4,0 -128.03,-23.82 -175.79,-71.36 -47.75,-47.54 -71.68,-105.08 -71.68,-172.63 0,-45.04 10.88,-86.7 32.63,-125.21 21.76,-38.39 51.46,-68.53 89.09,-90.28 37.53,-21.76 78.21,-32.64 121.94,-32.64zm2.07 45.69c-34.59,0 -67.44,9.03 -98.55,27.09 -31.01,18.05 -55.26,42.31 -72.78,72.88 -17.4,30.67 -26.1,64.72 -26.1,102.36 0,55.59 19.25,102.58 57.87,140.87 38.61,38.4 85.17,57.54 139.56,57.54 36.44,0 70.05,-8.81 100.95,-26.43 31,-17.62 55.15,-41.77 72.44,-72.34 17.3,-30.57 26,-64.51 26,-101.92 0,-37.21 -8.7,-70.82 -26,-100.84 -17.29,-30.03 -41.77,-54.07 -73.21,-72.12 -31.43,-18.06 -64.83,-27.09 -100.18,-27.09zm663.75 434.68l0 -468.62 97.25 0c70.05,0 120.96,5.66 152.62,16.86 45.47,15.99 81.04,43.51 106.6,82.89 25.56,39.27 38.4,86.05 38.4,140.44 0,46.99 -10.12,88.21 -30.46,123.89 -20.23,35.68 -46.67,62.12 -78.97,79.09 -32.42,16.97 -77.89,25.45 -136.3,25.45l-149.14 0zm45.04 -44.38l54.06 0c64.61,0 109.32,-4.03 134.34,-12.08 35.14,-11.53 62.87,-32.09 83,-61.89 20.12,-29.91 30.13,-66.36 30.13,-109.43 0,-45.14 -10.88,-83.87 -32.74,-115.85 -21.76,-32.09 -52.22,-54.06 -91.16,-65.92 -29.26,-8.92 -77.45,-13.38 -144.56,-13.38l-33.07 0 0 378.55zm582.61 -424.24l268.25 0 0 45.69 -221.25 0 0 146.85 219.29 0 0 45.69 -219.29 0 0 184.7 219.29 0 0 45.69 -266.29 0 0 -468.62zm673.87 0l93.55 0c52.11,0 87.46,2.18 105.95,6.42 27.96,6.31 50.58,19.91 67.99,40.9 17.51,20.89 26.21,46.67 26.21,77.23 0,25.46 -5.98,47.87 -18.05,67.12 -11.97,19.36 -29.16,33.94 -51.56,43.84 -22.3,9.9 -53.2,14.9 -92.57,15.12l168.71 217.99 -57.54 0 -168.72 -217.99 -26.97 0 0 217.99 -47 0 0 -468.62zm47 45.69l0 159.25 80.93 0.65c31.43,0 54.6,-2.93 69.61,-8.92 15.02,-5.98 26.76,-15.44 35.25,-28.5 8.37,-13.05 12.62,-27.63 12.62,-43.83 0,-15.67 -4.25,-30.03 -12.84,-42.86 -8.48,-12.84 -19.69,-21.98 -33.61,-27.52 -13.82,-5.55 -36.88,-8.27 -69.08,-8.27l-82.88 0zm488.5 -45.69l268.25 0 0 45.69 -221.25 0 0 146.85 219.29 0 0 45.69 -219.29 0 0 184.7 219.29 0 0 45.69 -266.29 0 0 -468.62zm682.47 0l218.64 468.62 -50.36 0 -73.21 -154.03 -203.09 0 -72.77 154.03 -52.22 0 221.26 -468.62 11.75 0zm-5.88 98.34l-80.6 170.56 160.88 0 -80.28 -170.56zm438.04 -98.34l46.99 0 0 422.93 180.79 0 0 45.69 -227.78 0 0 -468.62zm436.19 0l46.99 0 0 468.62 -46.99 0 0 -468.62zm295.31 468.62l0 -468.62 97.25 0c70.05,0 120.96,5.66 152.62,16.86 45.47,15.99 81.04,43.51 106.6,82.89 25.56,39.27 38.4,86.05 38.4,140.44 0,46.99 -10.12,88.21 -30.46,123.89 -20.23,35.68 -46.67,62.12 -78.97,79.09 -32.42,16.97 -77.89,25.45 -136.3,25.45l-149.14 0zm45.04 -44.38l54.06 0c64.61,0 109.32,-4.03 134.34,-12.08 35.14,-11.53 62.87,-32.09 83,-61.89 20.12,-29.91 30.13,-66.36 30.13,-109.43 0,-45.14 -10.88,-83.87 -32.74,-115.85 -21.76,-32.09 -52.22,-54.06 -91.16,-65.92 -29.26,-8.92 -77.45,-13.38 -144.56,-13.38l-33.07 0 0 378.55zm773.84 -424.24l218.64 468.62 -50.36 0 -73.21 -154.03 -203.09 0 -72.77 154.03 -52.22 0 221.26 -468.62 11.75 0zm-5.88 98.34l-80.6 170.56 160.88 0 -80.28 -170.56zm438.04 370.28l0 -468.62 97.25 0c70.05,0 120.96,5.66 152.62,16.86 45.47,15.99 81.04,43.51 106.6,82.89 25.56,39.27 38.4,86.05 38.4,140.44 0,46.99 -10.12,88.21 -30.46,123.89 -20.23,35.68 -46.67,62.12 -78.97,79.09 -32.42,16.97 -77.89,25.45 -136.3,25.45l-149.14 0zm45.04 -44.38l54.06 0c64.61,0 109.32,-4.03 134.34,-12.08 35.14,-11.53 62.87,-32.09 83,-61.89 20.12,-29.91 30.13,-66.36 30.13,-109.43 0,-45.14 -10.88,-83.87 -32.74,-115.85 -21.76,-32.09 -52.22,-54.06 -91.16,-65.92 -29.26,-8.92 -77.45,-13.38 -144.56,-13.38l-33.07 0 0 378.55zm582.6 -424.24l268.25 0 0 45.69 -221.25 0 0 146.85 219.29 0 0 45.69 -219.29 0 0 184.7 219.29 0 0 45.69 -266.29 0 0 -468.62z"/>
   <path class="fil0 str0" d="M1.23 9478.93l51.02 0 155.55 362.78 158.16 -362.78 51.02 0 -204.29 468.62 -10.44 0 -201.02 -468.62zm602.25 0l46.99 0 0 468.62 -46.99 0 0 -468.62zm271.88 0l93.55 0c52.11,0 87.46,2.18 105.95,6.42 27.96,6.31 50.58,19.91 67.99,40.9 17.51,20.89 26.21,46.67 26.21,77.23 0,25.46 -5.98,47.87 -18.05,67.12 -11.97,19.36 -29.16,33.94 -51.56,43.84 -22.3,9.9 -53.2,14.9 -92.57,15.12l168.71 217.99 -57.54 0 -168.72 -217.99 -26.97 0 0 217.99 -47 0 0 -468.62zm47 45.69l0 159.25 80.93 0.65c31.43,0 54.6,-2.93 69.61,-8.92 15.02,-5.98 26.76,-15.44 35.25,-28.5 8.37,-13.05 12.62,-27.63 12.62,-43.83 0,-15.67 -4.25,-30.03 -12.84,-42.86 -8.48,-12.84 -19.69,-21.98 -33.61,-27.52 -13.82,-5.55 -36.88,-8.27 -69.08,-8.27l-82.88 0zm415.47 0l0 -45.69 256.5 0 0 45.69 -104.43 0 0 422.93 -47.64 0 0 -422.93 -104.43 0zm441.48 -45.69l46.99 0 0 283.04c0,33.51 0.66,54.5 1.96,62.77 2.28,18.49 7.72,33.94 16.21,46.34 8.48,12.4 21.54,22.84 39.16,31.22 17.62,8.37 35.35,12.62 53.3,12.62 15.45,0 30.35,-3.27 44.6,-9.9 14.14,-6.53 26.11,-15.67 35.68,-27.41 9.57,-11.64 16.53,-25.78 20.99,-42.32 3.16,-11.96 4.79,-36.33 4.79,-73.32l0 -283.04 46.99 0 0 282.83c0,41.88 -4.13,75.71 -12.29,101.49 -8.16,25.78 -24.58,48.29 -49.06,67.33 -24.58,19.15 -54.28,28.72 -89.2,28.72 -37.85,0 -70.27,-9.03 -97.25,-27.09 -27.08,-18.05 -45.14,-41.88 -54.28,-71.68 -5.76,-18.28 -8.59,-51.13 -8.59,-98.77l0 -282.83zm732.57 0l218.64 468.62 -50.36 0 -73.21 -154.03 -203.09 0 -72.77 154.03 -52.22 0 221.26 -468.62 11.75 0zm-5.88 98.34l-80.6 170.56 160.88 0 -80.28 -170.56zm412 -98.34l46.99 0 0 422.93 180.79 0 0 45.69 -227.78 0 0 -468.62zm598 0l268.25 0 0 45.69 -221.25 0 0 146.85 219.29 0 0 45.69 -219.29 0 0 184.7 219.29 0 0 45.69 -266.29 0 0 -468.62zm837.12 0l218.64 468.62 -50.36 0 -73.21 -154.03 -203.1 0 -72.77 154.03 -52.22 0 221.27 -468.62 11.75 0zm-5.88 98.34l-80.61 170.56 160.89 0 -80.28 -170.56zm413.96 -98.34l46.99 0 0 283.04c0,33.51 0.66,54.5 1.96,62.77 2.28,18.49 7.72,33.94 16.21,46.34 8.48,12.4 21.54,22.84 39.16,31.22 17.62,8.37 35.35,12.62 53.3,12.62 15.45,0 30.35,-3.27 44.6,-9.9 14.14,-6.53 26.11,-15.67 35.68,-27.41 9.57,-11.64 16.53,-25.78 20.99,-42.32 3.16,-11.96 4.79,-36.33 4.79,-73.32l0 -283.04 46.99 0 0 282.83c0,41.88 -4.13,75.71 -12.29,101.49 -8.16,25.78 -24.58,48.29 -49.06,67.33 -24.58,19.15 -54.28,28.72 -89.2,28.72 -37.85,0 -70.27,-9.03 -97.25,-27.09 -27.08,-18.05 -45.14,-41.88 -54.28,-71.68 -5.76,-18.28 -8.59,-51.13 -8.59,-98.77l0 -282.83zm520.45 468.62l64.94 -468.62 9.68 0 190.69 384.43 189.49 -384.43 7.07 0 67.44 468.62 -45.36 0 -46.99 -335.47 -165.99 335.47 -12.3 0 -167.62 -338.08 -44.93 338.08 -46.12 0zm735.93 -468.62l268.25 0 0 45.69 -221.25 0 0 146.85 219.29 0 0 45.69 -219.29 0 0 184.7 219.29 0 0 45.69 -266.29 0 0 -468.62zm465.19 468.62l0 -468.62 10.12 0 311.65 358.43 0 -358.43 46.99 0 0 468.62 -10.66 0 -309.8 -355.27 0 355.27 -48.3 0zm551.02 -422.93l0 -45.69 256.5 0 0 45.69 -104.43 0 0 422.93 -47.64 0 0 -422.93 -104.43 0zm631.41 -45.69l218.64 468.62 -50.36 0 -73.21 -154.03 -203.09 0 -72.77 154.03 -52.22 0 221.26 -468.62 11.75 0zm-5.88 98.34l-80.6 170.56 160.88 0 -80.28 -170.56zm412 370.28l0 -468.62 97.25 0c70.05,0 120.96,5.66 152.62,16.86 45.47,15.99 81.04,43.51 106.6,82.89 25.56,39.27 38.4,86.05 38.4,140.44 0,46.99 -10.12,88.21 -30.46,123.89 -20.23,35.68 -46.67,62.12 -78.97,79.09 -32.42,16.97 -77.89,25.45 -136.3,25.45l-149.14 0zm45.04 -44.38l54.06 0c64.61,0 109.32,-4.03 134.34,-12.08 35.14,-11.53 62.87,-32.09 83,-61.89 20.12,-29.91 30.13,-66.36 30.13,-109.43 0,-45.14 -10.88,-83.87 -32.74,-115.85 -21.76,-32.09 -52.22,-54.06 -91.16,-65.92 -29.26,-8.92 -77.45,-13.38 -144.56,-13.38l-33.07 0 0 378.55zm747.8 -424.24l218.64 468.62 -50.36 0 -73.21 -154.03 -203.09 0 -72.77 154.03 -52.22 0 221.26 -468.62 11.75 0zm-5.88 98.34l-80.6 170.56 160.88 0 -80.28 -170.56z"/>
   <path class="fil1 str1" d="M937.88 8251.4c-134.62,0 -259.06,-25.24 -373.31,-75.72 -114.25,-50.49 -213.44,-119.57 -297.57,-207.25 -84.14,-87.67 -149.68,-191.74 -196.62,-312.19 -46.94,-120.45 -70.41,-250.64 -70.41,-390.57 0,-141.7 23.47,-271.01 70.41,-387.91 46.94,-116.91 112.48,-216.54 196.62,-298.91 84.13,-82.37 183.32,-146.13 297.57,-191.3 114.25,-45.17 238.69,-67.75 373.31,-67.75l1046.82 0 0 337.43 -1046.82 0c-86.8,0 -166.95,15.5 -240.46,46.5 -73.51,30.99 -136.83,73.95 -189.97,128.86 -53.14,54.91 -94.77,120.45 -124.88,196.61 -30.11,76.17 -45.17,160.31 -45.17,252.41 0,90.34 15.06,174.48 45.17,252.41 30.11,77.94 71.74,144.81 124.88,200.6 53.14,55.8 116.46,99.64 189.97,131.52 73.51,31.89 153.66,47.83 240.46,47.83l826.3 0 0 -502.17 -871.47 0 0 -284.29 1211.56 0 0 1123.89 -1166.39 0zm3270.69 0l-488.88 -536.7 -722.69 0 0 -297.58 805.06 0c122.22,0 214.32,-33.21 276.32,-99.64 61.99,-66.42 92.99,-162.51 92.99,-288.28 0,-125.76 -32.32,-219.2 -96.98,-280.31 -64.65,-61.11 -155.43,-91.66 -272.33,-91.66l-1052.16 0 0 1594.17 -334.77 0 0 -1931.6 1386.93 0c109.82,0 208.12,16.38 294.92,49.15 86.79,32.77 160.3,79.71 220.52,140.82 60.23,61.11 106.28,135.06 138.17,221.85 31.88,86.8 47.82,184.22 47.82,292.27 0,161.19 -34.98,296.25 -104.95,405.18 -69.97,108.94 -167.83,187.32 -293.59,235.14l581.87 587.19 -478.25 0zm297.58 -1931.6l411.82 0 876.8 1487.89 874.13 -1487.89 387.92 0 -1113.26 1849.23c-19.49,33.66 -42.51,60.23 -69.08,79.71 -26.57,19.49 -57.57,29.23 -93,29.23 -37.19,0 -69.08,-9.74 -95.65,-29.23 -26.57,-19.48 -49.59,-46.05 -69.08,-79.71l-1110.6 -1849.23zm4171.4 1931.6l-289.61 -486.22 -913.99 0 159.41 -273.67 592.5 0 -430.42 -722.69 -876.78 1482.58 -385.26 0 1110.59 -1849.24c19.49,-33.65 42.51,-60.22 69.08,-79.71 26.57,-19.48 58.46,-29.22 95.65,-29.22 37.2,0 68.64,9.74 94.32,29.22 25.69,19.49 48.27,46.06 67.76,79.71l1113.26 1849.24 -406.51 0z"/>
   <path id="path4563" class="fil2" d="M3530.17 2124.16c70.14,-224.71 167.56,-466.35 278.59,-690.88 34.83,-70.46 64.44,-128.74 65.77,-129.54 1.33,-0.76 192.41,51.91 424.62,117.06l422.16 118.44 -130.38 486.61 -130.38 486.61 -485.19 -130 -485.19 -130.01 40 -128.29z" inkscape:connector-curvature="0"/>
   <path id="path4565" class="fil2" d="M4325.67 1198.47c-178.99,-50.45 -326.66,-93.89 -328.14,-96.58 -3.86,-6.91 79.34,-132.7 159.56,-241.26 80.22,-108.57 224.25,-270.85 307.46,-346.45l59.16 -53.76 68.15 23.54c37.49,12.95 139.06,42.55 225.72,65.76l157.55 42.21 -98.57 367.84 -98.56 367.84 -63.45 -18.74c-34.89,-10.29 -209.9,-59.98 -388.88,-110.4z" inkscape:connector-curvature="0"/>
   <path id="path4567" class="fil2" d="M3607.17 988.88c-77.99,-24.14 -199.37,-62.14 -269.73,-84.43l-127.92 -40.61 29.9 -30.4c57.81,-58.87 232.34,-209.35 302.04,-260.44 98.98,-72.54 311.86,-197.71 410.78,-241.52 45.85,-20.3 85.48,-35.79 88.06,-34.37 2.58,1.41 56.67,21.12 120.2,43.8 63.53,22.68 115.18,42.55 114.76,44.14 -0.43,1.59 -26.99,29.62 -59.03,62.33 -124.28,126.87 -236.9,270.66 -364.89,465.96 -50.46,76.97 -85.02,122.79 -91.68,121.5 -5.9,-1.15 -74.5,-21.81 -152.52,-45.92l0.03 -0.04z" inkscape:connector-curvature="0"/>
   <path id="path4569" class="fil2" d="M2569.61 1933.17c112.27,-320.35 261.1,-601.05 445.89,-840.97l37.43 -48.6 81.9 27.49c45.04,15.11 180.1,58.26 300.14,95.82 120.04,37.6 219.05,69.75 220.06,71.42 1.02,1.68 -18.57,43.7 -43.5,93.42 -60.48,120.58 -140.08,302.48 -192.95,440.9 -42.26,110.71 -119.61,335.95 -135.08,393.33l-7.83 29.05 -364.66 -97.73 -364.66 -97.72 23.26 -66.41z" inkscape:connector-curvature="0"/>
   <path id="path4571" class="fil2" d="M2445.6 3270.7c-12.04,-55.83 -27.36,-263.42 -28.12,-380.79 -1.23,-190.86 18.35,-395.84 57.71,-604.37l13.04 -69.14 364.66 97.72 364.66 97.73 -7.73 29.05c-15.36,57.57 -60.95,291.26 -79.66,408.19 -24.65,154.14 -40.78,297.8 -50.98,453.97 -4.47,68.79 -9.55,125.78 -11.25,126.61 -1.73,0.81 -100.04,-20.15 -218.5,-46.58 -118.46,-26.43 -256.53,-56.78 -306.85,-67.45l-91.49 -19.4 -5.49 -25.54z" inkscape:connector-curvature="0"/>
   <path id="path4573" class="fil2" d="M2865.17 4354.19c-148.6,-211.59 -277.52,-487.35 -348.26,-745.02l-21.21 -77.31 114.97 25.01c219.08,47.69 451.35,101.7 453.75,105.52 1.32,2.09 6.57,75.03 11.64,162.06 10.93,187.55 40.66,399.67 76.63,546.93 14.29,58.48 25.59,107.82 25.1,109.61 -0.49,1.8 -15.72,-0.53 -33.89,-5.14 -18.2,-4.64 -75.15,-15.17 -126.59,-23.38l-93.55 -14.91 -58.59 -83.37z" inkscape:connector-curvature="0"/>
   <path id="path4575" class="fil2" d="M3404.12 4450.25c-55.32,-183.62 -90.52,-386.96 -105.48,-609.83 -7.07,-105.4 -6.39,-118.43 6.46,-119.49 7.93,-0.65 186.57,42.76 397,96.5l382.59 97.7 -97.26 362.99 -97.26 363 -34.02 -4.7c-18.72,-2.59 -122.52,-27.14 -230.68,-54.51l-196.65 -49.8 -24.7 -81.86z" inkscape:connector-curvature="0"/>
   <path id="path4577" class="fil2" d="M3288.28 3479.97c1.03,-3.89 5.78,-69.49 10.59,-145.82 15.31,-243.89 52.1,-504.3 103.67,-733.75l29.48 -131.12 485.19 130 485.19 130.01 -130.73 487.87 -130.74 487.87 -257.48 -68.99c-141.6,-37.88 -333.88,-86.94 -427.26,-108.97 -100.45,-23.69 -169.02,-42.91 -167.91,-47.1z" inkscape:connector-curvature="0"/>
   <path id="path4579" class="fil2" d="M4672.86 3849.68l-314.99 -86.69 130.69 -487.79 130.69 -487.8 488.58 130.92 488.58 130.92 -32.62 101.25c-91.15,282.99 -244.51,652.06 -341.38,821.54l-15.42 26.99 -109.56 -31.32c-60.25,-17.25 -251.32,-70.34 -424.57,-118.02z" inkscape:connector-curvature="0"/>
   <path id="path4581" class="fil2" d="M4808.1 2082.69l130.73 -487.87 222.66 59.63c122.46,32.8 314.46,81.77 426.66,108.85l204 49.21 -0.07 32.43c-0.43,198.28 -50.33,580.12 -116,887.39l-21.39 100.11 -488.67 -130.92 -488.65 -130.94 130.73 -487.89z" inkscape:connector-curvature="0"/>
   <path id="path4583" class="fil2" d="M5093.74 1016.66l98.23 -366.64 161.45 43.24c88.79,23.79 193.02,49.48 231.64,57.07l70.2 13.82 21.93 71.05c30.44,98.61 66.32,263.48 84.08,386.49 13.33,92.17 33.84,336.95 29.59,352.82 -2.94,10.97 -95.82,-10.01 -448.06,-101.25l-347.32 -89.97 98.26 -366.63z" inkscape:connector-curvature="0"/>
   <path id="path4585" class="fil3" d="M6012.86 1539.34c-8.18,-210.93 -51.77,-514.89 -97.07,-676.67l-13.19 -47.1 33.18 8.48c18.25,4.66 76.2,15.21 128.78,23.42l95.59 14.93 66.44 94.74c116.76,166.51 221.22,373.81 294.41,584.37 34.14,98.22 69.25,221.55 63.89,224.37 -1.82,0.95 -103.66,-20.98 -226.33,-48.7 -122.68,-27.75 -249.75,-56.18 -282.39,-63.23l-59.36 -12.77 -3.95 -101.84z" inkscape:connector-curvature="0"/>
   <path id="path4587" class="fil3" d="M5871.39 2871.84c0.63,-10.09 13.76,-72.91 29.18,-139.61 50.98,-220.5 91.82,-513.31 107.3,-768.99l5.75 -94.96 122.08 27.28c219.68,49.13 474.6,104.67 486.93,106.14 14.99,1.77 25.85,70.69 37.3,236.86 17.97,260.82 -7.27,611.37 -57.51,798.87l-12.24 45.66 -359.95 -96.45 -359.95 -96.44 1.11 -18.36z" inkscape:connector-curvature="0"/>
   <path id="path4589" class="fil3" d="M5813.22 4186.05c-56.65,-18.49 -167.05,-53.49 -245.33,-77.78l-142.28 -44.17 59.25 -120.72c110.45,-225.03 207.21,-466.3 273.76,-682.74 20.42,-66.34 40.79,-128.06 45.3,-137.12l8.21 -16.49 359.95 96.44 359.95 96.44 -13.04 48.38c-17.38,64.43 -82.77,231.03 -131.96,336.08 -77.02,164.56 -208.17,382.19 -308.55,511.99l-44.41 57.45 -58.92 -17.07c-32.39,-9.42 -105.28,-32.23 -161.96,-50.71l0.03 0.02z" inkscape:connector-curvature="0"/>
   <path id="path4591" class="fil3" d="M4893.77 4949.24l-87.87 -32.65 33.13 -32.62c120.52,-118.64 275.21,-313.37 395.22,-497.55l81.51 -125.09 68.73 22.2c37.82,12.2 161.82,51.21 275.57,86.67 113.75,35.45 207.75,65.98 208.85,67.86 3.15,5.31 -139.2,140.35 -205.51,194.96 -156.17,128.6 -327.13,238.96 -494.82,319.41 -125.68,60.32 -103.28,60.57 -274.87,-3.17l0.06 -0.02z" inkscape:connector-curvature="0"/>
   <path id="path4593" class="fil2" d="M4302.2 4760.64c-105.77,-31.21 -193.02,-57.56 -193.89,-58.58 -0.87,-1.02 42.26,-165.45 95.83,-365.41l97.42 -363.54 368.76 102.94c371.64,103.73 418.54,118.49 415.24,130.81 -4.13,15.43 -147.28,221.08 -204.28,293.45 -76.77,97.53 -179.02,209.77 -257.71,282.9l-60.2 55.96 -34.42 -10.88c-18.94,-5.98 -120.98,-36.41 -226.75,-67.62l0 -0.03z" inkscape:connector-curvature="0"/>
   <path id="path4595" class="fil2" d="M2857.25 738.02c-26.74,-10.93 -59.48,-25.02 -72.75,-31.3l-24.11 -11.44 78.32 -67c223.53,-191.16 532.97,-368.56 819.83,-469.98 15.78,-5.58 135.27,-34.87 126.84,-3.37 -0.94,3.52 -50.51,34.33 -110.17,68.5 -242.8,139.03 -464.68,314.64 -652.11,516.13l-38.57 41.5 -39.32 -11.58c-21.63,-6.39 -61.2,-20.54 -87.96,-31.46z" inkscape:connector-curvature="0"/>
   <path id="path4597" class="fil2" d="M2037.36 1799.28c101.37,-281.77 221.01,-509.08 383.83,-729.26 65.8,-88.99 173.39,-210.86 183.72,-208.07 5.42,1.47 17.75,8.34 27.4,15.31 9.66,6.96 57.12,29.36 105.49,49.75 48.37,20.4 88.62,38.26 89.49,39.72 0.85,1.44 -19.7,32.01 -45.69,67.94 -161.55,223.26 -306.88,505.1 -408.49,792.31l-40.92 115.62 -157.97 -42.35 -157.96 -42.33 21.1 -58.64z" inkscape:connector-curvature="0"/>
   <path id="path4599" class="fil2" d="M1941.26 3126.54c-56.52,-310.45 -57.42,-624.79 -2.7,-940.83 8.7,-50.17 16.95,-95.57 18.35,-100.9 1.96,-7.44 39.26,0.12 160.28,32.56l157.69 42.27 -16.91 84.69c-57.46,287.85 -76.1,614.51 -50.85,891.85 5.68,62.46 10.07,114.5 9.76,115.68 -0.31,1.18 -23.01,-1.25 -50.44,-5.39 -59.65,-9.02 -176.56,-19.91 -193.97,-18.11 -9.11,0.97 -17.46,-26.23 -31.22,-101.85l0.01 0.03z" inkscape:connector-curvature="0"/>
   <path id="path4601" class="fil2" d="M2522.84 4357.84c-198.76,-236.06 -372.73,-538.95 -473.31,-824.15 -32.37,-91.75 -38.81,-86.37 80.97,-67.9 43.84,6.75 90.56,13.83 103.84,15.71 22.99,3.26 24.93,6.98 41.01,79.29 54.19,243.63 174.19,543.64 304.96,762.43 33.48,56.04 59.96,105.39 58.83,109.62 -2.68,10.02 -26.02,10.49 -29.67,9.43 -14.51,-4.25 -41.6,-31.01 -86.61,-84.47l-0.02 0.04z" inkscape:connector-curvature="0"/>
   <path id="path4603" class="fil3" d="M5315.7 5161.41c-21.78,-47.19 0.79,-31.75 108.21,-93.3 209.73,-120.14 433.57,-294.52 596.61,-464.79 38.26,-39.96 73.4,-75.98 78.06,-80.03 6.43,-5.55 31.42,1.67 102.33,29.63 51.62,20.34 99.37,41.25 106.14,46.44 10.83,8.31 4.54,16.12 -52.06,64.8 -233.89,201.12 -524.4,369.56 -821.62,476.4 -101.11,36.35 -109.87,37.88 -117.71,20.82l0.04 0.03z" inkscape:connector-curvature="0"/>
   <path id="path4605" class="fil3" d="M6451.69 4422.71c-13.73,-8.23 -63.74,-31.57 -111.13,-51.83l-86.17 -36.84 65.37 -93.4c163.04,-232.87 309.94,-520.56 388.73,-761.26 44.7,-136.58 19.2,-126.58 199.6,-78.23l154.75 41.45 -10.89 40.71c-47.9,178.77 -212.74,502.08 -362.07,710.14 -69.89,97.38 -198.15,250.19 -207.09,246.72 -3.38,-1.33 -17.37,-9.14 -31.11,-17.39l0.01 -0.07z" inkscape:connector-curvature="0"/>
   <path id="path4607" class="fil3" d="M6812.59 3124.44c0.63,-10.09 9.15,-56.6 18.95,-103.36 57.46,-274.15 72.99,-646.18 38.86,-930.16l-5.3 -44.03 77.46 11.03c42.62,6.08 99.15,11.44 125.61,11.95 26.49,0.51 49.57,1.29 51.33,1.77 13.77,3.69 56.42,298.01 63.56,438.6 11.19,220.64 -12.25,529.4 -51.22,674.78l-10.89 40.71 -154.75 -41.46c-154.25,-41.34 -154.73,-41.53 -153.61,-59.83z" inkscape:connector-curvature="0"/>
   <path id="path4609" class="fil3" d="M6815.31 1768.09c-41.31,-219.68 -164.56,-536.4 -299.49,-769.56 -41.59,-71.84 -75.15,-133.68 -71.69,-138.25 2.5,-3.31 54,9.06 90.71,51.11 169.86,194.56 319.74,430.27 425.76,669.45 45.11,101.77 102.76,259.83 96.15,263.65 -7.43,4.28 -161.95,-16.07 -202.23,-26.64 -29.86,-7.82 -31.8,-10.26 -39.21,-49.76z" inkscape:connector-curvature="0"/>
   <path class="fil4 str2" d="M5226.44 89.84l0 0m0 0l0 0m0 0l0 0m0 0l0 0m0 0l0 0m0 0l0 0m0 0l0 0m0 0l0 0m0 0l0 0m0 0l0 0m0 0l0 0m0 0l0 0m0 0l0 0m0 0l0 0m0 0l0 0m0 0l0 0m0 0l0 0m0 0l0 0m0 0l0 0m0 0l0 0m0 0l0 0m0 0l0 0m0 0l0 0m0 0l0 0m0 0l0 0m0 0l0 0m0 0l0 0m0 0l0 0m0 0l0 0m0 0l0 0m0 0l0 0m0 0l0 0m0 0l0 0m0 0l0 0m0 0l0 0m0 0l0 0m0 0l0 0m0 0l0 0m0 0l0 0m0 0l0 0m0 0l0 0m0 0l0 0m0 0l0 0m0 0l0 0m0 0l0 0m0 0l0 0m0 0l0 0m0 0l0 0m0 0l0 0m0 0l0 0m0 0l0 0m0 0l0 0m0 0l0 0m0 0l0 0m0 0l0 0m0 0l0 0m0 0l0 0m0 0l0 0m0 0l0 0m0 0l0 0m0 0l0 0m0 0l0 0m0 0l0 0m0 0l0 0m0 0l0 0m0 0l0 0m0 0l0 0m0 0l0 0m0 0l0 0m0 0l0 0m0 0l0 0m0 0l0 0m0 0l0 0m0 0l0 0m0 0l0 0m0 0l0 0m0 0l0 0m0 0l0 0m0 0l0 0m0 0l0 0m0 0l0 0m0 0l0 0m0 0l0 0m0 0l0 0m0 0l0 0m0 0l0 0m0 0l0 0m0 0l0 0m0 0l0 0m0 0l0 0m0 0l0 0m0 0l0 0m0 0l0 0m0 0l0 0m0 0l0 0m0 0l0 0m0 0l0 0m0 0l0 0m0 0l0 0"/>
   <path class="fil4 str2" d="M5238.34 42.41l0 0m0 0l0 0m0 0l0 0m0 0l0 0m0 0l0 0m0 0l0 0m0 0l0 0m0 0l0 0m0 0l0 0m0 0l0 0m0 0l0 0m0 0l0 0m0 0l0 0m0 0l0 0m0 0l0 0m0 0l0 0m0 0l0 0m0 0l0 0m0 0l0 0m0 0l0 0m0 0l0 0m0 0l0 0m0 0l0 0m0 0l0 0m0 0l0 0m0 0l0 0m0 0l0 0m0 0l0 0m0 0l0 0m0 0l0 0m0 0l0 0m0 0l0 0m0 0l0 0m0 0l0 0m0 0l0 0m0 0l0 0m0 0l0 0m0 0l0 0m0 0l0 0m0 0l0 0m0 0l0 0m0 0l0 0m0 0l0 0m0 0l0 0m0 0l0 0m0 0l0 0m0 0l0 0m0 0l0 0m0 0l0 0m0 0l0 0m0 0l0 0m0 0l0 0m0 0l0 0m0 0l0 0m0 0l0 0m0 0l0 0m0 0l0 0m0 0l0 0m0 0l0 0m0 0l0 0m0 0l0 0m0 0l0 0m0 0l0 0m0 0l0 0m0 0l0 0m0 0l0 0m0 0l0 0m0 0l0 0m0 0l0 0m0 0l0 0m0 0l0 0m0 0l0 0m0 0l0 0m0 0l0 0m0 0l0 0m0 0l0 0m0 0l0 0m0 0l0 0m0 0l0 0m0 0l0 0m0 0l0 0m0 0l0 0m0 0l0 0m0 0l0 0m0 0l0 0m0 0l0 0m0 0l0 0m0 0l0 0m0 0l0 0m0 0l0 0m0 0l0 0m0 0l0 0m0 0l0 0m0 0l0 0m0 0l0 0m0 0l0 0m0 0l0 0m0 0l0 0m0 0l0 0"/>
   <path class="fil4 str0" d="M3858.96 5193.43l0 0m0 0l0 0m0 0l0 0m0 0l0 0m0 0l0 0m0 0l0 0m0 0l0 0m0 0l0 0m0 0l0 0m0 0l0 0m0 0l0 0m0 0l0 0m0 0l0 0m0 0l0 0m0 0l0 0m0 0l0 0m0 0l0 0m0 0l0 0m0 0l0 0m0 0l0 0m0 0l0 0m0 0l0 0m0 0l0 0m0 0l0 0m0 0l0 0m0 0l0 0m0 0l0 0m0 0l0 0m0 0l0 0m0 0l0 0m0 0l0 0m0 0l0 0m0 0l0 0m0 0l0 0m0 0l0 0m0 0l0 0m0 0l0 0m0 0l0 0m0 0l0 0m0 0l0 0m0 0l0 0m0 0l0 0m0 0l0 0m0 0l0 0m0 0l0 0m0 0l0 0m0 0l0 0m0 0l0 0m0 0l0 0m0 0l0 0m0 0l0 0m0 0l0 0m0 0l0 0m0 0l0 0m0 0l0 0m0 0l0 0m0 0l0 0m0 0l0 0m0 0l0 0m0 0l0 0m0 0l0 0m0 0l0 0m0 0l0 0m0 0l0 0m0 0l0 0m0 0l0 0m0 0l0 0m0 0l0 0m0 0l0 0m0 0l0 0m0 0l0 0m0 0l0 0m0 0l0 0m0 0l0 0m0 0l0 0m0 0l0 0m0 0l0 0m0 0l0 0m0 0l0 0m0 0l0 0m0 0l0 0m0 0l0 0m0 0l0 0m0 0l0 0m0 0l0 0m0 0l0 0m0 0l0 0m0 0l0 0m0 0l0 0m0 0l0 0m0 0l0 0m0 0l0 0m0 0l0 0m0 0l0 0m0 0l0 0m0 0l0 0m0 0l0 0m0 0l0 0m0 0l0 0"/>
   <path class="fil4 str3" d="M5226.44 89.84l80.48 22.86m0 0l79.76 25.65m0 0l78.69 27.9m0 0l78.08 30.3m0 0l76.93 33m0 0l75.77 35.66m0 0l74.84 37.54m0 0l73.32 40.12m0 0l72.26 42.42m0 0l70.74 44.97m0 0l69.37 46.76m0 0l67.95 48.92m0 0l66.04 51.42m0 0l64.68 53.15m0 0l62.86 55.24m0 0l61.02 57.31"/>
   <path class="fil4 str3" d="M5226.44 89.84l-81.12 -20.44m0 0l-81.9 -17.67m0 0l-82.1 -15.18m0 0l-82.77 -12.8m0 0l-83.11 -9.89m0 0l-83.46 -7m0 0l-83.58 -4.9m0 0l-83.55 -1.93m0 0l-83.8 0.62m0 0l-83.75 3.57m0 0l-83.45 5.81m0 0l-83.31 8.39m0 0l-82.9 11.51m0 0l-82.59 13.69m0 0l-82.05 16.41m0 0l-81.51 19.12"/>
   <path class="fil4 str3" d="M3858.96 5193.43l81.12 20.43m0 0l81.9 17.68m0 0l82.1 15.18m0 0l82.77 12.8m0 0l83.12 9.89m0 0l83.45 7m0 0l83.59 4.9m0 0l83.54 1.92m0 0l83.8 -0.61m0 0l83.75 -3.57m0 0l83.45 -5.81m0 0l83.31 -8.4m0 0l82.9 -11.5m0 0l82.59 -13.69m0 0l82.05 -16.41m0 0l81.51 -19.12"/>
   <path class="fil4 str3" d="M3858.96 5193.43l-80.48 -22.87m0 0l-79.76 -25.64m0 0l-78.69 -27.9m0 0l-78.08 -30.3m0 0l-76.93 -33m0 0l-75.77 -35.66m0 0l-74.84 -37.55m0 0l-73.32 -40.11m0 0l-72.26 -42.43m0 0l-70.74 -44.96m0 0l-69.37 -46.76m0 0l-67.95 -48.93m0 0l-66.04 -51.41m0 0l-64.68 -53.15m0 0l-62.86 -55.24m0 0l-61.02 -57.31"/>
   <path class="fil4 str0" d="M3845.54 5240.45l0 0m0 0l0 0m0 0l0 0m0 0l0 0m0 0l0 0m0 0l0 0m0 0l0 0m0 0l0 0m0 0l0 0m0 0l0 0m0 0l0 0m0 0l0 0m0 0l0 0m0 0l0 0m0 0l0 0m0 0l0 0m0 0l0 0m0 0l0 0m0 0l0 0m0 0l0 0m0 0l0 0m0 0l0 0m0 0l0 0m0 0l0 0m0 0l0 0m0 0l0 0m0 0l0 0m0 0l0 0m0 0l0 0m0 0l0 0m0 0l0 0m0 0l0 0m0 0l0 0m0 0l0 0m0 0l0 0m0 0l0 0m0 0l0 0m0 0l0 0m0 0l0 0m0 0l0 0m0 0l0 0m0 0l0 0m0 0l0 0m0 0l0 0m0 0l0 0m0 0l0 0m0 0l0 0m0 0l0 0m0 0l0 0m0 0l0 0m0 0l0 0m0 0l0 0m0 0l0 0m0 0l0 0m0 0l0 0m0 0l0 0m0 0l0 0m0 0l0 0m0 0l0 0m0 0l0 0m0 0l0 0m0 0l0 0m0 0l0 0m0 0l0 0m0 0l0 0m0 0l0 0m0 0l0 0m0 0l0 0m0 0l0 0m0 0l0 0m0 0l0 0m0 0l0 0m0 0l0 0m0 0l0 0m0 0l0 0m0 0l0 0m0 0l0 0m0 0l0 0m0 0l0 0m0 0l0 0m0 0l0 0m0 0l0 0m0 0l0 0m0 0l0 0m0 0l0 0m0 0l0 0m0 0l0 0m0 0l0 0m0 0l0 0m0 0l0 0m0 0l0 0m0 0l0 0m0 0l0 0m0 0l0 0m0 0l0 0m0 0l0 0m0 0l0 0m0 0l0 0m0 0l0 0"/>
  </g>
 </g>
</svg>
