<?xml version="1.0" encoding="UTF-8"?>
<!DOCTYPE svg PUBLIC "-//W3C//DTD SVG 1.1//EN" "http://www.w3.org/Graphics/SVG/1.1/DTD/svg11.dtd">
<!-- Creator: CorelDRAW 2018 (64 Bit) -->
<svg xmlns="http://www.w3.org/2000/svg" xml:space="preserve" width="154.132mm" height="53.0148mm" version="1.1" style="shape-rendering:geometricPrecision; text-rendering:geometricPrecision; image-rendering:optimizeQuality; fill-rule:evenodd; clip-rule:evenodd"
viewBox="0 0 15413.22 5301.48"
 xmlns:xlink="http://www.w3.org/1999/xlink">
 <defs>
  <style type="text/css">
   <![CDATA[
    .str3 {stroke:#1D5687;stroke-width:60;stroke-miterlimit:22.9256}
    .str4 {stroke:#339966;stroke-width:100;stroke-linecap:round;stroke-linejoin:round;stroke-miterlimit:22.9256}
    .str2 {stroke:#1D5687;stroke-width:60;stroke-linecap:round;stroke-linejoin:round;stroke-miterlimit:22.9256}
    .str0 {stroke:#1D5687;stroke-width:50;stroke-linecap:round;stroke-linejoin:round;stroke-miterlimit:22.9256}
    .str1 {stroke:#1D5687;stroke-width:40;stroke-linecap:round;stroke-linejoin:round;stroke-miterlimit:22.9256}
    .fil2 {fill:none}
    .fil0 {fill:#1D5687}
    .fil5 {fill:#1D5687}
    .fil1 {fill:#339966}
    .fil4 {fill:#1D5687;fill-rule:nonzero}
    .fil3 {fill:#1D5687;fill-rule:nonzero}
   ]]>
  </style>
 </defs>
 <g id="Camada_x0020_1">
  <metadata id="CorelCorpID_0Corel-Layer"/>
  <g id="_2422467736800">
   <path id="path4563" class="fil0" d="M1632.04 2142.3c70.14,-224.72 167.56,-466.36 278.59,-690.88 34.83,-70.46 64.44,-128.74 65.77,-129.54 1.33,-0.76 192.41,51.91 424.62,117.06l422.16 118.44 -130.38 486.61 -130.38 486.61 -485.19 -130 -485.19 -130.01 40 -128.29z" inkscape:connector-curvature="0"/>
   <path id="path4565" class="fil0" d="M2427.54 1216.61c-178.99,-50.45 -326.66,-93.9 -328.14,-96.58 -3.86,-6.91 79.34,-132.7 159.56,-241.26 80.22,-108.57 224.25,-270.85 307.46,-346.45l59.16 -53.77 68.15 23.55c37.49,12.95 139.06,42.55 225.72,65.76l157.55 42.21 -98.57 367.84 -98.56 367.84 -63.45 -18.75c-34.89,-10.28 -209.9,-59.97 -388.88,-110.39z" inkscape:connector-curvature="0"/>
   <path id="path4567" class="fil0" d="M1709.04 1007.02c-77.99,-24.14 -199.37,-62.14 -269.73,-84.43l-127.92 -40.61 29.9 -30.4c57.81,-58.87 232.34,-209.35 302.04,-260.45 98.98,-72.53 311.86,-197.7 410.78,-241.51 45.85,-20.3 85.48,-35.79 88.06,-34.37 2.58,1.41 56.67,21.12 120.2,43.8 63.53,22.68 115.18,42.54 114.76,44.13 -0.43,1.59 -26.99,29.63 -59.03,62.34 -124.28,126.87 -236.9,270.66 -364.89,465.96 -50.46,76.97 -85.02,122.79 -91.68,121.5 -5.9,-1.16 -74.5,-21.82 -152.52,-45.92l0.03 -0.04z" inkscape:connector-curvature="0"/>
   <path id="path4569" class="fil0" d="M671.48 1951.31c112.26,-320.35 261.1,-601.05 445.89,-840.97l37.43 -48.6 81.9 27.49c45.04,15.1 180.1,58.25 300.14,95.82 120.04,37.6 219.05,69.74 220.06,71.42 1.02,1.67 -18.57,43.7 -43.5,93.42 -60.48,120.58 -140.08,302.48 -192.95,440.9 -42.26,110.71 -119.61,335.94 -135.08,393.33l-7.83 29.05 -364.66 -97.73 -364.66 -97.72 23.26 -66.41z" inkscape:connector-curvature="0"/>
   <path id="path4571" class="fil0" d="M547.47 3288.84c-12.04,-55.83 -27.36,-263.42 -28.12,-380.79 -1.23,-190.86 18.35,-395.85 57.71,-604.37l13.04 -69.14 364.66 97.72 364.66 97.72 -7.73 29.06c-15.36,57.57 -60.95,291.26 -79.66,408.19 -24.65,154.14 -40.78,297.8 -50.98,453.97 -4.47,68.79 -9.55,125.78 -11.25,126.61 -1.73,0.81 -100.04,-20.15 -218.5,-46.58 -118.46,-26.43 -256.53,-56.78 -306.85,-67.45l-91.49 -19.4 -5.49 -25.54z" inkscape:connector-curvature="0"/>
   <path id="path4573" class="fil0" d="M967.04 4372.32c-148.6,-211.58 -277.52,-487.34 -348.26,-745.02l-21.21 -77.3 114.97 25.01c219.08,47.69 451.35,101.7 453.75,105.51 1.32,2.1 6.57,75.04 11.64,162.07 10.93,187.55 40.66,399.67 76.63,546.92 14.29,58.49 25.59,107.83 25.1,109.62 -0.49,1.8 -15.72,-0.53 -33.89,-5.15 -18.2,-4.64 -75.15,-15.17 -126.59,-23.37l-93.55 -14.92 -58.59 -83.37z" inkscape:connector-curvature="0"/>
   <path id="path4575" class="fil0" d="M1505.99 4468.39c-55.32,-183.63 -90.52,-386.97 -105.48,-609.83 -7.07,-105.41 -6.39,-118.44 6.46,-119.49 7.93,-0.65 186.57,42.76 397,96.5l382.59 97.69 -97.26 363 -97.26 363 -34.02 -4.71c-18.72,-2.58 -122.52,-27.13 -230.68,-54.5l-196.65 -49.8 -24.7 -81.86z" inkscape:connector-curvature="0"/>
   <path id="path4577" class="fil0" d="M1390.15 3498.11c1.03,-3.89 5.78,-69.49 10.59,-145.82 15.31,-243.89 52.1,-504.31 103.67,-733.75l29.48 -131.12 485.19 130 485.19 130.01 -130.73 487.87 -130.74 487.87 -257.48 -68.99c-141.6,-37.89 -333.88,-86.94 -427.26,-108.97 -100.45,-23.69 -169.02,-42.91 -167.91,-47.1z" inkscape:connector-curvature="0"/>
   <path id="path4579" class="fil0" d="M2774.73 3867.82l-314.99 -86.69 130.69 -487.79 130.69 -487.8 488.58 130.92 488.58 130.92 -32.62 101.24c-91.15,283 -244.51,652.07 -341.38,821.54l-15.42 27 -109.56 -31.33c-60.25,-17.24 -251.32,-70.33 -424.57,-118.01z" inkscape:connector-curvature="0"/>
   <path id="path4581" class="fil0" d="M2909.97 2100.82l130.73 -487.87 222.66 59.64c122.46,32.8 314.46,81.77 426.66,108.84l204 49.21 -0.07 32.44c-0.43,198.28 -50.33,580.12 -116,887.38l-21.39 100.12 -488.67 -130.92 -488.65 -130.94 130.73 -487.9z" inkscape:connector-curvature="0"/>
   <path id="path4583" class="fil0" d="M3195.61 1034.8l98.23 -366.65 161.45 43.25c88.79,23.79 193.02,49.48 231.64,57.07l70.2 13.82 21.93 71.05c30.44,98.61 66.32,263.48 84.08,386.49 13.33,92.17 33.84,336.95 29.59,352.82 -2.94,10.97 -95.82,-10.01 -448.06,-101.26l-347.32 -89.96 98.26 -366.63z" inkscape:connector-curvature="0"/>
   <path id="path4585" class="fil1" d="M4114.73 1557.48c-8.18,-210.93 -51.77,-514.89 -97.07,-676.67l-13.19 -47.1 33.18 8.48c18.25,4.66 76.2,15.2 128.78,23.42l95.59 14.93 66.44 94.74c116.76,166.51 221.22,373.81 294.41,584.37 34.14,98.21 69.26,221.54 63.89,224.36 -1.82,0.96 -103.66,-20.97 -226.33,-48.69 -122.68,-27.75 -249.75,-56.18 -282.39,-63.23l-59.36 -12.77 -3.95 -101.84z" inkscape:connector-curvature="0"/>
   <path id="path4587" class="fil1" d="M3973.26 2889.98c0.63,-10.09 13.76,-72.91 29.18,-139.61 50.98,-220.5 91.82,-513.31 107.3,-769l5.75 -94.95 122.08 27.28c219.68,49.13 474.6,104.67 486.93,106.14 14.99,1.77 25.85,70.69 37.3,236.86 17.97,260.82 -7.27,611.37 -57.51,798.87l-12.24 45.65 -359.95 -96.44 -359.95 -96.44 1.11 -18.36z" inkscape:connector-curvature="0"/>
   <path id="path4589" class="fil1" d="M3915.09 4204.19c-56.65,-18.49 -167.05,-53.49 -245.33,-77.78l-142.28 -44.17 59.25 -120.72c110.45,-225.03 207.21,-466.3 273.76,-682.74 20.42,-66.35 40.79,-128.06 45.3,-137.12l8.21 -16.49 359.95 96.44 359.95 96.44 -13.04 48.38c-17.38,64.43 -82.77,231.03 -131.96,336.08 -77.02,164.56 -208.17,382.19 -308.55,511.99l-44.41 57.44 -58.92 -17.07c-32.39,-9.41 -105.28,-32.22 -161.96,-50.7l0.03 0.02z" inkscape:connector-curvature="0"/>
   <path id="path4591" class="fil1" d="M2995.64 4967.38l-87.87 -32.65 33.13 -32.62c120.52,-118.64 275.21,-313.37 395.22,-497.55l81.51 -125.09 68.73 22.2c37.82,12.2 161.82,51.21 275.57,86.66 113.75,35.46 207.75,65.99 208.85,67.86 3.15,5.32 -139.2,140.36 -205.51,194.97 -156.17,128.6 -327.13,238.96 -494.82,319.41 -125.68,60.32 -103.28,60.57 -274.87,-3.17l0.06 -0.02z" inkscape:connector-curvature="0"/>
   <path id="path4593" class="fil0" d="M2404.07 4778.78c-105.77,-31.21 -193.02,-57.56 -193.89,-58.58 -0.87,-1.02 42.26,-165.46 95.83,-365.41l97.42 -363.54 368.76 102.93c371.64,103.74 418.54,118.5 415.24,130.82 -4.13,15.43 -147.28,221.08 -204.28,293.45 -76.77,97.53 -179.02,209.77 -257.71,282.9l-60.2 55.96 -34.42 -10.88c-18.94,-5.99 -120.98,-36.41 -226.75,-67.62l0 -0.03z" inkscape:connector-curvature="0"/>
   <path id="path4595" class="fil0" d="M959.12 756.16c-26.74,-10.93 -59.48,-25.03 -72.75,-31.3l-24.11 -11.44 78.32 -67.01c223.53,-191.15 532.97,-368.55 819.83,-469.98 15.78,-5.57 135.27,-34.86 126.84,-3.36 -0.94,3.52 -50.51,34.33 -110.17,68.5 -242.8,139.03 -464.68,314.64 -652.11,516.13l-38.57 41.5 -39.32 -11.58c-21.63,-6.39 -61.2,-20.54 -87.96,-31.46z" inkscape:connector-curvature="0"/>
   <path id="path4597" class="fil0" d="M139.23 1817.42c101.37,-281.77 221.01,-509.08 383.83,-729.26 65.8,-89 173.39,-210.86 183.72,-208.07 5.42,1.47 17.75,8.34 27.4,15.3 9.66,6.96 57.12,29.36 105.49,49.76 48.37,20.4 88.62,38.26 89.49,39.72 0.85,1.44 -19.7,32.01 -45.69,67.93 -161.55,223.27 -306.88,505.11 -408.49,792.32l-40.92 115.62 -157.97 -42.36 -157.96 -42.32 21.1 -58.64z" inkscape:connector-curvature="0"/>
   <path id="path4599" class="fil0" d="M43.13 3144.68c-56.52,-310.45 -57.42,-624.79 -2.7,-940.83 8.7,-50.17 16.95,-95.57 18.35,-100.9 1.96,-7.44 39.26,0.12 160.28,32.56l157.69 42.27 -16.91 84.69c-57.46,287.85 -76.1,614.51 -50.85,891.85 5.68,62.46 10.07,114.49 9.76,115.68 -0.31,1.18 -23.01,-1.25 -50.44,-5.4 -59.65,-9.02 -176.56,-19.91 -193.97,-18.1 -9.11,0.97 -17.46,-26.23 -31.22,-101.85l0.01 0.03z" inkscape:connector-curvature="0"/>
   <path id="path4601" class="fil0" d="M624.71 4375.98c-198.76,-236.06 -372.73,-538.95 -473.31,-824.15 -32.37,-91.75 -38.81,-86.38 80.97,-67.9 43.84,6.75 90.56,13.83 103.84,15.71 22.99,3.26 24.93,6.98 41.01,79.28 54.19,243.64 174.19,543.65 304.96,762.44 33.48,56.04 59.96,105.39 58.83,109.62 -2.68,10.02 -26.02,10.49 -29.67,9.43 -14.51,-4.25 -41.6,-31.01 -86.61,-84.47l-0.02 0.04z" inkscape:connector-curvature="0"/>
   <path id="path4603" class="fil1" d="M3417.57 5179.54c-21.78,-47.18 0.79,-31.74 108.21,-93.29 209.73,-120.14 433.57,-294.52 596.61,-464.79 38.26,-39.96 73.4,-75.98 78.06,-80.03 6.43,-5.55 31.42,1.67 102.33,29.63 51.62,20.34 99.37,41.24 106.14,46.44 10.83,8.31 4.54,16.12 -52.06,64.8 -233.89,201.12 -524.4,369.55 -821.62,476.4 -101.11,36.35 -109.87,37.88 -117.71,20.82l0.04 0.02z" inkscape:connector-curvature="0"/>
   <path id="path4605" class="fil1" d="M4553.56 4440.85c-13.73,-8.23 -63.74,-31.58 -111.13,-51.83l-86.17 -36.84 65.37 -93.4c163.04,-232.87 309.94,-520.56 388.73,-761.26 44.7,-136.58 19.2,-126.58 199.6,-78.24l154.75 41.46 -10.89 40.71c-47.9,178.77 -212.74,502.08 -362.07,710.14 -69.89,97.38 -198.15,250.19 -207.09,246.71 -3.38,-1.32 -17.37,-9.13 -31.11,-17.39l0.01 -0.06z" inkscape:connector-curvature="0"/>
   <path id="path4607" class="fil1" d="M4914.46 3142.58c0.63,-10.09 9.15,-56.6 18.95,-103.36 57.46,-274.15 72.99,-646.19 38.86,-930.16l-5.3 -44.03 77.46 11.03c42.62,6.07 99.15,11.44 125.61,11.95 26.49,0.5 49.57,1.29 51.33,1.76 13.77,3.69 56.42,298.01 63.56,438.61 11.19,220.64 -12.25,529.4 -51.22,674.78l-10.89 40.71 -154.75 -41.46c-154.25,-41.34 -154.73,-41.53 -153.61,-59.83z" inkscape:connector-curvature="0"/>
   <path id="path4609" class="fil1" d="M4917.18 1786.22c-41.31,-219.67 -164.56,-536.39 -299.49,-769.55 -41.59,-71.84 -75.15,-133.68 -71.69,-138.25 2.5,-3.31 54,9.06 90.71,51.11 169.86,194.56 319.74,430.27 425.76,669.45 45.11,101.77 102.76,259.83 96.15,263.64 -7.43,4.29 -161.95,-16.06 -202.23,-26.63 -29.86,-7.83 -31.8,-10.26 -39.21,-49.77z" inkscape:connector-curvature="0"/>
   <path class="fil2 str0" d="M3328.31 107.98l0 0m0 0l0 0m0 0l0 0m0 0l0 0m0 0l0 0m0 0l0 0m0 0l0 0m0 0l0 0m0 0l0 0m0 0l0 0m0 0l0 0m0 0l0 0m0 0l0 0m0 0l0 0m0 0l0 0m0 0l0 0m0 0l0 0m0 0l0 0m0 0l0 0m0 0l0 0m0 0l0 0m0 0l0 0m0 0l0 0m0 0l0 0m0 0l0 0m0 0l0 0m0 0l0 0m0 0l0 0m0 0l0 0m0 0l0 0m0 0l0 0m0 0l0 0m0 0l0 0m0 0l0 0m0 0l0 0m0 0l0 0m0 0l0 0m0 0l0 0m0 0l0 0m0 0l0 0m0 0l0 0m0 0l0 0m0 0l0 0m0 0l0 0m0 0l0 0m0 0l0 0m0 0l0 0m0 0l0 0m0 0l0 0m0 0l0 0m0 0l0 0m0 0l0 0m0 0l0 0m0 0l0 0m0 0l0 0m0 0l0 0m0 0l0 0m0 0l0 0m0 0l0 0m0 0l0 0m0 0l0 0m0 0l0 0m0 0l0 0m0 0l0 0m0 0l0 0m0 0l0 0m0 0l0 0m0 0l0 0m0 0l0 0m0 0l0 0m0 0l0 0m0 0l0 0m0 0l0 0m0 0l0 0m0 0l0 0m0 0l0 0m0 0l0 0m0 0l0 0m0 0l0 0m0 0l0 0m0 0l0 0m0 0l0 0m0 0l0 0m0 0l0 0m0 0l0 0m0 0l0 0m0 0l0 0m0 0l0 0m0 0l0 0m0 0l0 0m0 0l0 0m0 0l0 0m0 0l0 0m0 0l0 0m0 0l0 0m0 0l0 0m0 0l0 0m0 0l0 0m0 0l0 0"/>
   <path class="fil2 str0" d="M3340.21 60.54l0 0m0 0l0 0m0 0l0 0m0 0l0 0m0 0l0 0m0 0l0 0m0 0l0 0m0 0l0 0m0 0l0 0m0 0l0 0m0 0l0 0m0 0l0 0m0 0l0 0m0 0l0 0m0 0l0 0m0 0l0 0m0 0l0 0m0 0l0 0m0 0l0 0m0 0l0 0m0 0l0 0m0 0l0 0m0 0l0 0m0 0l0 0m0 0l0 0m0 0l0 0m0 0l0 0m0 0l0 0m0 0l0 0m0 0l0 0m0 0l0 0m0 0l0 0m0 0l0 0m0 0l0 0m0 0l0 0m0 0l0 0m0 0l0 0m0 0l0 0m0 0l0 0m0 0l0 0m0 0l0 0m0 0l0 0m0 0l0 0m0 0l0 0m0 0l0 0m0 0l0 0m0 0l0 0m0 0l0 0m0 0l0 0m0 0l0 0m0 0l0 0m0 0l0 0m0 0l0 0m0 0l0 0m0 0l0 0m0 0l0 0m0 0l0 0m0 0l0 0m0 0l0 0m0 0l0 0m0 0l0 0m0 0l0 0m0 0l0 0m0 0l0 0m0 0l0 0m0 0l0 0m0 0l0 0m0 0l0 0m0 0l0 0m0 0l0 0m0 0l0 0m0 0l0 0m0 0l0 0m0 0l0 0m0 0l0 0m0 0l0 0m0 0l0 0m0 0l0 0m0 0l0 0m0 0l0 0m0 0l0 0m0 0l0 0m0 0l0 0m0 0l0 0m0 0l0 0m0 0l0 0m0 0l0 0m0 0l0 0m0 0l0 0m0 0l0 0m0 0l0 0m0 0l0 0m0 0l0 0m0 0l0 0m0 0l0 0m0 0l0 0m0 0l0 0m0 0l0 0m0 0l0 0"/>
   <path class="fil2 str1" d="M1960.83 5211.57l0 0m0 0l0 0m0 0l0 0m0 0l0 0m0 0l0 0m0 0l0 0m0 0l0 0m0 0l0 0m0 0l0 0m0 0l0 0m0 0l0 0m0 0l0 0m0 0l0 0m0 0l0 0m0 0l0 0m0 0l0 0m0 0l0 0m0 0l0 0m0 0l0 0m0 0l0 0m0 0l0 0m0 0l0 0m0 0l0 0m0 0l0 0m0 0l0 0m0 0l0 0m0 0l0 0m0 0l0 0m0 0l0 0m0 0l0 0m0 0l0 0m0 0l0 0m0 0l0 0m0 0l0 0m0 0l0 0m0 0l0 0m0 0l0 0m0 0l0 0m0 0l0 0m0 0l0 0m0 0l0 0m0 0l0 0m0 0l0 0m0 0l0 0m0 0l0 0m0 0l0 0m0 0l0 0m0 0l0 0m0 0l0 0m0 0l0 0m0 0l0 0m0 0l0 0m0 0l0 0m0 0l0 0m0 0l0 0m0 0l0 0m0 0l0 0m0 0l0 0m0 0l0 0m0 0l0 0m0 0l0 0m0 0l0 0m0 0l0 0m0 0l0 0m0 0l0 0m0 0l0 0m0 0l0 0m0 0l0 0m0 0l0 0m0 0l0 0m0 0l0 0m0 0l0 0m0 0l0 0m0 0l0 0m0 0l0 0m0 0l0 0m0 0l0 0m0 0l0 0m0 0l0 0m0 0l0 0m0 0l0 0m0 0l0 0m0 0l0 0m0 0l0 0m0 0l0 0m0 0l0 0m0 0l0 0m0 0l0 0m0 0l0 0m0 0l0 0m0 0l0 0m0 0l0 0m0 0l0 0m0 0l0 0m0 0l0 0m0 0l0 0m0 0l0 0m0 0l0 0m0 0l0 0"/>
   <path class="fil2 str2" d="M3328.31 107.98l80.48 22.86m0 0l79.76 25.65m0 0l78.69 27.89m0 0l78.08 30.31m0 0l76.93 32.99m0 0l75.77 35.67m0 0l74.84 37.54m0 0l73.32 40.11m0 0l72.26 42.43m0 0l70.74 44.97m0 0l69.37 46.76m0 0l67.95 48.92m0 0l66.04 51.42m0 0l64.68 53.15m0 0l62.86 55.24m0 0l61.02 57.31"/>
   <path class="fil2 str2" d="M3328.31 107.98l-81.12 -20.44m0 0l-81.9 -17.67m0 0l-82.1 -15.19m0 0l-82.77 -12.79m0 0l-83.11 -9.89m0 0l-83.46 -7m0 0l-83.58 -4.91m0 0l-83.55 -1.92m0 0l-83.8 0.62m0 0l-83.75 3.56m0 0l-83.45 5.82m0 0l-83.31 8.39m0 0l-82.9 11.51m0 0l-82.59 13.69m0 0l-82.05 16.41m0 0l-81.51 19.12"/>
   <path class="fil2 str2" d="M1960.83 5211.57l81.12 20.43m0 0l81.9 17.68m0 0l82.1 15.18m0 0l82.77 12.8m0 0l83.12 9.88m0 0l83.45 7.01m0 0l83.59 4.9m0 0l83.54 1.92m0 0l83.8 -0.61m0 0l83.75 -3.57m0 0l83.45 -5.81m0 0l83.31 -8.4m0 0l82.9 -11.5m0 0l82.59 -13.69m0 0l82.05 -16.41m0 0l81.51 -19.13"/>
   <path class="fil2 str2" d="M1960.83 5211.57l-80.48 -22.87m0 0l-79.76 -25.64m0 0l-78.69 -27.9m0 0l-78.08 -30.3m0 0l-76.93 -33m0 0l-75.77 -35.66m0 0l-74.84 -37.55m0 0l-73.32 -40.11m0 0l-72.26 -42.43m0 0l-70.74 -44.96m0 0l-69.37 -46.76m0 0l-67.95 -48.93m0 0l-66.04 -51.41m0 0l-64.68 -53.16m0 0l-62.86 -55.23m0 0l-61.02 -57.32"/>
   <path class="fil2 str1" d="M1947.41 5258.59l0 0m0 0l0 0m0 0l0 0m0 0l0 0m0 0l0 0m0 0l0 0m0 0l0 0m0 0l0 0m0 0l0 0m0 0l0 0m0 0l0 0m0 0l0 0m0 0l0 0m0 0l0 0m0 0l0 0m0 0l0 0m0 0l0 0m0 0l0 0m0 0l0 0m0 0l0 0m0 0l0 0m0 0l0 0m0 0l0 0m0 0l0 0m0 0l0 0m0 0l0 0m0 0l0 0m0 0l0 0m0 0l0 0m0 0l0 0m0 0l0 0m0 0l0 0m0 0l0 0m0 0l0 0m0 0l0 0m0 0l0 0m0 0l0 0m0 0l0 0m0 0l0 0m0 0l0 0m0 0l0 0m0 0l0 0m0 0l0 0m0 0l0 0m0 0l0 0m0 0l0 0m0 0l0 0m0 0l0 0m0 0l0 0m0 0l0 0m0 0l0 0m0 0l0 0m0 0l0 0m0 0l0 0m0 0l0 0m0 0l0 0m0 0l0 0m0 0l0 0m0 0l0 0m0 0l0 0m0 0l0 0m0 0l0 0m0 0l0 0m0 0l0 0m0 0l0 0m0 0l0 0m0 0l0 0m0 0l0 0m0 0l0 0m0 0l0 0m0 0l0 0m0 0l0 0m0 0l0 0m0 0l0 0m0 0l0 0m0 0l0 0m0 0l0 0m0 0l0 0m0 0l0 0m0 0l0 0m0 0l0 0m0 0l0 0m0 0l0 0m0 0l0 0m0 0l0 0m0 0l0 0m0 0l0 0m0 0l0 0m0 0l0 0m0 0l0 0m0 0l0 0m0 0l0 0m0 0l0 0m0 0l0 0m0 0l0 0m0 0l0 0m0 0l0 0m0 0l0 0m0 0l0 0"/>
   <path class="fil3 str1" d="M6802.39 2431.1l-36.33 34.37c-26.22,-25.67 -54.94,-45.14 -86.16,-58.41 -31.21,-13.27 -61.67,-19.91 -91.37,-19.91 -36.87,0 -72.01,9.03 -105.29,27.09 -33.4,18.05 -59.29,42.53 -77.56,73.53 -18.38,30.89 -27.52,63.53 -27.52,98.01 0,35.24 9.46,68.74 28.39,100.62 18.93,31.76 45.14,56.67 78.54,74.83 33.5,18.17 70.05,27.31 109.86,27.31 48.3,0 89.2,-13.6 122.59,-40.69 33.4,-27.08 53.19,-62.32 59.39,-105.51l-149.46 0 0 -45.69 202.33 0c-0.44,72.34 -21.97,129.88 -64.61,172.42 -42.75,42.53 -99.75,63.85 -171.33,63.85 -86.8,0 -155.55,-29.48 -206.24,-88.55 -38.94,-45.46 -58.41,-98 -58.41,-157.72 0,-44.27 11.2,-85.61 33.5,-123.9 22.41,-38.18 53.09,-68.09 92.03,-89.63 39.05,-21.54 83.1,-32.31 132.27,-32.31 39.81,0 77.34,7.18 112.47,21.43 35.14,14.36 69.51,37.2 102.91,68.86zm260.07 -78.54l93.55 0c52.1,0 87.46,2.18 105.95,6.42 27.95,6.31 50.58,19.9 67.98,40.9 17.52,20.88 26.22,46.66 26.22,77.23 0,25.45 -5.98,47.86 -18.06,67.11 -11.96,19.37 -29.15,33.94 -51.56,43.84 -22.3,9.9 -53.19,14.9 -92.57,15.12l168.72 217.99 -57.55 0 -168.71 -217.99 -26.98 0 0 217.99 -46.99 0 0 -468.61zm46.99 45.69l0 159.25 80.93 0.65c31.44,0 54.61,-2.94 69.62,-8.92 15.01,-5.98 26.76,-15.45 35.24,-28.5 8.38,-13.05 12.62,-27.63 12.62,-43.84 0,-15.66 -4.24,-30.02 -12.83,-42.86 -8.49,-12.83 -19.69,-21.97 -33.62,-27.52 -13.81,-5.54 -36.87,-8.26 -69.07,-8.26l-82.89 0zm489.81 -45.69l46.99 0 0 283.04c0,33.5 0.65,54.49 1.96,62.76 2.28,18.49 7.72,33.94 16.21,46.34 8.48,12.4 21.53,22.84 39.16,31.22 17.62,8.37 35.35,12.62 53.3,12.62 15.44,0 30.35,-3.27 44.6,-9.9 14.14,-6.53 26.1,-15.67 35.67,-27.41 9.58,-11.64 16.54,-25.78 21,-42.32 3.15,-11.96 4.78,-36.33 4.78,-73.31l0 -283.04 47 0 0 282.82c0,41.88 -4.14,75.71 -12.3,101.49 -8.15,25.78 -24.58,48.29 -49.05,67.33 -24.59,19.15 -54.28,28.72 -89.2,28.72 -37.86,0 -70.27,-9.03 -97.25,-27.09 -27.08,-18.05 -45.14,-41.88 -54.28,-71.68 -5.76,-18.28 -8.59,-51.13 -8.59,-98.77l0 -282.82zm566.71 0l93.44 0c53.52,0 89.74,2.28 108.45,6.96 26.76,6.64 48.62,20.13 65.59,40.68 17.08,20.45 25.57,46.23 25.57,77.24 0,31.21 -8.27,56.89 -24.91,77.23 -16.54,20.23 -39.38,33.83 -68.42,40.9 -21.32,5.11 -61.03,7.61 -119.22,7.61l-33.51 0 0 217.99 -46.99 0 0 -468.61zm46.99 45.69l0 159.25 79.41 0.97c32.09,0 55.58,-2.93 70.49,-8.81 14.9,-5.87 26.65,-15.23 35.13,-28.28 8.49,-13.05 12.73,-27.74 12.73,-43.84 0,-15.66 -4.24,-30.13 -12.73,-43.18 -8.48,-13.05 -19.8,-22.3 -33.72,-27.85 -13.92,-5.54 -36.66,-8.26 -68.42,-8.26l-82.89 0zm704 -57.44c70.92,0 130.31,23.72 178.07,71.03 47.75,47.32 71.68,105.63 71.68,174.81 0,68.64 -23.82,126.83 -71.47,174.58 -47.75,47.76 -105.84,71.69 -174.47,71.69 -69.4,0 -128.03,-23.82 -175.79,-71.36 -47.75,-47.54 -71.68,-105.08 -71.68,-172.63 0,-45.03 10.88,-86.69 32.63,-125.2 21.76,-38.4 51.45,-68.53 89.09,-90.28 37.53,-21.76 78.21,-32.64 121.94,-32.64zm2.07 45.69c-34.6,0 -67.45,9.03 -98.56,27.08 -31,18.06 -55.25,42.32 -72.77,72.88 -17.4,30.68 -26.1,64.73 -26.1,102.36 0,55.59 19.25,102.58 57.86,140.87 38.62,38.4 85.18,57.54 139.57,57.54 36.44,0 70.05,-8.81 100.94,-26.43 31,-17.62 55.15,-41.77 72.45,-72.34 17.29,-30.56 25.99,-64.5 25.99,-101.92 0,-37.2 -8.7,-70.81 -25.99,-100.84 -17.3,-30.02 -41.77,-54.06 -73.21,-72.12 -31.44,-18.05 -64.83,-27.08 -100.18,-27.08zm663.74 434.67l0 -468.61 97.25 0c70.05,0 120.96,5.66 152.61,16.86 45.47,15.99 81.04,43.51 106.61,82.89 25.57,39.27 38.4,86.04 38.4,140.43 0,46.99 -10.12,88.22 -30.46,123.9 -20.24,35.67 -46.67,62.11 -78.98,79.08 -32.41,16.97 -77.88,25.45 -136.3,25.45l-149.13 0zm45.03 -44.38l54.07 0c64.61,0 109.32,-4.03 134.34,-12.08 35.13,-11.53 62.87,-32.08 82.99,-61.89 20.13,-29.91 30.14,-66.35 30.14,-109.43 0,-45.14 -10.88,-83.87 -32.75,-115.85 -21.75,-32.08 -52.21,-54.06 -91.15,-65.91 -29.26,-8.92 -77.45,-13.38 -144.57,-13.38l-33.07 0 0 378.54zm582.61 -424.23l268.25 0 0 45.69 -221.25 0 0 146.84 219.29 0 0 45.69 -219.29 0 0 184.7 219.29 0 0 45.69 -266.29 0 0 -468.61zm673.86 0l93.55 0c52.1,0 87.46,2.18 105.95,6.42 27.95,6.31 50.58,19.9 67.98,40.9 17.52,20.88 26.22,46.66 26.22,77.23 0,25.45 -5.98,47.86 -18.06,67.11 -11.96,19.37 -29.15,33.94 -51.56,43.84 -22.3,9.9 -53.19,14.9 -92.57,15.12l168.72 217.99 -57.55 0 -168.71 -217.99 -26.98 0 0 217.99 -46.99 0 0 -468.61zm46.99 45.69l0 159.25 80.93 0.65c31.44,0 54.61,-2.94 69.62,-8.92 15.01,-5.98 26.76,-15.45 35.24,-28.5 8.38,-13.05 12.62,-27.63 12.62,-43.84 0,-15.66 -4.24,-30.02 -12.83,-42.86 -8.49,-12.83 -19.69,-21.97 -33.62,-27.52 -13.81,-5.54 -36.87,-8.26 -69.07,-8.26l-82.89 0zm488.5 -45.69l268.25 0 0 45.69 -221.25 0 0 146.84 219.29 0 0 45.69 -219.29 0 0 184.7 219.29 0 0 45.69 -266.29 0 0 -468.61zm682.45 0l218.64 468.61 -50.36 0 -73.21 -154.03 -203.08 0 -72.77 154.03 -52.22 0 221.26 -468.61 11.74 0zm-5.87 98.33l-80.6 170.57 160.88 0 -80.28 -170.57zm438.03 -98.33l46.99 0 0 422.92 180.79 0 0 45.69 -227.78 0 0 -468.61zm436.18 0l47 0 0 468.61 -47 0 0 -468.61zm295.32 468.61l0 -468.61 97.25 0c70.05,0 120.96,5.66 152.61,16.86 45.47,15.99 81.04,43.51 106.6,82.89 25.57,39.27 38.4,86.04 38.4,140.43 0,46.99 -10.12,88.22 -30.46,123.9 -20.23,35.67 -46.66,62.11 -78.97,79.08 -32.41,16.97 -77.88,25.45 -136.3,25.45l-149.13 0zm45.03 -44.38l54.07 0c64.61,0 109.32,-4.03 134.34,-12.08 35.13,-11.53 62.87,-32.08 82.99,-61.89 20.13,-29.91 30.13,-66.35 30.13,-109.43 0,-45.14 -10.87,-83.87 -32.74,-115.85 -21.75,-32.08 -52.21,-54.06 -91.15,-65.91 -29.26,-8.92 -77.45,-13.38 -144.57,-13.38l-33.07 0 0 378.54zm773.83 -424.23l218.64 468.61 -50.36 0 -73.21 -154.03 -203.08 0 -72.77 154.03 -52.22 0 221.26 -468.61 11.74 0zm-5.87 98.33l-80.6 170.57 160.88 0 -80.28 -170.57zm438.03 370.28l0 -468.61 97.25 0c70.05,0 120.96,5.66 152.61,16.86 45.47,15.99 81.04,43.51 106.6,82.89 25.57,39.27 38.4,86.04 38.4,140.43 0,46.99 -10.12,88.22 -30.46,123.9 -20.23,35.67 -46.66,62.11 -78.97,79.08 -32.41,16.97 -77.88,25.45 -136.3,25.45l-149.13 0zm45.03 -44.38l54.07 0c64.61,0 109.32,-4.03 134.34,-12.08 35.13,-11.53 62.87,-32.08 82.99,-61.89 20.13,-29.91 30.13,-66.35 30.13,-109.43 0,-45.14 -10.87,-83.87 -32.74,-115.85 -21.75,-32.08 -52.21,-54.06 -91.15,-65.91 -29.26,-8.92 -77.45,-13.38 -144.57,-13.38l-33.07 0 0 378.54zm582.6 -424.23l268.25 0 0 45.69 -221.25 0 0 146.84 219.29 0 0 45.69 -219.29 0 0 184.7 219.29 0 0 45.69 -266.29 0 0 -468.61z"/>
   <path class="fil4 str3" d="M7267.06 1958.27c-134.62,0 -259.05,-25.24 -373.3,-75.72 -114.25,-50.48 -213.44,-119.56 -297.58,-207.24 -84.13,-87.68 -149.67,-191.74 -196.61,-312.19 -46.94,-120.45 -70.41,-250.64 -70.41,-390.57 0,-141.7 23.47,-271.01 70.41,-387.91 46.94,-116.91 112.48,-216.54 196.61,-298.91 84.14,-82.36 183.33,-146.13 297.58,-191.3 114.25,-45.16 238.68,-67.75 373.3,-67.75l1046.82 0 0 337.43 -1046.82 0c-86.8,0 -166.95,15.5 -240.45,46.5 -73.51,31 -136.84,73.95 -189.98,128.86 -53.13,54.91 -94.76,120.45 -124.87,196.61 -30.11,76.17 -45.17,160.3 -45.17,252.41 0,90.34 15.06,174.47 45.17,252.41 30.11,77.94 71.74,144.8 124.87,200.6 53.14,55.79 116.47,99.63 189.98,131.52 73.5,31.88 153.65,47.82 240.45,47.82l826.29 0 0 -502.16 -871.46 0 0 -284.29 1211.55 0 0 1123.88 -1166.38 0zm3270.66 0l-488.87 -536.7 -722.69 0 0 -297.58 805.05 0c122.22,0 214.33,-33.21 276.32,-99.63 62,-66.42 93,-162.52 93,-288.28 0,-125.76 -32.33,-219.19 -96.98,-280.3 -64.65,-61.11 -155.43,-91.67 -272.34,-91.67l-1052.14 0 0 1594.16 -334.77 0 0 -1931.59 1386.91 0c109.82,0 208.13,16.39 294.92,49.16 86.8,32.76 160.3,79.7 220.53,140.81 60.22,61.11 106.28,135.06 138.16,221.86 31.88,86.79 47.82,184.21 47.82,292.26 0,161.19 -34.98,296.25 -104.95,405.18 -69.96,108.93 -167.82,187.31 -293.59,235.14l581.87 587.18 -478.25 0zm297.58 -1931.59l411.82 0 876.79 1487.88 874.13 -1487.88 387.91 0 -1113.25 1849.23c-19.49,33.65 -42.51,60.22 -69.08,79.7 -26.57,19.49 -57.57,29.23 -93,29.23 -37.19,0 -69.08,-9.74 -95.65,-29.23 -26.57,-19.48 -49.59,-46.05 -69.08,-79.7l-1110.59 -1849.23zm4171.37 1931.59l-289.61 -486.22 -913.97 0 159.41 -273.66 592.49 0 -430.42 -722.69 -876.78 1482.57 -385.25 0 1110.58 -1849.22c19.49,-33.66 42.51,-60.23 69.08,-79.71 26.57,-19.49 58.46,-29.23 95.65,-29.23 37.2,0 68.64,9.74 94.32,29.23 25.69,19.48 48.27,46.05 67.76,79.71l1113.25 1849.22 -406.51 0z"/>
   <path class="fil3 str1" d="M6329.79 3188.88l51.01 0 155.55 362.77 158.17 -362.77 51.01 0 -204.28 468.61 -10.44 0 -201.02 -468.61zm602.24 0l47 0 0 468.61 -47 0 0 -468.61zm271.89 0l93.55 0c52.1,0 87.46,2.18 105.95,6.42 27.95,6.31 50.58,19.9 67.98,40.9 17.52,20.88 26.22,46.66 26.22,77.23 0,25.45 -5.98,47.86 -18.06,67.11 -11.96,19.37 -29.15,33.94 -51.56,43.84 -22.3,9.9 -53.19,14.9 -92.57,15.12l168.72 217.99 -57.55 0 -168.71 -217.99 -26.98 0 0 217.99 -46.99 0 0 -468.61zm46.99 45.69l0 159.25 80.93 0.65c31.44,0 54.61,-2.94 69.62,-8.92 15.01,-5.98 26.76,-15.45 35.24,-28.5 8.38,-13.05 12.62,-27.63 12.62,-43.84 0,-15.66 -4.24,-30.02 -12.83,-42.86 -8.49,-12.83 -19.69,-21.97 -33.62,-27.52 -13.81,-5.54 -36.87,-8.26 -69.07,-8.26l-82.89 0zm415.47 0l0 -45.69 256.5 0 0 45.69 -104.43 0 0 422.92 -47.64 0 0 -422.92 -104.43 0zm441.47 -45.69l46.99 0 0 283.04c0,33.5 0.65,54.49 1.96,62.76 2.28,18.49 7.72,33.94 16.21,46.34 8.48,12.4 21.53,22.84 39.16,31.22 17.62,8.37 35.35,12.62 53.3,12.62 15.44,0 30.35,-3.27 44.6,-9.9 14.14,-6.53 26.1,-15.67 35.67,-27.41 9.58,-11.64 16.54,-25.78 21,-42.32 3.15,-11.96 4.78,-36.33 4.78,-73.31l0 -283.04 47 0 0 282.82c0,41.88 -4.14,75.71 -12.3,101.49 -8.15,25.78 -24.58,48.29 -49.05,67.33 -24.59,19.15 -54.28,28.72 -89.2,28.72 -37.86,0 -70.27,-9.03 -97.25,-27.09 -27.08,-18.05 -45.14,-41.88 -54.28,-71.68 -5.76,-18.28 -8.59,-51.13 -8.59,-98.77l0 -282.82zm732.55 0l218.64 468.61 -50.36 0 -73.21 -154.03 -203.08 0 -72.77 154.03 -52.22 0 221.26 -468.61 11.74 0zm-5.87 98.33l-80.6 170.57 160.88 0 -80.28 -170.57zm411.99 -98.33l46.99 0 0 422.92 180.79 0 0 45.69 -227.78 0 0 -468.61zm598 0l268.25 0 0 45.69 -221.25 0 0 146.84 219.29 0 0 45.69 -219.29 0 0 184.7 219.29 0 0 45.69 -266.29 0 0 -468.61zm837.1 0l218.64 468.61 -50.36 0 -73.21 -154.03 -203.08 0 -72.77 154.03 -52.22 0 221.26 -468.61 11.74 0zm-5.87 98.33l-80.6 170.57 160.88 0 -80.28 -170.57zm413.95 -98.33l46.99 0 0 283.04c0,33.5 0.65,54.49 1.96,62.76 2.28,18.49 7.72,33.94 16.21,46.34 8.48,12.4 21.53,22.84 39.16,31.22 17.62,8.37 35.35,12.62 53.3,12.62 15.44,0 30.35,-3.27 44.6,-9.9 14.14,-6.53 26.1,-15.67 35.67,-27.41 9.58,-11.64 16.54,-25.78 21,-42.32 3.15,-11.96 4.78,-36.33 4.78,-73.31l0 -283.04 47 0 0 282.82c0,41.88 -4.14,75.71 -12.3,101.49 -8.15,25.78 -24.58,48.29 -49.05,67.33 -24.59,19.15 -54.28,28.72 -89.2,28.72 -37.86,0 -70.27,-9.03 -97.25,-27.09 -27.08,-18.05 -45.14,-41.88 -54.28,-71.68 -5.76,-18.28 -8.59,-51.13 -8.59,-98.77l0 -282.82zm520.44 468.61l64.94 -468.61 9.68 0 190.69 384.42 189.48 -384.42 7.07 0 67.45 468.61 -45.36 0 -47 -335.47 -165.99 335.47 -12.29 0 -167.62 -338.08 -44.93 338.08 -46.12 0zm735.92 -468.61l268.25 0 0 45.69 -221.25 0 0 146.84 219.29 0 0 45.69 -219.29 0 0 184.7 219.29 0 0 45.69 -266.29 0 0 -468.61zm465.18 468.61l0 -468.61 10.12 0 311.65 358.42 0 -358.42 46.99 0 0 468.61 -10.66 0 -309.8 -355.26 0 355.26 -48.3 0zm551.01 -422.92l0 -45.69 256.5 0 0 45.69 -104.43 0 0 422.92 -47.64 0 0 -422.92 -104.43 0zm631.39 -45.69l218.64 468.61 -50.36 0 -73.21 -154.03 -203.08 0 -72.77 154.03 -52.22 0 221.26 -468.61 11.74 0zm-5.87 98.33l-80.6 170.57 160.88 0 -80.28 -170.57zm411.99 370.28l0 -468.61 97.25 0c70.05,0 120.96,5.66 152.61,16.86 45.47,15.99 81.04,43.51 106.6,82.89 25.57,39.27 38.4,86.04 38.4,140.43 0,46.99 -10.12,88.22 -30.46,123.9 -20.23,35.67 -46.66,62.11 -78.97,79.08 -32.41,16.97 -77.88,25.45 -136.3,25.45l-149.13 0zm45.03 -44.38l54.07 0c64.61,0 109.32,-4.03 134.34,-12.08 35.13,-11.53 62.87,-32.08 82.99,-61.89 20.13,-29.91 30.13,-66.35 30.13,-109.43 0,-45.14 -10.87,-83.87 -32.74,-115.85 -21.75,-32.08 -52.21,-54.06 -91.15,-65.91 -29.26,-8.92 -77.45,-13.38 -144.57,-13.38l-33.07 0 0 378.54zm747.79 -424.23l218.64 468.61 -50.36 0 -73.21 -154.03 -203.08 0 -72.77 154.03 -52.22 0 221.26 -468.61 11.74 0zm-5.87 98.33l-80.6 170.57 160.88 0 -80.28 -170.57z"/>
   <line class="fil2 str4" x1="6312.96" y1="4025.22" x2="15396" y2= "4025.22" />
   <path class="fil5" d="M12261.27 4917.6c0,79.76 24.93,164.3 67.98,224.02 39.84,55.24 102.74,102.85 174.47,120.71 108.81,27.11 282.02,31.02 389.62,-4.66 44.88,-14.88 81.36,-39.23 111.44,-69.48 16.68,-16.78 27.45,-27.51 42.69,-46.18 12.65,-15.5 24.43,-38.92 33.8,-58.25 15.97,-32.95 33.8,-99.63 33.8,-147.11l0 -555.45 -276.14 0 0 555.45c0,183.24 -301.52,194.12 -301.52,-9.53l0 -545.92 -276.14 0 0 536.4z"/>
   <path class="fil5" d="M14559.38 4927.12c0,77.91 28,162 70.24,218.59 41.68,55.85 104.2,99.7 174.78,117.23 104.29,25.91 286.04,30.5 389.35,-6.15 43.67,-15.48 81.87,-41.16 112.31,-71.78 67.19,-67.58 107.12,-153.26 107.12,-257.89l0 -545.92 -276.14 0 0 545.92c0,47.45 -15.94,84.37 -40.37,108.81 -41.3,41.3 -114.4,48.65 -171.18,29.75 -20.28,-6.75 -34.58,-14.96 -48.02,-28.17 -24.75,-24.33 -41.96,-59.32 -41.96,-107.21l0 -549.1 -276.13 0 0 545.92z"/>
   <polygon class="fil5" points="13515.06,5266.74 13791.2,5266.74 13791.2,4904.9 14137.16,4904.9 14137.16,4727.17 13791.2,4727.17 13791.2,4574.81 14194.3,4574.81 14194.3,4381.2 13515.06,4381.2 "/>
   <path class="fil5" d="M11131.25 4974.73c0,8.02 39.59,47.61 47.61,47.61l203.14 0c14.49,0 19.91,-8.56 27.8,-16.63 38.26,-39.12 26.16,-22.63 26.16,-116.68 0,-54.66 -2.82,-190.56 -0.25,-238.28 0.93,-17.24 8.13,-18.89 18.49,-29.12 71.69,-70.84 23.54,-49.99 235.68,-49.99 -10.13,-15.13 -121.75,-120.16 -143.63,-142.04 -8.61,-8.61 -39.38,-45.22 -49.99,-45.22l-365.01 0 0 590.35z"/>
   <path class="fil5" d="M10867.81 4654.16l0 361.83c0,9.71 23.89,28.65 30.94,35.71 11.89,11.89 21.45,21.45 33.33,33.33l166.64 166.63c41.76,41.77 14.4,30.95 143.63,30.95 10.76,0 135.34,-130.59 145.21,-140.45l107.91 -107.91c22.34,-22.21 20.06,-11.69 19.85,-53.16 -0.51,-96.28 -0.24,-192.78 -0.24,-289.06 0,-18.77 -1.36,-15.83 8.71,-26.22 23.32,-24.08 31.32,-14.82 93.08,-14.82 48.67,0 97.34,0 146,0 -2.67,-10.05 -32.86,-41.26 -41.25,-41.26l-193.62 0c-9.85,0 -37.42,32.21 -45.45,40.24 -14.3,14.29 -8.5,38.56 -8.5,77.2l0.09 257.18c-1.86,17.58 -68.81,76.56 -81.83,89.57 -8.09,8.1 -34.92,40.47 -45.23,40.47l-212.65 0c-8.32,0 -88.33,-82 -93.08,-87.84 -9.57,-11.75 -5.32,-68.32 -5.32,-86.73l0 -457.05c-6.71,4.49 -168.22,160.79 -168.22,171.39z"/>
   <path class="fil5" d="M11302.65 5282.61c60.31,0 120.78,-0.41 181.08,0.16 28.45,0.27 20.77,-0.46 56.17,-35.87l182.51 -182.51c8.44,-8.43 43.64,-37.89 43.64,-48.4l0 -330.09 -199.96 0c-16.81,0 -12.87,20.98 -12.72,38.06l0.02 269.82c0.14,44.84 6.19,30.31 -35.7,72.2 -17.04,17.03 -205.8,202.83 -215.04,216.63z"/>
  </g>
 </g>
</svg>
