<?xml version="1.0" encoding="UTF-8"?>
<!DOCTYPE svg PUBLIC "-//W3C//DTD SVG 1.1//EN" "http://www.w3.org/Graphics/SVG/1.1/DTD/svg11.dtd">
<!-- Creator: CorelDRAW 2018 (64 Bit) -->
<svg xmlns="http://www.w3.org/2000/svg" xml:space="preserve" width="184.49mm" height="77.6984mm" version="1.1" style="shape-rendering:geometricPrecision; text-rendering:geometricPrecision; image-rendering:optimizeQuality; fill-rule:evenodd; clip-rule:evenodd"
viewBox="0 0 18449.02 7769.84"
 xmlns:xlink="http://www.w3.org/1999/xlink">
 <defs>
  <style type="text/css">
   <![CDATA[
    .str1 {stroke:#1D5687;stroke-width:60;stroke-miterlimit:22.9256}
    .str3 {stroke:#1D5687;stroke-width:60;stroke-linecap:round;stroke-linejoin:round;stroke-miterlimit:22.9256}
    .str2 {stroke:#1D5687;stroke-width:50;stroke-linecap:round;stroke-linejoin:round;stroke-miterlimit:22.9256}
    .str0 {stroke:#1D5687;stroke-width:40;stroke-linecap:round;stroke-linejoin:round;stroke-miterlimit:22.9256}
    .fil5 {fill:none}
    .fil3 {fill:#1D5687}
    .fil2 {fill:#1D5687}
    .fil4 {fill:#339966}
    .fil1 {fill:#1D5687;fill-rule:nonzero}
    .fil0 {fill:#1D5687;fill-rule:nonzero}
   ]]>
  </style>
 </defs>
 <g id="Camada_x0020_1">
  <metadata id="CorelCorpID_0Corel-Layer"/>
  <g id="_2682455212352">
   <g>
    <path class="fil0 str0" d="M9838.28 5325.57l-36.33 34.37c-26.22,-25.67 -54.94,-45.14 -86.16,-58.41 -31.21,-13.27 -61.67,-19.91 -91.37,-19.91 -36.87,0 -72.01,9.03 -105.29,27.09 -33.4,18.05 -59.29,42.53 -77.56,73.53 -18.38,30.89 -27.52,63.53 -27.52,98.01 0,35.24 9.46,68.74 28.39,100.62 18.93,31.76 45.14,56.67 78.54,74.83 33.5,18.17 70.05,27.31 109.86,27.31 48.3,0 89.2,-13.6 122.59,-40.69 33.4,-27.08 53.19,-62.32 59.39,-105.51l-149.46 0 0 -45.69 202.33 0c-0.44,72.34 -21.97,129.88 -64.61,172.42 -42.75,42.53 -99.75,63.85 -171.33,63.85 -86.8,0 -155.55,-29.48 -206.24,-88.55 -38.94,-45.46 -58.41,-98 -58.41,-157.72 0,-44.27 11.2,-85.61 33.5,-123.9 22.41,-38.18 53.09,-68.09 92.03,-89.63 39.05,-21.54 83.1,-32.31 132.27,-32.31 39.81,0 77.34,7.18 112.47,21.43 35.14,14.36 69.51,37.2 102.91,68.86zm260.07 -78.54l93.55 0c52.1,0 87.46,2.18 105.95,6.42 27.95,6.31 50.58,19.9 67.98,40.9 17.52,20.88 26.22,46.66 26.22,77.23 0,25.45 -5.98,47.86 -18.06,67.11 -11.96,19.37 -29.15,33.94 -51.56,43.84 -22.3,9.9 -53.19,14.9 -92.57,15.12l168.72 217.99 -57.55 0 -168.71 -217.99 -26.98 0 0 217.99 -46.99 0 0 -468.61zm46.99 45.69l0 159.25 80.93 0.65c31.44,0 54.61,-2.94 69.62,-8.92 15.01,-5.98 26.76,-15.45 35.24,-28.5 8.38,-13.05 12.62,-27.63 12.62,-43.84 0,-15.66 -4.24,-30.02 -12.83,-42.86 -8.49,-12.83 -19.69,-21.97 -33.62,-27.52 -13.81,-5.54 -36.87,-8.26 -69.07,-8.26l-82.89 0zm489.81 -45.69l46.99 0 0 283.04c0,33.5 0.65,54.49 1.96,62.76 2.28,18.49 7.72,33.94 16.21,46.34 8.48,12.4 21.53,22.84 39.16,31.22 17.62,8.37 35.35,12.62 53.3,12.62 15.44,0 30.35,-3.27 44.6,-9.9 14.14,-6.53 26.1,-15.67 35.67,-27.41 9.58,-11.64 16.54,-25.78 21,-42.32 3.15,-11.96 4.78,-36.33 4.78,-73.31l0 -283.04 47 0 0 282.82c0,41.88 -4.14,75.71 -12.3,101.49 -8.15,25.78 -24.58,48.29 -49.05,67.33 -24.59,19.15 -54.28,28.72 -89.2,28.72 -37.86,0 -70.27,-9.03 -97.25,-27.09 -27.08,-18.05 -45.14,-41.88 -54.28,-71.68 -5.76,-18.28 -8.59,-51.13 -8.59,-98.77l0 -282.82zm566.71 0l93.44 0c53.52,0 89.74,2.28 108.45,6.96 26.76,6.64 48.62,20.13 65.59,40.68 17.08,20.45 25.57,46.23 25.57,77.24 0,31.21 -8.27,56.89 -24.91,77.23 -16.54,20.23 -39.38,33.83 -68.42,40.9 -21.32,5.11 -61.03,7.61 -119.22,7.61l-33.51 0 0 217.99 -46.99 0 0 -468.61zm46.99 45.69l0 159.25 79.41 0.97c32.09,0 55.58,-2.93 70.49,-8.81 14.9,-5.87 26.65,-15.23 35.13,-28.28 8.49,-13.05 12.73,-27.74 12.73,-43.84 0,-15.66 -4.24,-30.13 -12.73,-43.18 -8.48,-13.05 -19.8,-22.3 -33.72,-27.85 -13.92,-5.54 -36.66,-8.26 -68.42,-8.26l-82.89 0zm704 -57.44c70.92,0 130.31,23.72 178.07,71.03 47.75,47.32 71.68,105.63 71.68,174.81 0,68.64 -23.82,126.83 -71.47,174.58 -47.75,47.76 -105.84,71.69 -174.47,71.69 -69.4,0 -128.03,-23.82 -175.79,-71.36 -47.75,-47.54 -71.68,-105.08 -71.68,-172.63 0,-45.03 10.88,-86.69 32.63,-125.2 21.76,-38.4 51.45,-68.53 89.09,-90.28 37.53,-21.76 78.21,-32.64 121.94,-32.64zm2.07 45.69c-34.6,0 -67.45,9.03 -98.56,27.08 -31,18.06 -55.25,42.32 -72.77,72.88 -17.4,30.68 -26.1,64.73 -26.1,102.36 0,55.59 19.25,102.58 57.86,140.87 38.62,38.4 85.18,57.54 139.57,57.54 36.44,0 70.05,-8.81 100.94,-26.43 31,-17.62 55.15,-41.77 72.45,-72.34 17.29,-30.56 25.99,-64.5 25.99,-101.92 0,-37.2 -8.7,-70.81 -25.99,-100.84 -17.3,-30.02 -41.77,-54.06 -73.21,-72.12 -31.44,-18.05 -64.83,-27.08 -100.18,-27.08zm663.74 434.67l0 -468.61 97.25 0c70.05,0 120.96,5.66 152.61,16.86 45.47,15.99 81.04,43.51 106.61,82.89 25.57,39.27 38.4,86.04 38.4,140.43 0,46.99 -10.12,88.22 -30.46,123.9 -20.24,35.67 -46.67,62.11 -78.98,79.08 -32.41,16.97 -77.88,25.45 -136.3,25.45l-149.13 0zm45.03 -44.38l54.07 0c64.61,0 109.32,-4.03 134.34,-12.08 35.13,-11.53 62.87,-32.08 82.99,-61.89 20.13,-29.91 30.14,-66.35 30.14,-109.43 0,-45.14 -10.88,-83.87 -32.75,-115.85 -21.75,-32.08 -52.21,-54.06 -91.15,-65.91 -29.26,-8.92 -77.45,-13.38 -144.57,-13.38l-33.07 0 0 378.54zm582.61 -424.23l268.25 0 0 45.69 -221.25 0 0 146.84 219.29 0 0 45.69 -219.29 0 0 184.7 219.29 0 0 45.69 -266.29 0 0 -468.61zm673.86 0l93.55 0c52.1,0 87.46,2.18 105.95,6.42 27.95,6.31 50.58,19.9 67.98,40.9 17.52,20.88 26.22,46.66 26.22,77.23 0,25.45 -5.98,47.86 -18.06,67.11 -11.96,19.37 -29.15,33.94 -51.56,43.84 -22.3,9.9 -53.19,14.9 -92.57,15.12l168.72 217.99 -57.55 0 -168.71 -217.99 -26.98 0 0 217.99 -46.99 0 0 -468.61zm46.99 45.69l0 159.25 80.93 0.65c31.44,0 54.61,-2.94 69.62,-8.92 15.01,-5.98 26.76,-15.45 35.24,-28.5 8.38,-13.05 12.62,-27.63 12.62,-43.84 0,-15.66 -4.24,-30.02 -12.83,-42.86 -8.49,-12.83 -19.69,-21.97 -33.62,-27.52 -13.81,-5.54 -36.87,-8.26 -69.07,-8.26l-82.89 0zm488.5 -45.69l268.25 0 0 45.69 -221.25 0 0 146.84 219.29 0 0 45.69 -219.29 0 0 184.7 219.29 0 0 45.69 -266.29 0 0 -468.61zm682.45 0l218.64 468.61 -50.36 0 -73.21 -154.03 -203.08 0 -72.77 154.03 -52.22 0 221.26 -468.61 11.74 0zm-5.87 98.33l-80.6 170.57 160.88 0 -80.28 -170.57zm438.03 -98.33l46.99 0 0 422.92 180.79 0 0 45.69 -227.78 0 0 -468.61zm436.18 0l47 0 0 468.61 -47 0 0 -468.61zm295.32 468.61l0 -468.61 97.25 0c70.05,0 120.96,5.66 152.61,16.86 45.47,15.99 81.04,43.51 106.6,82.89 25.57,39.27 38.4,86.04 38.4,140.43 0,46.99 -10.12,88.22 -30.46,123.9 -20.23,35.67 -46.66,62.11 -78.97,79.08 -32.41,16.97 -77.88,25.45 -136.3,25.45l-149.13 0zm45.03 -44.38l54.07 0c64.61,0 109.32,-4.03 134.34,-12.08 35.13,-11.53 62.87,-32.08 82.99,-61.89 20.13,-29.91 30.13,-66.35 30.13,-109.43 0,-45.14 -10.87,-83.87 -32.74,-115.85 -21.75,-32.08 -52.21,-54.06 -91.15,-65.91 -29.26,-8.92 -77.45,-13.38 -144.57,-13.38l-33.07 0 0 378.54zm773.83 -424.23l218.64 468.61 -50.36 0 -73.21 -154.03 -203.08 0 -72.77 154.03 -52.22 0 221.26 -468.61 11.74 0zm-5.87 98.33l-80.6 170.57 160.88 0 -80.28 -170.57zm438.03 370.28l0 -468.61 97.25 0c70.05,0 120.96,5.66 152.61,16.86 45.47,15.99 81.04,43.51 106.6,82.89 25.57,39.27 38.4,86.04 38.4,140.43 0,46.99 -10.12,88.22 -30.46,123.9 -20.23,35.67 -46.66,62.11 -78.97,79.08 -32.41,16.97 -77.88,25.45 -136.3,25.45l-149.13 0zm45.03 -44.38l54.07 0c64.61,0 109.32,-4.03 134.34,-12.08 35.13,-11.53 62.87,-32.08 82.99,-61.89 20.13,-29.91 30.13,-66.35 30.13,-109.43 0,-45.14 -10.87,-83.87 -32.74,-115.85 -21.75,-32.08 -52.21,-54.06 -91.15,-65.91 -29.26,-8.92 -77.45,-13.38 -144.57,-13.38l-33.07 0 0 378.54zm582.6 -424.23l268.25 0 0 45.69 -221.25 0 0 146.84 219.29 0 0 45.69 -219.29 0 0 184.7 219.29 0 0 45.69 -266.29 0 0 -468.61z"/>
    <path class="fil1 str1" d="M10302.95 4849.82c-134.62,0 -259.05,-25.24 -373.3,-75.72 -114.25,-50.48 -213.44,-119.56 -297.58,-207.24 -84.13,-87.68 -149.67,-191.74 -196.61,-312.19 -46.94,-120.45 -70.41,-250.64 -70.41,-390.57 0,-141.7 23.47,-271.01 70.41,-387.91 46.94,-116.91 112.48,-216.54 196.61,-298.91 84.14,-82.36 183.33,-146.13 297.58,-191.3 114.25,-45.16 238.68,-67.75 373.3,-67.75l1046.82 0 0 337.43 -1046.82 0c-86.8,0 -166.95,15.5 -240.45,46.5 -73.51,31 -136.84,73.95 -189.98,128.86 -53.13,54.91 -94.76,120.45 -124.87,196.61 -30.11,76.17 -45.17,160.3 -45.17,252.41 0,90.34 15.06,174.47 45.17,252.41 30.11,77.94 71.74,144.8 124.87,200.6 53.14,55.79 116.47,99.63 189.98,131.52 73.5,31.88 153.65,47.82 240.45,47.82l826.29 0 0 -502.16 -871.46 0 0 -284.29 1211.55 0 0 1123.88 -1166.38 0zm3270.66 0l-488.87 -536.7 -722.69 0 0 -297.58 805.05 0c122.22,0 214.33,-33.21 276.32,-99.63 62,-66.42 93,-162.52 93,-288.28 0,-125.76 -32.33,-219.19 -96.98,-280.3 -64.65,-61.11 -155.43,-91.67 -272.34,-91.67l-1052.14 0 0 1594.16 -334.77 0 0 -1931.59 1386.91 0c109.82,0 208.13,16.39 294.92,49.16 86.8,32.76 160.3,79.7 220.53,140.81 60.22,61.11 106.28,135.06 138.16,221.86 31.88,86.79 47.82,184.21 47.82,292.26 0,161.19 -34.98,296.25 -104.95,405.18 -69.96,108.93 -167.82,187.31 -293.59,235.14l581.87 587.18 -478.25 0zm297.58 -1931.59l411.82 0 876.79 1487.88 874.13 -1487.88 387.91 0 -1113.25 1849.23c-19.49,33.65 -42.51,60.22 -69.08,79.7 -26.57,19.49 -57.57,29.23 -93,29.23 -37.19,0 -69.08,-9.74 -95.65,-29.23 -26.57,-19.48 -49.59,-46.05 -69.08,-79.7l-1110.59 -1849.23zm4171.37 1931.59l-289.61 -486.22 -913.97 0 159.41 -273.66 592.49 0 -430.42 -722.69 -876.78 1482.57 -385.25 0 1110.58 -1849.22c19.49,-33.66 42.51,-60.23 69.08,-79.71 26.57,-19.49 58.46,-29.23 95.65,-29.23 37.2,0 68.64,9.74 94.32,29.23 25.69,19.48 48.27,46.05 67.76,79.71l1113.25 1849.22 -406.51 0z"/>
    <path class="fil0 str0" d="M9365.68 6086.28l51.01 0 155.55 362.77 158.17 -362.77 51.01 0 -204.28 468.61 -10.44 0 -201.02 -468.61zm602.24 0l47 0 0 468.61 -47 0 0 -468.61zm271.89 0l93.55 0c52.1,0 87.46,2.18 105.95,6.42 27.95,6.31 50.58,19.9 67.98,40.9 17.52,20.88 26.22,46.66 26.22,77.23 0,25.45 -5.98,47.86 -18.06,67.11 -11.96,19.37 -29.15,33.94 -51.56,43.84 -22.3,9.9 -53.19,14.9 -92.57,15.12l168.72 217.99 -57.55 0 -168.71 -217.99 -26.98 0 0 217.99 -46.99 0 0 -468.61zm46.99 45.69l0 159.25 80.93 0.65c31.44,0 54.61,-2.94 69.62,-8.92 15.01,-5.98 26.76,-15.45 35.24,-28.5 8.38,-13.05 12.62,-27.63 12.62,-43.84 0,-15.66 -4.24,-30.02 -12.83,-42.86 -8.49,-12.83 -19.69,-21.97 -33.62,-27.52 -13.81,-5.54 -36.87,-8.26 -69.07,-8.26l-82.89 0zm415.47 0l0 -45.69 256.5 0 0 45.69 -104.43 0 0 422.92 -47.64 0 0 -422.92 -104.43 0zm441.47 -45.69l46.99 0 0 283.04c0,33.5 0.65,54.49 1.96,62.76 2.28,18.49 7.72,33.94 16.21,46.34 8.48,12.4 21.53,22.84 39.16,31.22 17.62,8.37 35.35,12.62 53.3,12.62 15.44,0 30.35,-3.27 44.6,-9.9 14.14,-6.53 26.1,-15.67 35.67,-27.41 9.58,-11.64 16.54,-25.78 21,-42.32 3.15,-11.96 4.78,-36.33 4.78,-73.31l0 -283.04 47 0 0 282.82c0,41.88 -4.14,75.71 -12.3,101.49 -8.15,25.78 -24.58,48.29 -49.05,67.33 -24.59,19.15 -54.28,28.72 -89.2,28.72 -37.86,0 -70.27,-9.03 -97.25,-27.09 -27.08,-18.05 -45.14,-41.88 -54.28,-71.68 -5.76,-18.28 -8.59,-51.13 -8.59,-98.77l0 -282.82zm732.55 0l218.64 468.61 -50.36 0 -73.21 -154.03 -203.08 0 -72.77 154.03 -52.22 0 221.26 -468.61 11.74 0zm-5.87 98.33l-80.6 170.57 160.88 0 -80.28 -170.57zm411.99 -98.33l46.99 0 0 422.92 180.79 0 0 45.69 -227.78 0 0 -468.61zm598 0l268.25 0 0 45.69 -221.25 0 0 146.84 219.29 0 0 45.69 -219.29 0 0 184.7 219.29 0 0 45.69 -266.29 0 0 -468.61zm837.1 0l218.64 468.61 -50.36 0 -73.21 -154.03 -203.08 0 -72.77 154.03 -52.22 0 221.26 -468.61 11.74 0zm-5.87 98.33l-80.6 170.57 160.88 0 -80.28 -170.57zm413.95 -98.33l46.99 0 0 283.04c0,33.5 0.65,54.49 1.96,62.76 2.28,18.49 7.72,33.94 16.21,46.34 8.48,12.4 21.53,22.84 39.16,31.22 17.62,8.37 35.35,12.62 53.3,12.62 15.44,0 30.35,-3.27 44.6,-9.9 14.14,-6.53 26.1,-15.67 35.67,-27.41 9.58,-11.64 16.54,-25.78 21,-42.32 3.15,-11.96 4.78,-36.33 4.78,-73.31l0 -283.04 47 0 0 282.82c0,41.88 -4.14,75.71 -12.3,101.49 -8.15,25.78 -24.58,48.29 -49.05,67.33 -24.59,19.15 -54.28,28.72 -89.2,28.72 -37.86,0 -70.27,-9.03 -97.25,-27.09 -27.08,-18.05 -45.14,-41.88 -54.28,-71.68 -5.76,-18.28 -8.59,-51.13 -8.59,-98.77l0 -282.82zm520.44 468.61l64.94 -468.61 9.68 0 190.69 384.42 189.48 -384.42 7.07 0 67.45 468.61 -45.36 0 -47 -335.47 -165.99 335.47 -12.29 0 -167.62 -338.08 -44.93 338.08 -46.12 0zm735.92 -468.61l268.25 0 0 45.69 -221.25 0 0 146.84 219.29 0 0 45.69 -219.29 0 0 184.7 219.29 0 0 45.69 -266.29 0 0 -468.61zm465.18 468.61l0 -468.61 10.12 0 311.65 358.42 0 -358.42 46.99 0 0 468.61 -10.66 0 -309.8 -355.26 0 355.26 -48.3 0zm551.01 -422.92l0 -45.69 256.5 0 0 45.69 -104.43 0 0 422.92 -47.64 0 0 -422.92 -104.43 0zm631.39 -45.69l218.64 468.61 -50.36 0 -73.21 -154.03 -203.08 0 -72.77 154.03 -52.22 0 221.26 -468.61 11.74 0zm-5.87 98.33l-80.6 170.57 160.88 0 -80.28 -170.57zm411.99 370.28l0 -468.61 97.25 0c70.05,0 120.96,5.66 152.61,16.86 45.47,15.99 81.04,43.51 106.6,82.89 25.57,39.27 38.4,86.04 38.4,140.43 0,46.99 -10.12,88.22 -30.46,123.9 -20.23,35.67 -46.66,62.11 -78.97,79.08 -32.41,16.97 -77.88,25.45 -136.3,25.45l-149.13 0zm45.03 -44.38l54.07 0c64.61,0 109.32,-4.03 134.34,-12.08 35.13,-11.53 62.87,-32.08 82.99,-61.89 20.13,-29.91 30.13,-66.35 30.13,-109.43 0,-45.14 -10.87,-83.87 -32.74,-115.85 -21.75,-32.08 -52.21,-54.06 -91.15,-65.91 -29.26,-8.92 -77.45,-13.38 -144.57,-13.38l-33.07 0 0 378.54zm747.79 -424.23l218.64 468.61 -50.36 0 -73.21 -154.03 -203.08 0 -72.77 154.03 -52.22 0 221.26 -468.61 11.74 0zm-5.87 98.33l-80.6 170.57 160.88 0 -80.28 -170.57z"/>
   </g>
   <path class="fil2" d="M-0.05 6917.95c1634.9,-410.93 2563.02,202.76 3920.51,585.04 1000.9,281.87 2170.85,366.39 3212.33,127.21 253.34,-58.18 512.36,-132.32 717.04,-245.48 35.66,-19.72 74.01,-47.63 75.28,-79.96 -54.52,-43.61 -64.41,-71.81 -188.16,-71.48 -130.39,0.33 -498.42,81.45 -644.64,107.95 -938.79,133.79 -2310.37,-62.84 -3040.05,-514.05 -118.4,-73.21 -283.63,-185.21 -352.6,-260.93 -134.87,-129.72 -218.57,-357.93 278.68,-127.18 275.38,127.79 420.73,251.74 706.18,285.54 326.7,52.69 542.7,-35.55 655.37,-174.5l-54.5 -17.53c-456.31,-120.89 -878.24,-367.05 -1248.37,-586.19 -481.87,-282.05 -1087.78,-434.11 -1756.91,-284.77 -877.84,137.19 -1565.34,554.44 -2079.72,1043.4 -32.7,31.08 -197.19,185.79 -200.44,212.93z"/>
   <g>
    <path id="path4563" class="fil3" d="M5181.14 3441.08c60.64,-194.3 144.88,-403.23 240.88,-597.37 30.12,-60.92 55.72,-111.32 56.87,-112 1.15,-0.67 166.37,44.88 367.14,101.21l365.03 102.41 -112.73 420.75 -112.74 420.75 -419.52 -112.41 -419.52 -112.41 34.59 -110.93z" inkscape:connector-curvature="0"/>
    <path id="path4565" class="fil3" d="M5868.97 2640.68c-154.76,-43.62 -282.45,-81.19 -283.73,-83.51 -3.34,-5.97 68.6,-114.74 137.97,-208.61 69.36,-93.87 193.89,-234.19 265.84,-299.55l51.15 -46.49 58.93 20.36c32.41,11.19 120.23,36.79 195.16,56.85l136.23 36.5 -85.22 318.06 -85.23 318.05 -54.86 -16.21c-30.16,-8.89 -181.49,-51.85 -336.24,-95.45z" inkscape:connector-curvature="0"/>
    <path id="path4567" class="fil3" d="M5247.71 2459.46c-67.43,-20.88 -172.38,-53.73 -233.22,-73.01l-110.6 -35.11 25.85 -26.29c49.99,-50.9 200.89,-181.01 261.16,-225.19 85.58,-62.72 269.65,-170.94 355.18,-208.83 39.64,-17.55 73.92,-30.94 76.14,-29.72 2.23,1.23 49,18.27 103.93,37.88 54.93,19.61 99.59,36.79 99.23,38.16 -0.37,1.37 -23.34,25.62 -51.04,53.9 -107.46,109.7 -204.84,234.02 -315.51,402.89 -43.62,66.55 -73.5,106.17 -79.26,105.06 -5.1,-1 -64.42,-18.86 -131.88,-39.71l0.02 -0.03z" inkscape:connector-curvature="0"/>
    <path id="path4569" class="fil3" d="M4350.59 3275.94c97.07,-276.99 225.76,-519.7 385.54,-727.15l32.36 -42.02 70.82 23.77c38.94,13.06 155.72,50.37 259.51,82.85 103.79,32.51 189.4,60.31 190.28,61.76 0.88,1.44 -16.05,37.78 -37.62,80.77 -52.29,104.26 -121.12,261.54 -166.83,381.23 -36.54,95.72 -103.42,290.47 -116.8,340.09l-6.77 25.12 -315.3 -84.5 -315.3 -84.5 20.11 -57.42z" inkscape:connector-curvature="0"/>
    <path id="path4571" class="fil3" d="M4243.36 4432.44c-10.4,-48.27 -23.66,-227.77 -24.31,-329.25 -1.07,-165.03 15.86,-342.27 49.9,-522.57l11.27 -59.78 315.31 84.49 315.3 84.5 -6.69 25.12c-13.27,49.78 -52.69,251.84 -68.87,352.94 -21.32,133.28 -35.27,257.49 -44.09,392.53 -3.86,59.48 -8.25,108.75 -9.72,109.47 -1.49,0.7 -86.49,-17.42 -188.92,-40.27 -102.43,-22.86 -221.82,-49.1 -265.33,-58.32l-79.1 -16.78 -4.75 -22.08z" inkscape:connector-curvature="0"/>
    <path id="path4573" class="fil3" d="M4606.15 5369.28c-128.49,-182.95 -239.96,-421.39 -301.13,-644.19l-18.34 -66.83 99.41 21.62c189.43,41.23 390.26,87.93 392.34,91.23 1.14,1.81 5.68,64.88 10.06,140.13 9.45,162.16 35.16,345.58 66.26,472.9 12.35,50.57 22.13,93.23 21.7,94.78 -0.42,1.56 -13.59,-0.46 -29.3,-4.45 -15.74,-4.01 -64.98,-13.12 -109.46,-20.21l-80.89 -12.9 -50.65 -72.08z" inkscape:connector-curvature="0"/>
    <path id="path4575" class="fil3" d="M5072.15 5452.34c-47.84,-158.77 -78.27,-334.59 -91.21,-527.29 -6.11,-91.14 -5.52,-102.41 5.59,-103.32 6.86,-0.56 161.32,36.98 343.27,83.44l330.8 84.47 -84.09 313.87 -84.1 313.87 -29.41 -4.07c-16.19,-2.24 -105.94,-23.46 -199.46,-47.13l-170.03 -43.06 -21.36 -70.78z" inkscape:connector-curvature="0"/>
    <path id="path4577" class="fil3" d="M4971.98 4613.38c0.9,-3.36 5.01,-60.08 9.16,-126.08 13.24,-210.88 45.05,-436.05 89.64,-634.44l25.49 -113.37 419.52 112.41 419.52 112.41 -113.04 421.83 -113.04 421.84 -222.63 -59.65c-122.44,-32.76 -288.69,-75.17 -369.43,-94.22 -86.85,-20.48 -146.14,-37.1 -145.19,-40.73z" inkscape:connector-curvature="0"/>
    <path id="path4579" class="fil3" d="M6169.17 4933.06l-272.36 -74.96 113 -421.77 113 -421.78 422.45 113.21 422.45 113.2 -28.2 87.53c-78.81,244.69 -211.41,563.82 -295.18,710.35l-13.33 23.34 -94.73 -27.08c-52.1,-14.91 -217.3,-60.81 -367.1,-102.04z" inkscape:connector-curvature="0"/>
    <path id="path4581" class="fil3" d="M6286.1 3405.22l113.04 -421.84 192.52 51.56c105.88,28.37 271.9,70.71 368.91,94.12l176.39 42.55 -0.06 28.04c-0.37,171.45 -43.52,501.61 -100.3,767.28l-18.49 86.57 -422.54 -113.21 -422.51 -113.21 113.04 -421.86z" inkscape:connector-curvature="0"/>
    <path id="path4583" class="fil3" d="M6533.08 2483.48l84.93 -317.02 139.6 37.39c76.78,20.57 166.89,42.78 200.29,49.34l60.7 11.96 18.96 61.43c26.32,85.26 57.35,227.81 72.7,334.18 11.52,79.69 29.26,291.34 25.58,305.07 -2.54,9.48 -82.85,-8.66 -387.41,-87.56l-300.31 -77.78 84.96 -317.01z" inkscape:connector-curvature="0"/>
    <path id="path4585" class="fil4" d="M7327.8 2935.41c-7.07,-182.38 -44.77,-445.19 -83.94,-585.08l-11.4 -40.72 28.69 7.33c15.77,4.03 65.88,13.14 111.35,20.24l82.65 12.92 57.45 81.92c100.96,143.96 191.27,323.21 254.56,505.27 29.52,84.92 59.88,191.56 55.24,194 -1.57,0.83 -89.62,-18.14 -195.69,-42.11 -106.08,-23.99 -215.95,-48.57 -244.17,-54.67l-51.33 -11.04 -3.41 -88.06z" inkscape:connector-curvature="0"/>
    <path id="path4587" class="fil4" d="M7205.48 4087.57c0.54,-8.73 11.89,-63.05 25.23,-120.72 44.08,-190.65 79.39,-443.84 92.77,-664.91l4.97 -82.1 105.56 23.58c189.95,42.48 410.37,90.51 421.03,91.78 12.95,1.52 22.35,61.12 32.25,204.8 15.53,225.52 -6.29,528.62 -49.73,690.75l-10.58 39.47 -311.23 -83.39 -311.23 -83.39 0.96 -15.87z" inkscape:connector-curvature="0"/>
    <path id="path4589" class="fil4" d="M7155.18 5223.9c-48.99,-15.99 -144.44,-46.25 -212.12,-67.25l-123.03 -38.19 51.23 -104.38c95.5,-194.58 179.17,-403.2 236.71,-590.34 17.65,-57.36 35.27,-110.72 39.17,-118.56l7.1 -14.26 311.23 83.39 311.23 83.39 -11.28 41.83c-15.03,55.71 -71.57,199.76 -114.09,290.59 -66.6,142.29 -180,330.47 -266.8,442.69l-38.4 49.67 -50.94 -14.76c-28.01,-8.13 -91.03,-27.86 -140.04,-43.84l0.03 0.02z" inkscape:connector-curvature="0"/>
    <path id="path4591" class="fil4" d="M6360.17 5883.79l-75.97 -28.22 28.64 -28.21c104.21,-102.58 237.96,-270.96 341.73,-430.21l70.47 -108.16 59.44 19.19c32.7,10.55 139.92,44.29 238.27,74.94 98.35,30.65 179.63,57.06 180.58,58.68 2.72,4.59 -120.36,121.35 -177.7,168.57 -135.03,111.2 -282.85,206.62 -427.84,276.18 -108.67,52.16 -89.3,52.37 -237.67,-2.74l0.05 -0.02z" inkscape:connector-curvature="0"/>
    <path id="path4593" class="fil3" d="M5848.67 5720.72c-91.45,-26.99 -166.89,-49.77 -167.64,-50.65 -0.76,-0.89 36.54,-143.06 82.85,-315.95l84.24 -314.34 318.85 89c321.34,89.7 361.89,102.46 359.04,113.11 -3.57,13.34 -127.35,191.16 -176.63,253.74 -66.38,84.32 -154.8,181.37 -222.84,244.6l-52.05 48.39 -29.76 -9.41c-16.38,-5.17 -104.6,-31.48 -196.05,-58.46l-0.01 -0.03z" inkscape:connector-curvature="0"/>
    <path id="path4595" class="fil3" d="M4599.3 2242.55c-23.12,-9.45 -51.43,-21.64 -62.9,-27.06l-20.85 -9.9 67.72 -57.93c193.27,-165.28 460.83,-318.67 708.86,-406.37 13.65,-4.82 116.96,-30.14 109.68,-2.91 -0.82,3.05 -43.68,29.69 -95.27,59.23 -209.93,120.21 -401.78,272.05 -563.84,446.28l-33.35 35.87 -34 -10.01c-18.7,-5.52 -52.91,-17.76 -76.05,-27.2z" inkscape:connector-curvature="0"/>
    <path id="path4597" class="fil3" d="M3890.38 3160.17c87.65,-243.63 191.09,-440.17 331.88,-630.55 56.89,-76.95 149.92,-182.33 158.85,-179.91 4.68,1.27 15.35,7.21 23.7,13.23 8.34,6.02 49.38,25.39 91.21,43.02 41.82,17.64 76.62,33.08 77.37,34.35 0.74,1.24 -17.03,27.67 -39.5,58.74 -139.69,193.05 -265.35,436.74 -353.21,685.07l-35.37 99.97 -136.59 -36.62 -136.59 -36.59 18.25 -50.71z" inkscape:connector-curvature="0"/>
    <path id="path4599" class="fil3" d="M3807.28 4307.79c-48.87,-268.43 -49.64,-540.22 -2.33,-813.49 7.52,-43.38 14.66,-82.63 15.87,-87.25 1.7,-6.43 33.95,0.11 138.58,28.16l136.35 36.55 -14.62 73.23c-49.69,248.89 -65.8,531.34 -43.97,771.14 4.91,54.01 8.71,99 8.44,100.02 -0.27,1.02 -19.9,-1.08 -43.62,-4.66 -51.57,-7.8 -152.65,-17.22 -167.71,-15.66 -7.87,0.84 -15.1,-22.68 -26.99,-88.06l0 0.02z" inkscape:connector-curvature="0"/>
    <path id="path4601" class="fil3" d="M4310.15 5372.44c-171.86,-204.11 -322.28,-466 -409.25,-712.61 -27.99,-79.32 -33.56,-74.68 70.01,-58.71 37.91,5.84 78.3,11.97 89.79,13.59 19.88,2.82 21.55,6.04 35.45,68.55 46.86,210.66 150.62,470.07 263.69,659.24 28.95,48.46 51.85,91.13 50.87,94.79 -2.32,8.66 -22.5,9.07 -25.65,8.15 -12.56,-3.67 -35.97,-26.81 -74.89,-73.03l-0.02 0.03z" inkscape:connector-curvature="0"/>
    <path id="path4603" class="fil4" d="M6725 6067.24c-18.84,-40.79 0.68,-27.45 93.56,-80.66 181.34,-103.89 374.89,-254.66 515.86,-401.88 33.08,-34.56 63.46,-65.71 67.49,-69.2 5.56,-4.81 27.17,1.44 88.48,25.61 44.64,17.59 85.93,35.67 91.77,40.16 9.37,7.18 3.93,13.94 -45,56.03 -202.24,173.9 -453.43,319.53 -710.42,411.92 -87.42,31.43 -95,32.76 -101.78,18l0.04 0.02z" inkscape:connector-curvature="0"/>
    <path id="path4605" class="fil4" d="M7707.23 5428.53c-11.87,-7.11 -55.11,-27.3 -96.09,-44.81l-74.5 -31.86 56.52 -80.76c140.97,-201.35 267.98,-450.1 336.12,-658.23 38.64,-118.09 16.6,-109.44 172.58,-67.64l133.8 35.85 -9.42 35.19c-41.41,154.58 -183.94,434.13 -313.06,614.03 -60.43,84.2 -171.33,216.33 -179.06,213.32 -2.92,-1.15 -15.02,-7.9 -26.9,-15.04l0.01 -0.05z" inkscape:connector-curvature="0"/>
    <path id="path4607" class="fil4" d="M8019.28 4305.98c0.55,-8.73 7.91,-48.94 16.39,-89.37 49.68,-237.05 63.11,-558.73 33.6,-804.27l-4.58 -38.07 66.97 9.54c36.85,5.25 85.73,9.89 108.61,10.33 22.9,0.43 42.86,1.12 44.38,1.52 11.91,3.2 48.78,257.68 54.96,379.24 9.67,190.78 -10.59,457.75 -44.29,583.46l-9.42 35.19 -133.8 -35.84c-133.37,-35.75 -133.79,-35.91 -132.82,-51.73z" inkscape:connector-curvature="0"/>
    <path id="path4609" class="fil4" d="M8021.63 3133.2c-35.71,-189.94 -142.28,-463.8 -258.95,-665.4 -35.96,-62.12 -64.98,-115.58 -61.99,-119.53 2.17,-2.87 46.69,7.83 78.44,44.19 146.86,168.22 276.46,372.03 368.13,578.83 39,88 88.85,224.67 83.13,227.97 -6.42,3.7 -140.03,-13.89 -174.85,-23.03 -25.82,-6.77 -27.5,-8.87 -33.91,-43.03z" inkscape:connector-curvature="0"/>
    <path class="fil5 str2" d="M6647.82 1682.1l0 0m0 0l0 0m0 0l0 0m0 0l0 0m0 0l0 0m0 0l0 0m0 0l0 0m0 0l0 0m0 0l0 0m0 0l0 0m0 0l0 0m0 0l0 0m0 0l0 0m0 0l0 0m0 0l0 0m0 0l0 0m0 0l0 0m0 0l0 0m0 0l0 0m0 0l0 0m0 0l0 0m0 0l0 0m0 0l0 0m0 0l0 0m0 0l0 0m0 0l0 0m0 0l0 0m0 0l0 0m0 0l0 0m0 0l0 0m0 0l0 0m0 0l0 0m0 0l0 0m0 0l0 0m0 0l0 0m0 0l0 0m0 0l0 0m0 0l0 0m0 0l0 0m0 0l0 0m0 0l0 0m0 0l0 0m0 0l0 0m0 0l0 0m0 0l0 0m0 0l0 0m0 0l0 0m0 0l0 0m0 0l0 0m0 0l0 0m0 0l0 0m0 0l0 0m0 0l0 0m0 0l0 0m0 0l0 0m0 0l0 0m0 0l0 0m0 0l0 0m0 0l0 0m0 0l0 0m0 0l0 0m0 0l0 0m0 0l0 0m0 0l0 0m0 0l0 0m0 0l0 0m0 0l0 0m0 0l0 0m0 0l0 0m0 0l0 0m0 0l0 0m0 0l0 0m0 0l0 0m0 0l0 0m0 0l0 0m0 0l0 0m0 0l0 0m0 0l0 0m0 0l0 0m0 0l0 0m0 0l0 0m0 0l0 0m0 0l0 0m0 0l0 0m0 0l0 0m0 0l0 0m0 0l0 0m0 0l0 0m0 0l0 0m0 0l0 0m0 0l0 0m0 0l0 0m0 0l0 0m0 0l0 0m0 0l0 0m0 0l0 0m0 0l0 0m0 0l0 0m0 0l0 0"/>
    <path class="fil5 str2" d="M6658.11 1641.09l0 0m0 0l0 0m0 0l0 0m0 0l0 0m0 0l0 0m0 0l0 0m0 0l0 0m0 0l0 0m0 0l0 0m0 0l0 0m0 0l0 0m0 0l0 0m0 0l0 0m0 0l0 0m0 0l0 0m0 0l0 0m0 0l0 0m0 0l0 0m0 0l0 0m0 0l0 0m0 0l0 0m0 0l0 0m0 0l0 0m0 0l0 0m0 0l0 0m0 0l0 0m0 0l0 0m0 0l0 0m0 0l0 0m0 0l0 0m0 0l0 0m0 0l0 0m0 0l0 0m0 0l0 0m0 0l0 0m0 0l0 0m0 0l0 0m0 0l0 0m0 0l0 0m0 0l0 0m0 0l0 0m0 0l0 0m0 0l0 0m0 0l0 0m0 0l0 0m0 0l0 0m0 0l0 0m0 0l0 0m0 0l0 0m0 0l0 0m0 0l0 0m0 0l0 0m0 0l0 0m0 0l0 0m0 0l0 0m0 0l0 0m0 0l0 0m0 0l0 0m0 0l0 0m0 0l0 0m0 0l0 0m0 0l0 0m0 0l0 0m0 0l0 0m0 0l0 0m0 0l0 0m0 0l0 0m0 0l0 0m0 0l0 0m0 0l0 0m0 0l0 0m0 0l0 0m0 0l0 0m0 0l0 0m0 0l0 0m0 0l0 0m0 0l0 0m0 0l0 0m0 0l0 0m0 0l0 0m0 0l0 0m0 0l0 0m0 0l0 0m0 0l0 0m0 0l0 0m0 0l0 0m0 0l0 0m0 0l0 0m0 0l0 0m0 0l0 0m0 0l0 0m0 0l0 0m0 0l0 0m0 0l0 0m0 0l0 0m0 0l0 0m0 0l0 0m0 0l0 0m0 0l0 0"/>
    <path class="fil5 str0" d="M5465.42 6094.93l0 0m0 0l0 0m0 0l0 0m0 0l0 0m0 0l0 0m0 0l0 0m0 0l0 0m0 0l0 0m0 0l0 0m0 0l0 0m0 0l0 0m0 0l0 0m0 0l0 0m0 0l0 0m0 0l0 0m0 0l0 0m0 0l0 0m0 0l0 0m0 0l0 0m0 0l0 0m0 0l0 0m0 0l0 0m0 0l0 0m0 0l0 0m0 0l0 0m0 0l0 0m0 0l0 0m0 0l0 0m0 0l0 0m0 0l0 0m0 0l0 0m0 0l0 0m0 0l0 0m0 0l0 0m0 0l0 0m0 0l0 0m0 0l0 0m0 0l0 0m0 0l0 0m0 0l0 0m0 0l0 0m0 0l0 0m0 0l0 0m0 0l0 0m0 0l0 0m0 0l0 0m0 0l0 0m0 0l0 0m0 0l0 0m0 0l0 0m0 0l0 0m0 0l0 0m0 0l0 0m0 0l0 0m0 0l0 0m0 0l0 0m0 0l0 0m0 0l0 0m0 0l0 0m0 0l0 0m0 0l0 0m0 0l0 0m0 0l0 0m0 0l0 0m0 0l0 0m0 0l0 0m0 0l0 0m0 0l0 0m0 0l0 0m0 0l0 0m0 0l0 0m0 0l0 0m0 0l0 0m0 0l0 0m0 0l0 0m0 0l0 0m0 0l0 0m0 0l0 0m0 0l0 0m0 0l0 0m0 0l0 0m0 0l0 0m0 0l0 0m0 0l0 0m0 0l0 0m0 0l0 0m0 0l0 0m0 0l0 0m0 0l0 0m0 0l0 0m0 0l0 0m0 0l0 0m0 0l0 0m0 0l0 0m0 0l0 0m0 0l0 0m0 0l0 0m0 0l0 0m0 0l0 0"/>
    <path class="fil5 str3" d="M6647.82 1682.1l69.58 19.77m0 0l68.97 22.17m0 0l68.04 24.12m0 0l67.51 26.21m0 0l66.52 28.53m0 0l65.52 30.83m0 0l64.71 32.47m0 0l63.39 34.68m0 0l62.48 36.69m0 0l61.17 38.87m0 0l59.97 40.44m0 0l58.76 42.3m0 0l57.1 44.45m0 0l55.93 45.96m0 0l54.34 47.76m0 0l52.77 49.56"/>
    <path class="fil5 str3" d="M6647.82 1682.1l-70.14 -17.67m0 0l-70.82 -15.28m0 0l-70.98 -13.13m0 0l-71.57 -11.07m0 0l-71.87 -8.54m0 0l-72.16 -6.06m0 0l-72.27 -4.24m0 0l-72.24 -1.66m0 0l-72.45 0.53m0 0l-72.41 3.09m0 0l-72.16 5.02m0 0l-72.04 7.26m0 0l-71.68 9.95m0 0l-71.41 11.84m0 0l-70.95 14.18m0 0l-70.47 16.54"/>
    <path class="fil5 str3" d="M5465.42 6094.93l70.15 17.67m0 0l70.81 15.28m0 0l70.99 13.13m0 0l71.57 11.07m0 0l71.86 8.55m0 0l72.16 6.05m0 0l72.27 4.24m0 0l72.24 1.66m0 0l72.46 -0.53m0 0l72.41 -3.08m0 0l72.16 -5.03m0 0l72.03 -7.26m0 0l71.68 -9.95m0 0l71.42 -11.84m0 0l70.94 -14.18m0 0l70.48 -16.54"/>
    <path class="fil5 str3" d="M5465.42 6094.93l-69.58 -19.77m0 0l-68.97 -22.17m0 0l-68.04 -24.12m0 0l-67.51 -26.21m0 0l-66.51 -28.53m0 0l-65.52 -30.83m0 0l-64.71 -32.47m0 0l-63.39 -34.68m0 0l-62.48 -36.68m0 0l-61.17 -38.88m0 0l-59.98 -40.44m0 0l-58.75 -42.3m0 0l-57.11 -44.45m0 0l-55.92 -45.96m0 0l-54.35 -47.76m0 0l-52.77 -49.56"/>
    <path class="fil5 str0" d="M5453.82 6135.59l0 0m0 0l0 0m0 0l0 0m0 0l0 0m0 0l0 0m0 0l0 0m0 0l0 0m0 0l0 0m0 0l0 0m0 0l0 0m0 0l0 0m0 0l0 0m0 0l0 0m0 0l0 0m0 0l0 0m0 0l0 0m0 0l0 0m0 0l0 0m0 0l0 0m0 0l0 0m0 0l0 0m0 0l0 0m0 0l0 0m0 0l0 0m0 0l0 0m0 0l0 0m0 0l0 0m0 0l0 0m0 0l0 0m0 0l0 0m0 0l0 0m0 0l0 0m0 0l0 0m0 0l0 0m0 0l0 0m0 0l0 0m0 0l0 0m0 0l0 0m0 0l0 0m0 0l0 0m0 0l0 0m0 0l0 0m0 0l0 0m0 0l0 0m0 0l0 0m0 0l0 0m0 0l0 0m0 0l0 0m0 0l0 0m0 0l0 0m0 0l0 0m0 0l0 0m0 0l0 0m0 0l0 0m0 0l0 0m0 0l0 0m0 0l0 0m0 0l0 0m0 0l0 0m0 0l0 0m0 0l0 0m0 0l0 0m0 0l0 0m0 0l0 0m0 0l0 0m0 0l0 0m0 0l0 0m0 0l0 0m0 0l0 0m0 0l0 0m0 0l0 0m0 0l0 0m0 0l0 0m0 0l0 0m0 0l0 0m0 0l0 0m0 0l0 0m0 0l0 0m0 0l0 0m0 0l0 0m0 0l0 0m0 0l0 0m0 0l0 0m0 0l0 0m0 0l0 0m0 0l0 0m0 0l0 0m0 0l0 0m0 0l0 0m0 0l0 0m0 0l0 0m0 0l0 0m0 0l0 0m0 0l0 0m0 0l0 0m0 0l0 0m0 0l0 0m0 0l0 0m0 0l0 0"/>
   </g>
   <path class="fil2" d="M12115.76 851.88c-1634.9,410.94 -2563.02,-202.75 -3920.51,-585.04 -1000.9,-281.86 -2170.85,-366.38 -3212.33,-127.2 -253.34,58.18 -512.36,132.31 -717.04,245.47 -35.66,19.73 -74.01,47.64 -75.28,79.96 54.52,43.62 64.41,71.81 188.16,71.49 130.39,-0.33 498.42,-81.45 644.64,-107.96 938.79,-133.78 2310.37,62.84 3040.05,514.05 118.4,73.21 283.64,185.22 352.6,260.94 134.87,129.72 218.57,357.92 -278.68,127.18 -275.37,-127.79 -420.72,-251.74 -706.18,-285.55 -326.7,-52.68 -542.7,35.56 -655.36,174.51l54.49 17.53c456.31,120.89 878.24,367.04 1248.37,586.18 481.87,282.06 1087.78,434.12 1756.91,284.77 877.84,-137.19 1565.34,-554.43 2079.72,-1043.39 32.7,-31.09 197.19,-185.79 200.44,-212.94z"/>
  </g>
 </g>
</svg>
