<?xml version="1.0" encoding="UTF-8"?>
<!DOCTYPE svg PUBLIC "-//W3C//DTD SVG 1.1//EN" "http://www.w3.org/Graphics/SVG/1.1/DTD/svg11.dtd">
<!-- Creator: CorelDRAW 2019 (64 Bit) -->
<svg xmlns="http://www.w3.org/2000/svg" xml:space="preserve" width="254px" height="252px" version="1.1" style="shape-rendering:geometricPrecision; text-rendering:geometricPrecision; image-rendering:optimizeQuality; fill-rule:evenodd; clip-rule:evenodd"
viewBox="0 0 72.6 72.01"
 xmlns:xlink="http://www.w3.org/1999/xlink"
 xmlns:xodm="http://www.corel.com/coreldraw/odm/2003">
 <defs>
  <style type="text/css">
   <![CDATA[
    .fil0 {fill:#353375}
   ]]>
  </style>
 </defs>
 <g id="Camada_x0020_1">
  <metadata id="CorelCorpID_0Corel-Layer"/>
  <polygon class="fil0" points="21.25,46.04 21.84,46.04 21.84,46.63 43.68,46.63 43.68,46.04 44.86,46.04 44.86,23.02 45.45,23.02 45.45,22.43 46.04,22.43 46.04,21.84 46.63,21.84 46.63,21.25 47.22,21.25 47.22,20.66 47.81,20.66 47.81,20.07 48.4,20.07 48.4,19.48 48.99,19.48 48.99,18.89 49.58,18.89 49.58,18.3 50.17,18.3 50.17,17.71 69.65,17.71 69.65,17.12 69.06,17.12 69.06,16.53 68.47,16.53 68.47,15.94 67.88,15.94 67.88,15.35 67.29,15.35 67.29,14.76 66.7,14.76 66.7,14.17 66.11,14.17 66.11,13.57 65.52,13.57 65.52,12.98 64.93,12.98 64.93,12.39 64.34,12.39 64.34,11.81 63.74,11.81 63.74,11.21 62.57,11.21 62.57,10.62 61.97,10.62 61.97,10.03 61.38,10.03 61.38,9.44 60.79,9.44 60.79,8.85 60.2,8.85 60.2,8.26 59.61,8.26 59.61,7.67 59.02,7.67 59.02,7.08 58.43,7.08 58.43,6.49 57.84,6.49 57.84,5.9 57.25,5.9 57.25,5.31 56.66,5.31 56.66,4.72 56.07,4.72 56.07,4.13 55.48,4.13 55.48,3.54 54.89,3.54 54.89,2.95 54.3,2.95 54.3,2.36 53.71,2.36 53.71,1.77 52.53,1.77 52.53,1.18 51.94,1.18 51.94,0.59 51.35,0.59 51.35,0 21.25,0 "/>
  <polygon class="fil0" points="10.63,10.62 10.04,10.62 10.04,11.21 9.44,11.21 9.44,11.81 8.85,11.81 8.85,12.39 8.26,12.39 8.26,12.98 7.67,12.98 7.67,13.57 7.08,13.57 7.08,14.17 6.49,14.17 6.49,14.76 5.9,14.76 5.9,15.35 5.31,15.35 5.31,15.94 4.72,15.94 4.72,16.53 4.13,16.53 4.13,17.12 3.54,17.12 3.54,17.71 2.95,17.71 2.95,18.3 2.36,18.3 2.36,18.89 1.77,18.89 1.77,19.48 1.18,19.48 1.18,20.07 0.59,20.07 0.59,20.66 0,20.66 0,51.35 0.59,51.35 0.59,51.94 1.18,51.94 1.18,52.53 1.77,52.53 1.77,53.12 2.36,53.12 2.36,53.71 2.95,53.71 2.95,54.3 3.54,54.3 3.54,54.89 4.13,54.89 4.13,55.48 4.72,55.48 4.72,56.07 5.31,56.07 5.31,56.66 5.9,56.66 5.9,57.25 6.49,57.25 6.49,57.84 7.08,57.84 7.08,58.43 7.67,58.43 7.67,59.02 8.26,59.02 8.26,59.61 8.85,59.61 8.85,60.2 10.04,60.2 10.04,60.79 10.63,60.79 10.63,61.97 11.21,61.97 11.21,62.56 11.81,62.56 11.81,63.15 12.99,63.15 12.99,63.74 13.57,63.74 13.57,64.33 14.17,64.33 14.17,64.93 14.76,64.93 14.76,65.51 15.35,65.51 15.35,66.1 15.94,66.1 15.94,66.7 16.53,66.7 16.53,67.29 17.12,67.29 17.12,67.88 17.71,67.88 17.71,68.47 18.3,68.47 18.3,69.06 18.89,69.06 18.89,69.65 19.48,69.65 19.48,70.24 20.07,70.24 20.07,70.83 20.66,70.83 20.66,71.42 21.25,71.42 21.25,72.01 24.2,72.01 24.2,71.42 24.79,71.42 24.79,70.83 25.38,70.83 25.38,70.24 25.97,70.24 25.97,69.65 26.56,69.65 26.56,69.06 27.15,69.06 27.15,68.47 27.74,68.47 27.74,67.88 28.33,67.88 28.33,67.29 28.92,67.29 28.92,66.7 29.51,66.7 29.51,66.1 30.1,66.1 30.1,65.51 30.69,65.51 30.69,64.93 31.28,64.93 31.28,64.33 31.87,64.33 31.87,63.74 32.46,63.74 32.46,63.15 33.05,63.15 33.05,62.56 33.64,62.56 33.64,61.97 34.23,61.97 34.23,61.38 34.82,61.38 34.82,60.79 35.41,60.79 35.41,60.2 36.6,60.2 36.6,59.61 37.18,59.61 37.18,59.02 37.77,59.02 37.77,58.43 38.37,58.43 38.37,57.84 38.96,57.84 38.96,57.25 39.55,57.25 39.55,56.66 40.14,56.66 40.14,56.07 40.73,56.07 40.73,55.48 41.32,55.48 41.32,54.89 41.91,54.89 41.91,54.3 42.5,54.3 42.5,53.71 43.09,53.71 43.09,53.12 43.68,53.12 43.68,52.53 44.27,52.53 44.27,51.94 44.86,51.94 44.86,51.35 45.45,51.35 45.45,50.76 46.04,50.76 46.04,50.17 46.63,50.17 46.63,49.58 47.22,49.58 47.22,48.99 48.4,48.99 48.4,49.58 48.99,49.58 48.99,50.17 50.17,50.17 50.17,50.76 50.76,50.76 50.76,51.35 51.35,51.35 51.35,51.94 72.6,51.94 72.6,50.17 51.94,50.17 51.94,49.58 51.35,49.58 51.35,48.99 50.76,48.99 50.76,48.4 49.58,48.4 49.58,47.81 48.99,47.81 48.99,23.61 49.58,23.61 49.58,23.02 50.76,23.02 50.76,22.43 51.35,22.43 51.35,21.84 51.94,21.84 51.94,21.25 72.6,21.25 72.6,19.48 51.35,19.48 51.35,20.07 50.76,20.07 50.76,20.66 50.17,20.66 50.17,21.25 49.58,21.25 49.58,21.84 48.99,21.84 48.99,22.43 48.4,22.43 48.4,23.02 47.81,23.02 47.81,23.61 47.22,23.61 47.22,47.81 46.63,47.81 46.63,48.4 46.04,48.4 46.04,48.99 45.45,48.99 45.45,49.58 44.86,49.58 44.86,50.17 43.68,50.17 43.68,50.76 43.09,50.76 43.09,51.35 42.5,51.35 42.5,51.94 41.91,51.94 41.91,52.53 41.32,52.53 41.32,53.12 40.73,53.12 40.73,53.71 40.14,53.71 40.14,54.3 39.55,54.3 39.55,54.89 38.96,54.89 38.96,55.48 38.37,55.48 38.37,56.07 37.77,56.07 37.77,56.66 20.07,56.66 20.07,56.07 19.48,56.07 19.48,55.48 18.89,55.48 18.89,54.89 18.3,54.89 18.3,54.3 17.71,54.3 17.71,53.71 17.12,53.71 17.12,53.12 16.53,53.12 16.53,52.53 15.94,52.53 15.94,51.94 15.35,51.94 15.35,51.35 14.76,51.35 14.76,50.76 14.17,50.76 14.17,50.17 13.57,50.17 13.57,49.58 12.99,49.58 12.99,48.4 12.4,48.4 12.4,47.81 11.21,47.81 11.21,10.03 10.63,10.03 "/>
  <polygon class="fil0" points="51.94,24.2 51.35,24.2 51.35,24.79 50.76,24.79 50.76,32.46 61.38,32.46 61.38,33.64 50.76,33.64 50.76,35.41 61.38,35.41 61.38,36.59 50.76,36.59 50.76,46.63 51.35,46.63 51.35,47.22 51.94,47.22 51.94,47.81 72.01,47.81 72.01,23.61 51.94,23.61 "/>
  <polygon class="fil0" points="47.22,52.53 46.63,52.53 46.63,53.12 46.04,53.12 46.04,53.71 45.45,53.71 45.45,54.3 44.86,54.3 44.86,54.89 44.27,54.89 44.27,55.48 43.68,55.48 43.68,56.07 43.09,56.07 43.09,56.66 42.5,56.66 42.5,57.25 41.91,57.25 41.91,57.84 41.32,57.84 41.32,58.43 40.73,58.43 40.73,59.02 40.14,59.02 40.14,59.61 39.55,59.61 39.55,60.2 38.96,60.2 38.96,60.79 38.37,60.79 38.37,61.38 37.77,61.38 37.77,61.97 37.18,61.97 37.18,62.56 36.6,62.56 36.6,63.15 36,63.15 36,63.74 35.41,63.74 35.41,64.33 34.82,64.33 34.82,64.93 34.23,64.93 34.23,65.51 33.64,65.51 33.64,66.1 33.05,66.1 33.05,66.7 32.46,66.7 32.46,67.29 31.87,67.29 31.87,67.88 31.28,67.88 31.28,68.47 30.69,68.47 30.69,69.06 30.1,69.06 30.1,69.65 29.51,69.65 29.51,70.24 28.92,70.24 28.92,70.83 28.33,70.83 28.33,71.42 27.74,71.42 27.74,72.01 51.94,72.01 51.94,71.42 52.53,71.42 52.53,70.83 53.12,70.83 53.12,70.24 53.71,70.24 53.71,69.65 54.3,69.65 54.3,69.06 54.89,69.06 54.89,68.47 55.48,68.47 55.48,67.88 56.07,67.88 56.07,67.29 56.66,67.29 56.66,66.7 57.25,66.7 57.25,66.1 57.84,66.1 57.84,65.51 58.43,65.51 58.43,64.93 59.02,64.93 59.02,64.33 59.61,64.33 59.61,63.74 60.2,63.74 60.2,63.15 60.79,63.15 60.79,62.56 61.38,62.56 61.38,61.97 61.97,61.97 61.97,61.38 62.57,61.38 62.57,60.79 63.15,60.79 63.15,60.2 63.74,60.2 63.74,59.61 64.34,59.61 64.34,59.02 64.93,59.02 64.93,58.43 65.52,58.43 65.52,57.84 66.11,57.84 66.11,57.25 66.7,57.25 66.7,56.66 67.29,56.66 67.29,56.07 67.88,56.07 67.88,55.48 68.47,55.48 68.47,54.89 69.06,54.89 69.06,54.3 69.65,54.3 69.65,53.71 50.17,53.71 50.17,53.12 49.58,53.12 49.58,52.53 48.99,52.53 48.99,51.94 47.22,51.94 "/>
  <polygon class="fil0" points="52.53,47.81 52.53,48.4 72.6,48.4 72.6,23.02 52.53,23.02 52.53,23.61 72.01,23.61 72.01,47.81 "/>
 </g>
</svg>
